<svg width="483" height="479" viewBox="0 0 483 479" fill="none" xmlns="http://www.w3.org/2000/svg">
<g filter="url(#filter0_d_8580_48457)">
<circle cx="236.5" cy="233.5" r="176.5" fill="white"/>
</g>
<circle cx="237" cy="234" r="146" fill="#0347CC"/>
<path d="M291.985 143.809L293.073 143.91C299.655 145.417 305.569 148.28 310.792 152.573C312.544 154.013 313.971 155.688 315.079 157.674C317.035 161.181 320.008 163.827 322.903 166.5C325.899 169.267 329 171.927 332.144 174.526C334.615 176.568 335.359 179.254 335.368 182.249C335.374 183.956 335.187 185.664 335.087 187.372C334.643 189.466 334.2 191.56 333.756 193.654L332.049 198.474C332.243 200.058 331.381 201.386 330.97 202.82C330.698 203.77 330.515 204.732 330.328 205.698C329.496 209.244 329.42 212.922 328.454 216.444C327.461 219.255 326.559 222.107 324.938 224.649C323.918 226.328 322.715 227.879 321.521 229.436C320.278 230.842 318.981 232.191 317.442 233.283C315.975 234.479 314.287 235.199 312.453 235.607C310.135 236.026 308.42 234.595 306.534 233.686C303.455 232.288 300.569 230.493 297.414 229.248C293.635 227.649 290.074 225.558 286.161 224.257C284.201 223.669 282.39 222.708 280.453 222.05C278.885 221.518 277.891 220.253 277.297 218.698C276.513 216.646 276.149 214.511 276.012 212.327C275.711 207.752 276.332 203.206 276.391 198.643C276.41 198.043 276.401 197.44 276.541 196.85C277.073 194.271 276.931 191.647 276.693 189.08C276.525 187.279 276.496 185.446 276.124 183.662C275.986 180.71 275.504 177.82 274.541 175.019C274.163 171.982 272.998 169.232 271.454 166.623C267.71 160.363 261.975 157.039 255.042 155.472C252.867 154.98 250.672 154.626 248.443 154.494C247.659 154.231 246.849 154.275 246.041 154.293C245.314 154.275 244.576 154.33 243.896 153.986C243.216 153.159 243.994 152.806 244.474 152.497C245.726 151.694 246.903 150.762 248.287 150.177C250.777 149.03 253.094 147.537 255.635 146.487C258.424 145.33 261.28 144.431 264.314 144.21C265.361 144.045 266.446 144.244 267.472 143.872C267.904 143.774 268.34 143.716 268.783 143.707C271.104 143.309 273.466 143.375 275.793 143.048C278.069 142.872 280.344 142.824 282.62 143.053C282.731 143.08 282.842 143.107 282.953 143.134C283.405 143.277 283.855 143.289 284.3 143.106C286.049 143.587 287.874 142.939 289.619 143.464C289.704 143.572 289.801 143.583 289.908 143.498C290.56 143.869 291.327 143.472 291.985 143.809Z" fill="#FEFEFE"/>
<path d="M174.374 244.242C175.177 244.111 175.604 243.713 175.652 242.755C175.793 239.966 176.58 237.323 177.728 234.787C178.745 232.538 179.119 230.201 179.247 227.722C179.442 223.937 180.466 220.367 183.099 217.496C182.944 217.505 182.789 217.51 182.634 217.515C182.542 217.518 182.45 217.521 182.358 217.524C180.031 217.619 179.572 217.976 179.095 220.326C178.808 221.741 178.585 223.167 178.363 224.593C178.151 225.951 177.939 227.308 177.672 228.657C177.158 231.242 176.543 233.805 175.362 236.15C174.06 238.733 173.578 241.321 174.419 244.113C174.403 244.156 174.388 244.199 174.374 244.242Z" fill="#FDFEFE"/>
<path fill-rule="evenodd" clip-rule="evenodd" d="M178.19 178.821C177.918 180.924 177.646 183.026 176.863 185.027C176.647 186.278 176.271 187.476 175.683 188.604C175.49 189.976 175.047 191.271 174.484 192.53C173.642 192.904 173.467 193.702 173.302 194.473C172.503 198.217 170.811 201.533 168.559 204.599C166.724 207.097 165.044 209.713 163.494 212.386C163.421 212.513 163.347 212.639 163.274 212.765C161.733 215.414 160.151 218.132 160.916 221.466C160.988 222.748 161.583 223.811 162.178 224.876C162.447 225.355 162.715 225.834 162.935 226.332C165.67 232.523 164.91 236.034 160.925 240.389C159.958 241.446 158.864 242.355 157.772 243.262C156.9 243.986 156.029 244.71 155.223 245.508C154.15 246.916 152.904 248.147 151.512 249.238C151.438 249.296 151.362 249.353 151.286 249.409C150.745 249.814 150.188 250.231 150.325 251.08C149.99 251.797 149.419 252.296 148.848 252.794C148.563 253.043 148.278 253.291 148.023 253.567C148.133 254.18 147.752 254.458 147.372 254.736C147.105 254.93 146.839 255.125 146.741 255.435C146.794 255.658 146.591 255.937 146.388 256.216C145.984 256.77 145.581 257.323 147.181 257.437C147.815 257.788 148.504 258.015 149.193 258.242C150.183 258.568 151.172 258.894 152.002 259.589C152.683 260.161 153.531 260.316 154.403 260.331C154.637 260.328 154.871 260.324 155.105 260.319C157.724 260.267 160.343 260.215 162.567 262.043C165.463 262.179 168.296 262.516 170.668 264.434C170.755 264.505 170.754 264.503 170.747 264.487C170.738 264.467 170.719 264.423 170.858 264.474C171.486 264.382 172.099 264.182 172.713 263.983C173.997 263.564 175.28 263.146 176.692 263.72C179.272 264.613 181.76 265.581 182.928 268.414C183.285 269.281 184.241 269.434 185.163 269.256C185.45 269.173 185.738 269.04 186.027 268.907C186.874 268.517 187.727 268.124 188.595 268.974C189.946 270.297 191.471 270.625 193.237 270.21C196.03 270.132 198.724 270.422 200.902 272.438C201.686 273.164 202.458 272.843 203.25 272.507C203.866 272.39 204.481 272.236 205.096 272.083C207.351 271.52 209.607 270.957 211.928 272.183C212.875 272.889 213.843 272.936 214.864 272.327C216.661 271.256 218.486 271.245 220.288 272.295C221.396 272.939 222.401 272.892 223.359 272.031C224.304 271.181 225.445 270.994 226.664 271.024C227.593 271.047 228.517 270.967 229.44 270.887C229.954 270.843 230.469 270.798 230.983 270.771C232.15 270.711 233.298 270.516 234.444 270.322C235.694 270.11 236.941 269.899 238.208 269.862C240.916 269.782 241.851 270.742 241.496 273.43C241.227 275.462 241.189 277.487 241.187 279.522C241.2 279.676 241.207 279.833 241.214 279.992C241.251 280.828 241.288 281.682 242.214 282.097C243.212 282.544 243.964 281.986 244.708 281.434C244.818 281.353 244.928 281.271 245.038 281.193C246.29 280.308 246.97 279.089 247.245 277.611C247.239 275.882 247.349 274.155 247.46 272.428C247.643 269.581 247.825 266.733 247.484 263.872C246.815 258.277 248.204 253.711 253.491 250.658C257.092 248.579 259.542 245.24 261.087 241.358C261.588 240.098 262.215 239.003 263.2 238.094C264.861 236.431 266.828 235.235 268.971 234.308C271.887 233.003 274.915 232.451 278.1 232.97C280.781 233.202 283.272 234.097 285.763 234.993C286.706 235.332 287.649 235.671 288.602 235.974C290.611 236.698 292.557 237.57 294.501 238.448C295.269 238.734 295.972 239.148 296.674 239.563C297.476 240.035 298.277 240.508 299.174 240.79C300.705 240.905 301.776 240.339 302.178 238.773C302.291 238.684 302.404 238.594 302.516 238.503C302.755 238.31 302.995 238.117 303.246 237.941C305.359 236.473 305.313 235.686 303.025 234.536C301.719 233.879 300.409 233.23 299.099 232.581C298.539 232.304 297.979 232.026 297.419 231.748C295.782 231.101 294.144 230.453 292.506 229.805C290.872 229.158 289.237 228.512 287.602 227.865C286.892 227.645 286.184 227.418 285.475 227.191C283.885 226.682 282.295 226.172 280.683 225.743C277.24 224.827 275.169 222.599 274.152 219.279C273.018 215.581 272.857 211.786 273.067 207.957C272.952 205.733 273.125 203.523 273.299 201.312C273.373 200.363 273.448 199.413 273.499 198.462L273.782 189.784C273.393 188.22 273.39 186.626 273.388 185.032C273.388 184.903 273.387 184.773 273.387 184.643C273.156 184.31 273.173 183.939 273.191 183.567C273.205 183.253 273.219 182.939 273.083 182.647C273.075 182.511 273.067 182.376 273.059 182.24C273.051 182.108 273.042 181.975 273.034 181.842C272.334 178.818 271.634 175.793 270.933 172.769C270.862 172.617 270.791 172.465 270.72 172.312C269.776 170.287 268.832 168.262 267.564 166.408C264.845 163.018 261.361 160.782 257.184 159.655C247.255 156.975 237.229 157.28 227.347 159.525C221.017 160.962 215.282 160.348 209.697 157.257L209.656 157.235C207.956 156.33 206.257 155.425 204.558 154.52C204.161 154.383 203.767 154.237 203.372 154.091C201.587 153.43 199.802 152.769 197.826 152.902C197.515 152.95 197.204 152.995 196.893 153.041C196.233 153.137 195.572 153.234 194.915 153.352C189.839 154.267 185.315 156.004 183.192 161.286L180.045 170.049C179.672 171.669 179.299 173.29 178.926 174.911C178.759 175.639 178.591 176.367 178.424 177.094C178.339 177.669 178.264 178.245 178.19 178.821ZM189.557 171.469C191.974 160.576 204.568 160.069 210.086 164.52C210.212 164.621 210.292 164.779 210.372 164.937C210.409 165.011 210.446 165.085 210.488 165.153C211.834 166.616 212.608 168.341 212.847 170.31C213.463 172.675 213.194 175.01 212.714 177.337C212.696 177.51 212.655 177.707 212.588 177.93C212.567 179.66 212.291 181.35 211.777 183.001C211.798 184.525 211.459 185.99 211.051 187.444C210.929 189.448 210.623 191.412 209.79 193.263C208.667 197.364 206.199 200.174 201.993 201.242C201.606 201.34 201.219 201.44 200.832 201.54C198.056 202.258 195.277 202.977 192.381 203.069C192.107 203.088 191.833 203.11 191.559 203.132C189.829 203.273 188.099 203.414 186.43 202.663C184.213 202.087 182.257 201.101 180.905 199.161C180.92 197.322 182.532 195.787 184.841 195.405C185.022 195.47 185.194 195.559 185.356 195.669C188.35 197.689 188.356 197.687 188.751 194.228C188.795 193.843 188.865 193.468 189.109 193.148C188.282 190.757 189.45 187.098 191.722 185.004L191.733 184.998C191.73 184.964 191.734 184.933 191.748 184.906C192.045 184.314 192.337 183.72 192.628 183.125L192.629 183.125L192.631 183.121C193.847 180.642 195.064 178.163 196.672 175.897L196.701 175.886C196.788 173.285 197.728 171.024 199.534 169.109L199.581 169.082C199.022 168.427 198.433 168.158 197.612 168.923C197.168 169.337 196.604 169.646 195.97 169.754C195.556 172.187 195.055 174.586 193.361 176.511L193.365 176.518C192.912 179.657 191.929 182.581 189.876 185.07C187.972 185.48 186.581 186.674 185.189 187.868C184.553 188.414 183.917 188.96 183.232 189.431C183.079 189.536 182.932 189.659 182.784 189.782C182.189 190.279 181.6 190.771 180.713 190.024C181.519 188.453 182.411 186.928 183.302 185.403C184.599 183.185 185.896 180.967 186.929 178.606L186.93 178.605C187.36 177.438 187.79 176.271 188.22 175.103L188.266 174.976C188.697 173.807 189.127 172.638 189.558 171.47L189.557 171.469ZM235.555 171.781C236.458 171.157 237.365 170.532 238.648 171.133L238.649 171.133C238.72 172.095 238.19 172.762 237.66 173.429C237.264 173.926 236.868 174.423 236.723 175.044L236.722 175.044C235.77 176.271 234.942 177.574 234.32 179.002C233.916 179.656 233.513 180.31 233.109 180.964C232.703 181.622 232.298 182.28 231.892 182.938L231.891 182.938C230.867 184.398 230.086 185.973 229.637 187.705L229.638 187.705C229.104 189.242 228.749 190.81 228.836 192.452L228.836 192.452C228.637 193.902 228.638 195.353 228.822 196.805C228.677 197.841 228.856 198.857 229.035 199.873C229.176 200.675 229.317 201.477 229.299 202.29C229.236 202.529 229.207 202.81 229.216 203.14L229.216 203.142L229.216 203.142L229.216 203.142C227.673 203.721 226.925 202.817 226.178 201.913L226.178 201.913C225.954 201.642 225.729 201.371 225.484 201.14L225.483 201.139C225.377 199.557 225.271 197.975 225.166 196.393L225.14 196.002C224.985 195.688 224.997 195.351 225.009 195.013C225.022 194.651 225.034 194.289 224.843 193.957L224.788 193.244L224.789 193.244C224.688 191.011 225.117 188.849 225.547 186.687C225.689 185.972 225.831 185.257 225.953 184.54C226.018 184.323 226.085 184.106 226.152 183.89C226.299 183.415 226.447 182.941 226.568 182.459C226.992 180.777 226.322 179.363 224.872 179.004C223.18 178.585 222.005 179.314 221.492 180.916C221.202 181.821 221.011 182.757 220.82 183.694C220.735 184.109 220.651 184.524 220.557 184.937C220.525 185.075 220.492 185.213 220.459 185.35C219.78 188.206 219.1 191.06 219.721 194.035L219.72 194.035C219.732 194.303 219.745 194.571 219.757 194.839C219.901 195.141 219.888 195.466 219.876 195.792C219.861 196.156 219.847 196.52 220.052 196.852C220.103 197.474 220.078 198.103 220.052 198.731C220.003 199.951 219.954 201.17 220.462 202.348L220.464 202.348L220.463 202.348C221.131 205.163 223.114 206.796 225.556 208.018C228.807 209.914 232.471 210.377 236.08 210.832L236.231 210.852C240.329 211.369 244.444 211.341 248.155 209.022L248.155 209.022C250.217 208.462 251.73 207.176 252.899 205.435V205.435C254.198 204.277 254.999 202.785 255.717 201.236C256.574 200.188 257.215 199.014 257.737 197.77L257.737 197.77C258.721 196.373 259.591 194.915 260.141 193.285L260.14 193.285C260.956 192.089 261.469 190.778 261.638 189.337L261.638 189.336L261.639 189.337C262.215 187.631 262.606 185.908 262.122 184.104L262.122 184.103C262.236 182.746 261.996 181.441 261.526 180.172L261.527 180.172C260.901 177.534 259.7 175.182 258.005 173.074L258.004 173.074L258.004 173.074C256.104 169.963 253.471 167.654 250.214 166.063C242.813 162.449 235.101 165.122 230.239 168.931C229.145 169.788 228.808 170.97 229.543 172.271C230.212 173.455 231.244 173.829 232.556 173.545C232.987 173.451 233.323 173.197 233.656 172.946C233.898 172.763 234.139 172.582 234.413 172.465C234.81 172.295 235.182 172.038 235.555 171.781ZM173.381 249.827C168.55 247.835 166.744 242.106 168.54 237.754C171.095 231.561 172.346 225.131 173.476 218.599C174.366 213.451 177.531 211.284 182.76 211.661C183.016 211.679 183.272 211.695 183.529 211.71C184.777 211.785 186.029 211.861 187.23 212.282L187.23 212.283L187.23 212.283C187.34 212.306 187.45 212.33 187.56 212.353C189.907 212.856 192.253 213.359 194.356 214.608C195.978 215.063 197.46 215.789 198.748 216.886C200.79 218.132 202.351 219.768 203.019 222.133C205.236 228.973 201.418 233.811 197.446 238.51C196.449 239.691 195.26 240.709 194.07 241.728C193.528 242.192 192.986 242.657 192.461 243.136C190.411 245.042 188.147 246.637 185.611 247.834C183.95 248.974 182.163 249.829 180.181 250.246L180.181 250.247C177.845 251.236 175.554 251.48 173.381 249.827L173.381 249.825L173.381 249.827Z" fill="#FDFEFE"/>
<path d="M142.515 291.416C142.415 290.825 142.536 290.507 143.222 290.8C144.262 291.244 145.326 291.477 146.439 291.067C147.438 290.573 147.649 291.494 148.025 292.003C148.703 292.921 149.462 293.679 150.637 293.884C152.578 294.356 154.498 293.822 156.426 293.772C157.499 293.928 158.169 294.597 158.656 295.513C159.15 296.44 159.692 297.341 160.387 298.135C161.574 299.49 162.946 300.153 164.745 299.32C165.594 298.926 166.493 298.762 167.429 299.004C167.876 299.137 168.292 299.362 168.579 299.712C171.076 302.754 174.493 303.788 178.216 304.168C181.612 304.357 185.048 304.923 188.212 303.059C189.127 302.237 188.921 301.085 189.094 300.044C189.194 299.623 189.392 299.277 189.815 299.106C192.378 299.061 194.606 299.552 195.687 302.315C196.218 303.673 197.398 304.422 198.799 304.787C202.146 305.66 205.122 304.999 207.679 302.627C209.54 300.66 210.97 300.366 213.218 301.486C216.615 303.179 219.039 302.345 220.7 298.908C221.726 296.533 221.986 296.421 224.327 297.352C226.979 298.406 229.642 297.271 231.151 294.438C231.385 293.966 231.593 293.483 231.832 293.014C232.28 292.134 232.909 291.928 233.761 292.481C234.202 292.767 234.644 293.056 235.127 293.268C237.911 294.491 240.46 293.369 241.425 290.501C241.804 289.374 241.938 288.192 242.209 287.04C242.357 286.658 242.604 286.323 242.952 286.14C245.723 284.684 247.984 282.626 250.256 280.491C251.709 279.126 254.019 279.061 255.943 278.41C256.867 278.097 257.862 277.949 258.846 277.832C261.123 277.41 263.418 277.102 265.698 276.707C267.458 276.474 269.169 276.029 270.856 275.493C274.648 274.287 277.157 271.321 277.136 267.138C277.105 261.307 279.174 256.264 282.053 251.412C284.075 248.126 285.724 244.621 287.921 241.438C288.366 240.792 288.721 240.056 289.658 240.018C291.788 240.482 293.629 241.668 295.647 242.416C299.337 244.334 299.586 244.943 296.968 248.097C293.55 252.214 292.352 256.869 292.047 262.143C291.706 268.023 291.912 273.854 292.164 279.708C292.084 282.585 292.477 285.484 291.748 288.328C291.522 289.212 291.407 290.157 290.478 290.658C289.669 293.585 287.992 296.127 286.822 298.894C285.6 301.88 283.533 304.36 281.912 307.108C279.972 310.025 277.593 312.541 274.895 314.763C272.369 316.843 269.395 317.721 266.197 318.01C264.144 318.241 262.088 318.134 260.032 318.119C259.225 318.082 258.42 318.169 257.613 318.138C256.147 318.126 254.673 317.934 253.227 318.352C249.892 318.616 246.542 318.556 243.207 318.918C238.781 319.399 234.624 320.786 230.507 322.36C227.653 323.287 224.758 324.048 221.777 324.456C219.421 324.972 217.033 324.906 214.646 324.859C208.075 324.757 201.507 324.938 194.938 324.914C193.888 324.91 192.835 324.952 191.794 324.764C188.913 324.286 185.98 324.323 183.091 323.932C182.342 323.724 181.583 323.576 180.797 323.642C180.238 323.636 179.683 323.587 179.137 323.462C175.743 323.09 172.362 322.627 169.01 321.98C168.194 321.822 167.286 321.808 166.704 321.039C159.24 319.055 154.316 314.014 150.489 307.623C147.385 302.438 145.224 296.793 142.515 291.416Z" fill="#FEFEFE"/>
<path d="M147.111 267.958C146.606 268.712 146.017 269.423 145.617 270.229C145.042 271.384 144.325 271.573 143.306 270.84C140.958 269.012 140.96 269.013 142.466 266.292C142.713 265.846 142.932 265.385 143.164 264.931C144.367 263.114 145.108 260.75 147.958 260.883C149.266 260.456 150.131 261.267 150.756 262.142C151.361 262.987 150.587 263.775 150.059 264.389C149.052 265.56 148.58 267.174 147.111 267.958Z" fill="#FDFDFE"/>
<path d="M143.62 275.608C144.089 275.834 144.541 276.112 145.031 276.276C146.032 276.611 146.454 277.101 146.228 278.286C145.823 280.408 145.922 282.577 146.09 284.732C146.247 285.157 146.126 285.638 146.375 286.049C146.817 286.778 147.046 287.594 146.136 288.053C145.165 288.543 144.386 288.12 143.963 287.108C143.354 286.127 143.005 285.047 142.775 283.924C142.994 281.145 142.412 278.286 143.62 275.608Z" fill="#FDFDFE"/>
<path d="M140.401 280.363C140.201 280.814 139.961 281.721 139.688 280.434C139.028 277.329 138.261 274.229 138.539 271.007C140.758 272.163 141.672 273.802 140.754 276.326C140.291 277.599 140.278 278.995 140.401 280.363Z" fill="#F2F5FB"/>
<path d="M149.977 278.065C151.651 278.57 153.936 278.59 154.829 279.716C155.724 280.844 155.211 283.075 155.35 284.82C155.475 286.384 155.709 287.934 156.225 289.425C156.498 290.215 156.435 290.817 155.49 291.033C155.36 291.018 155.229 290.989 155.1 290.991C149.994 291.074 150.481 291.84 149.736 286.243C149.376 283.544 149.184 280.769 149.977 278.065Z" fill="#FDFEFE"/>
<path d="M155.48 269.256C155.207 269.696 154.9 270.118 154.664 270.577C152.772 274.263 152.776 274.265 148.803 272.735C148.493 272.393 148.672 272.022 148.739 271.657C150.627 268.808 152.458 265.917 154.78 263.384C155.224 263.294 155.669 263.124 156.111 263.13C157.197 263.143 158.703 262.824 159.205 263.664C159.657 264.42 158.141 265.029 157.62 265.812C156.871 266.94 155.942 267.95 155.48 269.256Z" fill="#FDFDFE"/>
<path d="M183.848 216.716C181.371 220.7 179.741 224.92 179.924 229.726C179.981 231.245 179.396 232.691 178.76 234.076C177.345 237.154 176.521 240.325 176.431 243.772C176.372 246.014 175.192 243.779 174.547 243.939C173.55 242.198 173.17 240.304 174.038 238.486C176.729 232.853 177.801 226.824 178.744 220.735C179.377 216.653 179.802 216.4 183.848 216.716Z" fill="#FDFDFE"/>
<path d="M268.65 272.496C265.99 272.998 263.33 273.501 260.67 274.004C258.207 274.065 255.81 274.503 253.493 275.329C252.752 275.593 252.062 275.949 251.278 275.526C251.231 270.217 251.169 264.909 251.142 259.6C251.129 257.162 252.54 255.573 254.49 254.402C258.184 252.183 260.844 248.98 263.227 245.478C264.198 244.051 264.382 242.318 265.221 240.854C266.942 239.847 268.374 238.392 270.232 237.595C272.904 236.562 275.664 236.17 278.517 236.454C280.079 236.921 281.636 237.407 283.205 237.851C284.697 238.274 285.115 238.985 284.197 240.412C283.134 242.063 282.232 243.818 281.26 245.527C278.518 250.757 274.811 255.556 274.002 261.648C273.813 263.076 273.656 264.523 273.668 265.96C273.696 269.483 272.056 271.648 268.65 272.496Z" fill="#FEFEFE"/>
<path d="M223.529 292.233C222.893 290.192 223.353 288.094 223.206 286.028C224.865 285.751 226.548 285.571 228.176 285.169C229.817 284.763 230.475 285.217 230.219 286.916C230.173 287.227 230.265 287.559 230.293 287.88C230.007 289.842 229.814 291.824 229.015 293.673C226.42 296.38 225.107 296.035 223.529 292.233Z" fill="#FDFDFE"/>
<path d="M219.53 283.4C217.971 283.333 216.402 283.128 214.855 283.234C213.144 283.35 212.986 282.66 213.491 281.319C213.601 281.028 213.571 280.683 213.605 280.362C214.153 278.648 214.7 276.934 215.248 275.22C215.93 273.793 217.205 273.766 218.419 274.098C219.794 274.475 220.533 275.597 220.742 276.985C220.828 277.554 220.69 278.156 220.654 278.743C219.999 280.227 219.934 281.855 219.53 283.4Z" fill="#FDFDFD"/>
<path d="M223.951 279.572C224.158 278.046 224.383 276.522 224.563 274.993C224.681 273.987 225.109 273.59 226.21 273.529C229.015 273.373 229.008 273.295 229.022 276.149C229.028 277.533 229.044 278.916 229.056 280.299C227.795 280.774 226.533 281.248 225.272 281.724C224.065 282.179 223.212 282.263 223.929 280.527C224.042 280.252 223.949 279.892 223.951 279.572Z" fill="#FCFCFD"/>
<path d="M239.464 285.506C239.396 286.753 239.422 288.015 239.228 289.242C239.077 290.204 238.759 291.285 237.487 291.302C236.324 291.317 235.286 290.943 234.717 289.772C234.055 288.408 234.196 286.947 234.153 285.506C234.208 283.739 235.751 284.08 236.742 283.773C239.204 283.011 239.221 283.066 239.464 285.506Z" fill="#FCFCFD"/>
<path d="M238.913 275.65C238.913 276.435 238.885 277.222 238.92 278.005C238.961 278.923 238.678 279.401 237.657 279.585C234.225 280.204 234.186 280.201 234.391 276.701C234.441 275.853 234.441 275 234.406 274.151C234.373 273.323 234.63 272.896 235.514 272.639C238.937 271.646 238.937 271.615 238.913 275.65Z" fill="#FCFCFD"/>
<path d="M193.498 176.378C194.598 174.087 195.019 171.526 196.3 169.306C197.355 168.335 198.478 167.483 199.936 167.187C200.555 167.786 199.639 168.251 199.843 168.787C198.739 171.095 197.775 173.458 197.004 175.899C195.571 179.019 193.916 182.02 192.139 184.956C190.385 187.321 189.34 189.926 189.452 192.921C189.085 194.411 189.56 195.906 189.468 197.504C187.682 197.298 186.201 196.64 185.047 195.299C184.532 193.96 185.258 192.895 185.847 191.82C187.184 189.381 188.553 186.961 189.908 184.533C191.673 182.065 192.509 179.188 193.498 176.378Z" fill="#FDFDFE"/>
<path d="M186.433 300.144C186.547 301.107 186.287 301.606 185.172 301.826C182.508 302.353 179.888 301.925 177.251 301.769C175.78 301.252 174.201 301.069 172.827 300.247C169.624 298.332 169.367 296.951 171.609 293.416C171.599 292.123 172.594 291.338 173.196 290.368C174.055 288.985 174.982 287.645 175.675 286.165C177.311 283.926 178.785 281.56 180.747 279.57C182.446 277.196 184.144 274.821 185.843 272.447C186.296 271.967 186.686 271.753 186.738 272.693C186.762 273.13 186.74 273.569 186.738 274.007C186.95 277.061 186.168 280.05 186.144 283.089C186.138 283.932 186.189 284.799 185.581 285.507C185.31 290.418 185.602 295.297 186.433 300.144Z" fill="#FEFEFE"/>
<path d="M172.457 268.086C173.549 266.357 175.119 266.298 176.857 266.827C180.462 268.349 181.842 272.871 179.678 276.096C179.464 276.414 179.118 276.659 179.196 277.112C178.287 279.496 177.801 279.789 175.195 279.538C173.013 279.107 170.778 279.359 168.582 278.955C165.658 278.415 165.336 277.787 167.037 275.309C167.481 274.662 167.898 273.991 168.687 273.698C170.117 271.943 171.334 270.047 172.457 268.086Z" fill="#FEFEFE"/>
<path d="M156.591 275.221C156.77 274.567 156.948 273.912 157.127 273.258C158.868 270.347 160.295 267.184 163.416 265.372C163.548 265.335 163.679 265.298 163.811 265.261C164.727 265.068 165.642 265.051 166.557 265.271C168.547 267.107 168.569 267.416 166.923 270.361C165.916 272.956 164.264 275.115 162.368 277.115C160.215 277.176 157.967 277.526 156.591 275.221Z" fill="#FEFEFE"/>
<path d="M192.621 294.584C191.954 295.325 191.382 295.949 191.012 294.324C190.578 292.421 189.988 290.554 189.466 288.672C189.077 288.396 188.781 288.038 188.667 287.578C187.941 284.664 187.973 281.719 188.371 278.768C188.433 278.31 188.658 277.895 189.022 277.579C189.162 274.46 190.879 272.842 193.895 272.46C194.48 272.543 195.066 272.619 195.65 272.711C198.901 273.225 199.549 273.862 200.184 277.149C199.972 279.389 200.145 281.696 199.018 283.774C198.232 285.457 197.676 287.252 196.616 288.805C195.701 290.178 195.127 291.747 194.148 293.085C193.717 293.674 193.332 294.29 192.621 294.584Z" fill="#FEFEFE"/>
<path d="M208.884 285.105C207.156 286.052 205.459 285.172 203.761 284.981C203.161 284.914 203.304 284.294 203.355 283.85C203.458 282.951 203.578 282.052 203.691 281.154C204.125 278.918 204.558 276.681 204.992 274.445C206.467 274.262 207.916 273.888 209.426 273.96C211.513 274.06 211.941 274.596 211.487 276.62C211.362 277.179 211.33 277.759 211.256 278.329L208.884 285.105Z" fill="#FDFDFE"/>
<path d="M208.113 290.654C208.253 291.84 208.392 293.025 208.531 294.211C208.166 296.801 207.727 299.362 205.732 301.309C205.512 301.446 205.299 301.597 205.071 301.72C200.146 304.364 197.199 302.562 197.337 296.993C196.678 294.47 197.928 292.389 198.903 290.241C200.329 289.3 202.008 289.398 203.421 289.805C204.982 290.256 206.556 290.351 208.113 290.654Z" fill="#FEFEFE"/>
<path d="M164.988 281.96C166.977 282.414 169.006 282.364 171.016 282.312C172.601 282.272 172.712 282.822 172.255 284.158C171.49 286.393 170.234 288.377 169.27 290.507C167.841 292.4 166.413 294.293 164.985 296.185C162.947 297.676 162.494 297.632 161.434 295.279C159.566 291.132 158.131 286.851 158.138 282.219C158.139 281.647 157.958 281.015 158.64 280.663C160.819 280.789 162.936 281.216 164.988 281.96Z" fill="#FEFEFE"/>
<path d="M212.878 295.357L212.875 288.315C214.733 287.982 216.607 287.716 218.445 287.293C219.612 287.024 219.995 287.353 219.935 288.513C219.885 289.486 219.976 290.465 220.005 291.441C219.692 293.575 219.419 295.717 218.804 297.794C218.576 298.113 218.355 298.436 218.12 298.748C216.706 300.631 214.833 300.477 213.838 298.333C213.402 297.394 213.191 296.352 212.878 295.357Z" fill="#FDFEFE"/>
<path d="M174.051 74C174.051 60.7452 163.306 50 150.051 50H44.0008C30.746 50 20.0008 60.7452 20.0008 74V99.1811C20.0008 112.436 30.7459 123.181 44.0008 123.181H116.706C117.596 123.181 118.467 123.435 119.218 123.913L142.986 139.043C144.317 139.891 146.06 138.934 146.06 137.356V125.181C146.06 124.077 146.955 123.181 148.06 123.181H150.051C163.306 123.181 174.051 112.436 174.051 99.1811L174.051 74Z" fill="#1168F1"/>
<g opacity="0.5">
<ellipse cx="63.5879" cy="84.8" rx="5.65431" ry="5.8371" fill="#F4F5FA"/>
<ellipse cx="99.8457" cy="84.8" rx="5.65431" ry="5.8371" fill="#F4F5FA"/>
<ellipse cx="136.1" cy="84.8" rx="5.65431" ry="5.8371" fill="#F4F5FA"/>
</g>
<g filter="url(#filter1_d_8580_48457)">
<path d="M260 370C260 352.327 274.327 338 292 338H425.973C443.646 338 457.973 352.327 457.973 370V399.286C457.973 416.959 443.646 431.286 425.973 431.286H345.104C344.2 431.286 343.316 431.548 342.558 432.04L311.809 451.995C310.478 452.859 308.72 451.904 308.72 450.318V435.963C308.72 433.38 306.626 431.286 304.043 431.286H292C274.327 431.286 260 416.959 260 399.286L260 370Z" fill="#FF9900"/>
</g>
<g opacity="0.5">
<ellipse rx="7.43581" ry="7.73321" transform="matrix(-1 0 0 1 418.056 385.481)" fill="#F4F5FA"/>
<ellipse rx="7.43581" ry="7.73321" transform="matrix(-1 0 0 1 358.568 385.482)" fill="#F4F5FA"/>
<ellipse rx="7.43581" ry="7.73321" transform="matrix(-1 0 0 1 299.084 385.482)" fill="#F4F5FA"/>
</g>
<defs>
<filter id="filter0_d_8580_48457" x="0" y="0.558751" width="473" height="473" filterUnits="userSpaceOnUse" color-interpolation-filters="sRGB">
<feFlood flood-opacity="0" result="BackgroundImageFix"/>
<feColorMatrix in="SourceAlpha" type="matrix" values="0 0 0 0 0 0 0 0 0 0 0 0 0 0 0 0 0 0 127 0" result="hardAlpha"/>
<feOffset dy="3.55875"/>
<feGaussianBlur stdDeviation="30"/>
<feColorMatrix type="matrix" values="0 0 0 0 0 0 0 0 0 0.101953 0 0 0 0 0.2625 0 0 0 0.08 0"/>
<feBlend mode="normal" in2="BackgroundImageFix" result="effect1_dropShadow_8580_48457"/>
<feBlend mode="normal" in="SourceGraphic" in2="effect1_dropShadow_8580_48457" result="shape"/>
</filter>
<filter id="filter1_d_8580_48457" x="235.807" y="316.226" width="246.359" height="162.707" filterUnits="userSpaceOnUse" color-interpolation-filters="sRGB">
<feFlood flood-opacity="0" result="BackgroundImageFix"/>
<feColorMatrix in="SourceAlpha" type="matrix" values="0 0 0 0 0 0 0 0 0 0 0 0 0 0 0 0 0 0 127 0" result="hardAlpha"/>
<feOffset dy="2.4193"/>
<feGaussianBlur stdDeviation="12.0965"/>
<feColorMatrix type="matrix" values="0 0 0 0 0 0 0 0 0 0 0 0 0 0 0 0 0 0 0.15 0"/>
<feBlend mode="normal" in2="BackgroundImageFix" result="effect1_dropShadow_8580_48457"/>
<feBlend mode="normal" in="SourceGraphic" in2="effect1_dropShadow_8580_48457" result="shape"/>
</filter>
</defs>
</svg>
