<svg width="483" height="479" viewBox="0 0 483 479" fill="none" xmlns="http://www.w3.org/2000/svg">
<g filter="url(#filter0_d_12206_86759)">
<circle cx="236.5" cy="233.5" r="176.5" fill="white"/>
</g>
<circle cx="236.5" cy="233.5" r="145.5" fill="#E7E7E7"/>
<g clip-path="url(#clip0_12206_86759)">
<path d="M206.498 359.97C203.163 358.731 200.01 357.219 197.068 355.224C196.098 354.559 194.885 354.891 193.763 354.861C189.003 354.74 184.242 355.193 179.512 354.559C171.416 353.5 166.201 348.784 163.32 341.437C161.319 336.298 159.682 330.977 159.379 325.383C159.318 324.174 158.408 323.932 157.681 323.448C143.551 314.137 136.334 301.136 137.062 284.115C137.395 276.587 139.73 269.633 143.884 263.314C144.885 261.803 145.794 260.2 148.008 260.593C150.312 260.986 150.252 262.951 150.525 264.584C152.647 276.012 158.742 284.659 168.718 290.615C170.537 291.703 170.567 291.673 170.689 289.527C171.052 282.331 173.508 275.921 178.057 270.298C179.664 268.303 178.966 264.644 176.783 263.496C155.073 251.916 144.369 231.962 146.674 207.382C147.341 200.338 148.554 193.415 150.858 186.703C151.374 185.191 151.525 183.71 151.131 182.077C146.583 163.635 146.189 145.192 151.374 126.78C152.253 123.606 153.405 120.492 155.073 117.65C159.439 110.273 163.381 108.942 171.083 110.696C178.451 112.389 184.606 116.531 190.701 120.733C193.733 122.85 196.614 125.148 199.343 127.657C200.131 128.382 200.768 128.503 201.768 128.05C215.201 122.275 229.209 119.554 243.855 120.25C255.074 120.794 265.777 123.515 276.056 127.869C277.421 128.443 278.24 128.322 279.361 127.355C286.245 121.459 293.491 116.077 301.921 112.449C305.347 110.968 308.864 109.94 312.655 110.001C315.717 110.031 318.264 111.21 320.326 113.508C324.783 118.436 326.724 124.543 328.119 130.801C331.848 147.823 331.606 164.814 327.33 181.714C326.936 183.226 326.936 184.617 327.421 186.159C330.059 194.412 331.727 202.878 331.879 211.585C332.121 225.069 329.119 237.586 320.387 248.288C315.202 254.667 308.895 259.716 301.587 263.496C299.647 264.524 298.616 268.303 300.071 269.996C307.257 278.34 308.531 288.166 307.409 298.597C307.227 300.32 307.621 301.227 309.137 302.225C314.14 305.49 316.96 310.357 318.234 316.102C320.629 326.804 317.9 336.691 312.655 345.882C309.501 351.414 304.134 354.166 297.706 354.619C293.097 354.952 288.458 354.8 283.819 354.77C282.454 354.77 281.302 355.042 280.18 355.919C277.451 358.005 274.237 358.973 270.902 359.517C270.629 359.547 270.386 359.608 270.326 359.91C267.142 359.91 263.988 359.91 260.805 359.91C259.713 359.517 258.53 359.638 257.409 359.366C255.711 358.64 254.073 357.824 252.769 356.433C251.981 355.617 251.041 355.314 249.919 355.314C242.794 355.314 235.698 355.314 228.573 355.314C227.542 355.314 226.602 355.526 225.844 356.252C223.752 358.277 221.326 359.608 218.385 359.88C217.99 359.88 217.596 359.88 217.202 359.88C216.868 359.547 216.474 359.728 216.08 359.668C215.777 359.698 215.443 359.608 215.201 359.88C214.412 359.88 213.624 359.88 212.836 359.88C212.047 359.547 211.259 359.547 210.471 359.88C209.955 359.88 209.409 359.88 208.894 359.88C208.621 359.638 208.378 359.638 208.106 359.88C207.56 359.97 207.014 359.97 206.498 359.97Z" fill="#31201B"/>
<path d="M218.383 359.971C221.415 358.913 224.235 357.462 226.448 355.073C226.843 354.65 227.449 354.862 227.964 354.862C235.424 354.862 242.883 354.892 250.342 354.892C251.464 354.892 252.343 355.103 253.101 356.071C254.253 357.552 255.982 358.308 257.649 359.124C257.801 359.729 258.984 358.973 258.802 360.001C245.369 359.971 231.876 359.971 218.383 359.971Z" fill="#FEFEFE"/>
<path d="M258.832 359.971C258.589 359.487 257.831 359.698 257.68 359.094C258.741 359.336 259.923 359.184 260.833 359.971C260.166 359.971 259.499 359.971 258.832 359.971Z" fill="#EEEDED"/>
<path d="M210.469 359.971C211.257 359.366 212.045 359.366 212.834 359.971C212.045 359.971 211.257 359.971 210.469 359.971Z" fill="#4B3C37"/>
<path d="M216.02 359.638C216.445 359.669 216.96 359.306 217.203 359.971C216.808 359.971 216.414 359.971 216.02 359.971C215.899 359.88 215.838 359.82 215.899 359.729C215.929 359.669 215.99 359.638 216.02 359.638Z" fill="#AAA3A1"/>
<path d="M208.074 359.97C208.347 359.395 208.59 359.486 208.863 359.97C208.62 359.97 208.347 359.97 208.074 359.97Z" fill="#978F8C"/>
<path d="M216.018 359.638C216.018 359.759 216.018 359.85 215.988 359.971C215.715 359.971 215.472 359.971 215.199 359.971C215.351 359.547 215.684 359.547 216.018 359.638Z" fill="#8E8683"/>
<path d="M296.219 126.721C293.399 130.107 290.185 133.19 287.881 136.97C286.486 139.237 286.698 140.386 288.821 141.988C309.561 157.589 321.659 178.299 325.54 203.816C326.42 209.5 325.934 215.244 325.874 220.958C325.874 221.381 325.752 221.744 325.419 222.016C321.72 225.705 317.384 228.214 312.108 228.728C301.525 229.756 292.793 225.644 285.03 218.872C277.814 212.583 271.355 205.509 263.927 199.462C259.318 195.713 254.587 192.025 248.675 190.483C238.638 187.822 229.178 189.062 220.445 194.927C215.776 198.071 211.682 201.911 207.468 205.599C201.494 210.86 196.37 217.118 189.82 221.714C185.545 224.707 180.997 227.398 175.69 228.093C167.928 229.091 160.348 228.97 154.101 223.195C153.647 222.832 153.252 222.439 152.979 221.925C151.979 218.449 152.13 214.911 152.312 211.374C152.949 197.829 156.436 185.041 162.834 173.068C169.111 161.277 177.388 151.179 188.092 143.107C192.276 139.933 192.276 139.207 189.214 134.914C186.667 131.376 183.241 128.625 180.784 124.997C181.846 124.393 182.695 125.058 183.574 125.451C187.213 127.114 190.305 129.593 193.277 132.223C194.823 133.583 196.43 134.853 197.977 136.153C199.463 137.423 200.918 137.605 202.707 136.818C207.649 134.642 212.713 132.767 218.02 131.467C226.813 129.29 235.697 128.232 244.703 128.897C254.86 129.623 264.624 132.011 273.963 136.123C274.63 136.425 275.328 136.667 275.964 136.939C277.632 137.695 278.845 137.242 280.24 136.063C284.424 132.435 289.003 129.321 293.49 126.025C294.582 125.239 295.582 125.39 296.219 126.721Z" fill="#FDA524"/>
<path d="M154.044 222.741C155.651 223.769 157.137 225.039 158.865 225.825C166.294 229.302 173.874 228.758 181.333 225.946C189.156 222.983 194.766 217.027 200.618 211.434C206.622 205.69 212.625 199.945 219.357 195.048C230.818 186.703 247.283 186.582 258.684 194.866C265.446 199.794 271.449 205.478 277.453 211.222C280.273 213.913 283.123 216.544 286.034 219.144C292.402 224.827 299.861 228.093 308.411 228.486C313.051 228.697 317.447 227.639 321.298 224.797C322.602 223.8 323.876 222.741 325.422 222.076C325.301 224.072 324.876 226.037 324.209 227.911C317.508 238.493 308.563 246.414 297.102 251.644C285.367 257.026 273.026 259.868 260.291 261.289C251.892 262.226 243.462 262.74 235.003 262.438C219.721 261.924 204.59 260.291 190.036 255.152C180.242 251.705 171.176 247.019 163.747 239.793C159.653 235.832 155.802 231.479 153.892 225.886C153.589 225.009 153.528 224.072 153.377 223.195C153.255 222.59 153.589 222.469 154.044 222.741Z" fill="#FDFEFD"/>
<path d="M154.043 222.74C153.254 223.617 153.8 224.494 154.043 225.34C155.104 228.908 157.59 231.599 159.773 234.471C166.626 243.45 175.935 249.013 186.214 253.064C195.553 256.753 205.226 259.171 215.202 260.32C220.356 260.925 225.541 261.197 230.726 261.56C235.002 261.832 239.307 261.953 243.583 261.802C257.47 261.318 271.236 259.988 284.578 255.785C293.25 253.034 301.436 249.436 308.805 244.055C313.99 240.306 318.083 235.559 321.752 230.389C322.449 229.422 323.238 228.575 324.178 227.819C321.418 239.187 314.626 247.773 305.166 254.364C295.008 261.409 283.547 265.248 271.509 267.516C247.888 271.96 224.359 271.809 200.95 266.186C189.61 263.465 178.937 259.202 169.78 251.794C160.622 244.387 155.104 234.864 153.042 223.284C152.951 222.831 152.981 222.377 152.981 221.924C153.345 222.196 153.679 222.468 154.043 222.74Z" fill="#DEDEDE"/>
<path d="M223.055 324.87C223.146 331.793 223.237 338.686 222.994 345.61C222.024 346.093 221.053 345.852 220.083 345.61C218.294 345.217 216.505 344.703 214.686 344.31C211.047 343.554 207.469 343.886 203.952 345.035C203.164 345.307 202.375 345.761 201.466 345.489C201.253 345.368 201.162 345.186 201.162 344.945C202.436 343.372 202.133 341.83 201.132 340.258C196.159 332.216 192.733 323.418 189.064 314.772C185.607 306.578 184.091 297.871 184.122 288.982C184.122 285.959 185.001 282.996 185.425 280.003C185.516 279.338 185.82 278.703 186.699 278.794C188.306 279.278 189.822 279.943 191.277 280.759C190.914 285.294 192.399 289.376 194.673 293.124C197.19 297.236 200.435 300.804 203.558 304.462C208.44 310.146 214.352 314.711 219.416 320.214C220.78 321.665 222.266 322.995 223.055 324.87Z" fill="#FDA524"/>
<path d="M287.762 280.577C288.945 279.912 290.097 279.216 291.431 278.884C292.644 278.521 292.766 279.519 292.887 280.184C293.736 284.507 294.373 288.77 294.069 293.275C293.584 300.108 292.189 306.699 289.824 313.078C286.428 322.208 282.729 331.218 277.605 339.562C276.634 341.134 276.028 342.888 274.967 344.369C272.541 344.581 270.176 343.825 267.72 343.886C264.657 343.946 261.686 344.309 258.775 345.246C258.078 345.458 257.41 345.76 256.652 345.579C255.955 345.216 255.773 344.581 255.712 343.886C255.258 342.253 255.803 340.59 255.379 338.958C255.379 338.595 255.379 338.262 255.379 337.899C255.682 337.446 255.47 336.871 255.682 336.388C255.834 333.364 255.712 330.341 255.743 327.318C255.743 327.106 255.743 326.894 255.712 326.683C255.743 326.229 255.803 325.776 255.834 325.353C257.198 321.573 259.927 318.792 262.868 316.222C270.176 309.903 276.847 302.98 282.426 295.089C285.276 291.068 286.974 286.624 287.399 281.726C287.368 281.242 287.459 280.879 287.762 280.577Z" fill="#FDA524"/>
<path d="M210.471 286.352C215.444 286.926 220.447 287.5 225.42 288.105C226.784 288.286 225.874 289.012 225.662 289.496C222.994 295.422 224.055 302.194 228.361 306.578C233.182 311.506 240.944 312.473 247.16 308.906C252.952 305.58 255.529 298.505 253.619 291.521C253.316 290.403 252.133 289.073 252.8 288.287C253.376 287.621 255.044 287.924 256.196 287.773C259.986 287.319 263.777 286.835 267.597 286.382C268.416 287.712 267.385 288.649 266.809 289.587C265.293 292.035 263.261 294.152 261.806 296.661C259.016 301.499 256.499 306.487 254.801 311.838C254.559 312.594 254.377 313.35 253.952 314.045C253.74 314.408 253.558 315.164 253.71 315.315C250.314 314.831 249.556 315.406 249.465 319.125C249.343 324.446 249.404 329.797 249.374 335.118C249.374 335.783 249.313 336.418 249.283 337.083C247.13 338.867 244.462 339.048 241.884 339.411C238.064 339.955 234.274 339.381 230.635 338.111C229.968 337.869 229.27 337.597 228.967 336.841C228.907 330.946 228.876 325.02 228.785 319.125C228.725 315.618 228.694 315.618 225.147 314.892C224.085 313.652 223.843 312.02 223.297 310.569C220.568 303.373 217.021 296.661 212.29 290.554C211.35 289.345 210.228 288.135 210.471 286.352Z" fill="#DEDEDE"/>
<path d="M210.47 286.353C212.35 290.676 215.807 293.972 218.02 298.083C220.931 303.465 223.599 308.937 225.146 314.863C223.569 315.982 223.054 317.554 223.054 319.428C223.023 321.242 223.417 323.056 223.084 324.87C214.321 314.954 203.708 306.791 195.946 295.937C193.126 291.976 191.337 287.683 190.7 282.906C190.609 282.211 190.003 281.153 191.307 280.76C197.189 282.967 203.284 284.388 209.348 285.96C209.742 286.081 210.106 286.232 210.47 286.353Z" fill="#FDFEFD"/>
<path d="M253.681 315.316C253.65 314.893 252.71 315.044 253.317 314.016C254.681 311.719 255.136 308.998 256.228 306.518C258.744 300.865 261.534 295.392 265.506 290.585C266.476 289.376 267.507 288.106 267.568 286.413C270.873 285.567 274.178 284.781 277.453 283.843C280.909 282.846 284.336 281.697 287.762 280.578C287.914 285.929 285.973 290.646 283.032 294.969C278.544 301.5 273.268 307.395 267.386 312.716C263.141 316.556 258.775 320.305 255.803 325.293C254.711 322.844 255.439 320.244 255.197 317.735C255.075 316.616 254.893 315.679 253.681 315.316Z" fill="#FDFEFD"/>
<path d="M275.086 344.159C274.661 342.587 275.783 341.529 276.45 340.41C283.272 328.982 288.579 316.919 291.914 304.07C293.915 296.36 294.401 288.439 292.49 280.548C292.339 279.913 292.399 279.006 291.399 278.855C291.884 278.553 292.369 278.19 292.884 277.918C298.1 275.257 297.16 274.592 299.707 280.306C302.739 287.109 302.375 294.244 301.102 301.439C299.343 311.265 295.34 320.275 291.277 329.284C288.336 335.784 285.001 342.043 280.453 347.575C279.391 347.515 278.906 346.457 277.966 346.154C276.966 345.58 275.722 345.278 275.086 344.159Z" fill="#F08102"/>
<path d="M186.727 278.794C186.302 279.036 185.969 279.338 185.908 279.852C185.362 284.962 184.24 289.98 184.968 295.271C185.878 301.983 187 308.634 189.698 314.893C193.549 323.812 197.158 332.882 202.252 341.196C203.252 342.828 203.04 344.038 201.342 344.945C199.614 346.577 197.885 345.731 196.157 344.975C194.641 343.312 193.428 341.438 192.367 339.472C186.515 328.558 181.117 317.432 178.146 305.339C176.266 297.72 175.356 290.041 177.964 282.362C178.51 280.729 179.268 279.217 179.995 277.645C180.663 276.164 181.572 275.65 183.058 276.587C184.24 277.343 185.484 278.068 186.727 278.794Z" fill="#F08102"/>
<path d="M286.973 348.935C293.461 339.411 297.949 329.313 301.982 319.004C303.195 315.89 304.165 312.655 305.226 309.48C305.439 308.875 305.317 308.029 306.106 307.847C306.985 307.636 307.591 308.21 308.137 308.845C311.351 312.503 312.928 316.857 313.231 321.634C313.716 328.95 311.382 335.662 308.289 342.132C306.257 346.365 302.467 348.3 297.949 348.844C294.401 349.267 290.854 348.995 286.973 348.935Z" fill="#F08102"/>
<path d="M190.882 348.935C186.334 348.935 181.876 349.539 177.51 348.149C174.205 347.09 171.567 345.156 170.081 342.041C167.049 335.632 164.835 328.981 165.199 321.725C165.412 317.22 166.958 313.259 169.626 309.692C169.93 309.268 170.324 308.875 170.718 308.543C172.234 307.334 172.719 307.454 173.235 309.299C176.358 320.455 181.179 330.885 186.576 341.104C187.941 343.674 190.124 345.79 190.882 348.935Z" fill="#F08102"/>
<path d="M317.902 165.025C313.384 158.192 308.533 151.662 302.59 145.978C300.103 143.62 297.496 141.383 294.888 139.176C294.191 138.571 294.009 138.178 294.645 137.422C299.861 131.134 305.713 125.631 312.747 121.398C315.294 126.871 316.72 132.645 317.66 138.571C318.842 146.19 319.085 153.869 318.903 161.548C318.872 162.758 318.872 164.058 317.902 165.025Z" fill="#C74F02"/>
<path d="M166.078 121.791C172.78 125.782 178.571 130.77 183.301 136.968C184.12 138.026 184.241 138.631 183.028 139.629C175.842 145.645 169.505 152.538 163.683 159.855C163.077 159.976 162.895 160.611 162.41 160.883C162.106 161.215 161.864 161.639 161.5 161.911C160.772 162.425 160.287 162.213 160.044 161.367C159.953 161.034 159.923 160.732 159.923 160.399C160.014 152.599 159.438 144.768 160.984 137.029C162.046 131.738 163.44 126.538 166.078 121.791Z" fill="#C74F02"/>
<path d="M296.219 126.719C295.158 125.903 294.369 125.903 293.157 126.87C288.578 130.498 283.575 133.612 279.3 137.633C278.572 138.329 277.723 138.147 276.904 137.815C273.599 136.545 270.294 135.184 266.959 134.005C255.618 129.924 243.854 128.472 231.937 129.561C222.841 130.377 213.774 132.221 205.497 136.333C201.464 138.329 198.614 137.996 195.369 134.852C191.912 131.466 188.183 128.231 183.726 126.144C182.786 125.691 181.755 125.389 180.784 125.026C177.449 122.547 174.114 120.037 170.809 117.558C170.93 116.56 171.597 117.014 172.112 117.074C176.388 118.254 180.026 120.612 183.695 122.97C188.577 126.144 193.095 129.772 197.37 133.703C199.008 135.184 200.524 135.275 202.404 134.368C221.567 125.268 241.428 123.756 261.865 129.017C266.655 130.256 271.295 132.01 275.752 134.217C277.844 135.245 279.512 135.094 281.331 133.491C287.274 128.231 293.49 123.333 300.494 119.554C302.769 118.344 305.103 117.256 307.65 116.681C308.105 116.5 308.499 116.379 308.469 117.105C304.072 119.947 300.07 123.242 296.219 126.719Z" fill="#E8C587"/>
<path d="M144.309 276.889C144.521 275.982 144.673 275.075 144.946 274.228C145.127 273.654 145.097 272.717 145.916 272.717C146.583 272.717 146.947 273.503 147.189 274.108C148.614 277.584 150.312 280.91 152.617 283.933C157.165 289.92 162.926 294.424 169.597 297.841C170.385 298.264 171.265 298.476 171.295 299.715C171.325 300.925 170.81 301.439 169.87 301.983C167.141 303.555 165.019 305.792 163.351 308.453C163.048 308.936 162.987 309.632 162.259 309.753C159.682 308.997 157.863 307.122 156.043 305.369C151.192 300.652 147.553 295.15 145.764 288.529C145.067 285.203 144.157 281.908 144.218 278.461C144.188 277.917 144.4 277.403 144.309 276.889Z" fill="#F08102"/>
<path d="M166.078 121.792C166.32 122.366 166.411 122.88 166.047 123.455C163.167 128.232 162.257 133.583 161.287 138.964C159.922 146.553 160.741 154.172 160.468 161.942C161.651 161.7 162.015 160.581 162.894 160.218C163.106 160.46 163.137 160.702 162.894 160.944C160.529 165.237 158.164 169.53 155.617 174.186C154.737 171.949 154.556 170.014 154.374 168.109C153.161 154.353 153.312 140.688 157.406 127.294C158.134 124.966 159.134 122.759 160.135 120.522C160.832 118.98 161.651 118.799 163.015 119.675C164.046 120.371 165.168 120.915 166.078 121.792Z" fill="#DF6D03"/>
<path d="M317.899 165.026C319.021 151.451 318.111 138.088 313.684 125.087C313.29 123.878 312.259 122.79 312.744 121.369C312.896 121.248 313.048 121.097 313.199 121.006C317.262 118.406 317.505 118.436 319.385 122.971C322.205 129.773 323.691 136.909 324.297 144.225C324.812 150.393 325.116 156.56 324.661 162.758C324.388 166.356 323.872 169.923 322.781 174.065C320.992 170.8 319.446 167.928 317.899 165.026Z" fill="#DF6D03"/>
<path d="M229.542 279.428C229.542 279.881 229.482 280.365 229.542 280.819C229.724 282.149 229.148 282.481 227.874 282.481C223.144 282.542 218.566 281.484 213.957 280.758C205.861 279.488 198.008 277.191 190.458 273.986C189.002 273.381 187.607 272.595 186.243 271.839C185.697 271.537 185 271.265 185.03 270.418C185.06 269.511 184.787 268.211 185.273 267.758C185.909 267.183 186.667 268.332 187.395 268.695C188.729 269.421 190.094 270.055 191.64 270.207C192.823 270.328 194.005 270.509 195.097 270.932C200.737 273.109 206.68 274.016 212.592 274.863C217.474 275.558 222.417 275.921 227.359 276.132C229.3 276.223 229.694 276.949 229.512 278.581C229.482 278.914 229.512 279.186 229.542 279.428C229.512 279.428 229.512 279.428 229.542 279.428Z" fill="#C74F02"/>
<path d="M228.936 336.842C234.909 339.563 241.004 339.623 247.19 337.719C247.887 337.507 248.554 337.295 249.251 337.084C249.13 340.742 250.252 344.4 248.979 348.058C248.736 348.693 248.736 349.056 248.039 349.056C241.974 349.056 235.91 349.056 229.846 349.056C228.997 349.056 228.663 348.754 228.693 347.877C228.784 344.189 228.875 340.5 228.936 336.842Z" fill="#F08102"/>
<path d="M236.547 304.915C233.151 304.069 230.149 300.259 229.906 296.51C229.664 292.61 232.241 288.861 236.001 287.531C239.913 286.171 244.127 287.259 246.31 290.222C246.068 291.764 245.856 293.306 245.856 294.908C245.825 299.806 241.368 304.522 236.547 304.915Z" fill="#F2E156"/>
<path d="M274.723 273.351C279.939 272.202 285.093 270.811 290.096 268.937C290.521 268.786 290.976 268.604 291.431 268.544C292.189 268.423 293.31 267.637 293.644 268.725C293.978 269.783 294.281 271.174 292.674 271.93C285.488 275.286 278.059 277.977 270.296 279.639C266.112 280.516 261.928 281.393 257.652 281.756C255.833 281.998 254.074 282.663 252.225 282.633C250.951 282.602 249.465 282.784 248.798 281.302C248.374 280.335 249.647 277.977 250.86 277.281C251.8 276.737 252.831 276.586 253.892 276.404C258.259 275.649 262.686 275.497 267.052 274.802C269.569 274.349 272.146 273.865 274.723 273.351Z" fill="#C74F02"/>
<path d="M146.279 288.681C149.038 297.63 154.648 304.402 162.259 309.693C161.561 311.96 160.773 314.167 160.166 316.465C159.833 317.705 159.439 317.735 158.468 317.039C149.766 310.539 144.551 301.983 143.035 291.22C142.519 287.622 142.61 284.025 143.489 280.457C144.52 280.608 144.52 281.485 144.611 282.211C144.824 283.873 145.278 285.506 145.127 287.199C145.036 287.985 145.4 288.59 146.279 288.681Z" fill="#DEDEDE"/>
<path d="M275.086 344.158C276.147 344.702 277.208 345.246 278.239 345.79C277.663 347.12 276.602 346.365 275.904 346.123C274.358 345.609 273.327 345.972 272.326 347.272C270.901 349.146 269.052 350.658 267.293 352.381C268.233 353.076 269.628 352.321 270.598 353.832C266.717 353.772 263.169 354.044 259.622 353.651C256.771 352.472 255.498 350.144 255.71 346.455C256.104 346.183 255.498 345.186 256.499 345.306C259.986 344.339 263.412 343.251 267.081 343.22C269.81 343.19 272.448 343.583 275.086 344.158Z" fill="#FDFEFD"/>
<path d="M221.964 350.506C221.267 352.109 220.266 353.348 218.416 353.681C216.415 353.862 214.232 354.437 212.473 353.258C209.744 351.444 207.228 349.267 205.651 346.274C204.954 344.974 205.439 344.43 206.864 344.157C211.564 343.25 215.991 344.369 220.387 345.79C222.752 346.546 222.874 346.878 222.207 349.388C222.116 349.751 222.237 350.174 221.964 350.506Z" fill="#FDFEFD"/>
<path d="M221.963 350.507C222.145 346.909 222.145 346.909 218.385 345.67C214.595 344.4 210.744 343.976 206.772 344.521C205.68 344.672 205.559 345.125 206.014 345.942C207.863 349.086 210.531 351.414 213.564 353.319C214.989 354.195 216.808 353.409 218.445 353.651C208.803 354.921 203.285 354.437 198.221 347.635C197.705 346.607 198.494 346.214 199.161 345.942C199.858 345.67 200.556 345.307 201.344 345.277C207.287 342.888 213.26 342.858 219.325 344.823C220.507 345.216 221.781 345.337 222.994 345.579C223.024 347.302 222.842 348.965 221.963 350.507Z" fill="#DEDEDD"/>
<path d="M259.652 353.622C263.079 353.622 266.505 353.622 269.931 353.622C268.991 353.047 268.021 353.319 267.081 353.229C266.778 353.198 266.384 353.289 266.232 352.896C266.081 352.503 266.384 352.261 266.626 352.08C269.052 350.236 271.175 348.059 273.024 345.67C273.57 344.945 274.207 345.096 274.965 345.308C276.056 345.61 277.087 346.335 278.331 345.791C279.301 346.124 279.907 346.88 280.514 347.605C276.936 352.11 272.387 354.529 266.505 354.105C264.17 353.924 261.866 354.468 259.652 353.622Z" fill="#DEDEDE"/>
<path d="M236.547 304.915C239.458 303.948 242.035 302.436 243.794 299.806C244.946 298.052 245.522 296.178 245.431 294.061C245.37 292.761 245.128 291.28 246.341 290.252C249.039 293.699 249.221 297.931 246.856 301.408C244.643 304.673 240.64 306.034 236.547 304.915Z" fill="#FCFCFB"/>
<path d="M274.722 273.352C271.296 275.045 267.536 275.226 263.836 275.71C259.986 276.194 256.135 276.466 252.314 277.222C250.192 277.645 249.676 279.127 249.161 280.789C248.858 281.787 249.676 281.727 250.161 281.848C251.92 282.21 253.709 282.12 255.468 281.878C256.195 281.787 256.893 281.606 257.621 281.727C255.013 282.482 252.526 283.783 249.616 282.906C248.009 282.422 247.523 281.485 247.766 279.973C247.766 279.913 247.796 279.852 247.796 279.792C248.403 275.892 248.706 275.438 252.799 275.378C259.046 275.287 265.231 274.501 271.356 273.412C272.448 273.231 273.6 273.352 274.722 273.352Z" fill="#613F36"/>
<path d="M239.123 281.032C239.001 281.032 238.85 281.032 238.729 281.032C235.575 281.122 235.636 281.122 235.696 278.008C235.727 276.738 236 276.043 237.455 276.194C238.486 276.315 239.547 276.194 240.608 276.224C242.337 276.255 243.125 276.859 242.974 278.855C242.852 280.548 242.61 281.455 240.669 281.062C240.214 280.941 239.668 281.032 239.123 281.032Z" fill="#DCDCDC"/>
<path d="M146.278 288.681C146.187 289.074 146.127 289.497 145.551 289.104C144.884 288.651 144.368 288.257 144.52 287.23C144.853 284.902 144.459 282.604 143.458 280.457C143.246 279.611 143.61 278.825 143.853 278.039C144.095 277.827 144.338 277.827 144.52 278.099C144.823 281.697 145.581 285.174 146.278 288.681Z" fill="#FBF5EE"/>
<path d="M201.345 345.308C200.405 346.215 198.556 345.913 198.222 347.636C197.343 346.88 196.706 345.943 196.16 344.976C197.888 344.945 199.647 345.822 201.345 344.945C201.345 345.036 201.345 345.187 201.345 345.308Z" fill="#F4A025"/>
<path d="M255.709 336.63C255.679 337.084 255.77 337.568 255.285 337.87C255.497 334.121 254.951 330.372 255.618 326.623C255.679 326.684 255.739 326.774 255.77 326.865C255.861 330.13 256.012 333.395 255.709 336.63Z" fill="#988F8D"/>
<path d="M255.318 338.928C256.167 340.47 255.318 342.223 255.955 343.765C255.712 344.128 256.046 344.612 255.621 344.914C254.833 342.979 255.167 340.953 255.318 338.928Z" fill="#DBBD93"/>
<path d="M255.648 344.944C255.77 344.551 255.588 344.097 255.982 343.795C256.164 344.309 256.346 344.793 256.497 345.307C256.225 345.7 255.982 346.093 255.709 346.455C255.679 345.941 255.679 345.428 255.648 344.944Z" fill="#FAD8A5"/>
<path d="M172.052 117.075C171.597 117.195 171.051 117.014 170.748 117.558C170.384 117.377 170.02 117.226 169.656 117.044C169.99 116.168 170.596 116.561 171.172 116.712C171.506 116.833 171.779 116.954 172.052 117.075Z" fill="#C6A774"/>
<path d="M171.205 116.712C170.689 116.833 170.083 116.47 169.689 117.045C169.385 116.863 168.567 116.742 169.446 116.349C169.931 116.108 170.689 116.229 171.205 116.712Z" fill="#937955"/>
<path d="M144.551 278.099C144.338 278.069 144.096 278.069 143.884 278.038C143.762 277.555 144.126 277.252 144.308 276.859C144.642 277.252 144.672 277.676 144.551 278.099Z" fill="#D9B690"/>
<path d="M162.867 160.945C162.867 160.703 162.867 160.461 162.867 160.219C163.049 159.917 163.14 159.342 163.686 159.856C163.474 160.279 163.383 160.793 162.867 160.945Z" fill="#CB6105"/>
<path d="M308.409 117.136C308.257 116.774 307.893 116.804 307.59 116.713C308.014 116.32 308.56 116.139 308.954 116.532C309.167 116.743 308.772 117.046 308.409 117.136Z" fill="#9A7F59"/>
<path d="M287.063 201.85C283.94 201.729 281.423 201.608 279.027 200.792C272.023 198.494 269.658 192.599 273.115 186.068C276.117 180.384 283 177.784 289.246 179.991C295.341 182.168 298.888 188.245 297.706 194.564C296.978 198.434 294.491 200.882 290.398 201.578C289.094 201.789 287.79 201.789 287.063 201.85Z" fill="#31201B"/>
<path d="M191.518 201.789C190.305 201.758 188.85 201.879 187.424 201.517C182.148 200.217 179.753 195.893 180.845 189.574C181.997 182.863 188.91 178.116 195.702 179.325C202.949 180.595 207.649 186.944 206.527 193.898C206.103 196.528 204.465 198.221 202.252 199.521C199.492 201.124 196.491 201.789 191.518 201.789Z" fill="#31201B"/>
<path d="M205.012 157.043C210.773 156.439 215.139 163.695 212.653 169.348C212.046 170.769 210.894 171.676 209.499 172.19C205.497 173.672 201.494 173.732 197.644 171.646C193.702 169.53 192.762 165.085 195.582 161.608C197.977 158.676 201.04 156.862 205.012 157.043Z" fill="#FDFEFD"/>
<path d="M273.995 173.28C273.116 173.189 272.328 173.129 271.539 173.008C264.565 171.859 263.807 165.903 266.324 161.156C269.114 155.896 275.36 156.077 279.908 158.949C280.515 159.342 281.06 159.826 281.576 160.34C283.547 162.305 285.184 164.512 284.183 167.505C283.213 170.438 280.909 172.04 277.998 172.766C276.694 173.099 275.269 173.129 273.995 173.28Z" fill="#FDFEFD"/>
<path d="M223.963 206.053C223.842 201.911 225.419 199.311 229.269 197.708C235.637 195.048 242.126 194.957 248.554 197.466C251.283 198.524 253.769 200.097 254.406 203.362C254.952 205.418 254.588 207.383 253.8 209.257C252.041 213.399 248.887 216.151 244.885 218.055C244.43 218.267 243.854 218.297 243.551 218.841C244.157 219.899 245.673 219.93 246.159 221.109C251.222 224.344 254.649 223.769 258.348 219.113C259.53 217.602 260.47 215.939 261.38 214.246C262.259 212.643 263.594 212.462 265.079 213.188C266.444 213.883 267.171 214.85 266.444 216.544C264.624 220.897 262.108 224.707 257.923 227.095C256.559 227.881 255.952 228.909 255.649 230.481C254.558 236.316 252.193 241.547 247.402 245.356C242.186 249.528 235.455 249.407 230.331 245.084C225.54 241.033 223.296 235.651 222.144 229.695C221.901 228.486 221.386 227.76 220.355 227.095C216.474 224.586 213.745 221.109 212.047 216.816C211.349 215.002 211.865 213.762 213.441 213.097C215.23 212.341 216.322 212.764 217.232 214.578C218.02 216.181 218.93 217.692 220.052 219.113C223.72 223.739 227.207 224.314 232.241 221.079C232.726 219.899 234.151 219.748 234.97 218.69C233.06 217.723 231.18 216.816 229.542 215.516C227.602 213.974 226.025 212.16 224.933 209.953C224.327 208.743 223.963 207.474 223.963 206.053Z" fill="#31201B"/>
<path d="M246.159 221.139C244.794 220.504 243.551 219.718 242.277 218.659C249.342 215.817 254.315 211.494 254.406 203.361C256.559 208.35 254.679 214.941 250.313 218.297C248.978 219.325 247.28 219.808 246.159 221.139Z" fill="#DEDEDD"/>
<path d="M223.966 206.053C225.573 212.492 229.969 216.302 236.155 218.6C234.881 219.718 233.608 220.474 232.274 221.139C230.909 220.141 229.605 219.114 228.211 218.176C225.451 216.302 224.057 213.551 223.268 210.467C222.874 208.955 223.662 207.534 223.966 206.053Z" fill="#DDDDDD"/>
<path d="M255.711 336.631C255.741 333.365 255.772 330.1 255.802 326.865C256.226 330.13 256.317 333.396 255.711 336.631Z" fill="#E5BA7E"/>
<path d="M287.123 187.548C287.153 189.846 285.455 191.811 283.363 191.872C280.816 191.932 279.027 190.239 278.966 187.639C278.906 185.432 280.816 183.467 283.09 183.376C285 183.316 287.062 185.462 287.123 187.548Z" fill="#FCFDFC"/>
<path d="M199.373 187.731C199.373 190.301 197.826 191.752 195.188 191.752C192.702 191.722 191.337 190.241 191.368 187.52C191.368 185.313 193.035 183.559 195.158 183.529C197.644 183.468 199.373 185.162 199.373 187.731Z" fill="#FCFDFC"/>
<path d="M239.305 206.959C236.849 206.596 234.302 206.687 232.027 205.387C230.936 204.782 229.935 203.966 229.966 202.696C229.996 201.366 231.027 200.459 232.24 199.975C236.849 198.191 241.457 198.221 246.066 199.975C247.249 200.428 248.34 201.184 248.492 202.575C248.613 204.087 247.4 204.722 246.339 205.356C244.186 206.687 241.73 206.717 239.305 206.959Z" fill="#614037"/>
<path d="M246.584 237.435C246.372 237.768 246.16 238.1 245.917 238.403C241.005 244.208 236.184 243.966 231.605 237.768C231.939 237.042 232.636 236.77 233.334 236.559C237.609 235.319 241.824 235.682 246.008 236.952C246.251 237.012 246.433 237.224 246.584 237.435Z" fill="#F28B7E"/>
<path d="M246.585 237.435C242.431 236.588 238.247 235.742 234.001 236.921C233.183 237.163 232.394 237.465 231.606 237.737C230.211 235.923 230.211 235.893 232.334 235.228C236.852 233.807 241.37 233.807 245.948 235.137C247.586 235.651 247.858 236.256 246.585 237.435Z" fill="#DDDBDB"/>
</g>
<path d="M174.051 74C174.051 60.7452 163.306 50 150.051 50H44.0008C30.746 50 20.0008 60.7452 20.0008 74V99.1811C20.0008 112.436 30.7459 123.181 44.0008 123.181H116.706C117.596 123.181 118.467 123.435 119.218 123.913L142.986 139.043C144.317 139.891 146.06 138.934 146.06 137.356V125.181C146.06 124.077 146.955 123.181 148.06 123.181H150.051C163.306 123.181 174.051 112.436 174.051 99.1811L174.051 74Z" fill="#1168F1"/>
<g opacity="0.5">
<ellipse cx="63.5879" cy="84.8" rx="5.65431" ry="5.8371" fill="#F4F5FA"/>
<ellipse cx="99.8457" cy="84.8" rx="5.65431" ry="5.8371" fill="#F4F5FA"/>
<ellipse cx="136.1" cy="84.8" rx="5.65431" ry="5.8371" fill="#F4F5FA"/>
</g>
<g filter="url(#filter1_d_12206_86759)">
<path d="M260 370C260 352.327 274.327 338 292 338H425.973C443.646 338 457.973 352.327 457.973 370V399.286C457.973 416.959 443.646 431.286 425.973 431.286H345.104C344.2 431.286 343.316 431.548 342.558 432.04L311.809 451.995C310.478 452.859 308.72 451.904 308.72 450.318V435.963C308.72 433.38 306.626 431.286 304.043 431.286H292C274.327 431.286 260 416.959 260 399.286L260 370Z" fill="#FF9900"/>
</g>
<g opacity="0.5">
<ellipse cx="7.43581" cy="7.73321" rx="7.43581" ry="7.73321" transform="matrix(-1 0 0 1 425.492 377.748)" fill="#F4F5FA"/>
<ellipse cx="7.43581" cy="7.73321" rx="7.43581" ry="7.73321" transform="matrix(-1 0 0 1 366.004 377.75)" fill="#F4F5FA"/>
<ellipse cx="7.43581" cy="7.73321" rx="7.43581" ry="7.73321" transform="matrix(-1 0 0 1 306.52 377.75)" fill="#F4F5FA"/>
</g>
<defs>
<filter id="filter0_d_12206_86759" x="0" y="0.558751" width="473" height="473" filterUnits="userSpaceOnUse" color-interpolation-filters="sRGB">
<feFlood flood-opacity="0" result="BackgroundImageFix"/>
<feColorMatrix in="SourceAlpha" type="matrix" values="0 0 0 0 0 0 0 0 0 0 0 0 0 0 0 0 0 0 127 0" result="hardAlpha"/>
<feOffset dy="3.55875"/>
<feGaussianBlur stdDeviation="30"/>
<feColorMatrix type="matrix" values="0 0 0 0 0 0 0 0 0 0.101953 0 0 0 0 0.2625 0 0 0 0.08 0"/>
<feBlend mode="normal" in2="BackgroundImageFix" result="effect1_dropShadow_12206_86759"/>
<feBlend mode="normal" in="SourceGraphic" in2="effect1_dropShadow_12206_86759" result="shape"/>
</filter>
<filter id="filter1_d_12206_86759" x="235.807" y="316.226" width="246.359" height="162.706" filterUnits="userSpaceOnUse" color-interpolation-filters="sRGB">
<feFlood flood-opacity="0" result="BackgroundImageFix"/>
<feColorMatrix in="SourceAlpha" type="matrix" values="0 0 0 0 0 0 0 0 0 0 0 0 0 0 0 0 0 0 127 0" result="hardAlpha"/>
<feOffset dy="2.4193"/>
<feGaussianBlur stdDeviation="12.0965"/>
<feColorMatrix type="matrix" values="0 0 0 0 0 0 0 0 0 0 0 0 0 0 0 0 0 0 0.15 0"/>
<feBlend mode="normal" in2="BackgroundImageFix" result="effect1_dropShadow_12206_86759"/>
<feBlend mode="normal" in="SourceGraphic" in2="effect1_dropShadow_12206_86759" result="shape"/>
</filter>
<clipPath id="clip0_12206_86759">
<rect width="194.878" height="250" fill="white" transform="translate(137 110)"/>
</clipPath>
</defs>
</svg>
