<svg width="483" height="479" viewBox="0 0 483 479" fill="none" xmlns="http://www.w3.org/2000/svg">
<g filter="url(#filter0_d_11500_72698)">
<circle cx="236.5" cy="233.5" r="176.5" fill="white"/>
</g>
<circle cx="236.5" cy="233.5" r="145.5" fill="url(#paint0_radial_11500_72698)"/>
<path d="M174.051 74C174.051 60.7452 163.306 50 150.051 50H44.0008C30.746 50 20.0008 60.7452 20.0008 74V99.1811C20.0008 112.436 30.7459 123.181 44.0008 123.181H116.706C117.596 123.181 118.467 123.435 119.218 123.913L142.986 139.043C144.317 139.891 146.06 138.934 146.06 137.356V125.181C146.06 124.077 146.955 123.181 148.06 123.181H150.051C163.306 123.181 174.051 112.436 174.051 99.1811L174.051 74Z" fill="#1168F1"/>
<g opacity="0.5">
<ellipse cx="63.5879" cy="84.8" rx="5.65431" ry="5.8371" fill="#F4F5FA"/>
<ellipse cx="99.8457" cy="84.8" rx="5.65431" ry="5.8371" fill="#F4F5FA"/>
<ellipse cx="136.1" cy="84.8" rx="5.65431" ry="5.8371" fill="#F4F5FA"/>
</g>
<g filter="url(#filter1_d_11500_72698)">
<path d="M260 370C260 352.327 274.327 338 292 338H425.973C443.646 338 457.973 352.327 457.973 370V399.286C457.973 416.959 443.646 431.286 425.973 431.286H345.104C344.2 431.286 343.316 431.548 342.558 432.04L311.809 451.995C310.478 452.859 308.72 451.904 308.72 450.318V435.963C308.72 433.38 306.626 431.286 304.043 431.286H292C274.327 431.286 260 416.959 260 399.286L260 370Z" fill="#FF9900"/>
</g>
<g opacity="0.5">
<ellipse cx="7.43581" cy="7.73321" rx="7.43581" ry="7.73321" transform="matrix(-1 0 0 1 425.492 377.748)" fill="#F4F5FA"/>
<ellipse cx="7.43581" cy="7.73321" rx="7.43581" ry="7.73321" transform="matrix(-1 0 0 1 366.004 377.749)" fill="#F4F5FA"/>
<ellipse cx="7.43581" cy="7.73321" rx="7.43581" ry="7.73321" transform="matrix(-1 0 0 1 306.52 377.749)" fill="#F4F5FA"/>
</g>
<path d="M260.561 273.198L287.644 299.307C283.962 302.122 281.576 306.539 281.576 311.521C281.576 320.027 288.495 326.92 297.028 326.92C305.562 326.92 312.479 320.027 312.479 311.521C312.479 310.795 312.411 310.087 312.314 309.388C313.016 309.484 313.727 309.553 314.456 309.553C322.989 309.553 329.907 302.657 329.907 294.153C329.907 285.648 322.989 278.754 314.456 278.754C309.534 278.754 305.16 281.054 302.332 284.626L275.021 258.301C264.665 257.921 260.085 263.118 260.561 273.198Z" fill="#ECEDED"/>
<path d="M327.896 286.561C325.238 281.903 320.224 278.754 314.462 278.754C309.542 278.754 305.167 281.054 302.338 284.626L275.029 258.301C268.929 258.077 264.849 259.802 262.609 263.305L286.591 286.422C284.284 288.185 282.486 290.577 281.465 293.343L287.652 299.307C285.348 301.066 283.554 303.453 282.531 306.213C285.186 310.881 290.205 314.036 295.973 314.036C304.507 314.036 311.424 307.141 311.424 298.637C311.424 297.911 311.357 297.202 311.259 296.502C311.962 296.6 312.672 296.667 313.401 296.667C320.065 296.667 325.728 292.453 327.896 286.561Z" fill="white"/>
<path d="M297.033 329C287.362 329 279.494 321.159 279.494 311.52C279.494 306.855 281.321 302.492 284.576 299.234L259.115 274.693C258.733 274.324 258.505 273.826 258.481 273.296C258.207 267.505 259.528 263.099 262.407 260.202C265.235 257.354 269.501 256.027 275.104 256.219C275.618 256.238 276.107 256.447 276.477 256.802L302.233 281.632C305.494 278.456 309.841 276.672 314.46 276.672C324.132 276.672 331.999 284.514 331.999 294.151C331.999 303.752 324.192 311.572 314.572 311.632C314.512 321.219 306.667 329 297.033 329ZM262.624 272.287L289.102 297.81C289.538 298.231 289.769 298.821 289.735 299.425C289.699 300.028 289.403 300.588 288.92 300.956C285.583 303.507 283.669 307.357 283.669 311.52C283.669 318.864 289.664 324.839 297.033 324.839C304.403 324.839 310.397 318.864 310.397 311.52C310.397 310.973 310.351 310.385 310.252 309.671C310.162 309.024 310.381 308.374 310.844 307.914C311.306 307.455 311.956 307.24 312.608 307.325C313.321 307.425 313.909 307.471 314.46 307.471C321.83 307.471 327.824 301.496 327.824 294.151C327.824 286.808 321.83 280.832 314.46 280.832C310.355 280.832 306.533 282.684 303.974 285.914C303.609 286.376 303.063 286.662 302.475 286.7C301.89 286.733 301.309 286.529 300.884 286.121L274.162 260.36C270.141 260.307 267.224 261.263 265.373 263.129C263.473 265.042 262.549 268.12 262.624 272.287Z" fill="black"/>
<path d="M306.223 221.288L306.324 221.197L305.7 220.578C305.211 219.932 304.7 219.301 304.135 218.708C303.26 217.788 302.312 216.962 301.304 216.217L246.536 161.894L167.641 244.795C172.754 255.751 199.039 265.163 214.387 288.39C215.399 292.184 217.188 295.563 219.83 298.341C233.169 312.368 262.855 305.912 286.136 283.923C308.074 263.201 316.486 236.085 306.223 221.288Z" fill="#6C1C00"/>
<path d="M306.212 221.286L306.313 221.196L305.689 220.577C305.201 219.93 304.688 219.3 304.123 218.706C303.25 217.787 302.301 216.961 301.292 216.216L248.315 163.668L189.562 228.759C194.676 239.717 220.749 269.27 226.805 278.376C232.861 287.484 245.466 294.175 252.798 295.906C259.891 297.579 265.006 297.794 269.866 296.243C275.435 292.94 280.939 288.819 286.125 283.921C308.062 263.199 316.474 236.084 306.212 221.286Z" fill="#CA3900"/>
<path d="M239.323 308.466C230.468 308.466 223.046 305.65 217.859 300.196C215.069 297.263 213.062 293.673 211.885 289.519C203.513 277.025 191.673 268.533 182.143 261.698C174.077 255.915 164.157 248.225 161.63 242.811C161.162 241.807 164.906 243.74 165.67 242.936L244.566 160.036C245.068 159.509 245.402 159.422 246.13 159.412C246.845 159.42 250.391 161.799 250.908 162.312L303.071 214.17C304.166 214.993 305.182 215.893 306.092 216.85C306.631 217.416 307.156 218.038 307.737 218.799L308.227 219.286C308.564 219.619 308.801 220.03 308.926 220.476C319.363 236.714 310.495 264.623 287.991 285.879C276.378 296.848 262.824 304.446 249.825 307.274C246.152 308.072 242.636 308.466 239.323 308.466ZM170.985 245.193C173.545 248.886 179.051 252.834 185.305 257.319C195.286 264.477 207.708 273.386 216.642 286.905C216.802 287.149 216.922 287.416 216.997 287.696C217.919 291.154 219.53 294.112 221.788 296.485C227.562 302.557 237.112 304.514 248.672 302.002C260.721 299.382 273.361 292.265 284.268 281.963C304.847 262.525 313.511 236.545 303.991 222.82C303.92 222.719 303.858 222.616 303.805 222.509L303.785 222.489C303.693 222.399 303.61 222.302 303.532 222.199C303.029 221.534 302.594 221.014 302.165 220.562C301.425 219.786 300.591 219.051 299.685 218.382C299.58 218.305 299.481 218.219 299.388 218.128L246.587 165.754L170.985 245.193Z" fill="black"/>
<path d="M232.252 230.22C255.532 208.229 263.59 179.032 250.251 165.005C236.911 150.979 207.225 157.434 183.945 179.424C160.665 201.415 152.606 230.612 165.946 244.639C179.285 258.665 208.972 252.21 232.252 230.22Z" fill="#CB3C00"/>
<path d="M250.243 165.006C236.903 150.98 207.217 157.435 183.937 179.425C173.964 188.845 166.796 199.586 162.895 209.891C161.774 218.933 163.676 226.981 169.016 232.596C182.356 246.623 212.042 240.167 235.322 218.177C245.294 208.757 252.463 198.017 256.363 187.711C257.485 178.67 255.582 170.621 250.243 165.006Z" fill="#FD7121"/>
<path d="M185.439 254.448C176.673 254.448 169.33 251.666 164.205 246.277C149.981 231.321 158.096 200.556 182.295 177.697C206.492 154.84 237.752 148.41 251.978 163.368C266.201 178.326 258.087 209.09 233.888 231.949C222.317 242.878 208.817 250.447 195.873 253.262C192.223 254.056 188.73 254.448 185.439 254.448ZM230.643 159.913C217.103 159.913 200.084 167.453 185.581 181.153C163.295 202.205 155.261 229.951 167.672 243.002C173.527 249.158 183.177 251.15 194.855 248.611C206.958 245.978 219.654 238.834 230.602 228.492C252.887 207.442 260.919 179.696 248.511 166.643C244.176 162.085 237.911 159.913 230.643 159.913Z" fill="black"/>
<path d="M209.413 191.132L184.551 167.166C188.333 164.276 190.722 159.666 190.497 154.499C190.162 146.785 183.826 140.433 176.087 140.06C167.363 139.64 160.157 146.565 160.157 155.168C160.157 155.881 160.224 156.577 160.32 157.264C159.63 157.169 158.932 157.102 158.216 157.102C149.266 157.102 142.125 164.824 143.134 173.948C143.904 180.898 149.55 186.509 156.525 187.263C162.039 187.858 167.026 185.499 170.125 181.586L195.261 205.817C196.42 206.933 198.003 207.52 199.61 207.41C207.009 206.902 210.729 202.842 211.147 195.593C211.243 193.927 210.617 192.293 209.413 191.132Z" fill="#ECEAEE"/>
<path d="M184.57 167.166C186.57 165.638 188.175 163.624 189.215 161.306L189.572 156.064C191.839 154.332 188.599 152.743 189.602 150.024C187.547 144.463 182.278 140.357 176.106 140.06C167.382 139.64 160.176 146.565 160.176 155.168C160.176 155.881 160.243 156.577 160.339 157.264C159.649 157.169 158.951 157.102 158.235 157.102C151.673 157.102 146.099 161.26 143.98 167.07C145.923 172.35 150.85 175.809 156.545 176.926C161.841 177.964 169.491 177.91 172.591 173.997L205.969 204.068C206.299 204.386 206.667 204.656 207.057 204.885C209.574 202.895 210.924 199.78 211.166 195.593C211.262 193.927 210.635 192.293 209.432 191.132L184.57 167.166Z" fill="white"/>
<path d="M199.235 209.466C197.239 209.466 195.3 208.686 193.845 207.285L170.233 184.524C166.569 188.093 161.518 189.856 156.313 189.294C148.377 188.437 141.981 182.077 141.105 174.173C140.565 169.289 142.127 164.406 145.391 160.776C148.632 157.17 153.265 155.089 158.116 155.059C158.145 150.357 160.04 145.985 163.46 142.738C166.905 139.466 171.431 137.805 176.195 138.018C184.989 138.442 192.174 145.643 192.554 154.411C192.762 159.211 190.93 163.855 187.578 167.233L210.848 189.664C212.476 191.233 213.335 193.437 213.203 195.71C212.717 204.127 208.069 208.878 199.76 209.448C199.585 209.46 199.409 209.466 199.235 209.466ZM170.134 179.543C170.665 179.543 171.177 179.747 171.56 180.118L196.696 204.347C197.444 205.069 198.447 205.448 199.478 205.371C205.684 204.945 208.744 201.801 209.109 195.476C209.172 194.391 208.766 193.344 207.997 192.601L183.134 168.635C182.705 168.222 182.478 167.643 182.512 167.049C182.546 166.455 182.838 165.906 183.312 165.545C186.719 162.941 188.642 158.845 188.458 154.586C188.168 147.908 182.694 142.423 175.997 142.101C172.364 141.926 168.914 143.202 166.289 145.696C163.663 148.19 162.216 151.553 162.216 155.167C162.216 155.705 162.262 156.282 162.359 156.982C162.448 157.617 162.233 158.256 161.779 158.709C161.323 159.162 160.686 159.381 160.046 159.288C159.343 159.191 158.764 159.145 158.225 159.145C154.498 159.145 150.934 160.734 148.445 163.502C145.921 166.309 144.763 169.94 145.181 173.725C145.847 179.739 150.714 184.578 156.755 185.231C161.302 185.726 165.7 183.886 168.524 180.32C168.884 179.867 169.418 179.586 169.997 179.548C170.043 179.545 170.089 179.543 170.134 179.543Z" fill="black"/>
<defs>
<filter id="filter0_d_11500_72698" x="0" y="0.558751" width="473" height="473" filterUnits="userSpaceOnUse" color-interpolation-filters="sRGB">
<feFlood flood-opacity="0" result="BackgroundImageFix"/>
<feColorMatrix in="SourceAlpha" type="matrix" values="0 0 0 0 0 0 0 0 0 0 0 0 0 0 0 0 0 0 127 0" result="hardAlpha"/>
<feOffset dy="3.55875"/>
<feGaussianBlur stdDeviation="30"/>
<feColorMatrix type="matrix" values="0 0 0 0 0 0 0 0 0 0.101953 0 0 0 0 0.2625 0 0 0 0.08 0"/>
<feBlend mode="normal" in2="BackgroundImageFix" result="effect1_dropShadow_11500_72698"/>
<feBlend mode="normal" in="SourceGraphic" in2="effect1_dropShadow_11500_72698" result="shape"/>
</filter>
<filter id="filter1_d_11500_72698" x="235.807" y="316.226" width="246.359" height="162.707" filterUnits="userSpaceOnUse" color-interpolation-filters="sRGB">
<feFlood flood-opacity="0" result="BackgroundImageFix"/>
<feColorMatrix in="SourceAlpha" type="matrix" values="0 0 0 0 0 0 0 0 0 0 0 0 0 0 0 0 0 0 127 0" result="hardAlpha"/>
<feOffset dy="2.4193"/>
<feGaussianBlur stdDeviation="12.0965"/>
<feColorMatrix type="matrix" values="0 0 0 0 0 0 0 0 0 0 0 0 0 0 0 0 0 0 0.15 0"/>
<feBlend mode="normal" in2="BackgroundImageFix" result="effect1_dropShadow_11500_72698"/>
<feBlend mode="normal" in="SourceGraphic" in2="effect1_dropShadow_11500_72698" result="shape"/>
</filter>
<radialGradient id="paint0_radial_11500_72698" cx="0" cy="0" r="1" gradientUnits="userSpaceOnUse" gradientTransform="translate(236.5 233.5) scale(145.5 145.5)">
<stop stop-color="#FFA1A1"/>
<stop offset="0.18277" stop-color="#FF7E7E"/>
<stop offset="0.57315" stop-color="#FF3A3A"/>
<stop offset="0.85594" stop-color="#FF1010"/>
<stop offset="1" stop-color="#FF0000"/>
</radialGradient>
</defs>
</svg>
