<svg width="485" height="479" viewBox="0 0 485 479" fill="none" xmlns="http://www.w3.org/2000/svg">
<g filter="url(#filter0_d_8580_46435)">
<circle cx="236.5" cy="233.5" r="176.5" fill="white"/>
</g>
<g clip-path="url(#clip0_8580_46435)">
<path d="M237 380C317.634 380 383 314.634 383 234C383 153.366 317.634 88 237 88C156.366 88 91 153.366 91 234C91 314.634 156.366 380 237 380Z" fill="#3468D1"/>
<path fill-rule="evenodd" clip-rule="evenodd" d="M220.72 189.213C223.574 189.214 226.364 190.061 228.737 191.647C231.11 193.233 232.959 195.487 234.051 198.124C235.143 200.761 235.428 203.662 234.871 206.461C234.314 209.261 232.939 211.832 230.921 213.85C228.903 215.868 226.331 217.242 223.532 217.799C220.733 218.355 217.831 218.069 215.194 216.977C212.558 215.885 210.304 214.035 208.718 211.662C207.133 209.289 206.286 206.499 206.286 203.645C206.287 199.817 207.808 196.146 210.515 193.44C213.221 190.734 216.892 189.213 220.72 189.213V189.213ZM255.561 189.213C258.415 189.214 261.205 190.061 263.578 191.647C265.951 193.233 267.8 195.487 268.892 198.124C269.983 200.761 270.269 203.663 269.711 206.462C269.154 209.261 267.78 211.832 265.761 213.85C263.743 215.868 261.171 217.242 258.372 217.799C255.573 218.355 252.671 218.069 250.035 216.977C247.398 215.885 245.144 214.035 243.559 211.662C241.973 209.289 241.127 206.499 241.127 203.645C241.127 199.817 242.648 196.146 245.355 193.44C248.062 190.733 251.734 189.213 255.561 189.213V189.213ZM255.561 249.924C258.415 249.925 261.205 250.772 263.578 252.358C265.951 253.944 267.8 256.198 268.892 258.835C269.983 261.472 270.269 264.374 269.711 267.173C269.154 269.972 267.78 272.543 265.761 274.561C263.743 276.579 261.171 277.953 258.372 278.51C255.573 279.066 252.671 278.78 250.035 277.688C247.398 276.595 245.144 274.746 243.559 272.373C241.973 270 241.127 267.209 241.127 264.355C241.127 262.46 241.5 260.583 242.226 258.832C242.951 257.081 244.015 255.49 245.355 254.15C246.696 252.81 248.287 251.747 250.038 251.022C251.789 250.297 253.666 249.924 255.561 249.924V249.924ZM220.72 249.924C223.574 249.925 226.364 250.771 228.737 252.357C231.11 253.943 232.959 256.197 234.051 258.834C235.143 261.471 235.428 264.373 234.871 267.172C234.314 269.971 232.939 272.543 230.921 274.561C228.903 276.579 226.331 277.953 223.532 278.51C220.733 279.066 217.831 278.78 215.194 277.688C212.558 276.596 210.304 274.746 208.718 272.373C207.133 270 206.286 267.21 206.286 264.355C206.287 262.46 206.66 260.583 207.385 258.833C208.111 257.082 209.174 255.491 210.514 254.151C211.855 252.811 213.446 251.748 215.197 251.022C216.948 250.297 218.825 249.924 220.72 249.924V249.924ZM202.802 220.066C205.656 220.067 208.446 220.913 210.819 222.499C213.192 224.085 215.041 226.339 216.133 228.976C217.225 231.613 217.51 234.515 216.953 237.314C216.396 240.113 215.021 242.684 213.003 244.702C210.985 246.72 208.413 248.095 205.614 248.651C202.815 249.208 199.913 248.922 197.276 247.83C194.64 246.737 192.386 244.888 190.8 242.515C189.215 240.141 188.368 237.351 188.368 234.497C188.369 230.67 189.89 226.999 192.597 224.293C195.303 221.586 198.974 220.066 202.802 220.066V220.066ZM273.479 220.066C276.334 220.067 279.123 220.914 281.496 222.5C283.869 224.086 285.718 226.34 286.81 228.977C287.901 231.614 288.187 234.516 287.63 237.315C287.072 240.114 285.698 242.685 283.679 244.703C281.661 246.721 279.089 248.095 276.29 248.651C273.491 249.208 270.589 248.922 267.953 247.83C265.316 246.737 263.062 244.888 261.477 242.515C259.891 240.141 259.045 237.351 259.045 234.497C259.045 232.602 259.418 230.725 260.144 228.974C260.869 227.223 261.933 225.632 263.273 224.292C264.614 222.952 266.205 221.889 267.956 221.164C269.707 220.439 271.584 220.066 273.479 220.066V220.066ZM289.904 195.186C291.676 195.186 293.408 195.712 294.88 196.696C296.353 197.681 297.501 199.08 298.178 200.717C298.856 202.354 299.033 204.155 298.687 205.892C298.341 207.629 297.488 209.225 296.235 210.478C294.982 211.73 293.386 212.583 291.649 212.928C289.911 213.274 288.11 213.096 286.474 212.418C284.837 211.74 283.438 210.592 282.454 209.119C281.47 207.646 280.945 205.914 280.945 204.143C280.945 202.966 281.177 201.802 281.627 200.715C282.077 199.628 282.737 198.64 283.569 197.808C284.401 196.977 285.389 196.317 286.476 195.867C287.563 195.417 288.728 195.185 289.904 195.186V195.186ZM289.904 254.9C291.676 254.9 293.408 255.426 294.88 256.41C296.353 257.395 297.501 258.794 298.178 260.431C298.856 262.068 299.033 263.869 298.687 265.606C298.341 267.343 297.488 268.939 296.235 270.192C294.982 271.444 293.386 272.297 291.649 272.642C289.911 272.988 288.11 272.81 286.474 272.132C284.837 271.454 283.438 270.306 282.454 268.833C281.47 267.36 280.945 265.629 280.945 263.857C280.945 262.681 281.177 261.516 281.627 260.429C282.077 259.342 282.737 258.354 283.569 257.522C284.401 256.691 285.389 256.031 286.476 255.581C287.563 255.131 288.728 254.899 289.904 254.9V254.9ZM186.377 254.9C188.148 254.9 189.88 255.425 191.353 256.41C192.826 257.394 193.974 258.793 194.651 260.43C195.329 262.067 195.506 263.868 195.161 265.605C194.815 267.343 193.962 268.939 192.709 270.191C191.456 271.444 189.86 272.297 188.123 272.642C186.385 272.988 184.584 272.81 182.948 272.132C181.311 271.454 179.912 270.306 178.928 268.833C177.944 267.36 177.418 265.629 177.418 263.857C177.419 261.481 178.363 259.203 180.043 257.523C181.723 255.843 184.001 254.9 186.377 254.9V254.9ZM186.377 195.186C188.148 195.186 189.88 195.711 191.353 196.696C192.826 197.68 193.974 199.079 194.651 200.716C195.329 202.353 195.506 204.154 195.161 205.891C194.815 207.629 193.962 209.225 192.709 210.477C191.456 211.73 189.86 212.583 188.123 212.928C186.385 213.274 184.584 213.096 182.948 212.418C181.311 211.74 179.912 210.592 178.928 209.119C177.944 207.646 177.418 205.915 177.418 204.143C177.419 201.767 178.363 199.489 180.043 197.809C181.723 196.129 184.001 195.186 186.377 195.186V195.186ZM238.141 165.328C239.912 165.328 241.644 165.854 243.116 166.838C244.589 167.823 245.737 169.222 246.415 170.859C247.092 172.495 247.269 174.296 246.923 176.034C246.577 177.771 245.724 179.367 244.471 180.619C243.219 181.872 241.622 182.725 239.885 183.07C238.147 183.416 236.347 183.238 234.71 182.56C233.073 181.882 231.675 180.734 230.69 179.261C229.706 177.788 229.181 176.056 229.181 174.285C229.181 173.108 229.413 171.943 229.863 170.856C230.313 169.77 230.973 168.782 231.805 167.95C232.637 167.118 233.625 166.459 234.712 166.009C235.799 165.559 236.964 165.327 238.141 165.328V165.328ZM238.141 284.758C239.912 284.758 241.644 285.284 243.116 286.269C244.589 287.253 245.737 288.652 246.415 290.289C247.092 291.926 247.269 293.727 246.923 295.464C246.577 297.201 245.724 298.797 244.471 300.05C243.219 301.302 241.622 302.155 239.885 302.501C238.147 302.846 236.347 302.668 234.71 301.99C233.073 301.312 231.675 300.164 230.69 298.691C229.706 297.218 229.181 295.487 229.181 293.715C229.181 292.539 229.413 291.374 229.863 290.287C230.313 289.2 230.973 288.212 231.805 287.381C232.637 286.549 233.625 285.889 234.712 285.439C235.799 284.989 236.964 284.758 238.141 284.758V284.758ZM276.466 293.715C277.942 293.716 279.385 294.154 280.612 294.974C281.839 295.795 282.795 296.961 283.36 298.325C283.925 299.688 284.072 301.189 283.784 302.637C283.496 304.085 282.785 305.415 281.741 306.458C280.697 307.502 279.367 308.213 277.919 308.5C276.471 308.788 274.97 308.64 273.606 308.075C272.243 307.51 271.077 306.554 270.257 305.326C269.437 304.099 268.999 302.656 268.999 301.179C268.999 300.199 269.192 299.228 269.568 298.322C269.943 297.417 270.493 296.594 271.186 295.901C271.879 295.207 272.703 294.658 273.608 294.283C274.514 293.908 275.485 293.715 276.466 293.715V293.715ZM199.816 293.715C201.292 293.716 202.735 294.154 203.962 294.974C205.189 295.795 206.145 296.961 206.71 298.325C207.275 299.688 207.422 301.189 207.134 302.637C206.846 304.085 206.135 305.415 205.091 306.458C204.047 307.502 202.717 308.213 201.269 308.5C199.821 308.788 198.32 308.64 196.956 308.075C195.593 307.51 194.427 306.554 193.607 305.326C192.787 304.099 192.349 302.656 192.349 301.179C192.349 300.199 192.542 299.228 192.917 298.322C193.293 297.417 193.843 296.594 194.536 295.901C195.229 295.207 196.053 294.658 196.958 294.283C197.864 293.908 198.835 293.715 199.816 293.715V293.715ZM199.816 159.356C201.292 159.357 202.735 159.795 203.962 160.615C205.189 161.436 206.145 162.602 206.71 163.966C207.275 165.33 207.422 166.83 207.134 168.278C206.846 169.726 206.135 171.056 205.091 172.099C204.047 173.143 202.717 173.854 201.269 174.142C199.821 174.429 198.32 174.281 196.956 173.716C195.593 173.151 194.427 172.195 193.607 170.967C192.787 169.74 192.349 168.297 192.349 166.821C192.349 165.84 192.542 164.869 192.917 163.964C193.293 163.058 193.843 162.235 194.536 161.542C195.229 160.849 196.053 160.299 196.958 159.924C197.864 159.549 198.835 159.356 199.816 159.356V159.356ZM276.466 159.356C277.942 159.357 279.385 159.795 280.612 160.615C281.839 161.436 282.795 162.602 283.36 163.966C283.925 165.33 284.072 166.83 283.784 168.278C283.496 169.726 282.785 171.056 281.741 172.099C280.697 173.143 279.367 173.854 277.919 174.142C276.471 174.429 274.97 174.281 273.606 173.716C272.243 173.151 271.077 172.195 270.257 170.967C269.437 169.74 268.999 168.297 268.999 166.821C268.999 165.84 269.192 164.869 269.568 163.964C269.943 163.058 270.493 162.235 271.186 161.542C271.879 160.849 272.703 160.299 273.608 159.924C274.514 159.549 275.485 159.356 276.466 159.356V159.356ZM315.288 226.038C316.764 226.039 318.207 226.477 319.435 227.297C320.662 228.117 321.618 229.283 322.183 230.647C322.748 232.011 322.896 233.512 322.607 234.96C322.319 236.407 321.608 237.737 320.564 238.781C319.52 239.825 318.19 240.536 316.743 240.824C315.295 241.112 313.794 240.964 312.43 240.399C311.066 239.834 309.901 238.877 309.08 237.649C308.26 236.422 307.823 234.979 307.823 233.503C307.823 231.523 308.61 229.624 310.01 228.225C311.41 226.825 313.308 226.038 315.288 226.038V226.038ZM160.992 226.038C162.468 226.039 163.911 226.477 165.139 227.297C166.366 228.117 167.323 229.283 167.887 230.647C168.452 232.011 168.6 233.512 168.312 234.96C168.024 236.407 167.313 237.737 166.269 238.781C165.225 239.825 163.895 240.536 162.447 240.824C160.999 241.112 159.498 240.964 158.134 240.399C156.77 239.834 155.605 238.877 154.785 237.649C153.965 236.422 153.527 234.979 153.527 233.503C153.527 232.522 153.72 231.552 154.095 230.646C154.47 229.74 155.02 228.917 155.713 228.224C156.407 227.531 157.23 226.981 158.135 226.606C159.041 226.231 160.012 226.038 160.992 226.038V226.038ZM155.517 180.256C156.698 180.256 157.853 180.606 158.835 181.263C159.818 181.919 160.583 182.852 161.035 183.943C161.487 185.034 161.605 186.235 161.375 187.394C161.144 188.552 160.575 189.617 159.74 190.452C158.904 191.287 157.84 191.856 156.682 192.086C155.523 192.316 154.322 192.198 153.231 191.746C152.14 191.294 151.207 190.528 150.551 189.546C149.895 188.563 149.545 187.408 149.545 186.227C149.545 184.643 150.175 183.125 151.295 182.005C152.415 180.885 153.933 180.256 155.517 180.256V180.256ZM155.517 275.8C156.698 275.8 157.853 276.151 158.835 276.807C159.818 277.463 160.583 278.396 161.035 279.488C161.487 280.579 161.605 281.78 161.375 282.938C161.144 284.097 160.575 285.161 159.74 285.996C158.904 286.831 157.84 287.4 156.682 287.63C155.523 287.861 154.322 287.742 153.231 287.29C152.14 286.838 151.207 286.072 150.551 285.09C149.895 284.108 149.545 282.953 149.545 281.772C149.545 280.188 150.175 278.669 151.295 277.549C152.415 276.43 153.933 275.8 155.517 275.8V275.8ZM320.763 275.8C321.944 275.8 323.099 276.151 324.081 276.807C325.063 277.463 325.829 278.396 326.281 279.488C326.733 280.579 326.851 281.78 326.62 282.938C326.39 284.097 325.821 285.161 324.986 285.996C324.15 286.831 323.086 287.4 321.927 287.63C320.769 287.861 319.568 287.742 318.477 287.29C317.385 286.838 316.453 286.072 315.797 285.09C315.14 284.108 314.79 282.953 314.791 281.772C314.791 280.188 315.42 278.669 316.54 277.549C317.66 276.43 319.179 275.8 320.763 275.8V275.8ZM320.763 180.256C321.944 180.256 323.099 180.606 324.081 181.263C325.063 181.919 325.829 182.852 326.281 183.943C326.733 185.034 326.851 186.235 326.62 187.394C326.39 188.552 325.821 189.617 324.986 190.452C324.15 191.287 323.086 191.856 321.927 192.086C320.769 192.316 319.568 192.198 318.477 191.746C317.385 191.294 316.453 190.528 315.797 189.546C315.14 188.563 314.79 187.408 314.791 186.227C314.791 184.643 315.42 183.125 316.54 182.005C317.66 180.885 319.179 180.256 320.763 180.256V180.256ZM238.141 132.484C239.322 132.485 240.476 132.835 241.458 133.492C242.44 134.148 243.206 135.081 243.658 136.172C244.109 137.264 244.227 138.464 243.997 139.623C243.766 140.781 243.197 141.846 242.362 142.681C241.526 143.516 240.462 144.084 239.303 144.314C238.145 144.545 236.944 144.426 235.853 143.974C234.762 143.522 233.829 142.756 233.173 141.774C232.517 140.791 232.167 139.637 232.167 138.456C232.167 137.671 232.322 136.895 232.622 136.17C232.922 135.445 233.362 134.787 233.917 134.232C234.472 133.678 235.13 133.238 235.855 132.938C236.58 132.638 237.356 132.484 238.141 132.484V132.484ZM238.141 323.572C239.322 323.572 240.476 323.923 241.458 324.579C242.44 325.236 243.206 326.168 243.658 327.26C244.109 328.351 244.227 329.552 243.997 330.71C243.766 331.869 243.197 332.933 242.362 333.768C241.527 334.603 240.463 335.172 239.304 335.402C238.146 335.632 236.945 335.514 235.854 335.062C234.762 334.61 233.83 333.845 233.174 332.862C232.517 331.88 232.167 330.726 232.167 329.544C232.167 328.76 232.322 327.983 232.622 327.259C232.922 326.534 233.362 325.876 233.917 325.321C234.472 324.766 235.13 324.327 235.855 324.026C236.58 323.726 237.356 323.572 238.141 323.572ZM290.899 319.591C291.883 319.591 292.846 319.883 293.664 320.43C294.482 320.977 295.12 321.754 295.497 322.663C295.873 323.573 295.972 324.573 295.78 325.539C295.588 326.504 295.114 327.391 294.418 328.087C293.722 328.783 292.835 329.257 291.87 329.449C290.905 329.641 289.904 329.542 288.995 329.166C288.085 328.789 287.308 328.151 286.761 327.333C286.214 326.514 285.923 325.552 285.923 324.568C285.923 323.914 286.051 323.267 286.301 322.663C286.551 322.06 286.918 321.511 287.38 321.049C287.842 320.587 288.391 320.22 288.995 319.97C289.598 319.72 290.246 319.591 290.899 319.591V319.591ZM185.381 319.591C186.365 319.591 187.327 319.883 188.146 320.43C188.964 320.977 189.602 321.754 189.979 322.663C190.355 323.573 190.454 324.573 190.262 325.539C190.07 326.504 189.596 327.391 188.9 328.087C188.204 328.783 187.317 329.257 186.352 329.449C185.387 329.641 184.386 329.542 183.477 329.166C182.567 328.789 181.79 328.151 181.243 327.333C180.696 326.514 180.404 325.552 180.404 324.568C180.404 323.914 180.533 323.267 180.783 322.663C181.033 322.06 181.4 321.511 181.862 321.049C182.324 320.587 182.873 320.22 183.477 319.97C184.08 319.72 184.727 319.591 185.381 319.591V319.591ZM185.381 138.46C186.365 138.46 187.327 138.752 188.146 139.299C188.964 139.846 189.602 140.623 189.979 141.532C190.355 142.442 190.454 143.442 190.262 144.408C190.07 145.373 189.596 146.26 188.9 146.956C188.204 147.652 187.317 148.126 186.352 148.318C185.387 148.51 184.386 148.411 183.477 148.034C182.567 147.658 181.79 147.02 181.243 146.201C180.696 145.383 180.404 144.421 180.404 143.437C180.404 142.783 180.532 142.135 180.782 141.531C181.032 140.927 181.398 140.377 181.86 139.915C182.323 139.452 182.871 139.085 183.476 138.835C184.08 138.584 184.727 138.456 185.381 138.456V138.46ZM290.899 138.46C291.883 138.46 292.846 138.752 293.664 139.299C294.482 139.846 295.12 140.623 295.497 141.532C295.873 142.442 295.972 143.442 295.78 144.408C295.588 145.373 295.114 146.26 294.418 146.956C293.722 147.652 292.835 148.126 291.87 148.318C290.905 148.51 289.904 148.411 288.995 148.034C288.085 147.658 287.308 147.02 286.761 146.201C286.214 145.383 285.923 144.421 285.923 143.437C285.922 142.783 286.05 142.135 286.3 141.531C286.55 140.927 286.916 140.377 287.379 139.915C287.841 139.452 288.39 139.085 288.994 138.835C289.598 138.584 290.245 138.456 290.899 138.456V138.46ZM342.663 229.026C343.647 229.026 344.61 229.318 345.428 229.865C346.246 230.412 346.884 231.189 347.261 232.098C347.637 233.008 347.736 234.009 347.544 234.974C347.351 235.939 346.877 236.826 346.181 237.522C345.485 238.218 344.598 238.692 343.632 238.884C342.667 239.075 341.666 238.976 340.757 238.599C339.848 238.222 339.071 237.584 338.524 236.765C337.977 235.947 337.686 234.984 337.686 234C337.686 233.346 337.815 232.699 338.065 232.096C338.315 231.492 338.682 230.943 339.144 230.481C339.606 230.019 340.155 229.652 340.758 229.402C341.362 229.152 342.009 229.023 342.663 229.023V229.026ZM133.617 229.026C134.602 229.026 135.564 229.318 136.382 229.865C137.201 230.412 137.839 231.189 138.215 232.098C138.592 233.008 138.69 234.009 138.498 234.974C138.306 235.939 137.832 236.826 137.135 237.522C136.439 238.218 135.552 238.692 134.587 238.884C133.621 239.075 132.62 238.976 131.711 238.599C130.802 238.222 130.025 237.584 129.478 236.765C128.932 235.947 128.64 234.984 128.641 234C128.641 233.346 128.769 232.699 129.019 232.096C129.27 231.492 129.636 230.943 130.098 230.481C130.56 230.019 131.109 229.652 131.713 229.402C132.317 229.152 132.964 229.023 133.617 229.023V229.026Z" fill="white"/>
</g>
<path d="M176.051 74C176.051 60.7452 165.306 50 152.051 50H46.0008C32.746 50 22.0008 60.7452 22.0008 74V99.1811C22.0008 112.436 32.7459 123.181 46.0008 123.181H118.706C119.596 123.181 120.467 123.435 121.218 123.913L144.986 139.043C146.317 139.891 148.06 138.934 148.06 137.356V125.181C148.06 124.077 148.955 123.181 150.06 123.181H152.051C165.306 123.181 176.051 112.436 176.051 99.1811L176.051 74Z" fill="#1168F1"/>
<g opacity="0.5">
<ellipse cx="65.5879" cy="84.8" rx="5.65431" ry="5.8371" fill="#F4F5FA"/>
<ellipse cx="101.846" cy="84.8" rx="5.65431" ry="5.8371" fill="#F4F5FA"/>
<ellipse cx="138.1" cy="84.8" rx="5.65431" ry="5.8371" fill="#F4F5FA"/>
</g>
<g filter="url(#filter1_d_8580_46435)">
<path d="M262 370C262 352.327 276.327 338 294 338H427.973C445.646 338 459.973 352.327 459.973 370V399.286C459.973 416.959 445.646 431.286 427.973 431.286H347.104C346.2 431.286 345.316 431.548 344.558 432.04L313.809 451.995C312.478 452.859 310.72 451.904 310.72 450.318V435.963C310.72 433.38 308.626 431.286 306.043 431.286H294C276.327 431.286 262 416.959 262 399.286L262 370Z" fill="#FF9900"/>
</g>
<g opacity="0.5">
<ellipse rx="7.43581" ry="7.73321" transform="matrix(-1 0 0 1 420.056 385.481)" fill="#F4F5FA"/>
<ellipse rx="7.43581" ry="7.73321" transform="matrix(-1 0 0 1 360.568 385.482)" fill="#F4F5FA"/>
<ellipse rx="7.43581" ry="7.73321" transform="matrix(-1 0 0 1 301.084 385.482)" fill="#F4F5FA"/>
</g>
<defs>
<filter id="filter0_d_8580_46435" x="0" y="0.558751" width="473" height="473" filterUnits="userSpaceOnUse" color-interpolation-filters="sRGB">
<feFlood flood-opacity="0" result="BackgroundImageFix"/>
<feColorMatrix in="SourceAlpha" type="matrix" values="0 0 0 0 0 0 0 0 0 0 0 0 0 0 0 0 0 0 127 0" result="hardAlpha"/>
<feOffset dy="3.55875"/>
<feGaussianBlur stdDeviation="30"/>
<feColorMatrix type="matrix" values="0 0 0 0 0 0 0 0 0 0.101953 0 0 0 0 0.2625 0 0 0 0.08 0"/>
<feBlend mode="normal" in2="BackgroundImageFix" result="effect1_dropShadow_8580_46435"/>
<feBlend mode="normal" in="SourceGraphic" in2="effect1_dropShadow_8580_46435" result="shape"/>
</filter>
<filter id="filter1_d_8580_46435" x="237.807" y="316.226" width="246.359" height="162.707" filterUnits="userSpaceOnUse" color-interpolation-filters="sRGB">
<feFlood flood-opacity="0" result="BackgroundImageFix"/>
<feColorMatrix in="SourceAlpha" type="matrix" values="0 0 0 0 0 0 0 0 0 0 0 0 0 0 0 0 0 0 127 0" result="hardAlpha"/>
<feOffset dy="2.4193"/>
<feGaussianBlur stdDeviation="12.0965"/>
<feColorMatrix type="matrix" values="0 0 0 0 0 0 0 0 0 0 0 0 0 0 0 0 0 0 0.15 0"/>
<feBlend mode="normal" in2="BackgroundImageFix" result="effect1_dropShadow_8580_46435"/>
<feBlend mode="normal" in="SourceGraphic" in2="effect1_dropShadow_8580_46435" result="shape"/>
</filter>
<clipPath id="clip0_8580_46435">
<rect width="292" height="292" fill="white" transform="translate(91 88)"/>
</clipPath>
</defs>
</svg>
