<svg width="484" height="479" fill="none" xmlns="http://www.w3.org/2000/svg"><g filter="url(#a)"><circle cx="237.336" cy="233.5" r="176.5" fill="#fff"/></g><g opacity=".8" clip-path="url(#b)"><path d="M237.336 379c80.357 0 145.5-65.143 145.5-145.5S317.693 88 237.336 88s-145.5 65.143-145.5 145.5S156.979 379 237.336 379Z" fill="#988430"/><path d="M237.32 374.338c77.783 0 140.839-63.056 140.839-140.839 0-77.784-63.056-140.84-140.839-140.84-77.784 0-140.84 63.056-140.84 140.84 0 77.783 63.056 140.839 140.84 140.839Z" fill="#7A6A2A"/><path d="M237.333 371.372c76.144 0 137.872-61.727 137.872-137.872 0-76.144-61.728-137.872-137.872-137.872-76.145 0-137.872 61.728-137.872 137.872 0 76.145 61.727 137.872 137.872 137.872Z" fill="#BA9F33"/><path fill-rule="evenodd" clip-rule="evenodd" d="M155.43 217.961c-.824-.752-1.695-1.507-2.496-2.259a227.13 227.13 0 0 0-2.447-2.26l-2.449-2.328c-.401-.4-.824-.753-1.225-1.155-.4-.352-.87-.752-1.271-1.106-3.25-3.084-6.518-6.168-9.723-9.253 3.32 3.037 6.57 6.053 9.889 9.135l1.153 1.154c.401.399.825.753 1.225 1.154l2.448 2.259a78.313 78.313 0 0 1 2.449 2.328 75.013 75.013 0 0 0 2.449 2.328l-.002.003Zm-43.132-.465s11.819 1.223 17.588 2.047c5.343.754 22.06 3.32 22.06 3.32l-39.648-5.367Zm0 0c3.32.282 6.64.635 9.96.988 1.694.165 3.319.353 4.944.517l2.494.284c.824.117 1.625.235 2.449.353l9.89 1.576 4.943.825c1.625.282 3.25.589 4.945.872-1.625-.165-3.32-.401-4.945-.637l-4.943-.706-9.89-1.459c-.824-.118-1.625-.284-2.449-.4l-2.495-.287c-1.625-.165-3.32-.401-4.945-.59-3.32-.399-6.639-.824-9.959-1.341l.001.005Zm38.471 8.446s-12.619 3.203-16.881 4.428c-4.19 1.153-16.881 5.014-16.881 5.014l33.761-9.441.001-.001Z" fill="#CFB66C"/><path fill-rule="evenodd" clip-rule="evenodd" d="M150.795 225.943a325.716 325.716 0 0 1-8.429 2.379l-8.429 2.26c-2.801.824-5.587 1.625-8.381 2.449l-4.19 1.153c-1.389.4-2.801.753-4.237 1.155 1.387-.466 2.801-.942 4.19-1.343l4.191-1.341c2.801-.872 5.587-1.696 8.381-2.567 2.847-.706 5.65-1.46 8.498-2.143a315.667 315.667 0 0 1 8.406-2.001v-.001ZM118.8 243.155c1.388-.519 17.398-7.981 21.118-9.724 1.863-.872 7.276-2.794 7.276-2.794L118.8 243.155Z" fill="#CFB66C"/><path fill-rule="evenodd" clip-rule="evenodd" d="M118.787 243.154c1.223-.466 2.377-1.035 3.554-1.577l3.484-1.625 6.993-3.366c2.328-1.107 4.591-2.328 6.992-3.368 1.225-.517 2.449-.94 3.672-1.341l1.863-.588c.634-.165 1.224-.354 1.862-.518-2.328 1.106-4.779 2.048-7.11 3.13-2.328 1.155-4.709 2.097-7.111 3.132l-7.11 3.13c-2.387.967-4.715 2.002-7.091 2.991h.002Zm1.552 6.518s14.502-8.498 19.493-11.23c2.613-1.459 11.066-5.651 11.066-5.651l-30.559 16.881Z" fill="#CFB66C"/><path fill-rule="evenodd" clip-rule="evenodd" d="M120.348 249.676c2.447-1.507 4.943-3.038 7.438-4.591l3.725-2.261c1.271-.753 2.496-1.459 3.792-2.212 1.271-.754 2.495-1.507 3.79-2.213a13.555 13.555 0 0 1 1.93-.989l1.978-.988c2.613-1.272 5.227-2.567 7.981-3.674-2.495 1.578-5.062 2.921-7.628 4.308-1.271.706-2.567 1.343-3.838 2.049s-2.495 1.46-3.791 2.143a87.443 87.443 0 0 1-3.79 2.142l-3.838 2.095-7.746 4.191h-.003Zm30.44-15.022s-9.017 6.922-11.936 9.135c-2.919 2.213-11.513 8.429-11.513 8.429l23.449-17.564Z" fill="#CFB66C"/><path fill-rule="evenodd" clip-rule="evenodd" d="m202.544 290.476-4.614-8.735 2.683-10.925 19.141-7.392-8.146-16.715 4.025-16.881 7.559-15.116 23.356-3.672 17.162-16.363 37.059 2.801 7.274 39.624-14.008 49.889-7.981 25.829-32.35 1.224-15.02-10.406-17.587-7.347-18.553-5.815Z" fill="#E2CC85"/><path fill-rule="evenodd" clip-rule="evenodd" d="M259.282 290.193s-4.475 2.049-12.106 1.577c-2.208-2.966-17.676-4.355-17.676-4.355s-1.93-.588-5.345.824c-3.436 1.397-6.686 1.225-9.723 1.977-3.037.753-6.053-3.201-8.381-4.025-2.328-.871-5.414-2.966-5.414-2.966l-6.519-.637-13.089-5.532-20.795-20.718-5.651 8.846-1.743 10.948 6.287 12.973 16.928 15.421 33.007 8.381 19.565-5.764 24.509-10.36 6.146-6.591v.001Z" fill="#F1D789"/><path fill-rule="evenodd" clip-rule="evenodd" d="m142.021 216.971 4.19-12.689 4.993-8.194 16.079-1.343-4.827 14.08-13.442 23.921 5.579 21.353-9.887 4.943-3.039-4.66-2.448-10.689-.164-12.007 2.966-14.715Z" fill="#F4ECB4"/><path fill-rule="evenodd" clip-rule="evenodd" d="m160.042 289.323-3.084-4.308s-.824-2.049-.352-3.838c.466-1.813.399-1.931.164-2.614-.234-.683-2.213-3.037-2.095-5.062.117-2.049-.164-2.732 1.341-4.355 1.577-1.577 1.107-4.309 1.107-4.309l2.048 1.271.466-.706s.753.588.753 1.507c.164-1.271-.519-7.158 1.035-8.499 1.553-1.34 4.308 6.286 4.308 6.286l-1.695-11.066-4.356-11.346-7.746-10.36-.466-11.42v-.988s-3.555 5.463-4.544 9.777c-.706 2.966.989 6.568.636 10.83-.284 4.239-.636 3.908.399 5.587 1.035 1.68 3.556 5.133 2.567 7.628-.87 2.144-3.838.637-3.838.637s-.588 1.741-1.389 2.377c-.282-1.035-.588-1.694-1.153-2.328a12.84 12.84 0 0 1-.164.943s-.519-1.625-1.037-3.674c-.705-2.73-1.459-6.332-2.142-8.263-.282 1.107-.989 4.473-.989 4.473l.401 5.181 1.931 7.109 1.862 4.656 1.813 5.698 1.575 3.827 1.271 2.919 1.107 6.57 5.343 5.649 2.85 1.273 2.07-1.06.003-.002Z" fill="#F3E19D"/><path fill-rule="evenodd" clip-rule="evenodd" d="M144.823 206.613s-3.838 6.519-4.943 13.09c-1.105 6.571-2.095 13.515-1.397 22.46.706 9.019 2.049 14.55 3.132 18.506 1.862 6.57 6.686 15.705 6.686 15.705l.165-.354a24.822 24.822 0 0 1-1.931-4.827c-.636-2.495-.872-5.461-1.461-6.804-.518-1.34-1.389-2.495-1.812-4.143-.401-1.577-.466-4.073-1.695-5.932-.518-.754-1.155-2.732-1.343-4.709-.235-2.967.118-6.287-.164-9.017-.518-4.544-.871-7.628-.4-10.007.47-2.38 2.92-9.134 4.427-14.502.989-3.438.399-6.334 2.212-9.325 1.813-2.965 2.921-5.579 3.32-7.392.465-1.648-4.802 7.251-4.802 7.251h.006Z" fill="#F2E8B0"/><path fill-rule="evenodd" clip-rule="evenodd" d="M162.994 203.999s-1.978.59-2.92 1.625c-.942.988-1.342 1.812-2.613 3.484-1.271 1.671-1.343 3.037-2.38 5.132-1.035 2.049-3.319 5.133-3.602 6.239-.282 1.107-.753 6.286-1.341 8.735-.518 2.449.588 5.463.588 5.463l1.341-.284s0 1.743 1.343 2.921c1.341 1.153 1.577-3.91 1.577-3.91l5.014-16.927 7.557-5.133.824-4.143-5.392-3.202h.004Z" fill="#F5EEC0"/><path fill-rule="evenodd" clip-rule="evenodd" d="M166.692 211.675s-3.556.235-5.297 1.507c-.707.517-.989.941-1.742 1.577-1.389 1.153-2.803 2.213-3.484 3.725-.754 1.505-1.578 3.79-2.143 8.098-.236 1.813-.236 3.484-.401 4.945-.235 1.977-.588 3.554-.4 4.656.236 2.26 2.567 3.437 2.794 6.003l4.826-2.448 4.544-17.917 9.654-6.053-5.463-6.121-2.895 2.017.007.011Z" fill="#E6DB9D"/><path fill-rule="evenodd" clip-rule="evenodd" d="m141.236 332.33.06-.536c.705-6.053.825-10.64 1.341-13.513.753-4.073 1.271-5.587 1.154-7.111-.165-2.448-.353-4.237-.117-6.121.352-2.496 2.802-5.462 2.732-7.511-.048-1.624-.873-2.683-1.579-3.672-.706-.988-1.271-1.812-1.271-1.812s4.827-3.32 4.78-16.694c.099.028.194.068.283.118l2.378 6.756 1.624 1.977 6.24 11.631 8.028 7.794 11.865 7.981 7.441 8.096.752 21.59-9.723 12.62-1.592 2.883a138.304 138.304 0 0 1-34.398-24.478l.002.002Z" fill="#E5CB7A"/><path fill-rule="evenodd" clip-rule="evenodd" d="M170.93 352.983s.164-2.683 2.377-4.426c.354.588.589 1.155.519 1.577.4-.705 3.201-5.226 9.535-6.404 6.334-1.153 7.864-5.767 7.864-5.767l13.442-12.219 15.374-14.149 18.694-6.57 8.736-2.143s.165.636-.164 2.048c1.623-.116 5.225-.94 8.969-2.259 1.507-.589 2.92-.825 3.673-.047 1.107 1.035 1.271 3.484 1.341 4.943 1.813-.4 3.908-2.142 5.587-1.977 2.685.282 5.063 3.438 7.794 3.438 3.603 0 5.226-2.214 7.746-3.956 1.507-1.036 3.672-2.328 4.897-3.202 2.919-2.144 33.809-11.584 33.809-11.584l10.83.706 1.742 11.63-.931 30.404c-.115.11-.229.225-.346.335l-49.242 25.719-68.256 10.463a136.9 136.9 0 0 1-43.636-15.009l-.35-1.552-.004.001Z" fill="#D8C173"/><path fill-rule="evenodd" clip-rule="evenodd" d="M145.355 336.196c.97-2.028 1.843-3.724 1.996-4.331.121 1.223.343 3.906.79 6.759a152.708 152.708 0 0 1-2.786-2.429v.001Z" fill="#F1D789"/><path fill-rule="evenodd" clip-rule="evenodd" d="m195.198 364.811 8.828-2.455.753.236s.4.236.4 1.035c1.107-.635 2.049-.518 2.732-.94.352.752.704 3.248 2.26 3.554 1.623.354 3.366-.706 5.132-2.047 1.741-1.389 3.725-3.132 5.226-3.839a28.168 28.168 0 0 1 1.46 3.131c1.977-1.577 5.415-7.981 10.312-7.864a18.569 18.569 0 0 1 6.801-8.216c4.544-3.084 7.392-3.32 10.947-3.038a18.745 18.745 0 0 1 5.133-4.591c.588.236 2.213 1.225 4.238.283 2.049-.941 4.355-4.591 7.393-5.061a7.14 7.14 0 0 1 4.708.988s8.847-8.782 14.951-11.702c-.236-.706-.706-3.366 6.45-9.253.4.354.118 1.343.4 1.397.117 0 1.863-.753 4.073-2.449 2.731-2.047 6.003-4.19 7.98-4.779 3.725-1.106 7.677 1.153 7.677 1.153.336-.235.71-.411 1.106-.518.941-.164 1.624-.282 2.142-.466-.047 1.225.636 3.32 0 5.133.737.415 1.518.746 2.328.989-.399.87-1.271 3.083-2.73 4.143 1.223.589 1.387 1.272 3.13 1.863-.706.988-1.862 2.685-2.377 3.725-.519 1.106-2.38 5.697-3.204 7.438-.87 1.743-2.047 4.945-2.613 5.588-.567.642-2.614 3.366-4.191 4.707 1.397-.518 7.112-2.26 9.536-2.919-.722 1.058-4.38 6.485-7.897 11.705a138.158 138.158 0 0 1-113.094 13.093l.01-.024Z" fill="#E0CD81"/><path fill-rule="evenodd" clip-rule="evenodd" d="M167.265 211.04s-2.047 0-2.448.283c-.4.282 2.049.872 2.802 1.154.753.283 2.377 1.577 2.801 2.614.401.989 14.715 6.756 14.715 6.756l10.124-.519 3.49-4.822-6.639-5.815 4.656-13.726-6.168.989-14.833 8.846-7.44 2.85-1.06 1.39Z" fill="#DFC57C"/><path fill-rule="evenodd" clip-rule="evenodd" d="M189.484 215.583a1.593 1.593 0 0 0 1.397.753c2.095 0 4.024.518 4.825 1.577 1.343 1.696 5.063 7.111 5.063 7.111l8.899 3.202.574-10.479-9.723-6.756-11.066 4.072v.519h.025l.006.001Z" fill="#E5CC7C"/><path fill-rule="evenodd" clip-rule="evenodd" d="M187.752 219.469s1.623.118 3.672-.636c2.049-.755 5.415-2.378 6.875-1.742 2.048.871 1.624 3.602 3.839 6.053 1.34 1.507 3.79 1.46 5.179 3.085 1.389 1.625 6.167.871 6.167.871l1.813 9.778-7.274 9.324-2.379 11.583h-9.837l-8.986-3.565-4.426-10.709 2.213-10.83 3.144-13.212Z" fill="#D2C281"/><path fill-rule="evenodd" clip-rule="evenodd" d="M206.762 219.937c.243.075.497.115.752.118-.282.236-.872.753-.636 2.095.236 1.343.989 3.037.354 4.073a5.085 5.085 0 0 1 1.106 1.93c.401 1.155.519 2.213 3.131 2.379a5.49 5.49 0 0 0-1.035.824s1.812 1.577 2.731 3.036c.941-.04 3.436-.816 3.436-.816l.519.354 1.106-.466s-1.035-.4-.282-2.919c.706-2.213 1.342-2.095 1.397-2.26.054-.164.518-2.495.518-3.438.352-1.222.635-4.943.635-4.943l-.753-8.216-4.237-2.567-3.445-3.325-3.25 6.12-2.141 2.134-.164 5.297.258.59Z" fill="#E2C270"/><path fill-rule="evenodd" clip-rule="evenodd" d="M216.969 213.065s.752 2.142 1.036 3.79c.101-.32.156-.653.165-.988 0 0 .588 3.249.705 4.592.236-.048.465-.118.518.116.053.235.59 2.85.466 4.309a11.742 11.742 0 0 1 3.954-3.955c.942-.59 2.049-1.224 3.203-1.272 1.813-.047 3.131 1.154 5.297 1.154 5.226 0 9.96-3.838 13.444-5.014 2.565-.873 4.778-1.507 6.332-2.921.754-.635 2.097-2.047 3.32-4.144 1.625-2.794 3.319-5.226 5.016-5.531-.768.141-1.549.196-2.328.164 0 0 .518-.518 1.397-1.224.878-.707 1.93-1.577 3.436-1.577 2.685 0 4.026.399 5.533.399 1.507-.047 2.377-.399 2.377-.399s1.579 1.106 5.133 1.106c3.555.047 5.933.353 7.794.519 1.861.166 8.098-.519 9.888-.466a8.657 8.657 0 0 1 3.367.824l-5.768-16.761-20.723-18.112-12.336 8.734-18.978 18.977-18.364 6.804-3.838 4.308v6.568h-.046Z" fill="#CCB360"/><path fill-rule="evenodd" clip-rule="evenodd" d="M258.16 203.459s.518-.517 1.387-1.223c.869-.706 1.932-1.578 3.438-1.578 2.683 0 4.026.4 5.533.4 1.507-.046 2.377-.4 2.377-.4s1.58 1.105 5.133 1.105c3.556.047 5.933.352 7.794.517 1.861.164 8.099-.517 9.888-.466a8.613 8.613 0 0 1 3.366.824l-2.613-7.558-3.036-5.767-8.665-9.489-10.478-6.168c-.046-.046-3.602-.988-3.602-.988l-9.417 5.697-8.546 22.108-.164 4.656 5.531 2.614c1.389-2.328 2.921-4.191 4.357-4.426-1.296.141-2.285.141-2.285.141l.002.001Z" fill="#D5B457"/><path fill-rule="evenodd" clip-rule="evenodd" d="M258.06 205.037c-.824.046-1.505-.118-1.694-.706-.707-1.978-1.271-2.26-1.863-2.26-.591 0-1.389 1.271-1.862 1.387-.473.117-1.035-1.458-1.035-1.458l-.519-.236s-3.037 1.977-5.179 4.308c-2.141 2.331-5.65 6.287-7.227 6.992-1.577.704-6.993.942-8.846 1.342-1.853.401-3.908 1.743-4.191 2.049-.282.306.826.635.991.94.164.283-1.815.165-1.979.466-.117.236.465 1.577.754 2.26a3.845 3.845 0 0 1 1.623-.401c1.813-.046 3.132 1.155 5.297 1.155 5.227 0 9.959-3.838 13.443-5.016 2.567-.871 4.78-1.507 6.334-2.919.753-.635 2.095-2.049 3.32-4.144.894-1.436 1.766-2.778 2.638-3.767l-.005.008Z" fill="#D2B257"/><path fill-rule="evenodd" clip-rule="evenodd" d="M183.082 321.555s-.466-1.743-4.78-6.239c-1.225-1.271-1.978-2.328-2.802-3.084-2.048-1.932-3.25-2.449-4.708-3.556-3.202-2.377-6.686-2.377-9.37-5.297-2.683-2.919-5.811-8.497-7.983-14.197-2.142-5.698-2.732-7.511-2.732-7.675 0-.165.59-1.271 1.343-1.107.752.165.752 1.624.942 1.978.375.577.8 1.12 1.271 1.623 1.106 1.273 2.683 2.794 3.484 5.063-.165-1.931-.824-4.073-.824-4.073s4.144 2.614 7.675 5.344c3.555 2.731 5.014 3.673 6.052 5.415 1.039 1.741 3.485 6.334 4.656 7.676 1.172 1.343 17.228 6.404 17.228 6.404l7.637 5.694 3.792 8.311-2.968 4.656-5.697 1.225-9.253-4.144-2.963-4.018v.001Z" fill="#D2B159"/><path fill-rule="evenodd" clip-rule="evenodd" d="M162.547 292.924s1.931 3.083 6.639 6.003c4.239 2.567 10.948 4.898 16.929 6.287 3.437.824 6.874 1.459 9.958 1.507 8.311.116 14.032-2.26 21.119-3.037 3.839-.401 8.547-.706 13.444-1.863 6.285-1.507 10.006-3.203 15.068-5.587 3.672-1.695 7.04-2.966 9.77-4.591 3.838-2.259 6.639-4.778 9.889-5.531-.4 1.107-.824 3.084-4.026 5.132 1.695-.048 4.026-.164 4.026-.164s-2.259 1.341-6.239 4.355c-2.449 1.862-5.697 5.014-9.017 7.11-2.143 1.342-4.474 2.328-6.005 3.131-3.724 2.049-5.227 3.084-7.674 5.588.871-.047.942 0 .942 0s-3.085.4-5.297 1.576c-.466 0-1.273-.164-2.685.236-1.107.353-2.567 1.155-4.072 1.577-2.144.637-2.848.354-2.848.354l.352.706s-2.794-.048-3.725.047c.165.046.118.118.118.118a1.426 1.426 0 0 0-.465.164 4.851 4.851 0 0 1-1.459.635c-.283.047-.519.047-.872.118.117.282 1.036 1.862 1.46 2.794-.352.235-5.651 4.238-5.651 4.238.164.259.299.535.401.824.164.517.235 1.271.4 1.624.399.706.635.824.635.824s-.635.118-1.743.4c-.941.236-2.095.635-3.725.871-.5.065-1.003.104-1.507.118.236.518 1.271 2.495-.636 4.778-1.908 2.283-2.496 2.615-3.084 4.074a6.243 6.243 0 0 0-.942-.589c-.635-.283-1.507-.705-1.813-1.271a15.106 15.106 0 0 1-.706 2.213c-.588 1.576-1.459 3.132-1.623 4.308-.637-.706-1.813-2.095-3.438-1.813-1.625.283-2.919 2.496-3.202 3.132 0-.4-.282-.706-.352-.236-.048.519-.942 5.932-5.933 10.312-.047-1.107-.047-3.556-.165-4.355-.465.465-1.035 1.153-4.426 2.613-3.32 1.459-2.794 2.92-2.794 2.92s-.282-2.328 1.507-4.78c1.813-2.448 2.92-3.603 2.92-3.79a1.055 1.055 0 0 0-.236-.519c-.236-.236-.707-.518-.707-.706.283-.116 3.084-1.459 2.92-4.238-.165-2.494-1.223-3.79-1.977-4.708-.117-.118 1.108-.988.942-1.271-.118-.164-1.624-1.272-1.813-1.862.044-.352.123-.699.236-1.035.164-.519.282-.873.236-1.225-.118-.588-.755-2.213-.942-2.377.164.046 1.341 0 1.341 0s-.941-1.507-1.107-2.214c-.166-.706-.518-2.567-.706-2.919.4.047 1.389.116 1.389 0 .048-.354-.871-.942-.466-1.397.283.047.824.283 1.341.942-.282-.754-.753-2.213-1.743-2.801.466-.165 2.049-.59 3.438.234 1.389.824 1.862 1.978 1.862 1.978s.824.636 2.097 1.578c1.459 1.153 3.318 2.794 6.286 3.954.636.354 2.259.354 3.437.118a5.267 5.267 0 0 0 1.459-.588 2.73 2.73 0 0 1 .519-.236 11.434 11.434 0 0 0-.871-1.46c.4 0 .871.048.871.048s.282-.636-.989-1.862c.282-.283.636-.466.636-.943-.4-.046-1.106-.634-1.271-.87.234-.165.588-.706.989-.871-.354-.282-1.225-1.46-1.625-1.577a7.42 7.42 0 0 0 1.106-.518s-1.977-.518-2.613-.942c-.636-.466-1.577-1.271-2.142-1.507-.59-.236-1.625-.352-2.049-.824.399.118 1.036 0 1.507 0 .353 0 .519.046.635.046-.046-.164-.046-.518.872-.634a4.316 4.316 0 0 0 1.272-.401s-.873-.046-1.863-.988c-.99-.943-1.813-1.695-2.378-1.813-.588-.118-1.694.4-2.377.352-.942-.116-1.343-.588-1.343-.588s-3.13.282-10.075-3.955c-6.005-3.673-8.618-6.922-8.618-6.922a10.268 10.268 0 0 1-1.624-.754c-2.259-1.176-5.391-3.625-5.297-6.829l-.012.024Z" fill="#C2A44D"/><path fill-rule="evenodd" clip-rule="evenodd" d="M249.172 151.614a3.052 3.052 0 0 1 1.397.942c1.106 1.271 1.812 3.672-.706 6.239.988.352 1.396.465 2.259.352-.87 1.037-2.848 3.25-2.966 5.181-.118 1.576.871 2.048.871 2.048s-1.507 1.742-1.577 4.656a18.951 18.951 0 0 1 2.328-2.213c1.743-1.389 4.144-2.966 5.769-3.954-.022.414.034.829.165 1.223 0 0 3.035-2.496 5.587-1.388 1.153.518.635 2.142.635 2.142s1.578-.588 2.685.518c1.106 1.107 2.671 3.961 3.473 5.068.352.518 1.271 1.507 2.212 3.037a38.417 38.417 0 0 1 3.203 6.756c.047-1.225.352-3.131 3.838-1.931 3.484 1.224 7.439 3.791 10.759 8.846 3.319 5.055 4.142 10.762 5.814 12.935 1.694 2.095 3.437 5.579 3.555 7.04.118 1.46-.518 6.167 2.966 18.905.989-3.955 2.496-12.738 2.496-12.738l.824-7.746.942-23.967-25.028-20.792-19.565-14.198-12.737 1.224.799 1.813.002.002Z" fill="#CAA13E"/><path fill-rule="evenodd" clip-rule="evenodd" d="M295.639 187.282s-.354-2.328-6.239-6.286c-5.886-3.908-10.477-3.908-14.714-7.228-3.25-2.613-6.64-8.618-8.847-10.595-2.143-1.954-2.495-7.605-2.495-7.605l7.227-6.053 10.75-15.537 9.087-10.005 4.354 6.052 6.053 7.11 3.367 14.268 1.224 20.883-9.778 14.997.011-.001Z" fill="#B59544"/><path fill-rule="evenodd" clip-rule="evenodd" d="M302.95 212.314a26.534 26.534 0 0 0-1.155-9.369c-1.552-4.827-4.943-13.397-6.518-16.607-.637-3.555-.165-3.838.518-4.238.683-.4 3.25-1.862 4.656-6.992 1.406-5.129 5.769-5.297 5.769-5.297l2.683-1.977 4.074 10.194 3.555 9.206 1.106 7.04.824 6.003-1.93 12.691-9.534 8.616-4.05-9.27h.002Z" fill="#C89D3A"/><path fill-rule="evenodd" clip-rule="evenodd" d="M169.891 353.762v-.261c.198-.123.373-.281.516-.465.165-.236.284-.519.401-.588.236-.118 1.342-.466 1.931-.354.588.111 2.143.752 2.967.706 1.695-.047 3.672-1.343 6.804-.753 4.709.871 5.815 4.073 8.547 5.885 1.862 1.273 3.79.707 4.072.707h.635c.118 0 .989-.989 1.46-.941.942.047 1.036.824 1.624.871 1.389.164 4.074-.706 5.416-.353a2.589 2.589 0 0 1 1.695 1.694c.283.87.047 1.977-.636 2.613-1.459 1.341-2.848 2.614-3.131 3.725.36.274.705.566 1.034.875a137.041 137.041 0 0 1-33.335-13.347v-.014Z" fill="#CEB052"/><path fill-rule="evenodd" clip-rule="evenodd" d="M295.262 306.721s3.672-4.896 4.944-7.322c1.271-2.5-4.026-34.161-4.026-34.161l10.642-34.867-.284-11.349s.519-10.477 1.743-15.021c1.461 2.613 6.005 5.768 6.994 7.44.465-3.203 2.047-9.959 1.812-17.164.871 1.341 2.966 14.833 2.966 14.833l2.095 9.087 2.732 9.653 3.037 10.195 1.813 7.04 1.035 1.695.872 2.966.824 3.203 2.378 7.51 1.397 6.168 1.106 11.184c.241.856.414 1.73.519 2.613.046 1.225-.165 1.931-.165 2.144 0 .212.401 2.683.236 4.544-.236 1.862-.236 3.32-1.696 4.656-1.461 1.336-2.378 9.323-2.378 9.323l-2.613-1.742s.518-2.379-.707-4.544c-1.224-2.165-3.602-2.614-4.944-2.26-1.341.283-4.025.705-4.897 1.459-.824.753-2.848 3.084-4.708 4.144-2.328 1.397-6.122 1.507-8.145 1.977-2.049.466-4.309 1.863-6.688 3.485a37.431 37.431 0 0 1-5.885 3.104l-.009.007Z" fill="#CCA847"/><path fill-rule="evenodd" clip-rule="evenodd" d="M295.262 358.164s.155.101.454.265a138.277 138.277 0 0 0 44.077-32.669c-.135-4.765-.31-9.649-.503-11.459-.398-3.838-.116-7.746-.234-10.005-.118-2.26-1.389-11.467-1.977-13.844-.637-2.378-1.863-3.556-2.049-3.556-.164.048-1.155 4.475-1.155 5.587 0 1.113-.235 3.792-.235 4.475-.165-.048-.235-.466-.235-.637-.236.589-.518 1.625-.636 1.743-.118.118.164-.988 0-1.224-.165-.236-.466-.118-.401-.706a6.73 6.73 0 0 1 .165-1.036s-.706 1.036-1.223 3.672c-.518 2.614-.518 2.685-.706 2.92-.165.284-1.107 1.224-1.155 1.578-.046.635.872 1.271.942 1.624.047.589-.824 3.319-1.106 4.656-.283 1.336-.165 3.954-.466 5.297-.236 1.224-.466 1.93-1.271 2.447.588.118 1.153.282 1.153.282s.824 3.485-1.271 6.452c-.753 1.035-.94 1.507-1.741 2.449-1.579 1.742-2.803 3.725-2.921 5.015a8.344 8.344 0 0 1-.165-1.155s-2.447 2.85-3.484 4.474c-1.341 2.096-3.202 1.978-3.725 2.496-.523.518-.636 1.459-.465 2.213-.466.117-1.341.283-1.931 2.095-.282.941-.989 1.863-2.095 2.496-1.107.633-2.449.824-3.132.989.588.164.824.164 1.106.352-.352.588-1.977 1.507-3.79 2.685-1.812 1.107-2.685 2.73-3.132 3.79-.465.989-1.153 1.625-2.259 1.743.465.282 1.154.94 1.507 1.153-.519.118-1.397.118-2.966 1.46-1.648 1.366-2.213 1.767-2.968 1.885l-.007-.002Z" fill="#C39D3C"/><path fill-rule="evenodd" clip-rule="evenodd" d="M262.492 369.075a13.297 13.297 0 0 1 2.907-1.541c3.672-1.459 7.557-1.742 9.087-2.212 1.46-.466 2.614-1.108 4.426-1.46-.048.412-.088.8-.132 1.167a137.24 137.24 0 0 1-16.296 4.046h.008Z" fill="#D2BA6B"/><path fill-rule="evenodd" clip-rule="evenodd" d="M330.231 272.489s-.752 4.072-2.095 6.639c-1.342 2.567-2.793 6.121-2.793 6.121.008-.801.103-1.598.282-2.379-1.695.989-5.815 3.368-6.984 4.426-1.107.989-2.967 2.732-3.438 3.556 1.107-3.248 2.26-6.168 2.449-7.51-1.694 1.224-9.606 7.746-13.725 12.054l-12.832 10.383a44.432 44.432 0 0 1-4.568 2.139c-2.212.94-4.825 1.741-6.756 2.495.519-1.389 1.341-2.615 2.496-3.791 1.224-1.153 4.896-5.133 5.461-6.984.519-1.931.637-3.084-.046-4.709-.637.165-2.095.236-3.084.518-.989.283-2.049 1.341-2.049 1.341s.753-4.308 2.378-8.38c-1.225.046-3.32.398-3.32.398s2.92-4.896 7.915-8.309a25.7 25.7 0 0 0-4.472 1.388c-2.92 1.224-6.122 3.037-8.499 4.025 1.341-1.862 10.758-15.302 16.363-27.829 5.587-12.501 7.674-15.703 8.899-22.412.634-3.32.465-8.226.634-12.619.165-4.357.707-8.265.354-10.878 1.459 1.812 6.922 6.922 7.11 18.341.165 11.418-5.226 26.841-10.948 35.15 1.397.4 5.016.872 8.735-5.587 3.718-6.46 3.673-8.263 5.016-10.948.164 1.342.116 1.813.116 1.813s5.417-6.568 7.982-14.833c.519 3.556 2.049 6.688-.354 13.209-2.141 5.886-4.943 7.323-4.943 7.323s1.389-.236 3.436-1.461c.354.871.284 1.863.873 2.213.588.351 1.389.942 1.507 1.507.634-.942 1.623-2.143 1.93-3.037-.236 1.863-.4 10.006.466 14.15 1.814-.165 3.674-.283 4.945-3.556-.871 3.203-.871 5.133-.283 7.864.965-.658 1.836-1.836 1.836-1.836l.006.005Z" fill="#C0993A"/><path fill-rule="evenodd" clip-rule="evenodd" d="M269.033 142.715s-1.813.753-4.897.753c-2.683 0-1.93-1.036-6.121-1.036-6.45 0-28.982 3.725-32.938 3.672-2.567-.046 8.663 1.107 8.663 1.107l28.702.4 5.767-.465 2.143-4.361-1.319-.07Z" fill="#A88F33"/><path fill-rule="evenodd" clip-rule="evenodd" d="M194.609 198.821s-3.673 2.802-5.227 4.945c-1.553 2.143-2.378 3.554-4.144 5.297a3.63 3.63 0 0 0 1.225-.164s0 .465-.283.588a1.648 1.648 0 0 1 1.341.465c-.518.283-1.93 1.697-.824 3.368.824 1.271 2.567 1.388 2.567 1.388s-.4 1.154 1.271 1.037c3.602-.165 7.628-1.743 9.488-1.343 1.862.466 2.921.636 4.238 2.921 1.397 2.26 2.614 2.613 2.614 2.613s.824-2.096.636-5.227a15.551 15.551 0 0 0 1.107-5.297l-1.225-9.017-5.343-6.757-6.922 3.838-.519 1.341v.004Z" fill="#E3C571"/><path fill-rule="evenodd" clip-rule="evenodd" d="M201.199 197.477s.519 1.225 2.685 1.341c-.236.519-.236.59-.164.989l.116.988c.239-.115.454-.273.636-.465.118.518-.118 1.341 0 1.931.073.358.192.706.353 1.035.034-.081.073-.159.118-.235.046-.118.465 1.271 1.625 2.328a.969.969 0 0 1 .116-.465c.018.295.115.58.282.824a.848.848 0 0 1-.234-.165s.116 3.725.753 5.651c.106-.124.201-.258.282-.4 0-.117-.046 1.036-.164 1.862-.165.824-.047 1.977-.047 1.977a6.195 6.195 0 0 1 1.388-.824c.706-.284 1.862-1.154 2.567-3.085.408-1.093.724-2.22.942-3.366.227.438.385.909.465 1.396.048.589 1.155.283 1.155.283l.236-2.567 1.397-5.815 1.271-3.603 6.121-9.534 11.059-8.517 9.654 2.213 8.145-11.066-14.032-8.428-13.279 1.389-12.051 16.691-9.652 15.14-1.743 2.496v.001Z" fill="#D8B65B"/><path fill-rule="evenodd" clip-rule="evenodd" d="M270.734 173.322s-.824.165-3.202 1.397c-2.378 1.233-4.026 1.624-4.945 3.436-.918 1.813-.988 3.25-.988 3.25s1.625-.706 2.567-.942c.988-.234 2.095-.164 1.977.236-.113.275-.27.529-.465.753 0 0 1.862-.047 1.812.872-.049.919-.352 1.931-.704 2.378-.354.465-1.813 1.154-1.978 1.696-.4 1.107.165 1.153-.048 2.047-.164.872-.94 2.567-3.484 5.533-2.614 2.968-3.725 5.063-3.725 5.063s-1.271-2.378-1.931-4.427c-.465.235-2.965 1.624-2.965 1.624l-5.792-20.176.116-1.343s.518-.635.636-1.813c-.87-.282-.988-.518-2.143-1.623-1.155-1.105-2.095-2.449-4.024-3.368-.283-.518-.637-1.223-2.049-1.507-1.412-.284-2.26-.517-2.26-.517s.753-.284 1.107-.872c-.872.118-1.577.401-3.484.354-1.931-.048-2.144-.118-3.202.047-1.059.164-2.328.636-2.802-.989-.518-.4-1.625-.047-2.567 1.341-.942 1.387-1.271 2.496-3.084 3.037a6.312 6.312 0 0 1-.824 2.26c-.518.872-1.342 1.743-2.449 3.037-1.743 2.049-1.46 5.415-4.238 7.982-2.802 2.566.465-7.111.465-7.111l4.473-10.709 12.738-12.455 19.777-1.341 1.931 10.243 9.653 3.32 6.098 9.3.003-.013Z" fill="#D3AE4D"/><path fill-rule="evenodd" clip-rule="evenodd" d="m273.866 175.583-8.311-11.983-5.815-4.474s-4.144-7.627-4.427-7.863c-.236-.164-4.143-.588-6.639-.753l.466 1.154a3.054 3.054 0 0 1 1.396.942c1.107 1.271 1.813 3.672-.706 6.239.989.352 1.397.465 2.26.352-.871 1.037-2.848 3.25-2.966 5.18-.118 1.577.871 2.048.871 2.048s-1.507 1.742-1.577 4.656a18.888 18.888 0 0 1 2.328-2.214c1.743-1.396 4.144-2.967 5.769-3.956-.023.415.033.831.164 1.225 0 0 3.036-2.496 5.587-1.389 1.153.518.635 2.143.635 2.143s1.578-.588 2.685.519c1.106 1.106 2.683 3.954 3.484 5.062.352.518 1.271 1.507 2.212 3.036a38.389 38.389 0 0 1 3.203 6.757c.046-.942.236-2.26 1.862-2.26l-2.472-4.426-.009.005Z" fill="#CAA13E"/><path fill-rule="evenodd" clip-rule="evenodd" d="M149.265 209.628s-.588-1.46 0-4.308c.589-2.848 1.507-4.191 1.813-8.381.306-4.191 3.037-9.418 3.037-9.418l7.557-3.436 5.345 1.459 1.577 7.158-6.758 3.725s-.352 1.577-2.259 2.848c-1.908 1.271-4.544 2.259-5.179 3.555-.38.794-.657 1.632-.824 2.496 0 0-1.931-.401-3.084.871-1.225 1.295-1.178 2.449-1.225 3.437v-.006Z" fill="#F4EFC8"/><path fill-rule="evenodd" clip-rule="evenodd" d="M164.558 207.72s-.636.401-1.106 1.397c-.466-.753-1.579-5.227-1.625-9.253-.047-4.026-.288-5.024.644-6.411.931-1.388 4.583-2.85 4.064-5.348-.518-2.378-2.685-3.367-5.345-2.684-1.862.466-3.248 4.426-5.179 6.404-1.46 1.507-3.202 1.271-3.672 2.095-.636 1.106-.048 2.213-.236 2.919-.048.236-.636 1.507-1.696 3.037-2.142 3.084-5.767 7.441-6.239 11.349.164-2.214.048-2.26.636-4.709l-.354-.588 2.328-7.628 1.507-6.286 3.368-10.526 5.932-10.758 5.769-6.452 6.003.401.706 9.017 3.438 16.929 7.227 8.899-11.584 7.796-4.591.4h.005Z" fill="#EBCC73"/><path fill-rule="evenodd" clip-rule="evenodd" d="M168.158 210.92s-.989.236-1.342.048c-.354-.188-.705-.401-.589-.637.117-.236.753-.634.753-.824a.659.659 0 0 0-.588-.706c-.542-.07-.706.283-.706.283s-.519-.399-.941-.466c.25-.031.501-.047.753-.048a7.323 7.323 0 0 0-2.049-.588c.588-.353 1.743-1.389 2.496-1.389.753 0 1.224-.117 1.106-.517-.118-.401-.706-.989-1.341-1.225.235-.282.401-.706-.164-1.862-.59-1.153-.354-1.931-.165-2.212.165-.354.753-.989 1.036-1.389.282-.4.518-.942.988-1.225.236-.164.989-.465 1.743-.752.824-.283 1.507-.637 1.977-.283.519.353.283.824.283.824s1.625-.589 3.084.165c1.46.705 5.016 1.153 5.016 1.153l1.274 2.567-8.429 7.228-3.484 1.743-.706.116-.005-.004Z" fill="#E5C66B"/><path fill-rule="evenodd" clip-rule="evenodd" d="M179.861 199.103s-2.613 1.743-3.202 2.377c.353.049.941.284.705.637-.282.352-1.977 1.577-2.919 2.731-.989 1.153-1.931 2.614-2.26 3.32-.352.635-3.037 2.496-3.955 2.73 1.931 0 5.816-2.378 7.275-2.378-.047.706.4 1.507 1.224 1.577.824.07 3.202.519 6.404-1.459 3.202-1.93 2.143-3.368 3.484-4.308 2.567-1.696 3.602-3.203 5.015-4.144 1.412-.94 2.143-1.155 2.143-1.155s.046-.706.465-.634a.626.626 0 0 1 .315.128c.092.07.162.164.204.272 0 0 2.449-1.743 5.587-2.213a.328.328 0 0 1-.165-.165s.235-.118.283-.236c0 0 .164-.235.282-.117.118.117.283.988.519 1.342.518-.236 1.507-2.449 1.507-2.449l2.379-6.804v-6.216l-1.862.354-13.968 5.932-8.477 8.783-.989 2.095h.006Z" fill="#E6BD62"/><path fill-rule="evenodd" clip-rule="evenodd" d="M220.053 168.614a7.892 7.892 0 0 0 2.149-.872c-.282.755-.282 1.579-1.507 3.368-1.224 1.79-1.271 2.049-2.26 3.908-.988 1.931-1.106 4.709-2.048 5.932.422-.205.875-.34 1.341-.399 0 0-.941.824-1.341 1.695-.401.87-1.107 2.683-2.848 3.791-1.741 1.108-3.956 1.813-6.334 4.427-2.379 2.565-4.827 5.815-6.053 6.984.637-1.107 1.507-3.32 1.743-4.779.236-1.459-.048-3.203.353-5.132.4-1.93.4-3.32 2.328-6.688 1.927-3.368 5.227-15.069 5.227-15.069l7.109-2.259 2.144 5.086-.003.007Z" fill="#B6933F"/><path fill-rule="evenodd" clip-rule="evenodd" d="M214.909 164.305s-2.141 3.084-2.729 5.815c-.589 2.732-.049 2.496-.401 3.839a4.996 4.996 0 0 0 0 2.495 8.861 8.861 0 0 1 2.963-2.921c2.025-1.223 3.673-2.095 4.656-3.13.988-1.107 1.813-2.919 3.954-4.308-.87-.118-2.095-.519-2.328-.466.873-.989 3.485-2.496 6.121-4.308 2.614-1.863 2.449-2.614 6.688-4.473-1.389.236-2.049-.118-3.203 0 .465-.989 2.095-1.461 3.724-3.084 1.63-1.623-1.035-4.026-1.035-4.026l-12.416 7.51-6.003 7.063.009-.006Z" fill="#C49937"/><path fill-rule="evenodd" clip-rule="evenodd" d="m181.215 158.701.282-2.26 3.556-5.697 3.72-10.006v-13.679l-.282-7.911.588-5.18.447-1.647.472-.636 3.035 1.577 4.192 5.697.401 10.996-4.074 17.351-11.631 12.691-.706-1.296Z" fill="#DFC068"/><path fill-rule="evenodd" clip-rule="evenodd" d="M190.479 111.047s-1.862.049-2.259 7.795c-.398 7.746-.59 11.818-.873 15.656-.282 3.838-.94 6.168-1.271 8.429-.33 2.261-.518 5.344-1.576 7.228-.466.87-1.461 3.602-3.792 5.651-2.614 2.259-6.518 3.838-7.11 3.956-1.036.234-6.287.752-8.429 1.93-.752.401-2.048.871-3.484 2.214-2.849 2.565-6.639 7.156-9.371 12.689-4.19 8.264-8.38 31.595-8.38 31.595l.942-1.577s.118-2.095 2.213-5.768c2.048-3.672 1.46-7.793 4.308-14.833 1.107-2.683 2.496-6.167 4.19-9.135 2.685-4.827 5.934-8.97 9.207-11.23 5.343-3.672 11.23-4.473 11.23-4.473l6.334-4.19s1.106-2.142 2.567-4.591c2.047-3.436 4.656-7.274 5.225-12.854.873-8.264-1.224-13.679-1.106-18.576.118-4.896.164-8.499 1.154-9.371.991-.872.283-.541.283-.541l-.002-.004Z" fill="#A88F33"/><path fill-rule="evenodd" clip-rule="evenodd" d="M190.475 148.012s2.793-6.875 4.072-12.973c.236-1.224.706-2.447.824-3.436.588-5.769.753-8.146 0-11.302-.588-2.328-2.848-4.426-4.026-6.052-1.153-1.697-1.695-2.328-1.459-2.685.236-.357 1.153-.941 2.047-.871a7.023 7.023 0 0 1 2.748.648 7.03 7.03 0 0 1 2.269 1.68c1.812 2.095 3.248 9.206 3.248 9.206l1.51 9.384 3.838 11.818-15.068 4.593-.003-.01Z" fill="#C99E3D"/><path fill-rule="evenodd" clip-rule="evenodd" d="M216.722 140.857s-.518.234-1.458 0a2.103 2.103 0 0 1-.943 1.977c-.988-.4-10.243.401-10.243.401s-4.308-.755-5.651-6.452c-.94-3.791.707-9.017.165-12.455-.824-5.062-1.977-6.053-2.095-7.628-.118-1.575-.236-1.977-.236-2.966-.518-.118-.824-.282-1.341-.282-.118-.466.116-.872-.4-1.697.282.118 2.213.354 4.472 2.496 1.863 1.743 1.863 2.378 2.144 2.732.352.352 3.201 2.793 4.426 5.227 1.225 2.433 3.602 10.193 4.144 11.464.164.519.518 1.037 1.397 2.214 1.365 1.696 3.366 4.5 5.626 4.966l-.007.003Z" fill="#B58634"/><path fill-rule="evenodd" clip-rule="evenodd" d="M201.484 117.099a65.158 65.158 0 0 1 3.837 7.158c1.389 3.13 2.213 5.697 3.956 7.792-.942-2.73-2.614-8.098-3.602-10.005-1.107-2.018-3.367-4.191-4.191-4.943v-.002Z" fill="#A88F33"/><path fill-rule="evenodd" clip-rule="evenodd" d="M185.449 155.808s-2.378.588-6.804 2.919a72.993 72.993 0 0 1-4.19 1.977c-3.488 1.577-7.228 3.035-10.195 3.838.236.283.352.399.352.399s0 1.155.636 1.813c-.352.354-5.062 3.556-3.672 14.268.941-.353 2.047-.824 2.212-.824.284.048.354.824.706.824s1.507-.466 2.732-2.049c-.047.636-.753 7.04 3.037 11.348.706-.824 2.495-3.555 2.495-3.555l.047-.871s.164-3.037 1.155-5.815c.99-2.779 2.919-4.827 2.919-4.827l10.074-14.386-1.507-5.061.003.002Z" fill="#E6C367"/><path fill-rule="evenodd" clip-rule="evenodd" d="M176.067 176.931c-.461.326-.969.58-1.507.753-.165-.589-.401-2.614.989-4.591 1.624-2.38 5.179-5.463 6.167-7.916.636-1.578.354-5.532 6.005-10.595 5.651-5.063 7.862-6.804 7.862-6.804l9.135-4.591 11.231 4.426-5.58 21.868-4.331 10.243-17.228-3.248-12.745.455h.002Z" fill="#DCBA5A"/><path fill-rule="evenodd" clip-rule="evenodd" d="m182.629 170.992 2.143-2.683v-1.908s2.378-.636 4.943-3.25c2.566-2.613 6.122-7.628 9.253-7.322 3.132.354 3.438 6.804 3.556 8.618.118 1.814.519 5.932 1.153 8.147.706 2.213-7.628 10.594-7.628 10.594l-5.66 4.308-7.76-16.504Z" fill="#E9CE77"/><path fill-rule="evenodd" clip-rule="evenodd" d="M189.262 193.335s1.743-2.732.465-3.32c.753-1.695 2.142-3.484 2.142-3.484s.989-2.448 4.19-5.462c3.202-3.014 5.181-5.016 5.699-7.04.32-1.319.494-2.669.519-4.025.346.282.716.534 1.106.752.518.236 2.966 2.26 2.614 6.334-.353 4.074-1.863 5.769-1.863 5.769s-1.459 1.459-2.494 2.213c-1.108.753-1.507 1.623-3.368 1.695.192-.152.407-.272.637-.354 0 0-1.931-.235-2.968.706-1.036.941-3.24 3.838-4.347 4.71-1.106.706-2.328 1.507-2.328 1.507l-.004-.001Z" fill="#CDAE50"/><path fill-rule="evenodd" clip-rule="evenodd" d="M267.542 147.542a28.345 28.345 0 0 0-8.663-1.695c-4.945-.165-12.173.118-19.259.164-7.628.047-14.55-2.613-24.155-3.084-1.577-.942-5.587-5.062-18.106 3.672.753-.046 9.089-1.93 11.983 1.697 2.92 3.602 2.095 9.723 1.697 11.182-.755 3.25-3.204 7.982-4.191 11.302-.987 3.32-.754 5.064-1.46 7.392-.706 2.328-2.26 3.484-1.343 6.168 1.225-.753 1.863-.753 3.908-5.344 2.046-4.591 1.625-7.864 5.016-11.749 3.32-3.908 8.847-9.253 10.948-10.595 2.101-1.343 18.787-10.006 36.258-1.742 4.213-.447 7.368-7.37 7.368-7.37l-.001.002Z" fill="#D2A83E"/><path fill-rule="evenodd" clip-rule="evenodd" d="M204.414 144.338a2.154 2.154 0 0 0-.116-.519 3.78 3.78 0 0 0-.636-.942s-4.144-.752-6.239-.518c-3.674.4-6.994 4.945-8.547 7.276-1.554 2.331-3.484 5.932-5.579 7.792a.782.782 0 0 0-.118-.518s.118.165-.117.4c-.234.236-.236.353-.118.466l.354.352c.116 0 3.366-1.46 7.793-5.587 4.708-4.308 8.31-6.518 10.195-7.276a14.291 14.291 0 0 1 3.13-.926h-.002Z" fill="#C29637"/><path fill-rule="evenodd" clip-rule="evenodd" d="M284.764 126.636s-.755.941-1.697 1.978c-2.095 2.213-4.826 4.707-7.157 7.274-2.212 2.449-4.708 4.356-7.511 7.558-2.802 3.202-6.052 6.756-6.875 7.793-.753 1.037-1.341 2.731-1.341 3.602-.4-.282-.871-.588-.871-.588.198.37.435.717.707 1.037.588.824 1.505 1.862 1.977 2.495a7.607 7.607 0 0 1 1.223 2.684c.282.046 2.095.4 4.356-3.32 2.262-3.72 5.226-7.793 5.226-7.793l4.709-6.993 2.967-5.932 3.725-6.639.566-3.156h-.004Z" fill="#AC8132"/><path fill-rule="evenodd" clip-rule="evenodd" d="M289.587 121.88s-2.849 2.328-3.956 3.724c-1.107 1.397-3.725 5.063-3.725 5.063l.942-.118 4.78-4.237 1.863-3.32.095-1.106.001-.006Z" fill="#A88F33"/><path fill-rule="evenodd" clip-rule="evenodd" d="M288.739 308.983s-.047-1.931 1.037-3.084c1.106-1.155 3.908-2.85 6.639-9.207 2.732-6.357 3.036-7.792 3.036-7.792s-4.897 4.19-7.915 5.179c.706-1.461 1.106-2.496 1.46-3.25-.4-.352-2.095-.753-2.26-.941.941-.942 1.459-3.25 3.367-4.78 2.449-1.862 6.922-5.062 10.398-7.915 3.477-2.853 10.312-9.487 11.184-11.418.518.753.635 1.223.635 1.223s-3.437 4.474-5.226 7.322c-1.578 2.449-1.46 3.838-1.46 3.838l3.249-1.396s.941 3.484-3.319 8.782c1.862-.706 2.613-.282 3.672-.872-1.743 1.108-4.144 2.615-6.404 6.757-2.213 4.144-5.227 8.971-10.311 11.983-4.945 3.179-7.794 5.557-7.794 5.557l.012.014Z" fill="#A67A2E"/><path fill-rule="evenodd" clip-rule="evenodd" d="M275.956 149.991s-1.93 4.024-2.213 7.156c-.046.754-.236 1.343-.236 2.213-.046 2.802.165 5.934-.465 7.392-.236-.588-.354-.988-.59-1.223-.352.989-.989 4.073-1.507 5.226-.234-.753-.753-3.366-.704-6.45.048-3.084.116-3.674.116-4.308-.116.94-.753 2.213-.989 2.965-.352-.634-.752-1.458-1.224-2.141-.283.465-.635 1.153-.941 1.507a21.786 21.786 0 0 1-.236-2.095c-.046-1.225-.118-2.802-.046-3.132.116-.635 1.106-3.131 3.202-5.415 2.495-2.732 5.062-7.981 5.815-9.606.752-1.624 3.954-8.38 3.954-8.38h2.449l-3.555 8.098s-2.142 4.426-3.249 6.053c-1.106 1.626-3.437 6.287-4.474 8.1.753-.989 1.389-1.507 2.143-2.449.73-.66 2.753-3.508 2.753-3.508l-.003-.003Z" fill="#8C6228"/><path fill-rule="evenodd" clip-rule="evenodd" d="M289.672 121.572a10.132 10.132 0 0 1-1.863 3.368c-1.46 1.743-4.592 4.072-6.12 5.931-1.397 1.813-4.191 6.758-2.921 12.62.465-1.271 1.342-3.79 3.673-6.64 2.331-2.849 4.827-6.121 6.053-8.663 1.223-2.567 1.387-4.591 1.387-4.591l.466-.588-.283-1.343-.4-.094h.008Z" fill="#CBA94C"/><path fill-rule="evenodd" clip-rule="evenodd" d="M337.341 277.739s-.942-2.565-1.225-4.896c-.282-2.331.466-2.794-.4-5.462-.519-1.625-1.459-1.397-1.695-1.625-.236-.228-.4-2.683-.354-4.026.047-1.342-.046-3.083-.282-3.838-.353-.282-.589-.518-1.107-2.259-.588-1.743-.871-2.614-1.153-3.131-.283-.517-1.108-.988-1.108-1.507 0-1.037.942-1.577.942-1.862-.047-.588-.753-.117-.942-.283-.235-.282.59-1.977.284-2.213-.118-.116-.942.872-1.155.59-.236-.284-.518-3.085-.942-4.945-.399-1.813-.824-3.13-.871-3.672-.046-.518-3.25-9.653-4.026-11.866a56.133 56.133 0 0 1-1.576-5.698c-.236-1.106-.401-3.368-.519-3.132-.118.236-.046 1.389-.236 1.343-.164-.048-.752-4.073-.94-4.709-.165-.636-1.155-2.794-1.397-4.355-.236-1.578-.753-5.699-1.107-8.5-.353-2.802-.518-3.955-.518-4.656a29.084 29.084 0 0 0-.282-5.133c-.466-2.967-1.397-6.569-2.214-8.663-1.576-3.956-5.768-14.08-6.518-16.599 0-.636.824-.282.824-.282s2.047 5.132 3.554 9.087c1.461 3.956 2.85 7.44 3.204 7.794.282.352 2.495 4.237 3.484 10.594.988 6.357 1.341 12.219 1.931 16.127.282 1.862.518 3.838 1.106 5.815.635 2.143 1.623 4.357 2.919 7.746 1.107 2.85 1.931 5.227 2.378 7.276.518 2.614.518 4.591.824 5.887.284 1.106.706 3.318 1.697 6.518.99 3.2 2.447 7.322 3.436 9.888 1.932 5.132 2.793 9.417 3.085 11.702.258 2.354 1.13 10.501.894 12.948l.005-.003Z" fill="#A88F33"/><path fill-rule="evenodd" clip-rule="evenodd" d="m289.755 121.29-.118.282s.352.118.283.59c.005.645-.035 1.29-.118 1.93-.117.825-.353 1.459-.399 1.978 0 1.106.164 2.377-1.397 5.533-.466.87-.753 1.623-.989 2.141-.588 1.272-.706 1.461-1.224 2.049.824-.466 3.791-2.328 5.297-2.049-1.035.589-2.614 1.743-3.602 3.25.236.047 1.224.236 2.793 0 2.614-.4 5.533-1.342 8.098-1.154 2.803.164 1.697-3.367 1.697-3.367l-3.235-7.109-6.121-4.307-.965.234v-.001Z" fill="#BE9C44"/><path fill-rule="evenodd" clip-rule="evenodd" d="M305.752 174.548s-2.732-2.732-3.839-12.106c-1.106-9.417-.87-23.28-.87-23.28l-2.213-5.415s-.466-3.602-1.625-4.943c-1.16-1.341-3.436-3.602-4.473-4.709-1.037-1.106-2.213-2.613-2.92-2.849.353-.588 1.931-3.908 7.981-3.955 6.05-.046 7.915 3.32 8.547 4.545.631 1.224 3.484 6.518 4.542 16.606.989 10.076 1.037 10.83.873 14.314-.118 1.931-.755 6.404-1.863 11.182-1.012 4.051-2.118 8.572-4.144 10.619l.004-.009Z" fill="#A17C34"/><path fill-rule="evenodd" clip-rule="evenodd" d="M297.165 182.577c.91.065 1.82-.14 2.614-.59.87-.047 4.026.354 6.45-2.73.165.705.59 2.614-.518 4.308.589-.589 1.46-.824 1.578-.988.047.87.871 3.554-2.614 10.075.941-1.035 2.048-.988 3.036-1.106.048 1.224.706 5.343-1.035 7.558-1.153 1.507-3.037 1.035-3.037 1.035.027-.329.027-.66 0-.989-.047-.636-.283-1.271-.117-1.694a8.453 8.453 0 0 1-2.449-1.697c-2.049-1.93-4.709-5.225-4.897-7.674-.236-2.732 2.213-3.32 2.213-3.32a2.604 2.604 0 0 1-.518-.636c-.118-.399-.236-1.035-.706-1.552Z" fill="#8C6228"/><path fill-rule="evenodd" clip-rule="evenodd" d="M279.011 152.957s-.118-.164-.753.589c.118-.753.236-1.461.282-2.144a7.395 7.395 0 0 1 1.155-1.741c-.354.705-.59 1.341-.59 1.341s.872-1.625 2.143-2.614c.871-.706 1.978-1.035 2.448-1.694.518-.707.4-.825.518-.943 0 0 1.155-.752 2.921-2.967.234-.282.588-.588.824-.871a37.562 37.562 0 0 0 2.448-1.154c1.154-.635 2.449-1.506 3.249-1.863 1.577-.706 3.25-.634 4.026-1.743.588-.164 1.223-1.93 1.107-3.436.87.353 5.343 3.131 6.875 9.205 1.107 4.309-.872 10.948-1.696 14.151-.824 3.204-.941 5.58-2.095 7.039-1.461 1.932-6.168 4.656-7.323 6.004-.988 1.107-3.954 3.908-3.838 5.932.118 1.507 1.978 2.328 2.38 2.614.401.285.398.636 1.153.465.754-.17 1.035-.518 1.342-.518.352.046.352.118.517.118.119-.004.238-.02.354-.048 0 0-.118 2.143-5.133 2.793-.353.048-.706.165-1.154.236.589-.282.942-.282 1.578-1.153-.706-.118-2.731-.236-3.25-.4.165-.283.706-1.037 1.153-1.389.401-.353-.046-.466-.398-.283-.607.413-1.189.861-1.743 1.341-.589.518-1.107 1.225-2.049 1.862-.282-.942-.236-2.731.872-4.025-.284.046-.825.87-1.342.706a7.491 7.491 0 0 1 .164-2.567c.283-1.06 1.813-2.92 1.813-2.92l7.392-13.209 1.577-10.005-16.927 3.288v.003Z" fill="#92723A"/><path fill-rule="evenodd" clip-rule="evenodd" d="M278.602 153.523s-.4.282.401.824c-.118.165-.401.753-.755 1.153-.399.466-.824.754-.988 1.155-.353.824-.635 1.389-.635 1.743 0 .354-.118 2.613-1.107 4.072-.354.519-.754 1.389-1.037 1.977-.588 1.036-1.106 1.863-1.224 2.328-.235.825-.399 3.084-.399 3.084s.518-.636.706-.87c-.284.588-.59 1.223-1.037 1.694.283-.235 1.107-.824 2.496-2.048 1.931-1.624 4.945-4.355 8.619-6.519-1.108.401-2.049.401-2.802.519.588-.588 5.886-6.804 8.664-7.392.169-.214.253-.483.236-.755l-2.38-.234-4.826 1.035-.705-3.725-3.227 1.954v.005Z" fill="#B18E3E"/><path fill-rule="evenodd" clip-rule="evenodd" d="M286.286 174.712s-.636.635-1.225 2.214a7.393 7.393 0 0 1-1.154-1.579c-.871-1.459-2.212-3.32-5.344-2.26-.046-.988-.118-1.507 0-2.213.519-.116 2.095-1.387 3.672-3.248 1.108-1.271 2.143-2.732 2.85-4.591a37.681 37.681 0 0 1 2.328-1.625c1.507-1.035 3.319-2.449 3.602-4.026-.706.283-2.213.989-4.475.873.873-.401 2.214-.825 2.049-2.567.354-.236.636-.401.636-.401a2.348 2.348 0 0 0-.824-.118c-.048-.164-.118-.399-.518-.282-.401.116-.466.118-.518.282-.165.048-.707 0-1.107.284s-1.507 1.223-1.931 1.388c.165-.283.399-.705.399-.705s-1.153.116-1.977.466c-1.507.518-3.248 1.46-5.015 2.377.165-.282.236-.465.353-.518.116-.053.4-.116.4-.165 0-.048-.116-.465-.046-.634a21.613 21.613 0 0 1 1.862-3.202c.824-1.108.989-2.685.989-2.685l3.602-1.813 10.123-2.328 6.57.401-.824 4.544-3.88 7.934-3.32 7.227-3.791 4.428-3.485 2.542h-.001Z" fill="#543E26"/><path fill-rule="evenodd" clip-rule="evenodd" d="M302.707 155.047s-3.956 4.896-5.063 5.651c.706-1.507 5.063-10.478 6.64-12.974-.353-.282-.824-.282.282-4.656-.94 2.212-1.271 3.367-2.047 3.955-.776.588-.872.4-1.397.4a.985.985 0 0 0 .117-.588s-3.32-.4-5.588-.4c-2.267 0-6.756 1.224-9.253 2.213-1.977.824-3.084.824-3.79 1.341-.706.588-1.106 1.224-1.46 1.389-.283.164-1.624.588-1.931 1.035-.283.466-.753.989-.753 1.107s-.118.284.236.164c.116-.046.989-.518 1.977-1.106 1.341-.753 2.966-1.624 4.144-2.142 3.367-1.343 4.427-1.107 5.932-1.389 1.577-.283 3.838-.942 5.344-.942 1.507-.047 4.356 0 5.016.118-.282.236-.518.518-.4 1.507 0 .282-.236.588-.466 1.271-.705 1.93-2.047 5.132-2.794 6.757-1.035 2.212-2.211 4.073-2.793 5.226-.582 1.153-1.863 4.19-3.131 5.815-1.268 1.625-1.931 2.614-2.328 2.968-.397.353-3.25 2.447-3.037 3.201.518-.164 3.791-1.397 6.168-4.072 2.376-2.676 2.849-4.309 4.708-5.769 1.86-1.46 3.32-3.908 4.191-5.932.729-1.884.565-2.472 1.482-4.144l-.006-.004Z" fill="#806031"/><path fill-rule="evenodd" clip-rule="evenodd" d="M217.438 191.594s-.519 2.142-1.697 3.202c-1.153 1.037-3.202 1.931-3.436 3.673-.282 1.742 2.049 2.614 2.049 2.614s-1.273 2.095-1.273 3.672c0 1.625-.047 1.931.118 3.484-.187.12-.346.279-.466.466 0 0 .117 1.507 1.271 2.447 1.155.941 2.142 1.507 2.73 1.271.09.192.169.389.236.59 0 0 .873-2.213 1.461-4.144.588-1.977 1.106-1.696 1.341-4.356.234-2.66 2.793-7.228 2.793-7.228l1.747-3.903-2.848-2.213-4.026.424v.001Z" fill="#B6903C"/><path fill-rule="evenodd" clip-rule="evenodd" d="M222.739 195.429a17.198 17.198 0 0 0-1.622 1.931c-.753 1.036-1.341 1.977-2.447 2.379-1.107.402-1.813.399-1.743 1.507.069 1.108 1.106 1.577 1.694 2.142.637.588 1.155 1.576.873 2.685.352-.165.988-.354 1.577-1.625.588-1.271 4.702-9.017 4.702-9.017h-3.034v-.002Z" fill="#685026"/><path fill-rule="evenodd" clip-rule="evenodd" d="M238.984 177.561s.352-.94 0-1.623c-.354-.706-2.496-.942-3.556-1.743-1.106-.824-2.449-1.397-3.555-1.035.164-.401.824-1.273.282-1.461-.518-.164-2.447.707-2.966 1.107-.518.4-1.696.871-1.93 1.155-.235.284-.637.824-.873.588-.236-.165-.352-.588-.752-.354-.401.234-2.328 1.813-2.684 2.731-.355.919-1.154 2.968-3.555 5.297-2.401 2.33-3.438 3.839-2.732 4.709.706.871 1.037.236 1.155.989a6.336 6.336 0 0 1-.118 2.213c-.283 1.224-.753 2.378-.118 2.613 1.625.519 3.203-.465 3.556-.164.706.635-.401 2.919 1.271 3.366 1.696.466 3.367-.4 3.367-.4l6.168-3.32 5.933-3.13 3.036-6.005-1.628-5.014-.31-.519h.009Z" fill="#D4B968"/><path fill-rule="evenodd" clip-rule="evenodd" d="M233.14 191.899s-1.036-1.577.236-2.967c1.273-1.391 3.084-1.977 3.79-2.848a1.085 1.085 0 0 0-.518-.352 4.688 4.688 0 0 1 2.048-1.933c-.352-.352-.824-.634-1.341-.634-1.154 0-1.862.706-2.92.706-1.036 0-1.154-.519-1.154-.519s1.743-.164 1.577-.942c-.164-.824-.465-.824-.465-.824s3.366-1.397 3.954-2.142c.588-.744.518-1.624.636-1.977.399 0 2.73-1.224 3.672-.706.942.518.283 1.931.283 1.931s2.851-2.144 4.303-4.245c1.271.118 1.863-.871 2.794-.871 1.155 0 2.967 1.577 3.32 4.944.236 1.93.588 3.037.236 6.451-.165 1.931-.118 6.053.465 8.098.399 1.625 1.341 1.461 1.341 1.461a2.642 2.642 0 0 1-.824 1.271c-.636.588-.706 2.143-.636 2.731.093.43.212.855.353 1.272 0 0-.752.87-.942 1.46-.164.588-.94.989-1.507.989-.566 0-.282-.049-1.035 0-.752.048-.988.164-1.46 0-.472-.165-.824-.354-.635-1.863.165-1.507-5.815-5.014-5.815-5.014l-9.777-3.485.021.008Z" fill="#CCA849"/><path fill-rule="evenodd" clip-rule="evenodd" d="M221.906 206.777s2.142 2.849 10.948 2.849c4.19 0 5.651-.4 6.518-.636.943-.236 4.473-1.624 8.029-5.816 3.202-3.79 2.496-5.343 2.496-5.343l-1.863-.283-6.053.824-17.91 7.629-2.173.776h.008Z" fill="#585136"/><path fill-rule="evenodd" clip-rule="evenodd" d="M228.484 207.485s-7.629 1.696-7.629-3.131c0-4.708 4.709-9.653 5.887-10.524 1.225-.872 4.144-1.862 4.144-1.862h7.04l1.341 3.556-.588 7.674-10.195 4.285v.002Z" fill="#252211"/><path fill-rule="evenodd" clip-rule="evenodd" d="M235.506 193.407s-1.459-1.343-4.779.465-6.004 5.588-6.169 9.019c-.165 3.036 2.496 5.297 6.639 5.415 3.084.116 4.945-.236 5.887-.466-.236-.282-1.46-1.812-1.46-1.812l-.117-12.62-.001-.001Z" fill="#C3B378"/><path fill-rule="evenodd" clip-rule="evenodd" d="M234.076 194.158s-.352-.282-1.397.283c-.87.465-2.141 1.696-3.13 2.567-.636.518-1.037.752-1.397 1.153-1.46 1.743-2.685 4.592-1.977 6.004.708 1.413 3.037 3.037 8.971 1.931l-1.087-11.936.017-.002Z" fill="#E6D89C"/><path fill-rule="evenodd" clip-rule="evenodd" d="M232.166 197.078s-.942 1.46-.942 3.791c0 2.378 1.342 6.168 6.287 6.451 3.79.236 6.332-5.462 9.087-7.675 2.095-1.695 3.366-1.743 3.366-1.743s-2.142-2.328-7.862-5.344c-5.651-3.037-11.985-3.437-15.422 1.225 1.625-.118 6.875-1.461 6.875-1.461l2.567.825-3.956 3.932v-.001Z" fill="#252211"/><path fill-rule="evenodd" clip-rule="evenodd" d="M239.543 200.16c-.165-.353-.283-.824.4-.941.683-.116.988-.048 1.224.466.236.513.466.942.117 1.154-.353.188-1.271 0-1.743-.682l.002.003Zm-1.107-3.32s-.236.165-.118-.164c.047-.399.354-1.107 1.107-.941.752.166.589.989.465 1.225-.124.235-.752.634-1.224.465a.39.39 0 0 1-.294-.415.383.383 0 0 1 .058-.173l.006.003Z" fill="#6F674D"/><path fill-rule="evenodd" clip-rule="evenodd" d="M174.723 198.348s1.862 1.396 4.026 1.342c2.141-.048 4.896-2.26 6.167-3.674.753-.824 1.397-1.694 2.095-2.377.59-.588.989-.871 1.271-1.271.401-.466.825-1.341 1.037-1.625-.518.4-1.271 1.108-2.048 1.578-.753.466-2.378 1.341-3.038 1.577-.634.236-7.227 3.725-7.227 3.725l-2.283.725Z" fill="#AC924C"/><path fill-rule="evenodd" clip-rule="evenodd" d="M177.562 180.952s1.036-.706 3.038-1.155c1.93-.466 5.815-.824 5.815-.824l3.202 1.397 1.271 4.826-2.328 5.016-2.966 1.863-3.368-5.415-4.656-5.699-.008-.009Z" fill="#9F8E57"/><path fill-rule="evenodd" clip-rule="evenodd" d="m173.366 185.258-1.108.827s.284-.518.518-2.095c.235-1.577 1.461-5.415 3.25-7.628 1.79-2.213 1.743-2.095 1.743-2.095a1.168 1.168 0 0 0-.942.234c.236-.522 1.743-2.384 3.25-3.315s2.095-1.225 3.672-.466c1.577.759 1.977 1.153 3.132 1.107 1.155-.047 2.142-1.271 2.142-1.271s.235.752-.635 2.495c-.871 1.743-4.309 5.297-4.309 5.297l-7.157 4.897-3.556 2.018v-.005Z" fill="#EAC970"/><path fill-rule="evenodd" clip-rule="evenodd" d="M178.659 180.362s5.18.706 6.757-.753c.047.165.236.165.236.283a.41.41 0 0 1-.118.234c.171-.027.345-.043.518-.046.208.061.421.101.637.118.173-.004.347-.02.518-.049a.863.863 0 0 1-.117.331.863.863 0 0 1-.237.259c.236 0 .466.047.466.235 0 .187.046.754-.236.872a1.065 1.065 0 0 1-.706-.048c.018.445.139.881.353 1.272.466.871 1.459 1.863 2.794 1.577 0 0 .705 1.695-2.261 5.462-.399.518-.824 1.224-1.341 1.812a6.96 6.96 0 0 0-.466 1.389s5.016-1.93 6.452-6.333c1.46-4.427 1.743-8.781 1.46-12.854-.048-1.155-.235-1.977-.518-2.567-.706-1.46-2.685-1.224-3.484-.4-1.155 1.154-3.086 4.026-5.769 6.003-2.731 1.977-2.848 2.328-4.945 3.203h.007Z" fill="#D7BC6B"/><path fill-rule="evenodd" clip-rule="evenodd" d="M172.446 186.719s-.989.589-1.507 2.794c-.518 2.26.466 5.015 1.035 5.885.57.871 1.863 3.25 4.545 3.368a4.984 4.984 0 0 0 1.93-.4c.937-.43 1.815-.976 2.614-1.625 1.155-.871 2.095-1.624 1.977-1.695-.282-.118-7.11-5.769-7.11-5.769l-2.567-2.865-.918.311.001-.004Z" fill="#585136"/><path fill-rule="evenodd" clip-rule="evenodd" d="M178.899 196.09s1.389-.117 2.213-.635c.824-.519-4.827-6.121-4.827-6.121l.401 6.053 2.213.703Z" fill="#453A25"/><path fill-rule="evenodd" clip-rule="evenodd" d="M172.894 186.295s-.707 1.342-.707 1.696c-.118 1.153.236 4.779.519 5.932.282 1.224 1.812 3.084 3.791 3.084 1.223 0 2.92-.753 2.92-.941 0-.236-1.743-.465-2.214-1.342-.282-.466-.4-1.624-.465-2.794-.047-.753-.047-1.577.236-1.862.636-.706.752-2.732.752-2.732l2.26-4.198h-2.972l-3.556 2.213-.564.944Z" fill="#84754B"/><path fill-rule="evenodd" clip-rule="evenodd" d="M172.023 187.591s2.328-3.083 4.427-3.791c2.098-.708 3.037-.283 3.037-.283l-1.225 3.132-1.743 1.931.118.989s-.284 2.613 1.459 4.426c1.743 1.813 3.038 1.743 3.792 1.743s2.919-.637 4.026-3.25c.988-2.448 1.812-5.587-.165-8.735-1.932-3.132-5.345-3.253-6.005-3.253-.659 0-5.838.26-7.721 7.087v.004Z" fill="#252211"/><path fill-rule="evenodd" clip-rule="evenodd" d="M231.788 198.066c-.87-.401-.046-2.848.825-3.602.87-.755 1.977-1.624 3.909-1.743.705-.047 1.388.4 1.271.872-.164.871-1.389 2.095-2.495 2.966-1.531 1.201-2.521 1.954-3.51 1.507Z" fill="#F7F7E7"/><path fill-rule="evenodd" clip-rule="evenodd" d="M184.71 184.716c.637-.047 1.461.466 1.625 1.155.165.752-.4 2.259-1.625 2.259-.988 0-1.507-1.224-1.507-1.576a1.8 1.8 0 0 1 .236-.825c.047-.071.165-.895 1.271-1.013Z" fill="#F8F6DE"/><path fill-rule="evenodd" clip-rule="evenodd" d="M175.538 185.26s-1.625.753-2.378 2.328a6.175 6.175 0 0 0-.465 3.725c.117.588.706 2.047 1.106 2.565.401.519.942.873 1.343.824.4-.048 1.223-1.106 1.223-1.741s.048-3.319.824-4.78c.683-1.459-1.649-2.919-1.649-2.919l-.004-.002Z" fill="#D4C38B"/><path fill-rule="evenodd" clip-rule="evenodd" d="M175.756 185.142c-.282.164-.753.4-.636.706.118.282 1.106.465 1.46 1.154.401.706.401 1.459.283 1.813.307-.146.586-.346.824-.59.518-.588 1.153-1.387 1.695-1.387.353 0 .706.164 1.036.164.519 0 1.035-.164 1.107-.706.116-.706-.989-1.342-1.625-1.224.118-.466.282-1.153-.236-1.625s-2.142.354-2.496.59c-.353.235-1.412 1.106-1.412 1.106v-.001Z" fill="#E2D59D"/><path fill-rule="evenodd" clip-rule="evenodd" d="m213.186 234.606 3.485-1.029.988.706s.705 1.507 1.813 1.695c-.354.753-1.273 1.397-1.224 1.931.048.534.518.942.518.942s-3.132 5.179 3.037 10.398a96.865 96.865 0 0 0-4.308 1.863c.704.164 2.211.465 2.848 1.036.636.571.636.753 1.224 1.107s.941.824.824 1.035c-.4-.236-1.743-.94-1.977-.282-.234.658-5.815.4-5.815.4l-9.418 1.813s.353-.942-.636-1.813c-1.153-1.035-2.566.047-4.073-1.107-1.977-1.507-2.048-3.249-2.683-3.908.635-.4 1.931-.988 5.015-1.396-.118-.236-.519-.942-.283-1.577.283-.824 1.459-1.343 1.107-2.328.518-.118.752-.118 2.048-1.743 1.225-1.625 1.978-1.977 2.92-2.095.942-.118 1.507 0 3.25-1.625 1.222-1.153.824-2.142.824-2.142s.799-.259.518-1.884l-.002.003Z" fill="#CBAC5A"/><path fill-rule="evenodd" clip-rule="evenodd" d="M202.885 235.13c.047-.236.236-.354 1.507-.236s9.323-.753 11.513-.871c2.213-.164 10.006-.048 13.797.753 3.792.801 7.628 1.743 9.488 2.213 1.862.518 2.449.705 2.377.94-.046.236-.465.466-.706.401-.234-.047-6.403-1.931-8.309-2.328-1.906-.397-8.501-1.46-12.106-1.397-3.366.048-4.709-.046-7.557.283-2.849.354-7.558.824-8.97.636-1.397-.164-1.108-.164-1.037-.4l.003.006Z" fill="#D6BC6F"/><path fill-rule="evenodd" clip-rule="evenodd" d="M221.825 253.584s4.827 2.614 6.57 5.815c1.271 2.378-.753 3.556-.753 3.556s2.731 0 2.378 1.507c-.165.94-4.709 3.483-7.746 4.825-3.084 1.342-2.966 1.273-4.473 1.507-1.461.236-5.463-.466-6.287.706-.824 1.172-.466 2.379-.236 2.567.236.165 2.143.401 2.143.401s-.4 1.106-4.355 1.224c-3.954.118-4.944.399-5.18.824-.236.399.752.165 2.567.466 1.812.282 4.355.465 4.355.465s-.825.706-2.966 1.271c-2.449.635-6.287 1.225-7.441 1.931.589.4 1.461.989 1.863 1.035-.989.236-2.379.755-2.614.942.353.236.824.519.824.519s-1.978 2.377-3.132 2.967c-1.153.59-7.792 3.672-10.077 3.084-5.697-1.507-6.403-7.746-7.792-8.216-2.095-.706-3.084.704-4.945-.284.824-.589 1.273-.941 2.143-1.341-.942-.466-5.815-3.556-5.815-3.556a36.003 36.003 0 0 0-1.695-3.248c-.942-1.625-2.328-3.792-3.368-5.699-2.259-4.19-2.377-6.121-4.426-8.499.354-.465 1.577-.4 1.577-.4l17.165 5.651 30.436.881 7.915-11.3 3.367.401-.002-.002Z" fill="#DFC677"/><path fill-rule="evenodd" clip-rule="evenodd" d="M176.758 270.816c.183.204.398.379.635.518.589.401 1.46.873 2.048 1.577.236-.352.824-.988 1.863 0 1.038.989 2.328.284 3.13.519.824.284.871.4.871.4s.465-.4 1.507-.824c.636-.236 1.389-.401 2.213-.635.753-.164 1.577-.4 2.143-.4.519.352 2.378 2.328 9.841-.589 7.04-2.731 8.664-3.037 9.842-2.615.118-.282.236-.824 2.048-.752 0-.753-1.507-3.32-1.507-3.32l-8.311-2.848h-4.546l-13.631 2.496-7.553 4.309-.589 2.173-.004-.009Z" fill="#C4A859"/><path fill-rule="evenodd" clip-rule="evenodd" d="M172.211 266.037s.164 1.271 2.049 2.613c1.862 1.341 2.447 2.142 2.447 2.142s.354-.465.636-.94c.283-.519.519-1.107.989-1.271.942-.401 3.084.352 3.556.234.4-.116.282-.941.706-.941.988-.048 1.623.635 1.977.635.354 0 1.223-.046 1.341-.234.118-.188.165-2.143 1.507-3.086 1.46-1.035 3.25-.588 3.725-.352 0 .352.046 1.225.988 1.271.942.047 1.036-.118 1.863.165.827.282 1.813-.047 2.26 1.341.4-.117 1.342-.235 1.106-1.577.466-.352.872-.588 1.862-1.977.236-.353.635-.753.943-1.271.824 0 1.812-.165 3.13.988-.4.283-.636.466-.753.753.345.341.659.711.941 1.106.354.466.589 1.037 1.036 1.155.989.283 2.614-.118 4.427 0 1.743.118 3.202.753 3.838 1.153.236-.116.236-.164.824-.046.588.118 1.035.164.4-.589.353.165.753.519 1.107.165s.635-.871 1.623-.989c.989-.118 1.343.047 1.743-.988.519-1.271-1.271-1.271-1.271-1.271s.824-.755 1.743-1.743c1.107-1.035 2.378-2.378 2.683-4.026.519-3.037-2.447-3.436-2.447-3.436l-14.386 4.426-17.587-.872-14.997 7.463-.009-.001Z" fill="#927D49"/><path fill-rule="evenodd" clip-rule="evenodd" d="M159.267 224.483s-.465.588-.752 1.977c-.288 1.389-.165 1.224-.401 2.213-.236.989-3.133 10.83-2.047 14.15 1.086 3.32 2.967 4.544 4.144 7.228.236.588.465.942.588 1.46.4 1.742.048 3.084.518 4.827.165.588.59 1.271 1.225 1.977 1.397 1.459 3.674 2.848 4.656 3.837 1.387 1.46 3.366 4.428 5.885 4.709 1.343.164 3.25-.401 4.827-1.341 1.397-.872 2.259-2.095 3.725-2.794 1.035-.518 2.141-.706 3.13-.942 2.049-.4 3.909-.466 5.016-.236 1.695.354 5.697 1.579 7.915 1.579a21.55 21.55 0 0 0 5.133-.707c3.366-.988 7.438-2.685 10.123-3.437 1.577-.466 2.848-.589 4.144-.871 2.213-.518 4.072-1.225 5.132-2.567-.706-.824-1.576-2.095-6.287-2.049-5.343.118-11.512 3.084-14.55 3.556-3.037.472-4.354.871-7.746-.354-3.324-1.237-3.434-2.055-3.434-2.055s-3.491-2.441-4.951-8.665c-1.46-6.223 0-10.759 3.792-15.069.988-1.106.752-2.095.752-2.095s2.496-3.366 1.813-6.518c-.753-3.132-5.579-2.496-5.579-2.496l-26.769 4.683h-.002Z" fill="#6E6342"/><path fill-rule="evenodd" clip-rule="evenodd" d="M163.309 234.959c-.207.391-.305.83-.282 1.272.046.634.236 1.458 2.141 3.319 1.625 1.624 1.272 3.436 1.272 3.436s.817.165 3.037-.874c1.743-.824 2.328.637 2.328.637a4.921 4.921 0 0 1 1.625-.519 3.557 3.557 0 0 0 1.459-.465s2.048 2.095 3.838 3.084c1.625.872 2.567 1.46 3.367.872.753-.519.753-1.579.705-2.049a6.08 6.08 0 0 0-.705-1.224c-.518-.753-1.342-1.625-1.396-2.328-.118-1.624 1.224-3.556.94-4.026-.284-.47-1.341-.588-3.954.354-2.707.894-14.386-1.484-14.386-1.484l.011-.005Z" fill="#39331F"/><path fill-rule="evenodd" clip-rule="evenodd" d="M169.486 245.485s-1.341-1.271-.87-7.44a7.652 7.652 0 0 1 1.694.164s.731 4.78-.824 7.276Z" fill="#292311"/><path fill-rule="evenodd" clip-rule="evenodd" d="M159.927 219.773c.187-.138.361-.294.519-.465-.466.87-2.616 4.355-.873 9.841 1.743 5.461 6.121 9.534 11.513 9.723 5.392.189 8.226-2.449 11.466-6.403 1.271-1.577 2.732-3.556 4.026-4.897 1.931-2.097 3.438-2.685 3.438-4.709 0-4.143-4.239-6.004-10.478-7.864-6.239-1.859-11.866-1.629-14.786-.357-2.848 1.388-4.072 2.848-4.826 5.133l.001-.002Z" fill="#252211"/><path fill-rule="evenodd" clip-rule="evenodd" d="m179.981 247.343.466-.236s.116-1.862.87-1.813c.753.118 1.107 1.109 1.035 1.461-.046.352-.234.942-.988.871-.989.023-1.387-.283-1.387-.283h.004Z" fill="#3F3824"/><path fill-rule="evenodd" clip-rule="evenodd" d="M177.852 239.434s.465-.165 1.035.4c.465 0 2.495-.236 3.132.165.636.4.824.752.824.752s-2.378.519-3.674 0c-1.317-.447-1.317-1.317-1.317-1.317Z" fill="#2D2815"/><path fill-rule="evenodd" clip-rule="evenodd" d="M188.355 239.785c0-.118-1.271-.988-2.613-1.272-.236-.047-.284.118-.466.118-.118-.047-.164-.401-.164-.401l-.764.402s-.118.165.283.466c.352.282.942.518 1.106.988.165.47.165.635.236.706.047.047.871 0 1.271-.236.4-.236 1.155-.62 1.107-.776l.004.005Z" fill="#82764F"/><path fill-rule="evenodd" clip-rule="evenodd" d="M176.473 244.567s.234-1.623 1.812-1.695c1.624-.118 1.931 1.459 1.931 1.459l-.942.942c0-.023-.706-1.012-2.794-.706h-.007Z" fill="#2D2816"/><path fill-rule="evenodd" clip-rule="evenodd" d="M186.698 237.572s-.872.942-2.802 1.225c-.164-.236-.518-.707 0-1.46.519-.753 1.107-.989 1.695-.754a1.375 1.375 0 0 1 1.107.989Z" fill="#574F35"/><path fill-rule="evenodd" clip-rule="evenodd" d="M190.231 238.726c.048-.236-.117-.283 0-.401.116-.118.754-.352.872-.236.047.048 0 .236 0 .466 0 .23 0 .465-.118.635-.164.236-.635.353-.871.284-.235-.07-.282-.401-.282-.466.116-.046.399-.164.399-.282Zm4.02-2.542c0-.118.4-.354.636-.354.352 0 .352.282.4.354.117.046.117-.048.235.164.118.213.284.588.164.824-.119.236-.588.399-.704.352-.165-.117-.683-1.176-.731-1.34Z" fill="#82764F"/><path fill-rule="evenodd" clip-rule="evenodd" d="M186.184 239.268s.518.117 1.224.706c-.236.165-.59.353-.59.353s-.046-.542-.634-1.06v.001Z" fill="#6E6342"/><path fill-rule="evenodd" clip-rule="evenodd" d="M185.019 234.09c-.118-.117.352-.399.634-.352.283.046.401.235.707.282.305.047.353-.118.465-.236.112-.118.519-.046.588 0 .044.052.083.107.118.165a.665.665 0 0 1 .235-.466.753.753 0 0 1 .636-.118c.047.165.283.753.236.871-.047.118-.753.284-.872.164.118.284.636.873.706.989.07.116-.518.4-.753.354-.329-.023-2.354-1.201-2.707-1.648l.007-.005Zm3.084-3.908a.548.548 0 0 0-.236-.283c-.165-.046-.707 0-.707.283 0 .282.466 1.862.989 2.685.59.824.989 1.505 1.389 1.695a.547.547 0 0 0 .706-.236c.047-.118.165-.989.118-3.038-.046-2.048-.118-4.026-.236-4.144-.118-.118-.588-.116-.752.118-.165.235-1.225 2.567-1.273 2.92h.002Z" fill="#585136"/><path fill-rule="evenodd" clip-rule="evenodd" d="M186.004 242.236s-.824-.518-1.625-.164c-.753.354-.707 1.742-.707 1.742a1.119 1.119 0 0 0 1.037-.118c.519-.352 1.177-.94 1.295-1.458v-.002Z" fill="#574F35"/><path fill-rule="evenodd" clip-rule="evenodd" d="M187.552 244.096c-.047-.466-.466-.466-.466-.707a.525.525 0 0 1 .517-.4c.236 0 .465.282.754.466.282.164.706.465.753.824.046.358-.466 1.341-1.035 1.341-.57 0-.401-1.06-.519-1.531l-.004.007Zm4.544-.637s-.942.283-.872 0c.069-.282.284-.352.589-.352a.93.93 0 0 1 .589-.284.513.513 0 0 1 .352.118s.636-.283.824-.118c.188.164.048.164.164.354.149.21.246.452.284.706 0 .188-.706.588-1.272.518-.658-.141-.542-.824-.658-.942Zm5.485-1.06s.282.165.048.354c-.165.165-.989.466-1.697.518-.706 0-1.341.117-1.341-.118 0-.234.589-.706.941-.824a.747.747 0 0 1 .59-.282c.282 0 1.387-.118 1.694-.165.283-.048.519.117.353.353-.07.164-.588.164-.588.164Zm1.625-7.27s-.354.753-.753.753c-.401-.046-.401-.164-.401-.282 0-.165.401-.589.353-.707-.117 0-.401 0-.353-.282 0-.236.401-.518.753-.466a1.56 1.56 0 0 1 .942-.352c.401 0 .753.116.753.352s-.466.753-.636.873c-.188.187-.424.31-.658.116v-.005Zm-5.369 13.914s-.465.049-.465.283c0 .118.116.118.282.048.096-.005.19-.021.282-.048.047.048.047.282.401.282.29-.039.57-.135.824-.282.282-.116.518-.236.518-.466-.118-.4-.353-.589-.706-.589a.93.93 0 0 0-.518.118s-.118-.236-.519 0c-.4.235-.353.235-.235.353.211.188.141.311.141.311l-.005-.01Zm-2.66 2.45c0-.118.588-.354.753-.283.164.047.634.941.634 1.035 0 .118-.588.401-.824.401s-.634-.401-.634-.466c0-.046.282-.116.282-.164.07-.117-.211-.401-.211-.519v-.004Zm-1.862-3.438c.118-.047.118-.165.282-.283a.408.408 0 0 1 .354-.046.568.568 0 0 1 .4-.284c.283-.047.519 0 .466.118 0 .354.236.588.236.87 0 .283-.165.637-.753.873-.588.164-1.389.164-1.507.118-.118-.047-.236-.519-.118-.755s.447-.493.637-.611h.003Z" fill="#82764F"/><path fill-rule="evenodd" clip-rule="evenodd" d="M190.089 248.215s-.401.236-.401.354a1.05 1.05 0 0 0-.047.352c0 .07.519-.046.589-.118.023-.046-.141-.465-.141-.588Z" fill="#6E6342"/><path fill-rule="evenodd" clip-rule="evenodd" d="M186.563 247.107c.234.048.634 0 .94.118.236.118.4.354.165.636-.236.282-.466.706-.989.635-.588-.047-1.153-.353-1.153-.588a1.137 1.137 0 0 1 .282-.824c.236-.188.353-.07.753.023h.002Z" fill="#585136"/><path fill-rule="evenodd" clip-rule="evenodd" d="M186.31 247.345s-.753.588-.942.872c-.236.282-1.389 1.741-1.742 2.047.117-.206.251-.403.399-.588a2.41 2.41 0 0 0-.988 1.271c-.283.872 1.578 1.342 2.801 1.696 1.223.354 1.696.466 1.696.466a13.194 13.194 0 0 1-1.154-2.142c-.466-1.106-.706-1.224-.401-1.743.236-.518.59-.87.59-1.271-.141-.372-.259-.608-.259-.608Z" fill="#574F35"/><path fill-rule="evenodd" clip-rule="evenodd" d="M159.472 249.204c.171.031.347.031.518 0 .353-.048 4.026-1.397 7.864-1.155 2.873.174 5.721.642 8.499 1.397 4.827 1.271 10.83 3.79 14.714 5.227 1.036.399 2.049 1.107 2.794 1.388 2.967 1.155 3.084 1.155 4.827 1.46 2.048.283 4.143-.4 6.333-.87 2.684-.59 7.274-.873 11.3-1.461a23.026 23.026 0 0 0 3.838-.871s-3.201 3.202-10.877 4.355a33.998 33.998 0 0 1-9.37.118c-2.449-.235-4.072-.589-5.297-.942-1.389-.4-4.238-1.46-7.746-2.328-2.449-.636-5.18-1.106-8.311-1.695-7.722-1.414-16.103-3.037-19.089-4.614l.003-.009Z" fill="#252211"/><path fill-rule="evenodd" clip-rule="evenodd" d="M150.788 234.655c-1.863 1.576-3.838 3.083-5.768 4.542l-5.815 4.468c-1.977 1.459-3.908 2.966-5.887 4.427a109.275 109.275 0 0 1-6.052 4.19c1.862-1.577 3.838-3.037 5.815-4.473 1.977-1.435 4.027-2.843 5.935-4.299l5.815-4.474c2.001-1.459 3.931-2.966 5.957-4.378v-.003Zm-10.289 16.48s2.096-1.743 4.709-4.19c3.249-3.036 7.228-6.922 8.499-7.627l-13.209 11.819.001-.002Z" fill="#CFB66C"/><path fill-rule="evenodd" clip-rule="evenodd" d="M140.48 251.133a82.466 82.466 0 0 1 3.25-3.037l1.695-1.459c.519-.466 1.108-.989 1.625-1.507 1.035-1.035 2.049-2.143 3.084-3.202a19.8 19.8 0 0 1 1.625-1.507c.285-.252.601-.466.94-.636.284-.165.59-.466.989-.518-.234.353-.517.518-.753.824-.282.236-.518.518-.752.752-.519.519-1.107.989-1.625 1.461-1.107.942-2.26 1.862-3.367 2.848-1.106.985-2.141 2.048-3.25 3.037-1.199 1.014-2.306 2.002-3.461 2.949v-.005Zm14.08-9.417s-7.674 7.511-9.253 8.734l9.253-8.734Z" fill="#CFB66C"/><path fill-rule="evenodd" clip-rule="evenodd" d="M154.566 241.717c-.691.8-1.431 1.554-2.217 2.26l-2.328 2.213c-.752.753-1.46 1.507-2.259 2.26-.825.706-1.577 1.397-2.45 2.049l2.26-2.214c.754-.752 1.579-1.387 2.379-2.141l2.26-2.213c.776-.776 1.53-1.531 2.355-2.214Zm.352 4.073a49.05 49.05 0 0 1-2.496 5.769c-1.977 3.956-4.943 8.899-6.239 11.419l8.735-17.188Z" fill="#CFB66C"/><path fill-rule="evenodd" clip-rule="evenodd" d="M154.922 245.791c0 .87-.236 1.625-.518 2.377a23.151 23.151 0 0 1-.941 2.214c-.353.706-.754 1.46-1.154 2.143-.401.683-.871 1.387-1.225 2.095l-2.377 4.19c-.825 1.397-1.625 2.802-2.496 4.144.588-1.507 1.389-2.919 2.143-4.308a89.534 89.534 0 0 0 2.328-4.239c.367-.72.697-1.458.989-2.211.352-.754.704-1.461.988-2.143.353-.753.635-1.461.989-2.142.399-.731.73-1.437 1.271-2.12h.003Z" fill="#CFB66C"/><path fill-rule="evenodd" clip-rule="evenodd" d="M163.334 265.094s-2.328 3.084-2.095 6.992c.635-2.047 1.436-5.179 2.095-6.992Zm2.213 3.092s-.824 8.381-1.507 12.501c.966-4.763 1.153-4.362 1.507-12.501Zm15.421 12.996s-3.484 10.244-3.556 13.09c.755-2.927 2.213-8.907 3.556-13.097v.007Z" fill="#DEC270"/><path fill-rule="evenodd" clip-rule="evenodd" d="M189.074 264.464s5.651 9.322 9.89 17.28c-1.147-4.005-3.786-11.349-9.89-17.28Z" fill="#CBAF59"/><path fill-rule="evenodd" clip-rule="evenodd" d="M204.277 278.187a171.262 171.262 0 0 1 8.381 16.928c-.47-4.003-1.743-10.853-8.381-16.928Z" fill="#E3C677"/><path fill-rule="evenodd" clip-rule="evenodd" d="M248.934 291.932c.941-.588 2.802-3.791 4.427-4.59 1.623-.824 2.848-.989 4.308-2.614 1.459-1.696 1.862-2.731 5.061-4.072 4.475-1.933 1.397-4.428 1.397-4.428.493-.484 1.02-.932 1.577-1.341 1.154-.871 2.495-1.931 2.379-3.792-.165-3.13-.753-7.674-3.32-10.311 2.496-.519 7.274-.871 10.243-1.624 3.437-.872 5.015-2.096 5.015-2.096s-1.977-3.367 1.224-6.756c3.202-3.39 5.816-5.415 7.746-9.207-2.213-.282-5.587-1.459-14.197 1.813.465.219.913.47 1.342.753 0 0-5.297 1.46-7.227 3.085-3.368 2.848-3.792 5.179-7.441 6.922-3.648 1.743-7.322 1.271-10.358 2.683-3.035 1.413-3.484 2.614-4.592 3.132.236.283-.047.753.4 1.154-.282.4-1.93 3.083-3.602 3.083.165.637 1.577 1.107 1.577 1.107s-1.035.754-3.672.942c1.341 1.397 2.614 2.919 6.121 5.132-.282.589-1.46 1.461-.988 2.567.518 1.107 1.862 2.614 7.227 3.839-2.731.116-5.932.752-10.243.164-4.308-.518-5.015-.824-7.675-.164.283.282 1.036.282 1.695 1.035-.706.046-5.132-.519-6.639 1.46-1.577 2.047-2.26 5.415-2.142 7.675-.824.4-1.625 1.106-1.225 2.567.401 1.46 2.496 1.931 3.839 2.848 1.34.988 1.458 1.341 2.731 1.106 1.341-.282 3.318-1.623 4.473-1.623 1.155 0 1.977.871 1.977.871s3.132-1.507 3.438-1.225c.282.283.046 2.095.352 2.378.31.212 3.838-1.883 4.78-2.473h-.008Z" fill="#ECD592"/><path fill-rule="evenodd" clip-rule="evenodd" d="M317.373 197.714c-14.715-37.999-51.091-45.039-51.091-45.039h-103.78l.4 38.705h20.668v86.429H162.5v38.636h100.909c24.32 0 43.815-24.44 43.815-24.44 31.218-44.308 10.147-94.291 10.147-94.291h.002Zm-53.422 68.252s-7.915 11.42-16.527 11.42h-17.227l-.408-85.911h22.108s10.243 2.141 17.399 22.412c0 0 9.488 29.023-5.345 52.079Z" fill="#fff" fill-opacity=".8"/></g><path d="M174.887 74c0-13.255-10.745-24-24-24H44.837c-13.255 0-24 10.745-24 24v25.181c0 13.255 10.745 24 24 24h72.705c.89 0 1.761.254 2.512.732l23.768 15.13c1.331.848 3.074-.109 3.074-1.687v-12.175a2 2 0 0 1 2-2h1.991c13.255 0 24-10.745 24-24V74Z" fill="#1168F1"/><g opacity=".5" fill="#F4F5FA"><ellipse cx="64.424" cy="84.8" rx="5.654" ry="5.837"/><ellipse cx="100.682" cy="84.8" rx="5.654" ry="5.837"/><ellipse cx="136.936" cy="84.8" rx="5.654" ry="5.837"/></g><g filter="url(#c)"><path d="M260.836 370c0-17.673 14.327-32 32-32h133.973c17.673 0 32 14.327 32 32v29.286c0 17.673-14.327 32-32 32H345.94c-.904 0-1.788.262-2.546.754l-30.749 19.955c-1.331.864-3.089-.091-3.089-1.677v-14.355a4.677 4.677 0 0 0-4.677-4.677h-12.043c-17.673 0-32-14.327-32-32V370Z" fill="#F90"/></g><g opacity=".5" fill="#F4F5FA"><ellipse rx="7.436" ry="7.733" transform="matrix(-1 0 0 1 418.892 385.482)"/><ellipse rx="7.436" ry="7.733" transform="matrix(-1 0 0 1 359.404 385.482)"/><ellipse rx="7.436" ry="7.733" transform="matrix(-1 0 0 1 299.92 385.482)"/></g><defs><filter id="a" x=".836" y=".559" width="473" height="473" filterUnits="userSpaceOnUse" color-interpolation-filters="sRGB"><feFlood flood-opacity="0" result="BackgroundImageFix"/><feColorMatrix in="SourceAlpha" values="0 0 0 0 0 0 0 0 0 0 0 0 0 0 0 0 0 0 127 0" result="hardAlpha"/><feOffset dy="3.559"/><feGaussianBlur stdDeviation="30"/><feColorMatrix values="0 0 0 0 0 0 0 0 0 0.101953 0 0 0 0 0.2625 0 0 0 0.08 0"/><feBlend in2="BackgroundImageFix" result="effect1_dropShadow"/><feBlend in="SourceGraphic" in2="effect1_dropShadow" result="shape"/></filter><filter id="c" x="236.643" y="316.226" width="246.359" height="162.707" filterUnits="userSpaceOnUse" color-interpolation-filters="sRGB"><feFlood flood-opacity="0" result="BackgroundImageFix"/><feColorMatrix in="SourceAlpha" values="0 0 0 0 0 0 0 0 0 0 0 0 0 0 0 0 0 0 127 0" result="hardAlpha"/><feOffset dy="2.419"/><feGaussianBlur stdDeviation="12.097"/><feColorMatrix values="0 0 0 0 0 0 0 0 0 0 0 0 0 0 0 0 0 0 0.15 0"/><feBlend in2="BackgroundImageFix" result="effect1_dropShadow"/><feBlend in="SourceGraphic" in2="effect1_dropShadow" result="shape"/></filter><clipPath id="b"><path fill="#fff" transform="translate(91.836 88)" d="M0 0h291v291H0z"/></clipPath></defs></svg>