<svg width="483" height="479" viewBox="0 0 483 479" fill="none" xmlns="http://www.w3.org/2000/svg">
<g filter="url(#filter0_d_11388_66381)">
<circle cx="236.5" cy="233.5" r="176.5" fill="white"/>
</g>
<circle cx="236.5" cy="233.5" r="145.5" fill="#E7E7E7"/>
<path d="M348.995 288.051C345.889 325.278 301.822 356.845 235.977 355.155C173.866 353.425 130.389 327.637 127.283 290.292C126.949 285.492 127.12 280.669 127.794 275.904C129.924 261.53 134.837 247.71 142.261 235.218L146.899 237.341C159.078 232.629 171.674 229.076 184.519 226.727C201.445 224.332 218.458 222.677 235.5 224C252.542 222.677 269.802 224.332 286.727 226.727C299.653 229.061 312.328 232.615 324.583 237.341L329.222 235.218L332.484 233.724C339.977 246.368 345.18 260.234 347.855 274.686C348.615 279.098 348.84 283.586 348.523 288.051" fill="#F4A427"/>
<path d="M348.995 288.05C345.889 325.277 302.451 355.192 235.977 355.153C173.866 353.423 130.389 327.635 127.283 290.29C126.949 285.49 127.12 280.667 127.794 275.903C134.398 274.464 141.214 274.291 147.882 275.392C160.54 277.436 167.537 285.18 176.421 289.19C181.61 291.588 186.721 287.657 191.438 283.411C203.965 271.102 220.737 264.068 238.296 263.756C256.104 263.52 270.374 270.517 285.98 284.748C287.518 286.313 289.354 287.554 291.379 288.398C293.405 289.242 295.579 289.671 297.773 289.661C301.893 288.552 305.683 286.462 308.819 283.568C320.449 275.748 334.585 272.565 348.444 274.645C349.205 279.057 349.429 283.545 349.113 288.01" fill="white"/>
<path d="M166.475 196.338C162.154 200.639 156.701 203.624 150.75 204.947L148.431 205.38C146.023 206.018 143.563 206.439 141.08 206.638C140.552 206.609 140.027 206.543 139.508 206.441C138.159 206.099 136.844 205.639 135.577 205.065C131.347 203.099 127.384 200.602 123.783 197.636C116.513 191.752 110.096 184.885 104.718 177.234C94.3203 162.19 90.0637 143.742 92.8185 125.664C95.5734 107.586 105.132 91.243 119.538 79.9792C120.214 79.4285 121.046 79.1038 121.916 79.0507C122.786 78.9976 123.651 79.2189 124.389 79.6834C125.127 80.1478 125.701 80.8321 126.029 81.6397C126.358 82.4473 126.425 83.3377 126.221 84.1854C123.312 96.7255 121.071 116.381 132.786 133.284C142.81 147.633 164.234 161.391 177.128 161.116C180.037 176.84 175.673 187.376 166.475 196.496" fill="#F79422"/>
<path d="M166.475 196.338C162.154 200.639 156.701 203.624 150.75 204.947L148.431 205.38C146.023 206.018 143.563 206.439 141.08 206.638C140.552 206.609 140.027 206.543 139.508 206.441C138.159 206.099 136.844 205.639 135.577 205.065C131.347 203.099 127.384 200.602 123.783 197.636C116.513 191.752 110.096 184.885 104.718 177.234C94.3203 162.19 90.0637 143.742 92.8185 125.664C95.5734 107.586 105.132 91.243 119.538 79.9792C120.214 79.4285 121.046 79.1038 121.916 79.0507C122.786 78.9976 123.651 79.2189 124.389 79.6834C125.127 80.1478 125.701 80.8321 126.029 81.6397C126.358 82.4473 126.425 83.3377 126.221 84.1854C123.312 96.7255 121.071 116.381 132.786 133.284C142.81 147.633 164.234 161.391 177.128 161.116C180.037 176.919 175.673 187.376 166.475 196.338Z" stroke="#221F1F" stroke-width="4" stroke-linejoin="round"/>
<path d="M222.923 141.814L217.891 192.289H217.577C209.715 193.311 199.179 194.923 184.634 197.242C171.151 199.365 153.186 208.525 142.611 214.736L141.039 206.795C143.522 206.596 145.982 206.175 148.39 205.537L150.709 205.104C156.66 203.781 162.113 200.796 166.434 196.495C175.632 187.533 179.996 177.076 177.087 161.116L178.541 161.588C183.297 156.541 188.898 152.364 195.091 149.244C203.672 144.692 213.176 142.151 222.884 141.814" fill="#5A595C"/>
<path d="M156 205L143 208L144 213L156 205Z" fill="#221F1F"/>
<path d="M222.923 141.814L217.891 192.289H217.577C209.715 193.311 199.179 194.923 184.634 197.242C171.151 199.365 153.186 208.525 142.611 214.736L141.039 206.795C143.522 206.596 145.982 206.175 148.39 205.537L150.709 205.104C156.66 203.781 162.113 200.796 166.434 196.495C175.632 187.533 179.996 177.076 177.087 161.116L178.541 161.588C183.297 156.541 188.898 152.364 195.091 149.244C203.684 144.686 213.202 142.145 222.923 141.814Z" stroke="#221F1F" stroke-width="4" stroke-linejoin="round"/>
<path d="M337.838 232.227L334.536 233.721L331.313 235.215L326.635 237.338C314.38 232.612 301.704 229.058 288.779 226.724C271.937 223.516 254.819 221.989 237.675 222.164C220.532 221.988 203.413 223.515 186.571 226.724C173.644 229.052 160.969 232.606 148.715 237.338C147.143 236.63 145.61 235.883 144.037 235.215L137.512 232.227C137.708 226.724 137.512 223.697 137.512 218.193C138.848 217.328 140.539 216.228 142.543 215.088C142.699 214.961 142.871 214.855 143.055 214.773C153.079 208.562 171.162 199.403 184.527 197.28C199.072 194.961 209.45 193.349 217.469 192.327C222.58 192.012 227.965 191.777 233.547 191.737C241.724 191.737 249.272 191.737 256.741 192.288C264.799 193.31 275.256 194.921 289.997 197.28C303.638 199.403 321.878 208.759 332.335 214.97L332.728 215.166C334.654 216.306 336.266 217.328 337.563 218.193C337.563 223.697 337.367 226.724 337.563 232.227" fill="#929497"/>
<path d="M337.838 232.227L334.536 233.721L331.313 235.215L326.635 237.338C314.38 232.612 301.704 229.058 288.779 226.724C271.89 223.912 254.796 222.519 237.675 222.557C220.554 222.529 203.461 223.923 186.571 226.724C173.644 229.052 160.969 232.606 148.715 237.338C147.143 236.63 145.61 235.883 144.037 235.215L137.512 232.227C137.708 226.724 137.512 223.697 137.512 218.193C138.848 217.328 140.539 216.228 142.543 215.088C142.699 214.961 142.871 214.855 143.055 214.773C153.079 208.562 171.162 199.403 184.527 197.28C199.072 194.961 209.45 193.349 217.469 192.327C222.58 192.012 227.965 191.777 233.547 191.737C241.724 191.737 249.272 191.737 256.741 192.288C264.799 193.31 275.256 194.921 289.997 197.28C303.638 199.403 321.878 208.759 332.335 214.97L332.728 215.166C334.654 216.306 336.266 217.328 337.563 218.193C337.838 223.697 337.485 226.724 337.838 232.227Z" stroke="#221F1F" stroke-width="4" stroke-linecap="round" stroke-linejoin="round"/>
<path d="M256.845 192.288C249.573 191.856 241.829 191.62 233.652 191.738C228.07 191.738 222.685 192.013 217.574 192.328H217.889L222.92 141.853L223.982 131.632C227.973 129.402 232.461 128.213 237.033 128.173H237.662C242.247 128.208 246.749 129.397 250.752 131.632L251.774 141.696V141.971L256.845 192.288Z" fill="#929497"/>
<path d="M256.845 192.288C249.573 191.856 241.829 191.62 233.652 191.738C228.07 191.738 222.685 192.013 217.574 192.328H217.889L222.92 141.853L223.982 131.632C227.973 129.402 232.461 128.213 237.033 128.173H237.662C242.247 128.208 246.749 129.397 250.752 131.632L251.774 141.696V141.971L256.845 192.288Z" stroke="#221F1F" stroke-width="4" stroke-linecap="round" stroke-linejoin="round"/>
<path d="M349.066 288.518C345.96 325.745 298.512 355.621 236.048 355.621C173.937 353.892 130.499 328.104 127.394 290.759C127.04 285.959 127.211 281.134 127.905 276.371C130.039 262.004 134.939 248.187 142.332 235.685L147.01 237.808C159.265 233.082 171.94 229.528 184.866 227.194C201.74 224.223 218.836 222.684 235.969 222.594C253.113 222.469 270.228 224.01 287.073 227.194C300 229.522 312.676 233.076 324.929 237.808L329.961 235.685L333.184 234.191C340.668 246.843 345.883 260.705 348.594 275.153C349.289 279.573 349.447 284.06 349.066 288.518Z" stroke="#221F1F" stroke-width="4" stroke-linecap="round" stroke-linejoin="round"/>
<path d="M368.209 177.231C362.808 184.877 356.379 191.742 349.104 197.634C345.504 200.6 341.541 203.097 337.311 205.063L335.306 205.889L334.048 206.282C331.257 207.068 329.842 206.282 324.574 205.378L322.255 204.945C316.307 203.614 310.857 200.63 306.531 196.336C297.332 187.374 292.969 176.917 295.917 160.957C308.654 161.232 330.196 147.473 340.22 133.125C352.013 116.379 349.615 96.7234 346.824 84.1833C346.609 83.3289 346.671 82.4284 347 81.6111C347.329 80.7939 347.908 80.1019 348.655 79.6345C349.402 79.1672 350.277 78.9486 351.156 79.0102C352.035 79.0717 352.872 79.4102 353.546 79.9771C367.926 91.2635 377.455 107.613 380.187 125.688C382.92 143.763 378.649 162.199 368.248 177.231" fill="#F79422"/>
<path d="M368.209 177.231C362.808 184.877 356.379 191.742 349.104 197.634C345.504 200.6 341.541 203.097 337.311 205.063L335.306 205.889L334.048 206.282C331.257 207.068 329.842 206.282 324.574 205.378L322.255 204.945C316.307 203.614 310.857 200.63 306.531 196.336C297.332 187.374 292.969 176.917 295.917 160.957C308.654 161.232 330.196 147.473 340.22 133.125C352.013 116.379 349.615 96.7234 346.824 84.1833C346.609 83.3289 346.671 82.4284 347 81.6111C347.329 80.7939 347.908 80.1019 348.655 79.6345C349.402 79.1672 350.277 78.9486 351.156 79.0102C352.035 79.0717 352.872 79.4102 353.546 79.9771C367.92 91.2691 377.441 107.622 380.166 125.696C382.891 143.771 378.614 162.203 368.209 177.231Z" stroke="#221F1F" stroke-width="4" stroke-linejoin="round"/>
<path d="M334.129 206.288L332.439 214.976C321.982 208.765 303.742 199.251 290.101 197.286C275.36 194.927 264.903 193.355 256.845 192.293L251.773 141.937C260.919 142.422 269.845 144.918 277.915 149.248C284.157 152.346 289.8 156.525 294.583 161.592L296.076 161.12C293.128 176.844 297.492 187.38 306.69 196.5C311.016 200.793 316.467 203.777 322.415 205.109C322.768 205.109 324.38 205.895 324.734 205.973C327.787 207.004 331.067 207.168 334.208 206.445" fill="#5A595C"/>
<path d="M319.169 205.924L330.577 212.842L333.348 208.562L319.169 205.924Z" fill="#221F1F"/>
<path d="M334.129 206.288L332.439 214.976C321.982 208.765 303.742 199.251 290.101 197.286C275.36 194.927 264.903 193.355 256.845 192.293L251.773 141.937C260.919 142.422 269.845 144.918 277.915 149.248C284.157 152.346 289.8 156.525 294.583 161.592L296.076 161.12C293.128 176.844 297.492 187.38 306.69 196.5C311.016 200.793 316.467 203.777 322.415 205.109L324.734 205.541C329.962 206.406 331.338 207.074 334.129 206.288Z" stroke="#221F1F" stroke-width="4" stroke-linejoin="round"/>
<path d="M251.78 141.937H250.129" stroke="#221F1F" stroke-width="4" stroke-linejoin="round"/>
<path d="M334.486 204.358C335.157 205.207 335.637 206.189 335.895 207.239C336.153 208.289 336.182 209.382 335.981 210.445C335.78 211.507 335.353 212.514 334.728 213.396C334.104 214.279 333.298 215.018 332.363 215.562" fill="#F79422"/>
<path d="M334.5 204C335 205.5 335.564 206.68 335.541 207.761C335.518 208.842 335.264 209.905 334.794 210.879C334.325 211.853 333.652 212.715 332.82 213.406C331.989 214.098 331.545 213.717 330.502 214" stroke="#221F1F" stroke-width="4" stroke-miterlimit="10"/>
<path d="M140.568 204.358C139.899 205.209 139.421 206.194 139.166 207.245C138.911 208.297 138.885 209.391 139.09 210.454C139.295 211.517 139.726 212.523 140.354 213.404C140.982 214.285 141.792 215.021 142.73 215.562" fill="#F79422"/>
<path d="M139.126 204.62C138.7 205.615 138.493 206.69 138.519 207.772C138.545 208.854 138.803 209.917 139.276 210.891C139.749 211.864 140.426 212.724 141.261 213.413C142.096 214.102 142.455 214.22 143.5 214.5" stroke="#221F1F" stroke-width="6" stroke-miterlimit="10"/>
<path d="M222.852 303.384C225.704 304.004 228.681 303.644 231.303 302.362C233.419 301.543 235.221 300.074 236.45 298.167C237.678 296.26 238.271 294.013 238.143 291.748C237.93 294.028 238.488 296.313 239.728 298.238C240.969 300.162 242.819 301.615 244.983 302.362C247.592 303.641 250.557 304.001 253.396 303.384" stroke="#171717" stroke-width="4" stroke-linecap="round" stroke-linejoin="round"/>
<path d="M253.394 278.496C253.394 283.056 246.279 289.543 237.67 289.543C229.061 289.543 221.945 283.332 221.945 278.732C221.945 274.133 229.061 272.561 237.67 272.561C246.279 272.561 253.394 273.897 253.394 278.496Z" fill="#171717"/>
<path d="M244.225 276.725C244.225 277.787 241.198 279.28 237.503 279.28C233.808 279.28 230.82 277.826 230.82 276.765C230.82 275.703 233.808 275.9 237.503 275.9C241.198 275.9 244.225 275.625 244.225 276.725Z" fill="white"/>
<path d="M213.134 291.827C212.915 294.461 213.683 297.083 215.288 299.182C216.894 301.282 219.223 302.709 221.822 303.188H222.844" stroke="#171717" stroke-width="4" stroke-linecap="round" stroke-linejoin="round"/>
<path d="M238.094 286.36C238.094 288.404 238.094 289.819 238.094 291.745" stroke="#171717" stroke-width="4" stroke-linecap="round" stroke-linejoin="round"/>
<path d="M253.387 303.384H254.448C257.084 302.904 259.443 301.447 261.053 299.305C262.663 297.163 263.407 294.493 263.136 291.827" stroke="#171717" stroke-width="4" stroke-linecap="round" stroke-linejoin="round"/>
<path d="M353.555 79.979C367.934 91.2654 377.463 107.615 380.196 125.69C382.928 143.765 378.658 162.201 368.257 177.233" stroke="#221F1F" stroke-width="4" stroke-linejoin="round"/>
<path d="M166.475 196.338C162.154 200.639 156.701 203.624 150.75 204.947L148.431 205.38C146.023 206.018 143.563 206.439 141.08 206.638C140.552 206.609 140.027 206.543 139.508 206.441C138.159 206.099 136.844 205.639 135.577 205.065C131.347 203.099 127.384 200.602 123.783 197.636C116.513 191.752 110.096 184.885 104.718 177.234C94.3203 162.19 90.0637 143.742 92.8185 125.664C95.5734 107.586 105.132 91.243 119.538 79.9792C120.214 79.4285 121.046 79.1038 121.916 79.0507C122.786 78.9976 123.651 79.2189 124.389 79.6834C125.127 80.1478 125.701 80.8321 126.029 81.6397C126.358 82.4473 126.425 83.3377 126.221 84.1854C123.312 96.7255 121.071 116.381 132.786 133.284C142.81 147.633 164.234 161.391 177.128 161.116C180.037 176.919 175.673 187.376 166.475 196.338Z" stroke="#221F1F" stroke-width="4" stroke-linejoin="round"/>
<path d="M209.001 252.829C209.001 261.399 203.969 268.318 197.758 268.318C191.547 268.318 186.555 261.399 186.555 252.829C186.555 245.321 190.486 239.031 195.557 237.616L208.097 247.129C208.664 248.978 208.969 250.896 209.001 252.829Z" fill="#221F1F"/>
<path d="M204.843 250.787C204.843 253.814 203.074 256.33 200.912 256.33C198.749 256.33 196.98 253.814 196.98 250.787C196.98 247.76 198.789 245.205 200.912 245.205C203.034 245.205 204.843 247.721 204.843 250.787Z" fill="white"/>
<path d="M195.289 264.422C190.995 267.973 187.046 271.922 183.495 276.216C181.798 278.33 180.359 280.639 179.211 283.095C178.046 285.593 177.226 288.238 176.773 290.957C176.537 292.294 176.341 293.709 176.184 295.085L175.987 297.207V299.33C175.83 302.172 175.83 305.019 175.987 307.861C176.214 310.727 176.621 313.576 177.206 316.391C177.481 317.806 177.795 319.221 178.188 320.597C178.545 321.946 179.018 323.262 179.604 324.528C178.865 323.273 178.234 321.958 177.717 320.597C177.166 319.261 176.695 317.885 176.223 316.666C175.328 313.867 174.593 311.019 174.022 308.136C173.469 305.237 173.075 302.311 172.842 299.37L172.724 297.207V294.967C172.711 293.471 172.777 291.975 172.921 290.485C173.157 287.399 173.805 284.359 174.847 281.444C175.888 278.537 177.274 275.765 178.975 273.189C182.344 268.203 186.174 263.544 190.414 259.273C191.083 258.645 191.967 258.299 192.884 258.304C193.801 258.31 194.681 258.668 195.342 259.303C196.003 259.939 196.394 260.804 196.435 261.72C196.477 262.636 196.165 263.533 195.564 264.226L195.328 264.462L195.289 264.422Z" fill="#221F1F"/>
<path d="M192.684 263.288C192.412 263.344 192.131 263.344 191.858 263.288H191.387H190.482L188.674 262.895C187.469 262.654 186.246 262.509 185.018 262.462C182.55 262.296 180.071 262.509 177.667 263.091C176.449 263.392 175.264 263.814 174.129 264.349C170.558 266.015 167.532 268.659 165.402 271.975C166.389 269.408 167.826 267.038 169.648 264.978C170.572 263.91 171.599 262.936 172.714 262.069C173.855 261.191 175.079 260.427 176.37 259.789C178.902 258.323 181.648 257.262 184.507 256.644C185.952 256.41 187.409 256.252 188.871 256.173C189.618 256.173 190.365 256.173 191.072 256.173H192.684C193.182 256.147 193.679 256.226 194.145 256.404C194.61 256.582 195.033 256.856 195.387 257.207C195.741 257.558 196.017 257.98 196.198 258.444C196.38 258.908 196.462 259.405 196.44 259.903C196.418 260.401 196.292 260.889 196.071 261.335C195.849 261.782 195.537 262.177 195.153 262.496C194.77 262.815 194.324 263.05 193.845 263.186C193.366 263.322 192.863 263.357 192.369 263.288" fill="#221F1F"/>
<path d="M289.716 252.829C289.716 261.399 284.684 268.318 278.513 268.318C272.341 268.318 267.27 261.399 267.27 252.829C267.261 250.876 267.526 248.931 268.056 247.051L280.635 237.616C285.824 238.992 289.716 245.282 289.716 252.829Z" fill="#221F1F"/>
<path d="M271.398 250.787C271.398 253.814 273.207 256.33 275.329 256.33C277.452 256.33 279.261 253.814 279.261 250.787C279.261 247.76 277.452 245.205 275.329 245.205C273.207 245.205 271.398 247.721 271.398 250.787Z" fill="white"/>
<path d="M285.852 259.235C289.995 263.445 293.745 268.024 297.056 272.915C298.748 275.383 300.183 278.018 301.341 280.777C302.479 283.59 303.259 286.535 303.66 289.543C304.014 292.507 304.014 295.503 303.66 298.467C303.346 301.337 302.874 304.206 302.284 307.037C301.721 309.853 300.999 312.635 300.122 315.37C299.65 316.746 299.218 318.083 298.668 319.301C298.154 320.664 297.523 321.98 296.781 323.232C297.367 321.962 297.853 320.647 298.235 319.301C298.628 317.965 298.943 316.589 299.257 315.174C299.846 312.409 300.279 309.614 300.555 306.801C300.83 303.97 300.948 301.14 300.987 298.349C301 295.613 300.709 292.884 300.122 290.212C299.491 287.596 298.526 285.073 297.252 282.703C295.961 280.337 294.447 278.1 292.732 276.021C289.156 271.749 285.21 267.803 280.939 264.227C280.292 263.592 279.91 262.736 279.871 261.83C279.831 260.925 280.137 260.038 280.726 259.35C281.315 258.661 282.143 258.221 283.044 258.12C283.944 258.018 284.85 258.262 285.577 258.802L285.852 259.038" fill="#221F1F"/>
<path d="M283.271 256.168H285.197C285.957 256.129 286.718 256.129 287.477 256.168C289.003 256.219 290.525 256.35 292.037 256.561C295.072 257.001 298.033 257.847 300.843 259.077C303.611 260.291 306.12 262.026 308.233 264.187C310.279 266.277 311.895 268.748 312.99 271.46C311.426 269.13 309.423 267.127 307.093 265.563C304.855 264.057 302.345 263.002 299.703 262.458C297.118 261.927 294.474 261.742 291.84 261.907C290.522 261.987 289.209 262.144 287.909 262.379L285.944 262.772H285H284.489H284.175H283.664C283.17 262.841 282.668 262.807 282.188 262.67C281.709 262.534 281.263 262.299 280.88 261.98C280.497 261.662 280.184 261.266 279.963 260.82C279.741 260.373 279.615 259.885 279.593 259.388C279.571 258.89 279.654 258.393 279.835 257.928C280.016 257.464 280.293 257.043 280.646 256.691C281 256.34 281.423 256.067 281.889 255.889C282.354 255.71 282.852 255.632 283.349 255.657" fill="#221F1F"/>
<path d="M174.051 74C174.051 60.7452 163.306 50 150.051 50H44.0008C30.746 50 20.0008 60.7452 20.0008 74V99.1811C20.0008 112.436 30.7459 123.181 44.0008 123.181H116.706C117.596 123.181 118.467 123.435 119.218 123.913L142.986 139.043C144.317 139.891 146.06 138.934 146.06 137.356V125.181C146.06 124.077 146.955 123.181 148.06 123.181H150.051C163.306 123.181 174.051 112.436 174.051 99.1811L174.051 74Z" fill="#1168F1"/>
<g opacity="0.5">
<ellipse cx="63.5879" cy="84.8" rx="5.65431" ry="5.8371" fill="#F4F5FA"/>
<ellipse cx="99.8457" cy="84.8" rx="5.65431" ry="5.8371" fill="#F4F5FA"/>
<ellipse cx="136.1" cy="84.8" rx="5.65431" ry="5.8371" fill="#F4F5FA"/>
</g>
<g filter="url(#filter1_d_11388_66381)">
<path d="M260 370C260 352.327 274.327 338 292 338H425.973C443.646 338 457.973 352.327 457.973 370V399.286C457.973 416.959 443.646 431.286 425.973 431.286H345.104C344.2 431.286 343.316 431.548 342.558 432.04L311.809 451.995C310.478 452.859 308.72 451.904 308.72 450.318V435.963C308.72 433.38 306.626 431.286 304.043 431.286H292C274.327 431.286 260 416.959 260 399.286L260 370Z" fill="#FF9900"/>
</g>
<g opacity="0.5">
<ellipse cx="7.43581" cy="7.73321" rx="7.43581" ry="7.73321" transform="matrix(-1 0 0 1 425.492 377.748)" fill="#F4F5FA"/>
<ellipse cx="7.43581" cy="7.73321" rx="7.43581" ry="7.73321" transform="matrix(-1 0 0 1 366.004 377.749)" fill="#F4F5FA"/>
<ellipse cx="7.43581" cy="7.73321" rx="7.43581" ry="7.73321" transform="matrix(-1 0 0 1 306.52 377.749)" fill="#F4F5FA"/>
</g>
<defs>
<filter id="filter0_d_11388_66381" x="0" y="0.558751" width="473" height="473" filterUnits="userSpaceOnUse" color-interpolation-filters="sRGB">
<feFlood flood-opacity="0" result="BackgroundImageFix"/>
<feColorMatrix in="SourceAlpha" type="matrix" values="0 0 0 0 0 0 0 0 0 0 0 0 0 0 0 0 0 0 127 0" result="hardAlpha"/>
<feOffset dy="3.55875"/>
<feGaussianBlur stdDeviation="30"/>
<feColorMatrix type="matrix" values="0 0 0 0 0 0 0 0 0 0.101953 0 0 0 0 0.2625 0 0 0 0.08 0"/>
<feBlend mode="normal" in2="BackgroundImageFix" result="effect1_dropShadow_11388_66381"/>
<feBlend mode="normal" in="SourceGraphic" in2="effect1_dropShadow_11388_66381" result="shape"/>
</filter>
<filter id="filter1_d_11388_66381" x="235.807" y="316.226" width="246.359" height="162.707" filterUnits="userSpaceOnUse" color-interpolation-filters="sRGB">
<feFlood flood-opacity="0" result="BackgroundImageFix"/>
<feColorMatrix in="SourceAlpha" type="matrix" values="0 0 0 0 0 0 0 0 0 0 0 0 0 0 0 0 0 0 127 0" result="hardAlpha"/>
<feOffset dy="2.4193"/>
<feGaussianBlur stdDeviation="12.0965"/>
<feColorMatrix type="matrix" values="0 0 0 0 0 0 0 0 0 0 0 0 0 0 0 0 0 0 0.15 0"/>
<feBlend mode="normal" in2="BackgroundImageFix" result="effect1_dropShadow_11388_66381"/>
<feBlend mode="normal" in="SourceGraphic" in2="effect1_dropShadow_11388_66381" result="shape"/>
</filter>
</defs>
</svg>
