<svg width="483" height="479" viewBox="0 0 483 479" fill="none" xmlns="http://www.w3.org/2000/svg">
<g filter="url(#filter0_d_11695_84876)">
<circle cx="236.5" cy="233.5" r="176.5" fill="white"/>
</g>
<circle cx="236.5" cy="233.5" r="145.5" fill="#E7E7E7"/>
<g clip-path="url(#clip0_11695_84876)">
<mask id="mask0_11695_84876" style="mask-type:luminance" maskUnits="userSpaceOnUse" x="113" y="106" width="247" height="247">
<path d="M113 106H360V353H113V106Z" fill="white"/>
</mask>
<g mask="url(#mask0_11695_84876)">
<path d="M345.883 111.2C335.386 104.271 299.04 120.586 284.528 132.417C240.686 114.991 203.932 127.761 192.805 133.133C154.557 115.621 126.411 105.531 119.075 126.254C111.739 147.002 122.151 193.759 130.19 210.728C112.925 274.442 119.693 307.33 140.206 325.855C160.707 344.466 194.941 344.701 222.074 345.652L266.312 345.183C324.036 345.492 351.799 320.112 355.504 294.239C359.209 268.292 351.959 227.277 341.548 198.415C360.234 157.018 356.368 118.214 345.883 111.187V111.2Z" fill="#F7EBD1"/>
<path d="M126.089 293.621L122.692 294.881C117.666 274.38 127.879 221.534 129.374 213.803L129.559 212.864L133.894 210.419C135.24 205.294 139.093 195.673 139.093 195.673L142.094 181.397L164.645 150.954C164.645 150.954 167.177 151.028 171.673 149.534C173.858 147.854 176.403 146.508 178.934 145.162C180.33 144.421 181.713 143.692 183.022 142.914C171.277 135.183 149.591 125.402 136.413 123.895C123.545 122.462 121.988 134.924 120.321 148.286L120.161 149.472C117.654 121.857 123.717 119.647 135.549 116.09C147.38 112.545 173.167 124.216 192.803 133.207C226.013 118.3 267.41 126.995 284.539 133.54C313.463 110.495 337.595 109.075 344.684 112.076C351.785 115.065 353.119 133.837 351.069 138.801C348.549 123.66 346.104 116.485 334.026 118.622C321.972 120.746 302.41 133.923 293.345 141.247C293.345 141.247 296.494 143.223 298.865 144.804C311.092 151.584 330.407 177.605 330.407 177.605C330.407 177.605 331.753 182.582 332.223 185.88C335.137 191.882 337.657 198.267 337.657 198.267L345.005 213.087C350.76 231.55 355.725 274.763 352.81 283.605C349.105 229.339 325.763 178.235 301.471 155.61C291.962 146.792 281.019 141.654 270.559 138.715C268.459 143.013 256.011 146.471 240.907 146.619C224.395 146.767 210.871 143.013 210.773 138.147C197.755 141.328 185.555 147.219 174.97 155.437C150.603 174.061 141.921 200.008 133.807 225.708C125.681 251.421 124.903 287.31 126.089 293.621Z" fill="white"/>
<path d="M211.7 245.851C211.107 245.975 210.786 246.061 210.786 246.061C210.786 246.061 203.45 244.406 193.83 252.607C184.209 260.807 188.865 285.174 194.077 295.029C199.264 304.897 214.417 330.758 236.425 330.992C258.42 331.313 274.586 319.247 285.393 297.24C296.125 275.244 290.518 250.162 263.867 244.715L263.261 244.592C257.58 239.615 250.22 235.008 240.599 234.86C227.879 234.675 219.184 240.319 211.7 245.851Z" fill="white"/>
<path d="M327.023 127.612C316.933 132.898 303.213 144.643 303.213 144.643C311.895 151.028 326.159 166.799 332.482 180.05C336.57 173.196 342.325 161.365 343.202 140.073C344.066 118.893 337.274 122.364 327.196 127.526L327.023 127.612ZM145.725 135.269C129.559 126.526 129.399 132.577 129.152 141.37L129.09 143.618C128.695 153.634 133.351 177.926 138.785 188.807C144.07 174.851 157.001 157.265 167.56 149.212C167.56 149.212 163.238 144.729 145.725 135.269ZM224.197 297.487C228.297 291.806 235.399 293.782 238.079 296.931C240.919 293.3 246.353 293.695 249.441 296.77C252.429 299.845 252.355 307.651 251.17 312.232C249.984 316.802 248.008 321.927 237.362 322.236C221.357 322.718 220.097 303.155 224.197 297.474V297.487Z" fill="#FF6C6C"/>
<path fill-rule="evenodd" clip-rule="evenodd" d="M341.472 121.931C337.249 119.276 332.025 121.956 325.961 125.068L325.763 125.167C315.513 130.453 301.952 142.037 301.397 142.519L298.803 144.717L301.557 146.767C309.362 152.535 323.553 167.75 330.024 181.162L332.235 185.806L334.828 181.397C339.175 174.061 345.079 161.834 345.955 140.148C346.425 129.737 345.103 124.29 341.472 121.931ZM340.509 139.987C339.805 156.635 336.1 167.281 332.543 174.295C326.245 163.489 315.747 151.423 307.547 144.569C311.968 140.938 321.12 133.763 328.295 130.058C332.309 127.921 336.965 125.562 338.459 126.587C339.249 127.057 340.991 129.341 340.509 139.987ZM130.349 129.107C133.659 127.217 138.624 128.316 146.985 132.812C163.225 141.617 168.437 146.273 169.375 147.113L169.536 147.237L171.672 149.46L169.227 151.349C158.816 159.315 146.355 176.506 141.316 189.758L139.093 195.587L136.252 189.992C130.744 178.877 125.854 153.943 126.249 143.457L126.286 142.346L126.323 141.247C126.484 136.122 126.644 131.243 130.349 129.107ZM131.844 143.779C131.522 151.892 134.758 170.121 138.858 181.792C144.613 169.961 154.246 157.03 163.311 149.213C160.471 147.162 154.876 143.297 144.465 137.702C137.673 134.071 134.832 133.602 133.733 133.75C133.498 133.75 133.264 133.837 133.19 133.923C132.103 134.541 132.004 138.27 131.93 141.333V141.494C131.93 141.84 131.905 142.198 131.881 142.568C131.858 142.971 131.845 143.375 131.844 143.779Z" fill="#3D006F"/>
<path d="M172.305 215.384H172.058C161.338 216.73 153.063 226.425 149.988 234.946C149.988 234.946 159.127 224.696 172.935 222.399H173.095C180.345 221.608 188.076 226.82 195.486 237.626C195.486 237.626 193.596 221.139 181.925 216.569C178.866 215.367 175.564 214.959 172.305 215.384ZM288 218.854C291.383 217.125 295.163 216.088 298.793 215.853C305.499 215.384 317.726 217.508 324.271 236.28C324.271 236.28 315.355 221.608 299.275 222.88C289.803 223.658 280.898 231.402 279.478 237.861C279.478 237.861 274.983 225.572 288 218.854Z" fill="#3D006F"/>
<path fill-rule="evenodd" clip-rule="evenodd" d="M265.683 263.092C266.266 264.466 266.478 265.97 266.298 267.452C266.119 268.935 265.553 270.344 264.658 271.539C262.608 274.133 259.224 275.244 255.111 274.614C247.64 273.392 243.478 271.366 241.773 270.341L241.922 261.746C246.318 260.93 252.543 256.991 254.716 254.027C257.31 250.322 254.877 241.64 241.391 241.726C227.83 241.726 222.001 246.456 226.089 253.162C229.374 258.535 233.746 260.461 237.204 261.338L237.043 269.946C234.82 270.885 229.757 272.712 224.755 272.688C222.869 272.713 220.995 272.377 219.235 271.7C215.678 270.267 213.393 268.143 212.529 265.537C212.176 264.473 212.056 263.345 212.178 262.231C212.299 261.116 212.659 260.041 213.233 259.078C213.233 259.078 205.983 261.202 208.033 267.118C208.651 268.896 209.836 271.095 212.232 273.095C217.049 278.529 220.457 290.323 221.643 297.128C219.296 301.537 218.975 309.713 222.384 316.098C225.385 321.779 230.745 324.842 237.451 324.619C238.389 324.619 239.254 324.533 240.044 324.447C249.356 323.421 251.95 318.296 253.456 312.936C254.469 309.182 254.815 303.229 253.247 298.857C253.716 293.769 259.459 282.691 264.065 278.035C265.747 277.213 267.195 275.981 268.276 274.454C271.981 269.489 265.683 263.092 265.683 263.092ZM230.819 296.214H231.017C232.368 296.24 233.689 296.624 234.845 297.326C236.265 298.499 237.364 308.515 237.364 308.515C237.364 308.515 239.254 298.894 240.835 297.561H240.798C241.575 296.964 242.536 296.659 243.515 296.696C244.997 296.696 246.516 297.314 247.615 298.425C248.07 298.926 248.419 299.514 248.64 300.154L249.01 301.142C249.776 304.118 249.677 308.49 248.887 311.677L248.85 311.751C247.825 315.431 246.664 319.63 237.278 319.865C232.301 320.025 228.682 317.975 226.472 313.875C223.557 308.354 224.261 301.327 226.077 298.808C226.593 298.022 227.294 297.375 228.119 296.923C228.943 296.471 229.866 296.227 230.807 296.214H230.819Z" fill="#3D006F"/>
<path d="M205.895 250.162C205.895 250.162 221.27 231.872 240.598 232.575C264.73 233.366 272.461 253.867 272.461 253.941C264.965 246.296 254.554 237.466 240.512 237.306C225.531 237.145 215.194 243.542 205.895 250.162Z" fill="#3D006F"/>
<path fill-rule="evenodd" clip-rule="evenodd" d="M333.41 106.42C338.646 105.654 344.055 105.741 347.847 108.248C351.527 110.718 354.047 115.448 355.664 120.968C357.332 126.649 358.233 133.812 358.208 141.939C358.147 157.87 354.479 177.889 345.365 198.576C355.615 227.648 362.778 268.415 359.024 294.745C354.948 323.125 324.901 349.048 266.325 348.739L221.951 349.221L220.889 349.184L217.999 349.085C205.476 348.665 191.434 348.196 178.047 345.886C163.239 343.33 148.79 338.452 137.823 328.498C115.864 308.651 109.517 274.207 126.436 211.049C122.361 201.935 117.964 186.349 115.37 170.492C113.977 162.353 113.197 154.121 113.036 145.866C112.962 138.11 113.691 130.824 115.729 125.081C117.865 119.029 121.681 114.954 127.004 112.83C132.129 110.792 138.28 110.742 144.936 111.854C157.867 114.003 174.342 120.808 192.793 129.218C205.785 123.389 241.501 112.261 283.936 128.378C291.704 122.475 303.844 115.917 315.44 111.459C321.69 109.063 327.939 107.21 333.41 106.42ZM317.985 118.091C306.005 122.685 293.655 129.551 286.776 135.171L285.158 136.492L283.219 135.714C240.599 118.782 204.92 131.231 194.349 136.332L192.854 137.048L191.335 136.356C172.143 127.575 155.965 120.882 143.751 118.856C137.699 117.844 133.019 118.066 129.622 119.424C126.411 120.709 123.941 123.129 122.422 127.452C120.78 132.071 120.076 138.406 120.138 145.804C120.199 153.14 121.039 161.266 122.361 169.343C125.028 185.571 129.573 201.144 133.401 209.209L133.957 210.395L133.624 211.654C116.408 275.133 123.682 306.144 142.59 323.237C152.124 331.894 165.055 336.451 179.269 338.896C192.126 341.119 205.674 341.564 218.271 341.984L222.112 342.107L266.325 341.638C323.184 341.959 348.65 317.099 351.996 293.745C355.578 268.6 348.514 228.216 338.214 199.638L337.72 198.279L338.313 196.97C347.452 176.716 351.058 157.154 351.107 141.914C351.132 134.282 350.28 127.835 348.86 122.969C347.378 117.967 345.488 115.213 343.92 114.163C342.462 113.2 339.387 112.718 334.41 113.435C329.668 114.126 323.962 115.781 317.985 118.091Z" fill="#3D006F"/>
<path opacity="0.6" d="M240.995 245.592C233.338 245.74 229.793 246.704 231.769 247.877C233.745 249.062 236.895 249.211 238.932 249.297C241.229 249.371 246.194 248.346 247.935 247.642C249.59 247.012 248.639 245.419 240.995 245.592Z" fill="white"/>
</g>
</g>
<path d="M174.051 74C174.051 60.7452 163.306 50 150.051 50H44.0008C30.746 50 20.0008 60.7452 20.0008 74V99.1811C20.0008 112.436 30.7459 123.181 44.0008 123.181H116.706C117.596 123.181 118.467 123.435 119.218 123.913L142.986 139.043C144.317 139.891 146.06 138.934 146.06 137.356V125.181C146.06 124.077 146.955 123.181 148.06 123.181H150.051C163.306 123.181 174.051 112.436 174.051 99.1811L174.051 74Z" fill="#1168F1"/>
<g opacity="0.5">
<ellipse cx="63.5879" cy="84.8" rx="5.65431" ry="5.8371" fill="#F4F5FA"/>
<ellipse cx="99.8457" cy="84.8" rx="5.65431" ry="5.8371" fill="#F4F5FA"/>
<ellipse cx="136.1" cy="84.8" rx="5.65431" ry="5.8371" fill="#F4F5FA"/>
</g>
<g filter="url(#filter1_d_11695_84876)">
<path d="M260 370C260 352.327 274.327 338 292 338H425.973C443.646 338 457.973 352.327 457.973 370V399.286C457.973 416.959 443.646 431.286 425.973 431.286H345.104C344.2 431.286 343.316 431.548 342.558 432.04L311.809 451.995C310.478 452.859 308.72 451.904 308.72 450.318V435.963C308.72 433.38 306.626 431.286 304.043 431.286H292C274.327 431.286 260 416.959 260 399.286L260 370Z" fill="#FF9900"/>
</g>
<g opacity="0.5">
<ellipse cx="7.43581" cy="7.73321" rx="7.43581" ry="7.73321" transform="matrix(-1 0 0 1 425.492 377.748)" fill="#F4F5FA"/>
<ellipse cx="7.43581" cy="7.73321" rx="7.43581" ry="7.73321" transform="matrix(-1 0 0 1 366.004 377.749)" fill="#F4F5FA"/>
<ellipse cx="7.43581" cy="7.73321" rx="7.43581" ry="7.73321" transform="matrix(-1 0 0 1 306.52 377.749)" fill="#F4F5FA"/>
</g>
<defs>
<filter id="filter0_d_11695_84876" x="0" y="0.558751" width="473" height="473" filterUnits="userSpaceOnUse" color-interpolation-filters="sRGB">
<feFlood flood-opacity="0" result="BackgroundImageFix"/>
<feColorMatrix in="SourceAlpha" type="matrix" values="0 0 0 0 0 0 0 0 0 0 0 0 0 0 0 0 0 0 127 0" result="hardAlpha"/>
<feOffset dy="3.55875"/>
<feGaussianBlur stdDeviation="30"/>
<feColorMatrix type="matrix" values="0 0 0 0 0 0 0 0 0 0.101953 0 0 0 0 0.2625 0 0 0 0.08 0"/>
<feBlend mode="normal" in2="BackgroundImageFix" result="effect1_dropShadow_11695_84876"/>
<feBlend mode="normal" in="SourceGraphic" in2="effect1_dropShadow_11695_84876" result="shape"/>
</filter>
<filter id="filter1_d_11695_84876" x="235.807" y="316.226" width="246.359" height="162.707" filterUnits="userSpaceOnUse" color-interpolation-filters="sRGB">
<feFlood flood-opacity="0" result="BackgroundImageFix"/>
<feColorMatrix in="SourceAlpha" type="matrix" values="0 0 0 0 0 0 0 0 0 0 0 0 0 0 0 0 0 0 127 0" result="hardAlpha"/>
<feOffset dy="2.4193"/>
<feGaussianBlur stdDeviation="12.0965"/>
<feColorMatrix type="matrix" values="0 0 0 0 0 0 0 0 0 0 0 0 0 0 0 0 0 0 0.15 0"/>
<feBlend mode="normal" in2="BackgroundImageFix" result="effect1_dropShadow_11695_84876"/>
<feBlend mode="normal" in="SourceGraphic" in2="effect1_dropShadow_11695_84876" result="shape"/>
</filter>
<clipPath id="clip0_11695_84876">
<rect width="247" height="247" fill="white" transform="translate(113 106)"/>
</clipPath>
</defs>
</svg>
