<svg width="483" height="479" viewBox="0 0 483 479" fill="none" xmlns="http://www.w3.org/2000/svg">
<g filter="url(#filter0_d_11500_72772)">
<circle cx="236.5" cy="233.5" r="176.5" fill="white"/>
</g>
<g clip-path="url(#clip0_11500_72772)">
<path d="M236.501 364.45C308.822 364.45 367.451 305.821 367.451 233.5C367.451 161.178 308.822 102.55 236.501 102.55C164.179 102.55 105.551 161.178 105.551 233.5C105.551 305.821 164.179 364.45 236.501 364.45Z" fill="white"/>
<path fill-rule="evenodd" clip-rule="evenodd" d="M250.27 124.794C263.185 126.872 267.781 128.008 275.12 130.939C321.939 149.634 349.987 194.965 345.235 244.26C344.607 250.797 343.59 257.675 342.979 259.543C334.783 284.59 328.443 295.841 314.56 309.984C299.471 325.351 283.776 334.305 261.001 340.54C259.137 341.049 252.933 342.055 247.213 342.772C224.547 345.62 194.724 338.198 176.72 325.231C173.681 323.044 170.921 321.253 170.584 321.253C170.247 321.253 167.876 319.342 165.315 317.007C146.136 299.525 134.341 279.817 129.568 257.278C126.631 243.406 125.714 232.348 127.003 226.324C127.704 223.048 128.277 218.82 128.277 216.928C128.277 211.428 132.678 196.918 137.434 186.74C149.043 161.888 171.584 141.001 197.69 130.901C205.27 127.969 207.594 127.542 212.579 128.166C217.761 128.815 218.636 128.628 219.699 126.635C220.453 125.223 223.058 124.249 226.904 123.75C232.621 123.009 241.079 123.316 250.27 124.794ZM220.836 159.691C218.529 152.707 222.736 144.237 229.939 141.357C236.488 138.739 244.676 140.881 248.951 146.329C251.776 149.929 252.303 159.176 249.949 163.84C248.215 167.279 240.631 171.746 236.486 171.772C229.82 171.812 223.135 166.652 220.836 159.691ZM236.129 193.304C236.389 193.304 239.55 191.521 243.154 189.344C246.757 187.166 250.342 185.382 251.117 185.381C252.201 185.379 252.53 190.759 252.53 208.523C252.53 221.253 252.984 231.949 253.537 232.293C254.756 233.048 261.663 230.03 287.401 217.491C298.197 212.231 307.555 208.104 308.198 208.319C308.84 208.534 309.522 209.746 309.716 211.012C310.004 212.899 307.353 214.881 295.029 221.993C286.759 226.764 279.648 230.669 279.228 230.669C278.807 230.669 276.443 231.949 273.972 233.512C271.503 235.074 266.558 237.929 262.983 239.854C258.618 242.205 256.069 243.361 254.583 245.321C252.283 248.354 252.53 253.317 252.53 267.629C252.53 279.045 251.963 290.811 251.269 293.779C247.886 308.249 240.163 318.807 229.373 323.713C224.849 325.769 221.8 326.265 214.046 326.205C205.359 326.14 203.658 325.754 197.455 322.441C186.009 316.326 180.712 306.503 181.706 293.238C182.379 284.269 186.242 275.844 192.303 270.128C197.171 265.538 212.5 254.832 220.808 250.217C224.898 247.947 228.618 245.549 229.074 244.89C229.53 244.229 229.911 236.413 229.921 227.521C229.935 214.207 229.64 211.235 228.25 210.7C227.322 210.342 219.57 213.092 211.025 216.808C202.478 220.524 194.926 223.355 194.242 223.098C192.326 222.378 193.694 217.688 196.296 216.058C198.789 214.498 203.729 211.667 211.865 207.138C214.661 205.581 221.157 201.832 226.302 198.806C231.446 195.78 235.868 193.304 236.129 193.304Z" fill="#F6931E"/>
<path fill-rule="evenodd" clip-rule="evenodd" d="M248.575 95.9262C248.984 97.7945 249.724 99.3231 250.218 99.3231C250.712 99.3231 252.695 99.639 254.623 100.026C257.674 100.638 258.277 100.341 259.266 97.7322C259.89 96.0847 261.196 94.4304 262.167 94.0568C263.612 93.5008 281.334 97.6643 282.922 98.9324C283.173 99.1328 283.681 101.121 284.051 103.348C284.518 106.17 285.688 107.976 287.906 109.305C290.981 111.144 291.167 111.122 293.172 108.664C295.982 105.219 299.625 105.46 306.001 109.514C308.94 111.382 311.757 112.911 312.26 112.911C312.762 112.911 314.096 113.932 315.224 115.18C316.957 117.1 317.065 117.909 315.915 120.434C314.732 123.036 314.881 123.763 317.063 126.091C319.935 129.157 322.793 129.515 324.821 127.064C325.595 126.13 326.604 125.366 327.063 125.366C328.463 125.366 335.398 131.307 340.039 136.48C344.419 141.365 344.422 141.371 342.478 144.668C339.339 149.992 343.546 155.793 349.028 153.703C352.859 152.243 355.397 154.775 360.876 165.523L364.738 173.098L361.58 175.622C358.467 178.11 358.449 178.195 360.29 181.761C361.812 184.714 362.835 185.378 365.861 185.378C369.075 185.378 369.824 185.956 371.482 189.721C372.532 192.11 373.392 195.32 373.392 196.854C373.392 198.389 373.941 200.194 374.61 200.865C376.891 203.152 375.32 208.461 371.875 210.109C368.951 211.508 368.733 212.014 369.437 215.776C370.254 220.138 371.709 221.753 374.022 220.863C374.793 220.567 375.799 220.934 376.258 221.68C377.264 223.309 377.236 243.733 376.228 245.371C375.838 246.004 374.278 246.521 372.761 246.521C371.244 246.521 370.003 246.968 370.003 247.512C370.003 248.057 369.685 250.1 369.295 252.05C368.655 255.263 368.921 255.715 372.119 256.833C375.126 257.882 375.652 258.629 375.652 261.852C375.652 263.934 375.142 265.952 374.521 266.337C373.9 266.722 373.367 268.407 373.338 270.083C373.309 271.759 372.417 274.914 371.358 277.093C369.887 280.118 368.63 281.14 366.047 281.41C359.901 282.052 357.793 288.06 362.379 291.856L364.921 293.96L360.966 301.51C355.349 312.237 352.827 314.746 349.092 313.321C348.861 313.233 348.645 313.15 348.445 313.073C347.039 312.53 346.3 312.245 345.686 312.414C345.005 312.601 344.478 313.348 343.365 314.926C343.221 315.131 343.067 315.35 342.901 315.583C340.678 318.712 340.628 319.163 342.259 321.496C343.23 322.885 344.023 324.606 344.023 325.321C344.023 327.083 329.407 341.634 327.637 341.634C326.861 341.634 325.595 340.87 324.821 339.936C322.863 337.57 320.923 337.811 317.389 340.857C314.798 343.092 314.539 343.831 315.629 345.871C317.578 349.525 316.273 351.277 307.869 356.28C299.066 361.523 297.163 361.824 293.662 358.531C291.297 356.301 290.981 356.273 287.661 357.993C285.052 359.345 284.153 360.599 284.139 362.895C284.113 367.526 283.248 368.172 273.287 370.983C263.297 373.801 259.307 373.17 259.307 368.77C259.307 367.213 258.543 366.55 256.765 366.561C251.547 366.592 249.275 367.852 248.923 370.906L248.575 373.905L236.53 374.225L224.485 374.546L223.759 371.228C222.607 365.972 214.787 364.651 212.983 369.404C211.599 373.052 209.107 373.989 204.663 372.536C202.722 371.9 198.846 370.71 196.051 369.89C189.36 367.931 187.859 366.659 188.467 363.469C188.836 361.53 188.134 360.225 185.836 358.585C182.888 356.48 179.107 356.545 179.107 358.7C179.107 359.235 178.045 360.241 176.746 360.938C174.74 362.014 173.032 361.384 165.353 356.731L156.319 351.259L157.009 346.932C157.583 343.326 157.271 342.248 155.13 340.459C151.948 337.799 150.418 337.719 148.053 340.089C145.506 342.643 142.229 340.76 134.329 332.206C128.393 325.781 128.236 325.447 129.92 322.871C132.314 319.21 132.12 317.545 128.948 314.56C126.741 312.48 125.802 312.232 123.947 313.227C120.629 315.006 118.68 313.809 115.688 308.156C114.227 305.395 112.731 303.136 112.364 303.136C111.995 303.136 111.022 301.092 110.199 298.595C108.815 294.386 108.883 293.862 111.148 291.444C113.679 288.745 114.441 285.02 112.463 285.02C111.842 285.02 111.333 284.255 111.333 283.321C111.333 282.198 110.213 281.623 108.025 281.623C104.13 281.623 101.429 279.254 100.51 275.033C100.146 273.364 99.1692 269.861 98.3389 267.249C96.4785 261.398 97.2568 257.988 100.757 256.654C105.839 254.715 103.307 245.389 97.6985 245.389C95.6867 245.389 95.5195 244.49 95.5195 233.641V221.894L98.7614 221.244C102.047 220.585 103.379 218.177 103.411 212.836C103.422 211.093 102.757 210.288 101.305 210.288C97.0128 210.288 96.0979 207.366 98.1864 200.32C98.543 199.117 98.8691 198.011 99.169 196.992C101.678 188.475 102.361 186.156 103.777 185.551C104.306 185.325 104.938 185.339 105.805 185.357C106.082 185.363 106.384 185.369 106.714 185.368C110.008 185.362 111.033 184.789 112.181 182.312C114.08 178.211 113.988 177.569 111.163 175.276C108.076 172.771 108.668 170.2 114.572 160.467C119.022 153.131 119.422 152.885 125.294 153.883C126.549 154.096 128.349 152.978 129.763 151.109C132.047 148.089 132.062 147.859 130.173 144.652L128.214 141.328L135.724 133.346C142.351 126.305 147.479 123.284 147.479 126.422C147.479 128.876 152.229 128.939 154.799 126.52C156.898 124.543 157.296 123.235 156.84 119.823C156.281 115.644 156.374 115.525 163.447 111.3C170.831 106.891 177.978 104.807 177.978 107.061C177.978 107.744 179.008 108.855 180.266 109.53C183.248 111.13 189.333 107.165 188.548 104.134C187.642 100.633 190.77 98.244 199.382 95.8582C208.694 93.28 212.994 93.6446 212.994 97.0132C212.994 100.01 214.717 100.809 219.32 99.9424C222.514 99.3423 223.364 98.5871 223.906 95.8673L224.572 92.5293H236.202H247.831L248.575 95.9262ZM129.691 180.834C146.458 145.405 182.878 119.322 221.466 115.104C236.16 113.498 259.745 115.433 271.167 119.182C290.917 125.665 306.426 135.234 321.283 150.103C336.147 164.982 344.599 179.872 351.587 203.494C354.124 212.066 354.444 215.225 354.51 232.368C354.577 249.883 354.304 252.687 351.472 263.499C349.761 270.035 347.98 275.894 347.515 276.52C347.048 277.147 345.51 280.462 344.094 283.887C340.473 292.652 330.731 307.014 322.952 315.057C307.382 331.155 293.156 340.171 272.262 347.182C255.429 352.829 234.237 354.038 213.559 350.529C205.419 349.148 190.125 344.262 185.037 341.42C175.351 336.009 172.62 334.351 166.77 330.323C159.899 325.591 147.841 314.061 143.125 307.708C141.488 305.505 139.892 303.448 139.576 303.136C136.676 300.279 129.806 287.456 124.712 275.395C119.323 262.634 116.523 239.799 118.171 222.047C118.842 214.821 119.9 207.563 120.525 205.919C121.148 204.273 121.605 202.796 121.539 202.633C121.076 201.491 125.447 189.8 129.691 180.834Z" fill="#F6931E"/>
<path fill-rule="evenodd" clip-rule="evenodd" d="M219.77 93.1757C219.77 92.2869 220.569 90.7583 221.545 89.7788C222.957 88.3646 226.03 88 236.568 88C250.237 88 252.528 88.6828 252.528 92.7556C252.528 95.4799 255.028 95.3475 256.784 92.5292C257.907 90.7254 259.399 90.2703 264.114 90.294C270.709 90.3269 285.42 94.8753 286.565 97.2361C286.97 98.0729 287.883 100.221 288.592 102.01C289.798 105.053 290.013 105.145 291.909 103.425C295.353 100.299 300.009 101.284 310.418 107.34C320.293 113.085 320.88 113.828 320.4 119.987C320.126 123.493 320.18 123.521 324.181 121.997C325.889 121.346 328.134 121.295 329.648 121.872C333.255 123.246 341.985 131.29 345.695 136.658C348.656 140.939 348.814 142.386 346.853 147.162C346.162 148.846 346.693 149.146 350.396 149.161C352.792 149.171 355.273 149.553 355.909 150.01C357.595 151.224 360.875 156.367 366.189 166.128C368.231 169.881 368.159 175.695 366.049 177.451C363.408 179.649 364.006 180.667 368.677 181.927C374.07 183.383 376 187.071 379.016 201.688C380.119 207.026 378.558 212.194 375.556 213.149C372.695 214.058 372.768 217.082 375.65 217.082C376.893 217.082 378.891 218.066 380.091 219.268C382.025 221.207 382.223 222.757 381.839 232.926C381.3 247.19 380.829 248.711 376.689 249.54C372.758 250.329 372.407 252.347 375.933 253.896C379.302 255.379 379.82 262.27 377.313 272.292C374.881 282.013 372.871 285.02 368.809 285.02C364.787 285.02 363.602 286.837 365.938 289.426C366.931 290.526 367.742 292.804 367.742 294.488C367.742 298.144 363.104 307.705 358.464 313.609C355.624 317.224 354.47 317.857 350.704 317.857C348.272 317.857 346.281 318.036 346.281 318.254C346.281 318.472 346.836 320.246 347.515 322.197C349.072 326.674 346.742 330.802 337.954 339.132C331.576 345.18 326.701 347.37 324.512 345.176C322.086 342.744 319.998 343.689 320.617 346.935C321.584 352.011 319.311 354.782 309.72 360.212C300.152 365.629 293.705 366.938 292.471 363.714C291.615 361.479 288.673 361.523 288.673 363.771C288.673 368.117 285.251 372.125 280.477 373.368C277.841 374.056 274.122 375.093 272.214 375.677C265.487 377.731 259.642 377.001 256.615 373.729L253.835 370.723L252.108 374.862L250.384 379H236.183H221.981L220.647 375.886C219.914 374.174 219.189 372.586 219.036 372.361C218.885 372.134 217.394 373.024 215.724 374.341C213.784 375.873 211.059 376.736 208.171 376.736C203.399 376.736 195.089 374.732 193.282 373.147C192.691 372.63 191.33 372.207 190.256 372.207C187.292 372.207 184.754 369.036 184.754 365.332C184.754 361.686 182.564 360.901 180.236 363.714C177.74 366.729 172.352 365.623 162.838 360.146C157.807 357.249 153.301 354.32 152.826 353.635C152.349 352.951 152.08 350.607 152.229 348.428C152.493 344.547 151.943 344.1 148.043 345.03C143.426 346.13 140.5 344.566 132.796 336.873L124.627 328.717L125.261 323.349L125.896 317.98L121.155 317.635C116.72 317.312 116.119 316.838 111.817 310.276C105.473 300.603 103.719 295.032 105.736 290.962C108.03 286.337 107.759 285.64 103.425 285.02C99.6547 284.479 99.3305 284.06 96.4366 275.961C92.3464 264.521 92.2809 257.513 96.2265 253.847C98.9792 251.29 99.0402 251.034 97.0737 250.331C91.532 248.351 91 246.869 91 233.405C91 219.859 91.9748 217.082 96.728 217.082C99.6728 217.082 99.4683 215.715 96.083 212.764C92.5283 209.666 92.3498 203.663 95.5137 193.549C98.6539 183.506 99.4717 182.338 103.959 181.495C108.375 180.665 108.628 180.153 106.213 176.952C103.795 173.746 104.142 171.19 108.05 163.438C113.894 151.843 116.419 149.144 121.417 149.144H125.739L125.175 144.126C124.666 139.6 125.028 138.595 128.869 133.898C137.274 123.615 143.255 120.27 149.455 122.387C151.721 123.16 151.996 122.883 151.996 119.833C151.996 113.696 154.063 111.253 163.424 106.324C173.301 101.122 175.587 100.709 179.661 103.383C183.089 105.635 184.754 104.665 184.754 100.418C184.754 96.5805 188.035 94.4507 197.927 91.8679C207.023 89.4924 213.78 89.7471 215.514 92.5292C217.146 95.1482 219.77 95.5468 219.77 93.1757ZM250.216 99.323C249.723 99.323 248.982 97.7944 248.574 95.9261L247.83 92.5292H236.201H224.571L223.905 95.8672C223.362 98.587 222.513 99.3422 219.319 99.9423C214.715 100.809 212.993 100.01 212.993 97.0131C212.993 93.6445 208.693 93.2799 199.38 95.8581C190.769 98.2439 187.641 100.633 188.547 104.134C189.332 107.165 183.247 111.129 180.265 109.529C179.007 108.855 177.976 107.744 177.976 107.061C177.976 104.807 170.83 106.891 163.446 111.3C156.372 115.525 156.28 115.644 156.839 119.823C157.295 123.235 156.897 124.543 154.798 126.52C152.228 128.939 147.478 128.876 147.478 126.422C147.478 123.283 142.35 126.304 135.723 133.346L128.212 141.328L130.172 144.652C132.061 147.859 132.046 148.089 129.762 151.108C128.348 152.978 126.547 154.096 125.292 153.883C119.421 152.885 119.021 153.131 114.571 160.467C108.666 170.2 108.074 172.77 111.162 175.276C113.987 177.569 114.079 178.211 112.179 182.312C111.032 184.789 110.007 185.362 106.712 185.368C106.383 185.369 106.081 185.363 105.804 185.357C104.936 185.338 104.305 185.325 103.775 185.551C102.36 186.156 101.677 188.474 99.1677 196.992C98.8678 198.011 98.5417 199.117 98.1852 200.32C96.0966 207.365 97.0115 210.288 101.304 210.288C102.755 210.288 103.421 211.093 103.409 212.836C103.378 218.177 102.046 220.585 98.7601 221.244L95.5183 221.894V233.641C95.5183 244.49 95.6854 245.389 97.6972 245.389C103.305 245.389 105.838 254.715 100.756 256.653C97.2555 257.988 96.4773 261.398 98.3377 267.249C99.1679 269.86 100.145 273.364 100.509 275.033C101.428 279.254 104.129 281.623 108.024 281.623C110.212 281.623 111.332 282.197 111.332 283.321C111.332 284.255 111.84 285.02 112.462 285.02C114.44 285.02 113.678 288.745 111.147 291.444C108.882 293.862 108.813 294.386 110.198 298.595C111.02 301.092 111.994 303.136 112.362 303.136C112.729 303.136 114.226 305.394 115.687 308.156C118.679 313.809 120.627 315.006 123.946 313.227C125.801 312.232 126.739 312.48 128.947 314.56C132.118 317.545 132.313 319.21 129.919 322.87C128.235 325.447 128.392 325.78 134.328 332.206C142.228 340.76 145.505 342.642 148.052 340.089C150.416 337.719 151.947 337.799 155.129 340.459C157.269 342.248 157.582 343.326 157.007 346.932L156.318 351.259L165.351 356.731C173.031 361.384 174.739 362.014 176.745 360.938C178.044 360.241 179.106 359.235 179.106 358.7C179.106 356.545 182.887 356.48 185.835 358.585C188.132 360.225 188.835 361.53 188.466 363.469C187.858 366.659 189.359 367.93 196.049 369.89C198.845 370.709 202.721 371.9 204.661 372.535C209.106 373.989 211.598 373.052 212.982 369.404C214.785 364.651 222.605 365.972 223.758 371.227L224.484 374.546L236.529 374.225L248.574 373.905L248.921 370.906C249.273 367.852 251.546 366.592 256.764 366.561C258.542 366.55 259.306 367.213 259.306 368.77C259.306 373.17 263.295 373.801 273.285 370.983C283.246 368.172 284.112 367.526 284.138 362.895C284.151 360.599 285.05 359.344 287.659 357.993C290.98 356.273 291.295 356.301 293.661 358.531C297.162 361.824 299.065 361.523 307.868 356.28C316.272 351.276 317.577 349.525 315.627 345.871C314.538 343.831 314.796 343.092 317.388 340.857C320.922 337.81 322.862 337.57 324.82 339.936C325.594 340.87 326.86 341.634 327.635 341.634C329.406 341.634 344.022 327.083 344.022 325.321C344.022 324.606 343.229 322.885 342.258 321.495C340.627 319.163 340.677 318.712 342.9 315.582C343.066 315.35 343.22 315.131 343.364 314.926C344.477 313.347 345.004 312.601 345.685 312.413C346.299 312.245 347.038 312.53 348.443 313.072C348.644 313.15 348.859 313.233 349.091 313.321C352.826 314.746 355.347 312.237 360.965 301.51L364.92 293.96L362.378 291.856C357.792 288.06 359.9 282.052 366.046 281.41C368.629 281.14 369.886 280.118 371.357 277.093C372.416 274.914 373.308 271.759 373.337 270.083C373.366 268.407 373.899 266.722 374.52 266.336C375.141 265.952 375.65 263.934 375.65 261.852C375.65 258.629 375.125 257.881 372.118 256.832C368.92 255.715 368.653 255.262 369.294 252.05C369.683 250.1 370.002 248.057 370.002 247.512C370.002 246.967 371.243 246.521 372.759 246.521C374.277 246.521 375.837 246.004 376.227 245.371C377.235 243.733 377.263 223.309 376.257 221.68C375.797 220.934 374.792 220.567 374.021 220.862C371.707 221.752 370.252 220.138 369.436 215.776C368.732 212.014 368.95 211.507 371.873 210.109C375.319 208.46 376.89 203.152 374.609 200.865C373.939 200.193 373.391 198.389 373.391 196.854C373.391 195.32 372.531 192.11 371.48 189.721C369.823 185.956 369.074 185.377 365.86 185.377C362.833 185.377 361.81 184.714 360.289 181.761C358.448 178.195 358.465 178.11 361.579 175.622L364.736 173.098L360.875 165.523C355.395 154.775 352.858 152.243 349.027 153.703C343.544 155.793 339.338 149.992 342.476 144.668C344.42 141.371 344.417 141.365 340.038 136.48C335.396 131.307 328.462 125.366 327.062 125.366C326.602 125.366 325.594 126.13 324.82 127.064C322.792 129.514 319.934 129.157 317.062 126.09C314.879 123.762 314.731 123.036 315.914 120.433C317.063 117.908 316.956 117.1 315.223 115.18C314.095 113.932 312.761 112.91 312.259 112.91C311.756 112.91 308.939 111.382 306 109.514C299.624 105.46 295.98 105.219 293.171 108.664C291.166 111.122 290.98 111.144 287.905 109.305C285.686 107.976 284.516 106.17 284.049 103.348C283.68 101.121 283.172 99.1327 282.92 98.9323C281.333 97.6641 263.611 93.5007 262.166 94.0567C261.194 94.4303 259.889 96.0846 259.265 97.7321C258.276 100.341 257.673 100.638 254.622 100.026C252.694 99.6389 250.711 99.323 250.216 99.323Z" fill="#F6931E"/>
<path d="M229.487 275.629C228.622 289.034 225.857 296.859 219.864 302.867C216.768 305.972 215.399 306.528 210.929 306.497C204.852 306.456 202.824 305.215 200.059 299.851C195.009 290.056 202.634 276.734 219.7 265.533C230.15 258.677 230.554 259.092 229.487 275.629Z" fill="#F6931E"/>
<path d="M197.688 130.9C205.267 127.969 207.591 127.542 212.576 128.166C217.759 128.815 218.633 128.628 219.696 126.635C220.45 125.223 223.056 124.249 226.902 123.75C212.594 124.695 202.158 128.409 197.688 130.9Z" fill="#F6931E"/>
</g>
<path d="M174.051 74C174.051 60.7452 163.306 50 150.051 50H44.0008C30.746 50 20.0008 60.7452 20.0008 74V99.1811C20.0008 112.436 30.7459 123.181 44.0008 123.181H116.706C117.596 123.181 118.467 123.435 119.218 123.913L142.986 139.043C144.317 139.891 146.06 138.934 146.06 137.356V125.181C146.06 124.077 146.955 123.181 148.06 123.181H150.051C163.306 123.181 174.051 112.436 174.051 99.1811L174.051 74Z" fill="#1168F1"/>
<g opacity="0.5">
<ellipse cx="63.5879" cy="84.8" rx="5.65431" ry="5.8371" fill="#F4F5FA"/>
<ellipse cx="99.8457" cy="84.8" rx="5.65431" ry="5.8371" fill="#F4F5FA"/>
<ellipse cx="136.1" cy="84.8" rx="5.65431" ry="5.8371" fill="#F4F5FA"/>
</g>
<g filter="url(#filter1_d_11500_72772)">
<path d="M260 370C260 352.327 274.327 338 292 338H425.973C443.646 338 457.973 352.327 457.973 370V399.286C457.973 416.959 443.646 431.286 425.973 431.286H345.104C344.2 431.286 343.316 431.548 342.558 432.04L311.809 451.995C310.478 452.859 308.72 451.904 308.72 450.318V435.963C308.72 433.38 306.626 431.286 304.043 431.286H292C274.327 431.286 260 416.959 260 399.286L260 370Z" fill="#FF9900"/>
</g>
<g opacity="0.5">
<ellipse cx="7.43581" cy="7.73321" rx="7.43581" ry="7.73321" transform="matrix(-1 0 0 1 425.492 377.748)" fill="#F4F5FA"/>
<ellipse cx="7.43581" cy="7.73321" rx="7.43581" ry="7.73321" transform="matrix(-1 0 0 1 366.004 377.749)" fill="#F4F5FA"/>
<ellipse cx="7.43581" cy="7.73321" rx="7.43581" ry="7.73321" transform="matrix(-1 0 0 1 306.52 377.749)" fill="#F4F5FA"/>
</g>
<defs>
<filter id="filter0_d_11500_72772" x="0" y="0.558751" width="473" height="473" filterUnits="userSpaceOnUse" color-interpolation-filters="sRGB">
<feFlood flood-opacity="0" result="BackgroundImageFix"/>
<feColorMatrix in="SourceAlpha" type="matrix" values="0 0 0 0 0 0 0 0 0 0 0 0 0 0 0 0 0 0 127 0" result="hardAlpha"/>
<feOffset dy="3.55875"/>
<feGaussianBlur stdDeviation="30"/>
<feColorMatrix type="matrix" values="0 0 0 0 0 0 0 0 0 0.101953 0 0 0 0 0.2625 0 0 0 0.08 0"/>
<feBlend mode="normal" in2="BackgroundImageFix" result="effect1_dropShadow_11500_72772"/>
<feBlend mode="normal" in="SourceGraphic" in2="effect1_dropShadow_11500_72772" result="shape"/>
</filter>
<filter id="filter1_d_11500_72772" x="235.807" y="316.226" width="246.359" height="162.707" filterUnits="userSpaceOnUse" color-interpolation-filters="sRGB">
<feFlood flood-opacity="0" result="BackgroundImageFix"/>
<feColorMatrix in="SourceAlpha" type="matrix" values="0 0 0 0 0 0 0 0 0 0 0 0 0 0 0 0 0 0 127 0" result="hardAlpha"/>
<feOffset dy="2.4193"/>
<feGaussianBlur stdDeviation="12.0965"/>
<feColorMatrix type="matrix" values="0 0 0 0 0 0 0 0 0 0 0 0 0 0 0 0 0 0 0.15 0"/>
<feBlend mode="normal" in2="BackgroundImageFix" result="effect1_dropShadow_11500_72772"/>
<feBlend mode="normal" in="SourceGraphic" in2="effect1_dropShadow_11500_72772" result="shape"/>
</filter>
<clipPath id="clip0_11500_72772">
<rect width="291" height="291" fill="white" transform="translate(91 88)"/>
</clipPath>
</defs>
</svg>
