<svg width="114" height="42" viewBox="0 0 114 42" fill="none" xmlns="http://www.w3.org/2000/svg">
<g opacity="0.7">
<path fill-rule="evenodd" clip-rule="evenodd" d="M18.4936 6.00519C17.2776 6.00519 15.0234 6.48884 12.6558 7.11228C12.6491 7.11414 12.6423 7.11589 12.6355 7.11753C10.3032 7.72916 7.94317 8.45366 6.54734 8.89597C6.2591 8.98871 6.00379 9.15826 5.81076 9.3851C5.61773 9.61195 5.49483 9.88688 5.4562 10.1783C4.2436 19.0075 7.05288 25.4781 10.4125 29.7372L10.4342 29.766C11.8542 31.5769 13.5457 33.1725 15.4529 34.5002C16.0817 34.9393 16.7485 35.3251 17.4459 35.6532L17.4961 35.6782C17.8069 35.8377 18.1441 35.942 18.4936 35.9866C18.8591 35.9403 19.2124 35.8281 19.5352 35.6559C20.233 35.3262 20.9006 34.9398 21.5309 34.5009L22.0256 35.1663L21.5309 34.5015C23.4549 33.1625 25.1593 31.5508 26.5869 29.7207C26.914 29.3073 27.2343 28.8716 27.5478 28.4135C27.6093 28.3239 27.6884 28.2468 27.7807 28.1868C27.8729 28.1267 27.9765 28.0849 28.0855 28.0635C28.1946 28.0422 28.3068 28.0418 28.416 28.0625C28.5251 28.0831 28.629 28.1243 28.7217 28.1838C28.8144 28.2433 28.894 28.3198 28.9561 28.409C29.0182 28.4983 29.0615 28.5985 29.0836 28.7039C29.1056 28.8093 29.106 28.9179 29.0847 29.0235C29.0633 29.129 29.0207 29.2295 28.9592 29.3191C28.6302 29.8002 28.2844 30.2704 27.9223 30.7287L27.9203 30.7314C26.3941 32.6826 24.5738 34.4015 22.5202 35.8304C21.8165 36.3206 21.0713 36.7524 20.2925 37.1213C19.7606 37.3952 19.1786 37.5664 18.5791 37.6253C18.5222 37.6308 18.465 37.6308 18.4081 37.6253C17.8034 37.5662 17.2166 37.3927 16.6811 37.1147C15.905 36.7479 15.1626 36.3175 14.4622 35.8285C12.4017 34.3938 10.5763 32.6673 9.0472 30.7071C5.45756 26.1462 2.50442 19.2621 3.7747 9.98009L3.77674 9.96303C3.85711 9.36666 4.10971 8.80428 4.50556 8.34044C4.9014 7.8766 5.42444 7.53008 6.01467 7.34066L6.01806 7.34C7.42949 6.89309 9.83027 6.15547 12.2107 5.53137L12.2283 5.52744C14.5511 4.91581 17.0163 4.36719 18.4936 4.36719C19.9742 4.36719 22.4476 4.92041 24.7738 5.52875L24.7778 5.53006C26.8563 6.08459 28.9205 6.68769 30.9691 7.33869L30.9725 7.33934C31.5627 7.52917 32.0856 7.87599 32.4813 8.34004C32.877 8.80409 33.1295 9.36658 33.2098 9.96303C33.2145 9.99847 33.2166 10.0339 33.2166 10.0693V10.0707C33.2169 10.2805 33.134 10.4824 32.9849 10.6348C32.8358 10.7873 32.6319 10.8785 32.4152 10.8898C32.1986 10.9011 31.9857 10.8315 31.8206 10.6955C31.6554 10.5594 31.5505 10.3672 31.5276 10.1586C31.4856 9.87081 31.3615 9.60005 31.1693 9.37667C30.977 9.1533 30.7242 8.98616 30.4392 8.894C28.417 8.25219 26.3806 7.65697 24.3293 7.10966C21.9604 6.49016 19.7089 6.00519 18.4936 6.00519Z" fill="white"/>
<path d="M12.3457 26.6487H14.773V16.4801H14.8116L21.556 26.6474H24.6394V13.3911H22.2101V23.2388H22.1735L15.5506 13.3918H12.3457V26.648V26.6487ZM28.5167 22.9028C28.8502 23.7222 29.3578 24.4648 30.0066 25.0826C30.6555 25.7003 31.4311 26.1796 32.2835 26.4892C33.2098 26.8282 34.1934 26.9971 35.1837 26.9873C36.186 26.9873 37.1787 26.8069 38.1131 26.4544C38.9692 26.1297 39.7493 25.6424 40.4073 25.0212C41.0589 24.3983 41.5714 23.6528 41.9131 22.8306C42.2796 21.9303 42.4592 20.969 42.4417 20.0015C42.456 19.0154 42.2733 18.0358 41.9036 17.1167C41.5648 16.2875 41.0521 15.5352 40.3978 14.9071C39.7449 14.2884 38.9623 13.8125 38.1029 13.5112C37.1644 13.1846 36.1713 13.0293 35.1742 13.0532C34.1839 13.0437 33.2004 13.2126 32.274 13.5513C31.4234 13.8648 30.6493 14.3457 30.0008 14.9635C29.347 15.5953 28.8345 16.3503 28.495 17.1816C28.136 18.1071 27.9641 19.0908 27.9888 20.079C27.9741 21.0461 28.1567 22.0066 28.5262 22.9054H28.5167V22.9028ZM30.8598 18.0728C31.0737 17.5155 31.3983 17.0041 31.8153 16.5674C32.2294 16.1343 32.7323 15.7895 33.2918 15.5548C33.8992 15.3038 34.5545 15.1794 35.2149 15.1899C35.8767 15.1817 36.533 15.3059 37.1427 15.5548C37.706 15.7878 38.2108 16.1323 38.6268 16.5674C39.0425 17.005 39.3669 17.5162 39.5822 18.0728C39.8058 18.6642 39.9162 19.2899 39.9079 19.9195C39.9156 20.589 39.8012 21.2546 39.57 21.8856C39.3602 22.4597 39.0356 22.9882 38.6146 23.4409C38.1995 23.8801 37.694 24.2304 37.1305 24.4693C36.5215 24.7163 35.8678 24.8435 35.2075 24.8435C34.5471 24.8435 33.8934 24.7163 33.2844 24.4693C32.725 24.2283 32.2232 23.8779 31.8105 23.4403C31.3896 22.9878 31.0649 22.4595 30.8551 21.8856C30.6258 21.2541 30.5121 20.5888 30.5192 19.9195C30.5137 19.2868 30.6282 18.6584 30.8571 18.0656L30.8598 18.0722V18.0728ZM48.2828 26.648H50.5174L53.6782 16.5549H53.7168L56.8898 26.648H59.2011L63.1707 13.3918H60.7041L58.0285 22.9429H57.9898L54.979 13.3924H52.5877L49.5185 22.9429H49.4798L46.9176 13.3924H44.2467L48.2828 26.6487V26.648Z" fill="white"/>
<path d="M66.7814 20.1042L68.3387 25.4153H68.3679L70.1716 20.1042H71.1521L72.9564 25.4153H72.9856L74.5422 20.1042H75.6673L73.5312 26.6457H72.4644L70.675 21.2776H70.6465L68.8578 26.6457H67.7904L65.6543 20.1042H66.7807H66.7814ZM82.1144 23.2221C81.8735 23.2221 81.5709 23.2352 81.2051 23.2634C80.8536 23.2801 80.5054 23.3367 80.1676 23.4321C79.8577 23.5081 79.5678 23.6463 79.3167 23.8376C79.2014 23.9309 79.1102 24.0489 79.0503 24.1821C78.9903 24.3154 78.9633 24.4603 78.9713 24.6054C78.9658 24.7997 79.0099 24.992 79.1002 25.1646C79.1965 25.3142 79.3241 25.4428 79.4741 25.5426C79.6308 25.6371 79.8012 25.7079 79.9803 25.7519C80.1703 25.7887 80.363 25.8077 80.5571 25.8077C80.8645 25.8156 81.1698 25.7578 81.4528 25.6397C81.6993 25.5374 81.9202 25.3852 82.1008 25.1934C82.2745 24.9979 82.4021 24.7688 82.4747 24.5221C82.5623 24.255 82.6064 23.9774 82.6043 23.6972V23.2221H82.1144ZM82.6043 22.4674V22.2987C82.6043 21.1726 82.0275 20.6082 80.8733 20.6069C80.1094 20.5978 79.3709 20.8726 78.8104 21.3747L78.2337 20.7185C78.8688 20.0845 79.8202 19.7682 81.0891 19.7695C81.4075 19.7684 81.7242 19.8156 82.0275 19.9093C82.3221 19.9946 82.5928 20.1436 82.8201 20.3438C83.0495 20.5406 83.232 20.7834 83.3548 21.0558C83.4967 21.3826 83.5659 21.735 83.5577 22.0894V25.0117C83.5577 25.2617 83.5665 25.5301 83.5869 25.8077C83.6154 26.0781 83.6446 26.3025 83.6738 26.479H82.7489C82.7204 26.3215 82.6959 26.1489 82.6776 25.9613C82.669 25.78 82.6647 25.5986 82.6647 25.4172H82.6355C82.3995 25.8157 82.0553 26.1441 81.6401 26.3668C81.2078 26.5654 80.7328 26.6617 80.2544 26.6477C79.9607 26.6488 79.6686 26.6067 79.3879 26.523C79.1173 26.4519 78.8627 26.3331 78.6367 26.1726C78.4255 26.0059 78.2493 25.8016 78.1176 25.5708C77.9887 25.3083 77.9242 25.0208 77.931 24.7308C77.9035 24.2796 78.053 23.8351 78.3497 23.4859C78.6422 23.1768 79.0086 22.9412 79.4164 22.8021C79.8585 22.6513 80.3191 22.5569 80.7864 22.5212C81.2327 22.4862 81.6802 22.4674 82.128 22.4647H82.6043V22.4674ZM88.2955 26.6457H87.3421V16.0781H88.2955V26.6451V26.6457ZM93.1317 26.6457H92.1783V16.0781H93.1317V26.6451V26.6457ZM102.052 22.7049C102.082 22.2791 101.968 21.8553 101.727 21.4975C101.486 21.1397 101.132 20.8672 100.717 20.7211C100.443 20.6238 100.149 20.5848 99.8577 20.6069C99.5503 20.6069 99.2456 20.6686 98.964 20.788C98.6823 20.8953 98.4235 21.0519 98.2006 21.25C97.9896 21.4436 97.8138 21.6707 97.6815 21.9214C97.558 22.1648 97.4935 22.4332 97.4942 22.7049H102.052ZM97.465 23.4596C97.4922 23.7792 97.575 24.0916 97.71 24.3836C97.8389 24.6652 98.0201 24.9217 98.2447 25.139C98.468 25.3444 98.7265 25.5104 99.0088 25.6292C99.3053 25.7513 99.6243 25.8129 99.9466 25.8103C100.408 25.8224 100.864 25.7063 101.259 25.4756C101.6 25.2744 101.891 25.0022 102.11 24.6789L102.845 25.2663C102.493 25.7199 102.033 26.0843 101.504 26.3281C101.015 26.5439 100.482 26.6536 99.9445 26.6497C99.4659 26.6533 98.9909 26.5682 98.5453 26.399C98.1334 26.2299 97.7608 25.9827 97.4494 25.6718C97.1367 25.3559 96.8876 24.9865 96.7145 24.5825C96.5379 24.1459 96.4501 23.6804 96.456 23.2116C96.4515 22.7431 96.5393 22.2781 96.7145 21.8413C96.8788 21.436 97.1239 21.0658 97.4359 20.7519C97.7418 20.4442 98.1106 20.2015 98.5189 20.0392C98.9478 19.864 99.4087 19.7737 99.8743 19.7737C100.34 19.7737 100.801 19.864 101.23 20.0392C101.616 20.2033 101.96 20.4461 102.239 20.7513C102.522 21.0492 102.739 21.4016 102.874 21.7855C103.021 22.1891 103.094 22.615 103.09 23.0436V23.4622H97.465V23.4596ZM109.679 20.7749H107.732V24.6337C107.727 24.8371 107.752 25.0399 107.806 25.2361C107.843 25.3667 107.913 25.4868 108.008 25.5859C108.093 25.6686 108.197 25.7309 108.311 25.767C108.444 25.7952 108.58 25.809 108.716 25.8083C108.887 25.8064 109.058 25.7834 109.222 25.7388C109.388 25.6948 109.547 25.6338 109.699 25.5577L109.741 26.4101C109.335 26.5777 108.897 26.6588 108.456 26.6477C108.262 26.6459 108.068 26.6228 107.879 26.5788C107.683 26.5291 107.5 26.4383 107.344 26.313C107.17 26.168 107.032 25.9864 106.941 25.7821C106.824 25.503 106.771 25.2029 106.783 24.9021V20.7769H105.355V19.9369H106.783V18.0928H107.735V19.9375H109.681V20.7749H109.679Z" fill="white"/>
</g>
</svg>
