<svg width="60" height="27" viewBox="0 0 60 27" fill="none" xmlns="http://www.w3.org/2000/svg">
<g opacity="0.7">
<path d="M34.8255 11.6062C34.6188 11.8948 34.293 12.121 33.848 12.2848C33.403 12.4485 32.9024 12.5265 32.3541 12.5265C31.7978 12.5265 31.2972 12.3939 30.8681 12.1366C30.431 11.8714 30.0972 11.5048 29.8588 11.0212C29.6204 10.5377 29.5012 9.99173 29.4933 9.36777V8.48644C29.4933 7.51931 29.7396 6.75496 30.2403 6.1934C30.7409 5.63185 31.4084 5.35107 32.2508 5.35107C32.9819 5.35107 33.5778 5.53045 34.0229 5.89703C34.4679 6.2636 34.738 6.77056 34.8175 7.41012H34.2136C34.1262 6.89535 33.9116 6.51318 33.5778 6.248C33.2441 5.98282 32.7991 5.85023 32.2508 5.85023C31.5833 5.85023 31.0588 6.08421 30.6694 6.54438C30.28 7.01234 30.0893 7.6597 30.0893 8.50984V9.33658C30.0893 9.86694 30.1847 10.3349 30.3674 10.7483C30.5502 11.1538 30.8124 11.4736 31.1621 11.6998C31.5038 11.926 31.9011 12.0352 32.3461 12.0352C32.8627 12.0352 33.3077 11.9572 33.6811 11.7934C33.9195 11.6842 34.1023 11.5672 34.2215 11.4268V9.62515H32.3064V9.12599H34.8175V11.6062H34.8255ZM39.7921 11.7778C39.4424 12.277 38.8782 12.5343 38.1074 12.5343C37.5432 12.5343 37.1141 12.3706 36.8201 12.0508C36.526 11.731 36.375 11.2552 36.3671 10.6235V7.24633H36.9472V10.5533C36.9472 11.5438 37.3525 12.0352 38.171 12.0352C39.0213 12.0352 39.5537 11.692 39.7762 11.0057V7.24633H40.3642V12.4407H39.8L39.7921 11.7778ZM45.2355 12.4329C45.1799 12.2692 45.1401 12.0274 45.1242 11.7076C44.9176 11.9728 44.6474 12.1756 44.3375 12.316C44.0197 12.4563 43.6859 12.5265 43.3283 12.5265C42.8197 12.5265 42.4065 12.3862 42.0966 12.1054C41.7787 11.8246 41.6277 11.4736 41.6277 11.0524C41.6277 10.5455 41.8423 10.1477 42.2714 9.85134C42.7005 9.55496 43.2965 9.40677 44.0673 9.40677H45.1242V8.81401C45.1242 8.43964 45.005 8.15106 44.7746 7.94048C44.5441 7.72989 44.2024 7.6207 43.7574 7.6207C43.3521 7.6207 43.0104 7.72209 42.7482 7.92488C42.478 8.12766 42.3509 8.37724 42.3509 8.66582L41.7628 8.65802C41.7628 8.24465 41.9615 7.88588 42.3509 7.5817C42.7403 7.27753 43.225 7.12934 43.7972 7.12934C44.3852 7.12934 44.854 7.27753 45.1957 7.5661C45.5375 7.85468 45.7123 8.26025 45.7202 8.77502V11.2318C45.7202 11.731 45.7759 12.1132 45.8792 12.3628V12.4173L45.2355 12.4329ZM43.3919 12.0196C43.7813 12.0196 44.1309 11.926 44.4408 11.7388C44.7348 11.5672 44.9732 11.302 45.1163 10.9979V9.85914H44.0673C43.4872 9.86693 43.0263 9.96833 42.7005 10.1711C42.3747 10.3739 42.2078 10.6547 42.2078 11.0057C42.2078 11.2942 42.3191 11.536 42.5416 11.731C42.7561 11.926 43.0422 12.0196 43.3919 12.0196ZM49.7015 7.72989C49.5743 7.70649 49.4392 7.6987 49.3041 7.6987C48.9386 7.6987 48.6287 7.80009 48.3744 7.99507C48.1201 8.19786 47.9453 8.48644 47.834 8.86861V12.4329H47.2539V7.23853H47.8261L47.834 8.06527C48.1439 7.44911 48.6446 7.14494 49.328 7.14494C49.4949 7.14494 49.622 7.16833 49.7174 7.20733L49.7015 7.72989ZM50.21 9.78894C50.21 8.9856 50.3928 8.33825 50.7584 7.86248C51.1239 7.38672 51.6245 7.14494 52.2523 7.14494C52.9675 7.14494 53.5079 7.41792 53.8814 7.97168V5.05469H54.4615V12.4251H53.9132L53.8893 11.731C53.5158 12.2536 52.9596 12.5187 52.2364 12.5187C51.6245 12.5187 51.1318 12.277 50.7584 11.7934C50.3849 11.3098 50.2021 10.6625 50.2021 9.84354V9.78894C50.21 9.78894 50.21 9.78894 50.21 9.78894ZM50.7981 9.89033C50.7981 10.5533 50.9332 11.0758 51.2034 11.458C51.4736 11.8402 51.855 12.0352 52.3477 12.0352C53.0708 12.0352 53.5794 11.7232 53.8814 11.0992V8.65802C53.5794 7.97947 53.0708 7.6441 52.3556 7.6441C51.8629 7.6441 51.4815 7.83128 51.2034 8.21346C50.9411 8.58783 50.7981 9.14939 50.7981 9.89033ZM59.3486 12.4329C59.293 12.2692 59.2533 12.0274 59.2374 11.7076C59.0308 11.9728 58.7606 12.1834 58.4506 12.316C58.1328 12.4563 57.799 12.5265 57.4414 12.5265C56.9329 12.5265 56.5196 12.3862 56.2097 12.1054C55.8919 11.8246 55.7409 11.4736 55.7409 11.0524C55.7409 10.5455 55.9554 10.1477 56.3845 9.85134C56.8137 9.55496 57.4096 9.40677 58.1805 9.40677H59.2453V8.81401C59.2453 8.43964 59.1261 8.15106 58.8957 7.94048C58.6652 7.72989 58.3235 7.6207 57.8785 7.6207C57.4732 7.6207 57.1315 7.72209 56.8693 7.92488C56.5991 8.12766 56.472 8.37724 56.472 8.66582L55.8839 8.65802C55.8839 8.24465 56.0826 7.88588 56.472 7.5817C56.8613 7.27753 57.3461 7.12934 57.9182 7.12934C58.5063 7.12934 58.9751 7.27753 59.3168 7.5661C59.6585 7.85468 59.8334 8.26025 59.8413 8.77502V11.2318C59.8413 11.731 59.8969 12.1132 60.0002 12.3628V12.4173C59.9764 12.4329 59.3486 12.4329 59.3486 12.4329ZM57.513 12.0196C57.9023 12.0196 58.252 11.926 58.5619 11.7388C58.8559 11.5672 59.0943 11.302 59.2374 10.9979V9.85914H58.1884C57.6083 9.86693 57.1474 9.96833 56.8216 10.1711C56.4958 10.3739 56.3289 10.6547 56.3289 11.0057C56.3289 11.2942 56.4402 11.536 56.6627 11.731C56.8693 11.926 57.1554 12.0196 57.513 12.0196ZM30.9952 20.404L31.2177 21.4881L31.4879 20.4508L33.0295 15.3031H33.5699L35.0956 20.4508L35.3579 21.4959L35.5963 20.404L36.8836 15.3031H37.5035L35.6757 22.2914H35.0956L33.4904 16.824L33.3077 16.1299L33.1328 16.824L31.4799 22.2914H30.8998L29.0801 15.3031H29.6999L30.9952 20.404ZM41.5483 22.2914C41.4926 22.1276 41.4529 21.8859 41.437 21.5661C41.2304 21.8313 40.9602 22.034 40.6503 22.1744C40.3324 22.3148 39.9987 22.385 39.6411 22.385C39.1325 22.385 38.7193 22.2446 38.4094 21.9638C38.0915 21.6831 37.9405 21.3321 37.9405 20.9109C37.9405 20.404 38.1551 20.0062 38.5842 19.7098C39.0133 19.4134 39.6093 19.2652 40.3801 19.2652H41.437V18.6803C41.437 18.3059 41.3178 18.0173 41.0874 17.8068C40.8569 17.5962 40.5152 17.487 40.0702 17.487C39.6649 17.487 39.3232 17.5884 39.061 17.7912C38.7908 17.9939 38.6637 18.2435 38.6637 18.5321L38.0756 18.5243C38.0756 18.1109 38.2743 17.7522 38.6637 17.448C39.053 17.1438 39.5378 16.9956 40.1099 16.9956C40.698 16.9956 41.1668 17.1438 41.5085 17.4324C41.8502 17.721 42.0251 18.1265 42.033 18.6413V21.0981C42.033 21.5973 42.0886 21.9794 42.1919 22.229V22.2836C42.1681 22.2914 41.5483 22.2914 41.5483 22.2914ZM39.7047 21.8781C40.094 21.8781 40.4437 21.7845 40.7536 21.5973C41.0476 21.4257 41.286 21.1605 41.4291 20.8563V19.7176H40.3801C39.8 19.7254 39.3391 19.8268 39.0133 20.0296C38.6875 20.2324 38.5206 20.5132 38.5206 20.8641C38.5206 21.1527 38.6319 21.3945 38.8544 21.5895C39.0689 21.7845 39.355 21.8781 39.7047 21.8781ZM44.2263 22.2914H43.6382V14.921H44.2263V22.2914ZM46.4672 22.2914H45.8871V14.921H46.4751V22.2914H46.4672ZM50.1067 22.385C49.6538 22.385 49.2485 22.2758 48.883 22.0574C48.5174 21.8391 48.2393 21.5349 48.0327 21.1449C47.834 20.7549 47.7307 20.3182 47.7307 19.8346V19.6318C47.7307 19.1327 47.8261 18.6803 48.0247 18.2825C48.2234 17.8847 48.4936 17.565 48.8512 17.3388C49.1849 17.1126 49.5902 16.9956 49.9955 16.9956C50.6392 16.9956 51.1477 17.214 51.5212 17.643C51.8947 18.0719 52.0854 18.6647 52.0854 19.4056V19.7254H48.3108V19.8346C48.3108 20.4196 48.4856 20.9109 48.8273 21.3087C49.169 21.6987 49.6061 21.8937 50.1226 21.8937C50.4325 21.8937 50.7107 21.8391 50.9491 21.7221C51.1875 21.6129 51.402 21.4335 51.6007 21.1839L51.9662 21.4569C51.553 22.0808 50.9252 22.385 50.1067 22.385ZM50.0034 17.4948C49.5664 17.4948 49.1929 17.6508 48.8909 17.9705C48.5889 18.2903 48.4062 18.7115 48.3426 19.2496H51.5133V19.1873C51.4974 18.6881 51.3544 18.2825 51.0762 17.9705C50.806 17.6508 50.4405 17.4948 50.0034 17.4948ZM54.1436 15.7711V17.097H55.2402V17.565H54.1436V21.0279C54.1436 21.3165 54.1992 21.5271 54.3025 21.6753C54.4058 21.8157 54.5886 21.8859 54.835 21.8859C54.9303 21.8859 55.0892 21.8703 55.3117 21.8391L55.3356 22.307C55.1846 22.3616 54.978 22.385 54.7078 22.385C54.3105 22.385 54.0165 22.268 53.8337 22.0418C53.6509 21.8157 53.5635 21.4725 53.5635 21.0357V17.5728H52.594V17.1048H53.5635V15.7789H54.1436V15.7711Z" fill="white"/>
<path fill-rule="evenodd" clip-rule="evenodd" d="M24.1547 2.94265C24.2341 2.95825 24.2898 3.02845 24.2977 3.10644C24.3136 3.30143 25.7043 21.9966 12.6639 26.3487C12.6242 26.3643 12.5845 26.3643 12.5447 26.3487C-0.495618 21.9966 0.902981 3.29363 0.918874 3.10644C0.926821 3.02845 0.982447 2.95825 1.06191 2.94265L12.5686 0.197256C12.6004 0.189456 12.6242 0.189456 12.656 0.197256L24.1547 2.94265ZM22.0569 4.95589C22.1205 4.97149 22.1682 5.02608 22.1761 5.08848C22.1762 5.09065 22.1765 5.09575 22.1771 5.10371C22.2136 5.66733 23.1797 20.5575 12.6561 24.0645C12.6243 24.0723 12.5925 24.0723 12.5607 24.0645C1.89643 20.5079 3.03279 5.24447 3.04868 5.08848C3.05663 5.02608 3.10431 4.97149 3.16788 4.95589L12.5766 2.70965C12.6005 2.70185 12.6243 2.70185 12.6482 2.70965L22.0569 4.95589Z" fill="white"/>
<path d="M12.4735 6.06054L6.19567 7.55803C6.15594 7.56583 6.12415 7.60482 6.11621 7.64382C6.10826 7.74521 5.34539 17.9235 12.4576 20.2945C12.4814 20.3023 12.5053 20.3023 12.5212 20.2945C19.6333 17.9235 18.8705 7.74521 18.8625 7.64382C18.8625 7.59702 18.8307 7.56583 18.7831 7.55803L12.5053 6.06054C12.5132 6.05274 12.4894 6.05274 12.4735 6.06054Z" fill="white"/>
</g>
</svg>
