<svg width="483" height="479" viewBox="0 0 483 479" fill="none" xmlns="http://www.w3.org/2000/svg">
<g filter="url(#filter0_d_13441_155217)">
<circle cx="236.5" cy="233.5" r="176.5" fill="white"/>
</g>
<path d="M236.503 375.362C314.852 375.362 378.366 311.848 378.366 233.499C378.366 155.151 314.852 91.6367 236.503 91.6367C158.155 91.6367 94.6406 155.151 94.6406 233.499C94.6406 311.848 158.155 375.362 236.503 375.362Z" fill="white" stroke="black" stroke-width="2"/>
<path d="M244.386 233.162C248.861 234.11 255.631 237.269 259.897 240.4C266.886 245.531 274.872 255.781 279.895 266.071C283.259 272.96 284.36 277.314 284.36 283.72C284.36 288.149 284.132 289.319 282.716 292.111C279.013 299.423 270.215 300.044 257.143 293.918C248.33 289.789 242.286 284.957 240.463 280.583C238.558 276.02 239.727 272.397 244.965 266.612C249.285 261.843 250.235 258.541 247.946 256.251C246.903 255.208 245.877 255.099 237.146 255.099C228.413 255.099 227.388 255.208 226.345 256.251C224.055 258.541 225.005 261.843 229.325 266.612C234.563 272.397 235.731 276.02 233.827 280.583C232.003 284.957 225.96 289.789 217.147 293.918C204.076 300.044 195.276 299.423 191.573 292.111C190.159 289.319 189.93 288.149 189.93 283.72C189.93 277.314 191.031 272.96 194.395 266.071C206.334 241.617 225.318 229.12 244.386 233.162Z" fill="white"/>
<path d="M228.102 263.382C221.647 262.186 220.432 245.851 220.332 236.486C208.379 240.073 195.23 262.685 190.15 273.542C188.756 278.024 188.357 287.109 197.92 287.587C209.873 288.184 236.17 264.876 228.102 263.382Z" fill="#A0A0A0"/>
<path d="M246.332 263.382C252.786 262.186 254.002 245.851 254.101 236.486C266.054 240.073 279.203 262.685 284.284 273.542C285.678 278.024 286.076 287.109 276.514 287.587C264.561 288.184 238.264 264.876 246.332 263.382Z" fill="#A0A0A0"/>
<path d="M239.272 285.572C240.238 286.601 242.961 288.885 245.323 290.647C247.685 292.409 249.787 294.126 249.994 294.459C250.812 295.783 249.469 297.615 246.796 298.824C244.488 299.866 242.848 300.08 237.143 300.08C231.438 300.08 229.798 299.866 227.49 298.824C224.818 297.615 223.475 295.783 224.293 294.459C224.5 294.126 226.602 292.409 228.964 290.647C231.325 288.885 234.049 286.601 235.014 285.572C235.979 284.544 236.937 283.701 237.143 283.701C237.349 283.701 238.307 284.544 239.272 285.572Z" fill="white"/>
<path d="M226.276 295.057C225.081 294.579 225.18 293.064 225.38 292.367V290.276L236.736 281.311L250.481 293.563C250.582 296.252 250.183 300.794 247.792 297.448C245.402 294.1 240.818 293.263 238.827 293.263C235.141 294.061 227.471 295.535 226.276 295.057Z" fill="#A0A0A0"/>
<path d="M175.58 147.425C181.975 150.648 191.674 157.639 201.523 166.127L203.858 168.139L201.696 169.476C193.844 174.329 186.953 183.478 185.538 190.929L185.166 192.886L188.292 189.718C192.344 185.612 197.261 182.413 203.302 179.956C223.808 171.612 250.47 171.612 270.976 179.956C276.909 182.369 281.818 185.566 285.967 189.715L289.104 192.853L288.732 190.913C287.357 183.776 281.116 175.18 273.745 170.273C272.021 169.124 270.608 168.135 270.608 168.075C270.608 168.016 272.827 166.082 275.539 163.778C283.226 157.248 291.71 151.169 297.252 148.221C307.69 142.669 315.371 144.533 319.691 153.666C322.123 158.81 322.805 162.904 322.435 170.146C321.798 182.646 317.052 192.402 308.309 199.192L304.846 201.881L305.333 204.392C305.601 205.773 306.123 210.6 306.493 215.119C307.936 232.725 304.52 249.896 297.565 260.005C295.47 263.049 289.79 268.764 288.869 268.754C288.522 268.75 286.894 266.128 285.251 262.927C283.607 259.726 280.611 254.907 278.593 252.217L274.924 247.328L277.099 246.951C278.295 246.743 279.947 246.209 280.769 245.762L282.261 244.952L280.469 244.518C278.23 243.977 273.21 241.496 272.708 240.681C272.466 240.294 273.699 240.063 276.101 240.047C280.863 240.013 285.387 238.476 286.945 236.36C288.077 234.825 288.09 234.612 287.191 232.326C286.087 229.512 286.535 229.31 289.891 231.109C291.867 232.168 292.123 232.193 292.123 231.329C292.123 228.461 287.238 223.873 282.909 222.678C279.584 221.76 277.278 222.834 271.682 227.91C268.954 230.383 265.983 232.794 265.076 233.268C263.505 234.09 263.285 234.02 260.276 231.749C253.639 226.738 246.57 224.534 237.139 224.534C227.707 224.534 220.639 226.738 214.002 231.749C210.993 234.02 210.772 234.09 209.201 233.268C208.296 232.794 205.324 230.383 202.596 227.91C197 222.834 194.694 221.76 191.369 222.678C187.041 223.873 182.154 228.461 182.154 231.329C182.154 232.193 182.41 232.168 184.386 231.109C187.743 229.31 188.192 229.512 187.087 232.326C186.188 234.612 186.201 234.825 187.333 236.36C188.891 238.476 193.415 240.013 198.177 240.047C200.579 240.063 201.811 240.294 201.571 240.681C201.068 241.496 196.049 243.977 193.809 244.518L192.017 244.952L193.51 245.762C194.331 246.209 195.983 246.743 197.179 246.951L199.354 247.328L195.685 252.217C193.667 254.907 190.671 259.726 189.027 262.927C187.384 266.128 185.756 268.75 185.41 268.754C184.489 268.764 178.808 263.049 176.714 260.005C169.758 249.896 166.342 232.725 167.785 215.119C168.154 210.6 168.677 205.773 168.944 204.392L169.432 201.881L165.969 199.192C164.064 197.713 161.373 195.077 159.987 193.335C148.104 178.389 149.145 151.683 161.834 145.96C165.191 144.446 170.869 145.05 175.58 147.425Z" fill="#E0E0E0"/>
<path d="M153.539 181.501C154.734 175.624 158.799 162.496 165.492 156.997C166.584 156.101 201.651 180.007 202.547 180.007C195.376 192.558 194.479 225.43 236.913 225.43C279.347 225.43 278.45 192.558 271.279 180.007C272.175 180.007 307.242 156.101 308.334 156.997C315.027 162.496 319.091 175.624 320.287 181.501V188.673L312.219 200.328L308.334 205.109L309.827 225.43L308.334 240.073L305.346 252.025L299.967 262.485H295.186C294.096 257.035 290.857 245.453 286.587 242.508C286.518 242.507 286.492 242.489 286.52 242.463C286.541 242.478 286.565 242.494 286.587 242.508C287.282 242.527 292.389 240.957 291.301 231.705C291.138 230.321 284.826 227.023 282.037 225.43L274.565 228.119L269.784 232.9L264.405 236.786H258.728L247.373 231.705L236.913 229.613L226.454 231.705L215.098 236.786H209.421L204.042 232.9L199.26 228.119L191.79 225.43C189 227.023 182.689 230.321 182.526 231.705C181.437 240.957 186.544 242.527 187.24 242.508C187.262 242.494 187.285 242.478 187.307 242.463C187.334 242.489 187.308 242.507 187.24 242.508C182.97 245.453 179.731 257.035 178.641 262.485H173.86L168.481 252.025L165.492 240.073L163.998 225.43L165.492 205.109L161.607 200.328L153.539 188.673V181.501Z" fill="#A0A0A0"/>
<path d="M210.914 184.788C210.914 180.724 214.301 177.118 215.994 175.823C217.668 173.193 231.235 171.34 237.808 170.743C247.072 170.344 265.481 173.133 265.002 187.477C264.404 205.407 223.166 203.614 232.131 202.12C239.303 200.925 245.08 193.255 247.072 189.569C242.889 190.665 233.147 192.976 227.649 193.454C220.775 194.052 210.914 189.868 210.914 184.788Z" fill="white"/>
<path fill-rule="evenodd" clip-rule="evenodd" d="M159.404 138.052C155.188 139.251 151.241 141.854 148.969 144.933C142.568 153.608 141.516 171.896 146.601 186.122C149.217 193.442 151.699 197.587 156.178 202.119C159.614 205.596 159.759 205.863 159.287 207.828C158.378 211.602 158.049 230.657 158.801 235.97C160.881 250.689 166.005 261.543 174.948 270.177L179.201 274.283L179.357 282.13C179.489 288.741 179.736 290.54 180.928 293.546C182.763 298.177 187.303 302.813 191.427 304.268C195.521 305.712 203.588 306.088 208.754 305.074C212.736 304.292 213.139 304.321 217.121 305.67C231.605 310.575 242.681 310.575 257.165 305.67C261.148 304.321 261.549 304.292 265.532 305.074C270.698 306.088 278.765 305.712 282.859 304.268C286.983 302.813 291.522 298.177 293.358 293.546C294.55 290.54 294.797 288.741 294.928 282.13L295.084 274.283L299.337 270.177C308.281 261.543 313.405 250.689 315.485 235.97C316.237 230.657 315.908 211.602 314.999 207.828C314.527 205.863 314.671 205.596 318.108 202.119C322.588 197.587 325.069 193.442 327.685 186.122C332.841 171.692 331.715 153.395 325.136 144.746C323.487 142.579 321.735 141.182 318.76 139.666C314.776 137.633 314.469 137.575 308.025 137.621C302.26 137.662 300.644 137.915 295.669 139.558C286.315 142.647 275.849 149.576 265.872 159.286L260.75 164.27H237.143H213.535L208.414 159.286C194.219 145.472 180.394 138.115 167.515 137.522C164.156 137.368 161.11 137.566 159.404 138.052ZM175.584 147.425C181.979 150.648 191.678 157.64 201.527 166.127L203.862 168.139L201.7 169.476C193.848 174.329 186.957 183.478 185.542 190.929L185.17 192.886L188.296 189.719C192.348 185.612 197.265 182.413 203.306 179.956C223.812 171.612 250.474 171.612 270.981 179.956C276.913 182.369 281.822 185.566 285.971 189.715L289.108 192.853L288.734 190.913C287.361 183.776 281.12 175.18 273.749 170.273C272.024 169.124 270.612 168.135 270.612 168.075C270.612 168.016 272.831 166.082 275.543 163.778C283.23 157.248 291.714 151.169 297.256 148.221C307.695 142.669 315.376 144.533 319.694 153.666C322.127 158.81 322.809 162.904 322.44 170.146C321.801 182.646 317.056 192.402 308.313 199.192L304.85 201.881L305.337 204.392C305.605 205.773 306.128 210.6 306.497 215.119C307.94 232.725 304.524 249.896 297.569 260.005C295.474 263.049 289.794 268.764 288.873 268.754C288.526 268.75 286.898 266.128 285.256 262.927C283.611 259.726 280.616 254.907 278.597 252.216L274.928 247.328L277.103 246.951C278.299 246.743 279.951 246.209 280.771 245.762L282.266 244.952L280.473 244.518C278.232 243.977 273.214 241.496 272.711 240.681C272.47 240.294 273.703 240.063 276.105 240.047C280.867 240.013 285.391 238.475 286.949 236.36C288.081 234.825 288.094 234.612 287.195 232.326C286.091 229.512 286.539 229.31 289.896 231.109C291.871 232.168 292.128 232.193 292.128 231.329C292.128 228.461 287.242 223.873 282.913 222.678C279.588 221.76 277.282 222.834 271.686 227.91C268.958 230.383 265.986 232.795 265.081 233.268C263.509 234.092 263.289 234.02 260.28 231.749C253.643 226.738 246.574 224.534 237.143 224.534C227.711 224.534 220.643 226.738 214.006 231.749C210.997 234.02 210.776 234.092 209.205 233.268C208.3 232.795 205.328 230.383 202.6 227.91C197.004 222.834 194.698 221.76 191.373 222.678C187.045 223.873 182.158 228.461 182.158 231.329C182.158 232.193 182.414 232.168 184.39 231.109C187.747 229.31 188.196 229.512 187.09 232.326C186.192 234.612 186.205 234.825 187.337 236.36C188.895 238.475 193.419 240.013 198.181 240.047C200.583 240.063 201.815 240.294 201.575 240.681C201.072 241.496 196.053 243.977 193.813 244.518L192.021 244.952L193.514 245.762C194.335 246.209 195.987 246.743 197.183 246.951L199.358 247.328L195.689 252.216C193.671 254.907 190.675 259.726 189.031 262.927C187.388 266.128 185.759 268.75 185.413 268.754C184.492 268.764 178.812 263.049 176.717 260.005C169.762 249.896 166.346 232.725 167.788 215.119C168.158 210.6 168.681 205.773 168.948 204.392L169.435 201.881L165.973 199.192C164.068 197.713 161.377 195.077 159.991 193.335C148.108 178.389 149.148 151.683 161.837 145.96C165.194 144.446 170.873 145.05 175.584 147.425ZM196.193 231.538C198.664 232.761 200.686 233.936 200.686 234.148C200.686 234.82 196.48 235.253 195.091 234.726C194.361 234.448 193.454 233.847 193.075 233.392C192.281 232.435 191.02 229.315 191.427 229.315C191.577 229.315 193.722 230.315 196.193 231.538ZM281.08 232.288C279.871 234.626 277.96 235.368 274.676 234.778L272.107 234.317L276.888 231.875C279.517 230.533 281.752 229.659 281.855 229.932C281.957 230.206 281.608 231.266 281.08 232.288ZM244.383 233.162C248.859 234.11 255.63 237.271 259.895 240.402C266.883 245.532 274.87 255.783 279.894 266.071C283.256 272.96 284.358 277.315 284.358 283.72C284.358 288.149 284.129 289.319 282.715 292.113C279.012 299.422 270.212 300.044 257.142 293.92C248.328 289.789 242.285 284.958 240.46 280.583C238.557 276.02 239.724 272.397 244.962 266.614C249.284 261.843 250.234 258.541 247.944 256.253C246.9 255.209 245.875 255.1 237.143 255.1C228.411 255.1 227.386 255.209 226.343 256.253C224.053 258.541 225.003 261.843 229.323 266.614C234.561 272.397 235.729 276.02 233.825 280.583C232.001 284.958 225.958 289.789 217.145 293.92C204.074 300.044 195.274 299.422 191.571 292.113C190.156 289.319 189.928 288.149 189.928 283.72C189.928 277.315 191.029 272.96 194.393 266.071C206.332 241.618 225.316 229.12 244.383 233.162ZM239.273 285.572C240.238 286.602 242.96 288.885 245.323 290.649C247.685 292.411 249.787 294.126 249.994 294.461C250.811 295.784 249.468 297.617 246.796 298.824C244.488 299.868 242.848 300.082 237.143 300.082C231.438 300.082 229.798 299.868 227.49 298.824C224.817 297.617 223.475 295.784 224.293 294.461C224.499 294.126 226.601 292.411 228.963 290.649C231.325 288.885 234.048 286.602 235.014 285.572C235.979 284.545 236.938 283.703 237.143 283.703C237.348 283.703 238.307 284.545 239.273 285.572ZM172.222 290.426L172.463 295.655H170.187C167.915 295.655 167.91 295.661 166.606 299.578C165.888 301.736 165.395 303.571 165.511 303.655C165.627 303.739 167.32 304.404 169.272 305.133L172.821 306.459L174.284 304.997L175.747 303.533L178.014 306.916C179.262 308.777 181.377 311.362 182.714 312.662C184.052 313.961 185.146 315.174 185.146 315.359C185.146 315.542 184.072 316.359 182.759 317.169C181.258 318.097 180.47 318.981 180.633 319.551C180.777 320.05 181.218 322.158 181.612 324.238C182.255 327.622 182.462 327.984 183.589 327.718C184.281 327.553 186.374 327.238 188.24 327.014L191.632 326.608L192.34 323.656C192.729 322.03 193.22 320.795 193.43 320.91C194.545 321.518 201.745 324.815 202.726 325.167C203.792 325.548 203.748 325.711 202.098 327.5C198.544 331.354 198.569 330.896 201.577 336.884C203.088 339.893 204.536 342.269 204.794 342.165C205.053 342.06 207.624 340.912 210.506 339.612L215.748 337.248L215.518 333.173C215.368 330.525 215.504 329.177 215.906 329.329C216.246 329.457 219.079 330.043 222.201 330.632C225.324 331.221 227.977 331.78 228.096 331.876C228.215 331.971 227.293 334.625 226.047 337.773L223.78 343.499L230.269 349.61C233.837 352.971 236.931 355.721 237.143 355.721C237.355 355.721 240.449 352.971 244.018 349.61L250.506 343.499L248.239 337.773C246.993 334.625 246.071 331.971 246.19 331.876C246.31 331.78 248.962 331.221 252.084 330.632C255.207 330.043 258.04 329.457 258.38 329.329C258.782 329.177 258.917 330.525 258.769 333.173L258.537 337.248L263.78 339.612C266.662 340.912 269.233 342.06 269.492 342.165C269.75 342.269 271.197 339.893 272.709 336.884C275.717 330.896 275.741 331.354 272.188 327.5C270.538 325.711 270.495 325.548 271.56 325.167C272.542 324.815 279.741 321.518 280.856 320.91C281.065 320.795 281.557 322.03 281.945 323.656L282.654 326.608L286.046 327.014C287.912 327.238 290.005 327.553 290.697 327.718C291.825 327.984 292.03 327.622 292.673 324.238C293.067 322.158 293.51 320.05 293.652 319.551C293.817 318.981 293.028 318.097 291.527 317.169C290.214 316.359 289.14 315.542 289.14 315.359C289.14 315.174 290.235 313.961 291.572 312.662C292.909 311.362 295.024 308.777 296.271 306.916L298.54 303.533L300.002 304.997L301.464 306.459L305.014 305.133C306.966 304.404 308.659 303.739 308.774 303.655C308.891 303.571 308.399 301.736 307.68 299.578C306.376 295.661 306.37 295.655 304.099 295.655H301.822L302.064 290.426L302.305 285.197L301.39 288.421C297.125 303.447 280.888 313.571 254.177 317.857C251.409 318.301 244.235 318.624 237.143 318.624C215.58 318.624 199.351 314.651 186.903 306.325C179.228 301.192 174.978 295.759 172.895 288.421L171.98 285.197L172.222 290.426Z" fill="black"/>
<path d="M196.189 231.537C198.66 232.76 200.682 233.935 200.682 234.149C200.682 234.82 196.476 235.253 195.087 234.725C194.357 234.447 193.45 233.848 193.072 233.391C192.277 232.434 191.016 229.314 191.423 229.314C191.573 229.314 193.718 230.315 196.189 231.537Z" fill="#B0F122"/>
<path d="M281.075 232.287C279.865 234.624 277.956 235.366 274.671 234.777L272.102 234.316L276.883 231.874C279.513 230.532 281.748 229.658 281.85 229.931C281.952 230.205 281.603 231.265 281.075 232.287Z" fill="#B0F122"/>
<path d="M174.047 74C174.047 60.7452 163.302 50 150.047 50H43.9969C30.7421 50 19.9969 60.7452 19.9969 74V99.1811C19.9969 112.436 30.742 123.181 43.9969 123.181H116.702C117.592 123.181 118.463 123.435 119.214 123.913L142.982 139.043C144.313 139.891 146.056 138.934 146.056 137.356V125.181C146.056 124.077 146.951 123.181 148.056 123.181H150.047C163.302 123.181 174.047 112.436 174.047 99.1811L174.047 74Z" fill="#1168F1"/>
<g opacity="0.5">
<ellipse cx="63.5918" cy="84.8" rx="5.65431" ry="5.8371" fill="#F4F5FA"/>
<ellipse cx="99.8496" cy="84.8" rx="5.65431" ry="5.8371" fill="#F4F5FA"/>
<ellipse cx="136.107" cy="84.8" rx="5.65431" ry="5.8371" fill="#F4F5FA"/>
</g>
<g filter="url(#filter1_d_13441_155217)">
<path d="M259.992 370C259.992 352.327 274.319 338 291.992 338H425.965C443.639 338 457.966 352.327 457.966 370V399.286C457.966 416.959 443.639 431.286 425.966 431.286H345.096C344.193 431.286 343.308 431.548 342.55 432.04L311.801 451.995C310.47 452.859 308.712 451.904 308.712 450.318V435.963C308.712 433.38 306.618 431.286 304.035 431.286H291.992C274.319 431.286 259.992 416.959 259.992 399.286L259.992 370Z" fill="#FF9900"/>
</g>
<g opacity="0.5">
<ellipse cx="7.43581" cy="7.73321" rx="7.43581" ry="7.73321" transform="matrix(-1 0 0 1 425.484 377.748)" fill="#F4F5FA"/>
<ellipse cx="7.43581" cy="7.73321" rx="7.43581" ry="7.73321" transform="matrix(-1 0 0 1 366 377.75)" fill="#F4F5FA"/>
<ellipse cx="7.43581" cy="7.73321" rx="7.43581" ry="7.73321" transform="matrix(-1 0 0 1 306.516 377.75)" fill="#F4F5FA"/>
</g>
<defs>
<filter id="filter0_d_13441_155217" x="0" y="0.558751" width="473" height="473" filterUnits="userSpaceOnUse" color-interpolation-filters="sRGB">
<feFlood flood-opacity="0" result="BackgroundImageFix"/>
<feColorMatrix in="SourceAlpha" type="matrix" values="0 0 0 0 0 0 0 0 0 0 0 0 0 0 0 0 0 0 127 0" result="hardAlpha"/>
<feOffset dy="3.55875"/>
<feGaussianBlur stdDeviation="30"/>
<feColorMatrix type="matrix" values="0 0 0 0 0 0 0 0 0 0.101953 0 0 0 0 0.2625 0 0 0 0.08 0"/>
<feBlend mode="normal" in2="BackgroundImageFix" result="effect1_dropShadow_13441_155217"/>
<feBlend mode="normal" in="SourceGraphic" in2="effect1_dropShadow_13441_155217" result="shape"/>
</filter>
<filter id="filter1_d_13441_155217" x="235.799" y="316.226" width="246.363" height="162.706" filterUnits="userSpaceOnUse" color-interpolation-filters="sRGB">
<feFlood flood-opacity="0" result="BackgroundImageFix"/>
<feColorMatrix in="SourceAlpha" type="matrix" values="0 0 0 0 0 0 0 0 0 0 0 0 0 0 0 0 0 0 127 0" result="hardAlpha"/>
<feOffset dy="2.4193"/>
<feGaussianBlur stdDeviation="12.0965"/>
<feColorMatrix type="matrix" values="0 0 0 0 0 0 0 0 0 0 0 0 0 0 0 0 0 0 0.15 0"/>
<feBlend mode="normal" in2="BackgroundImageFix" result="effect1_dropShadow_13441_155217"/>
<feBlend mode="normal" in="SourceGraphic" in2="effect1_dropShadow_13441_155217" result="shape"/>
</filter>
</defs>
</svg>
