<svg width="483" height="479" fill="none" xmlns="http://www.w3.org/2000/svg"><g filter="url(#a)"><circle cx="236.5" cy="233.5" r="176.5" fill="#fff"/></g><path d="M305.389 106.321a190.331 190.331 0 0 0-21.006 24.922l-1.981-.645c-11.425-3.731-23.264-6.034-35.195-6.818-3.593-.276-16.999-.276-21.375 0-13.221.876-23.356 2.857-34.872 6.864-.461.185-.875.323-1.29.461-6.495-8.845-13.728-17.137-21.697-24.738a150.822 150.822 0 0 1 122.997-6.495c4.284 1.612 8.476 3.501 12.576 5.528l1.843.921ZM376.699 281.051c-5.804 16.538-14.511 31.878-25.797 45.238-6.127 7.186-12.899 13.773-20.177 19.762a148.862 148.862 0 0 1-58.182 28.699 152.456 152.456 0 0 1-71.495 0 148.54 148.54 0 0 1-58.182-28.699c-7.279-5.989-14.051-12.576-20.178-19.762-32.476-38.374-42.335-91.074-25.797-138.568a150.517 150.517 0 0 1 11.747-25.337c2.165-3.685 4.837-7.831 6.127-9.536 4.422 19.026 9.858 35.748 11.885 41.783-.138.322-.322.691-.507 1.013-10.733 21.743-16.537 42.704-17.919 65 0 .276-.046.599-.046.875-.369 6.68-.185 9.858.921 14.05 3.455 13.129 14.096 27.594 30.772 41.783 27.318 23.217 64.355 39.985 92.41 41.92 29.252 1.981 72.416-15.11 101.161-40.078a144.437 144.437 0 0 0 12.715-12.76c2.856-3.317 7.094-9.029 6.772-9.029-.093 0 0-.092.184-.184.138-.093.276-.231.184-.323-.046-.046.046-.184.184-.23.139-.046.231-.138.185-.23-.046-.093 0-.185.184-.231.138-.046.184-.184.138-.276-.046-.092 0-.184.092-.184s.185-.139.185-.231.092-.23.184-.23a.198.198 0 0 0 .184-.184c.138-.369.369-.737.599-1.06.691-1.059 3.455-5.989 3.823-6.818 2.626-5.942 4.285-11.24 5.068-16.538.368-2.533.599-7.186.414-8.292-.046-.184-.046-.506-.092-1.013-.092-.921-.138-2.303-.23-3.685-.092-2.073-.276-4.976-.415-6.404-1.981-20.914-7.324-38.004-17.459-56.109-.414-.691-.783-1.382-1.013-1.934-.092-.139-.139-.277-.185-.369 1.428-4.284 7.279-22.204 11.932-42.703l.092.092.691.921c1.197 1.612 4.376 6.403 5.804 8.707 6.495 10.595 11.563 21.973 15.156 33.858 8.338 28.608 7.647 59.104-2.119 87.296Z" fill="#F00500"/><path d="M316.903 226.002c-.138.737-2.303 2.948-4.468 4.56-6.357 4.653-17.736 8.983-29.298 11.056-6.588 1.198-13.175 1.382-15.156.415-1.29-.645-1.474-1.152-1.014-2.81.968-3.455 4.1-7.232 8.983-10.78 2.488-1.796 12.576-7.923 17.275-10.503 7.739-4.238 14.004-6.771 18.242-7.37 1.336-.185 2.949-.231 3.455 0 .83.322 1.751 2.764 2.12 5.712.184 1.566.092 8.476-.139 9.72ZM208.372 241.25c-.277.553-1.659 1.152-3.225 1.382-1.566.23-6.357.092-9.075-.23-9.766-1.29-20.131-4.285-27.686-7.97-4.238-2.073-7.279-4.146-9.536-6.403l-1.29-1.336-.138-1.751c-.23-3.04-.184-7.831.184-9.535.231-1.428.737-2.81 1.428-4.054.369-.461.369-.461 2.027-.461 2.027 0 3.732.323 6.496 1.198 5.666 1.75 14.096 5.988 24.369 12.161 8.476 5.068 11.655 7.555 14.096 10.964 1.659 2.119 2.764 5.114 2.35 6.035ZM273.601 305.374c0 .139-.553 2.35-1.244 4.976-.691 2.625-1.244 4.744-1.244 4.837-.507.046-.967.092-1.474.046h-1.474l-2.027 4.791c-1.106 2.625-2.119 5.067-2.257 5.435l-.277.645-.967-1.566-.967-1.566v-12.761l-.369.093c-.783.184-6.357.921-8.799 1.151a125.523 125.523 0 0 1-30.265-.645c-1.613-.23-2.995-.414-3.041-.368-.046.046 0 2.994.092 6.633l.139 6.542-.783 1.197c-.415.645-.83 1.198-.83 1.244-.138.138-.599-.599-1.658-2.718-1.152-2.211-1.981-4.56-2.58-7.002l-.322-1.336-1.428.092-1.428.139-.369-1.705a48.747 48.747 0 0 1-.507-3.132l-.138-1.474-1.198-1.06c-.691-.599-1.382-1.198-1.52-1.29-.23-.184-.322-.507-.322-.783v-.553l5.758.046 5.758.046.185.599.184.599 1.981.092c1.105.046 4.606.138 7.739.231l5.758.138 1.474-2.304 1.521-2.303h1.934l-.046-4.791-.046-4.791-2.533-1.105c-8.154-3.593-12.945-7.693-14.742-12.669-.368-1.013-.368-1.382-.46-5.988-.046-4.561-.046-4.975.276-5.989.645-2.303 2.442-4.1 4.745-4.699.783-.23 2.856-.23 13.728-.23l12.806.046 1.428.691c1.705.829 2.488 1.428 3.455 2.718 1.106 1.474 1.428 2.626 1.428 5.436 0 4.008-.276 7.463-.691 8.845a19.1 19.1 0 0 1-2.672 5.297c-2.303 2.949-6.495 5.897-10.318 7.233l-1.106.414.046 4.837.046 4.837 1.014.092 1.013.093 1.382 2.073 1.336 2.072h6.173c3.409 0 6.403.047 6.679.093.461.092.553.046 1.014-.737l.553-.83h5.297c3.962-.184 5.16-.092 5.16.046Z" fill="#000"/><path d="M249.279 318.595c-.875.507-1.474.738-1.613.645-.138-.046-.783-.598-1.474-1.105l-1.243-1.014-1.29 1.382c-2.81 3.041-2.903 3.179-3.732 3.225-1.29.138-1.566-.092-3.132-2.442-.829-1.197-1.474-2.211-1.474-2.211s-.599-.092-1.29-.138l-1.29-.138-.599 1.244-.599 1.243-1.059-.322a22.379 22.379 0 0 1-2.442-.967l-1.382-.691v-2.626l12.254.046 12.253.046.047 1.244c.046 1.474.092 1.428-1.935 2.579Z" fill="#000"/><path d="M364.448 262.394c-.046-.184-.046-.506-.092-1.013-11.056-1.198-42.612-1.935-71.91 22.25 0 0-9.444-43.303-53.667-43.303-44.224 0-60.624 43.303-60.624 43.303-24.783-26.673-57.951-24.738-69.929-22.987 0 .276-.046.599-.046.875-.368 6.68-.184 9.858.922 14.05 3.455 13.129 14.096 27.594 30.772 41.783 27.317 23.217 64.355 39.985 92.409 41.92 29.253 1.981 72.417-15.11 101.162-40.078a144.572 144.572 0 0 0 12.715-12.76c2.856-3.317 7.094-9.029 6.771-9.029-.092 0 0-.092.185-.184.138-.093.276-.231.184-.323-.046-.046.046-.184.184-.23.138-.046.231-.138.184-.231-.046-.092 0-.184.185-.23.138-.046.184-.184.138-.276-.046-.092 0-.185.092-.185s.184-.138.184-.23.092-.23.185-.23a.198.198 0 0 0 .184-.184c.138-.369.368-.738.599-1.06.691-1.06 3.455-5.989 3.823-6.818 2.626-5.942 4.284-11.24 5.067-16.538.277-2.533.507-7.186.323-8.292Zm-115.166 56.201c-.875.507-1.474.737-1.612.645-.139-.046-.784-.599-1.475-1.105l-1.243-1.014-1.29 1.382c-2.81 3.041-2.902 3.179-3.732 3.225-1.29.138-1.566-.092-3.132-2.442-.829-1.197-1.474-2.211-1.474-2.211s-.599-.092-1.29-.138l-1.29-.138-.599 1.244-.599 1.243-1.059-.322a22.459 22.459 0 0 1-2.442-.967l-1.382-.691v-2.626l12.254.046 12.254.046.046 1.244c.046 1.474.092 1.428-1.935 2.579Zm23.033-8.292c-.691 2.626-1.244 4.745-1.244 4.837-.506.046-.967.093-1.474.046h-1.474l-1.981 4.837c-1.105 2.626-2.119 5.068-2.257 5.436l-.276.645-.968-1.566-.967-1.566v-12.761l-.369.092c-.783.185-6.357.922-8.798 1.152a125.53 125.53 0 0 1-30.266-.645c-1.613-.23-2.994-.414-3.041-.368-.046.046 0 2.994.093 6.633l.138 6.542-.783 1.197c-.415.645-.83 1.198-.83 1.244-.138.138-.598-.599-1.658-2.718-1.152-2.211-1.981-4.56-2.58-7.002l-.322-1.336-1.428.092-1.428.139-.369-1.705a49.456 49.456 0 0 1-.507-3.132l-.138-1.475-1.197-1.059c-.691-.599-1.382-1.198-1.521-1.29-.23-.184-.322-.507-.322-.783v-.553l5.758.046 5.759.046.184.599.184.599 1.981.092c1.106.046 4.607.138 7.739.23l5.758.139 1.475-2.304 1.52-2.303h1.935l-.047-4.791-.046-4.791-2.533-1.105c-8.154-3.594-12.945-7.694-14.742-12.669-.368-1.013-.368-1.382-.46-5.988-.046-4.561-.046-4.976.276-5.989.645-2.303 2.442-4.1 4.745-4.699.783-.23 2.856-.23 13.728-.23l12.806.046 1.428.691c1.705.829 2.488 1.428 3.455 2.718 1.106 1.474 1.428 2.626 1.428 5.436 0 4.008-.276 7.463-.691 8.845a19.096 19.096 0 0 1-2.671 5.297c-2.304 2.948-6.496 5.897-10.319 7.233l-1.106.414.046 4.837.046 4.837 1.014.092 1.013.092 1.382 2.073 1.336 2.073h6.173c3.409 0 6.403.046 6.68.093.46.092.552.046 1.013-.738l.553-.829h5.297c4.1 0 5.298.046 5.298.185-.138-.047-.737 2.211-1.428 4.79Z" fill="#fff"/><path d="M364.078 257.696c-.092-2.073-.276-4.976-.415-6.404-1.98-20.914-7.324-38.005-17.459-56.109-.414-.691-.783-1.382-1.013-1.934-.092-.139-.138-.277-.185-.369 1.429-4.284 7.279-22.204 11.932-42.704 6.311-27.824 10.319-60.347-1.935-70.113 0 0-21.191-1.566-49.568 26.258a190.331 190.331 0 0 0-21.006 24.922l-1.981-.645c-11.424-3.731-23.263-6.035-35.195-6.818-3.593-.276-16.998-.276-21.374 0-13.221.876-23.356 2.856-34.873 6.864-.46.185-.875.323-1.29.461-6.495-8.845-13.727-17.137-21.697-24.738-29.528-27.962-51.502-26.35-51.502-26.35-12.991 10.089-8.568 44.086-1.843 72.831 4.423 19.026 9.858 35.748 11.885 41.783-.138.322-.322.691-.506 1.013-10.734 21.743-16.538 42.704-17.92 65 12.023-1.751 45.145-3.732 69.975 22.987 0 0 16.399-43.303 60.623-43.303s53.668 43.303 53.668 43.303c29.298-24.185 60.853-23.402 71.909-22.25a261.96 261.96 0 0 0-.23-3.685Zm-228.812-80.432s-17.229-43.073-12.807-67.672c.738-4.146 2.12-7.785 4.285-10.55 0 0 19.532 1.935 51.041 36.946 0 0-5.988 2.902-14.004 9.075 0 0-.046.046-.092.046-8.707 6.68-19.855 17.275-28.423 32.155Zm73.107 63.986c-.276.553-1.658 1.151-3.224 1.382-1.567.23-6.357.092-9.075-.231-9.766-1.289-20.131-4.284-27.686-7.969-4.238-2.073-7.279-4.146-9.536-6.403l-1.29-1.336-.138-1.751c-.23-3.04-.184-7.831.184-9.535a12.516 12.516 0 0 1 1.428-4.054c.369-.461.369-.461 2.027-.461 2.027 0 3.732.322 6.496 1.198 5.666 1.75 14.096 5.988 24.369 12.161 8.476 5.068 11.654 7.555 14.096 10.964 1.658 2.119 2.764 5.113 2.349 6.035Zm108.533-15.248c-.138.737-2.303 2.948-4.468 4.56-6.358 4.653-17.736 8.983-29.299 11.056-6.587 1.198-13.175 1.382-15.156.415-1.289-.645-1.474-1.152-1.013-2.81.967-3.455 4.1-7.233 8.983-10.78 2.487-1.796 12.576-7.923 17.275-10.503 7.739-4.238 14.004-6.772 18.242-7.37 1.336-.185 2.948-.231 3.455 0 .829.322 1.751 2.764 2.119 5.712.184 1.566.092 8.476-.138 9.72Zm-7.647-80.939-.092-.046c-7.739-6.173-13.544-9.075-13.544-9.075 30.45-35.011 49.291-36.945 49.291-36.945 2.073 2.81 3.409 6.403 4.146 10.549 4.285 24.599-12.345 67.718-12.345 67.718a109.747 109.747 0 0 0-27.456-32.201Z" fill="#FFA409"/><path d="M349.104 109.546c-3.593-.461-20.591-.553-39.847 35.517l-.092-.046c-7.74-6.173-13.544-9.075-13.544-9.075 30.45-35.011 49.291-36.945 49.291-36.945 2.119 2.81 3.455 6.403 4.192 10.549Z" fill="#FF9300"/><path d="M336.76 177.264c-7.003-12.438-16.308-23.356-27.502-32.201 19.256-36.07 36.208-35.978 39.847-35.517 4.284 24.646-12.345 67.718-12.345 67.718ZM349.8 109.684l-.691-.138.691.138Z" fill="#FF8300"/><path d="M177.782 135.942s-5.989 2.902-14.004 9.075c0 0-.046.046-.092.046-19.947-36.116-37.498-35.978-41.276-35.517.737-4.146 2.119-7.785 4.284-10.55.046 0 19.579 1.935 51.088 36.946Z" fill="#FF9300"/><path d="M163.732 145.063c-8.753 6.726-19.901 17.275-28.469 32.201 0 0-17.229-43.073-12.807-67.718 3.732-.461 21.329-.553 41.276 35.517Z" fill="#FF8300"/><path d="M122.456 109.546c-.231.046-.507.092-.737.138l.737-.138Z" fill="#FF8300"/><path d="M290.14 201.172s-14.741.921-12.899-10.595c1.843-11.517 13.36-12.899 16.584-12.438 3.225.46 16.124 5.067 13.82 14.741-2.303 9.674-5.528 7.831-7.37 8.292-1.843.461-10.135 0-10.135 0ZM181.421 201.172s-14.741.921-12.898-10.595c1.842-11.517 13.359-12.899 16.584-12.438 3.224.46 16.123 5.067 13.82 14.741-2.304 9.674-5.528 7.831-7.371 8.292-1.843.461-10.135 0-10.135 0Z" fill="#fff"/><path d="M174.051 74c0-13.255-10.745-24-24-24H44.001c-13.255 0-24 10.745-24 24v25.181c0 13.255 10.745 24 24 24h72.705c.89 0 1.761.254 2.512.732l23.768 15.13c1.331.848 3.074-.109 3.074-1.687v-12.175a2 2 0 0 1 2-2h1.991c13.255 0 24-10.745 24-24V74Z" fill="#1168F1"/><g opacity=".5" fill="#F4F5FA"><ellipse cx="63.588" cy="84.8" rx="5.654" ry="5.837"/><ellipse cx="99.846" cy="84.8" rx="5.654" ry="5.837"/><ellipse cx="136.1" cy="84.8" rx="5.654" ry="5.837"/></g><g filter="url(#b)"><path d="M260 370c0-17.673 14.327-32 32-32h133.973c17.673 0 32 14.327 32 32v29.286c0 17.673-14.327 32-32 32h-80.869c-.904 0-1.788.262-2.546.754l-30.749 19.955c-1.331.864-3.089-.091-3.089-1.677v-14.355a4.677 4.677 0 0 0-4.677-4.677H292c-17.673 0-32-14.327-32-32V370Z" fill="#F90"/></g><g opacity=".5" fill="#F4F5FA"><ellipse rx="7.436" ry="7.733" transform="matrix(-1 0 0 1 418.056 385.482)"/><ellipse rx="7.436" ry="7.733" transform="matrix(-1 0 0 1 358.568 385.482)"/><ellipse rx="7.436" ry="7.733" transform="matrix(-1 0 0 1 299.084 385.482)"/></g><defs><filter id="a" x="0" y=".559" width="473" height="473" filterUnits="userSpaceOnUse" color-interpolation-filters="sRGB"><feFlood flood-opacity="0" result="BackgroundImageFix"/><feColorMatrix in="SourceAlpha" values="0 0 0 0 0 0 0 0 0 0 0 0 0 0 0 0 0 0 127 0" result="hardAlpha"/><feOffset dy="3.559"/><feGaussianBlur stdDeviation="30"/><feColorMatrix values="0 0 0 0 0 0 0 0 0 0.101953 0 0 0 0 0.2625 0 0 0 0.08 0"/><feBlend in2="BackgroundImageFix" result="effect1_dropShadow_2347:849"/><feBlend in="SourceGraphic" in2="effect1_dropShadow_2347:849" result="shape"/></filter><filter id="b" x="235.807" y="316.226" width="246.359" height="162.707" filterUnits="userSpaceOnUse" color-interpolation-filters="sRGB"><feFlood flood-opacity="0" result="BackgroundImageFix"/><feColorMatrix in="SourceAlpha" values="0 0 0 0 0 0 0 0 0 0 0 0 0 0 0 0 0 0 127 0" result="hardAlpha"/><feOffset dy="2.419"/><feGaussianBlur stdDeviation="12.097"/><feColorMatrix values="0 0 0 0 0 0 0 0 0 0 0 0 0 0 0 0 0 0 0.15 0"/><feBlend in2="BackgroundImageFix" result="effect1_dropShadow_2347:849"/><feBlend in="SourceGraphic" in2="effect1_dropShadow_2347:849" result="shape"/></filter></defs></svg>