<svg width="124" height="67" viewBox="0 0 124 67" fill="none" xmlns="http://www.w3.org/2000/svg">
<path d="M36.6693 12.175H47.5123V14.193H43.2423V25.572H40.9023V14.193H36.6523L36.6693 12.175ZM47.0473 15.872H49.0473V17.748H49.0843C49.1553 17.48 49.2803 17.23 49.4593 16.98C49.6415 16.7195 49.8644 16.4899 50.1193 16.3C50.3693 16.086 50.6563 15.926 50.9773 15.8C51.2813 15.676 51.6023 15.604 51.9243 15.604C52.1743 15.604 52.3533 15.622 52.4423 15.622C52.5323 15.64 52.6383 15.658 52.7283 15.658V17.712C52.5853 17.676 52.4243 17.659 52.2633 17.641C52.1033 17.623 51.9603 17.605 51.7993 17.605C51.4487 17.6036 51.1017 17.6765 50.7813 17.819C50.4593 17.962 50.1913 18.176 49.9413 18.444C49.6913 18.7534 49.4976 19.1044 49.3693 19.481C49.2197 19.9419 49.1474 20.4245 49.1553 20.909V25.519H47.0123L47.0473 15.872ZM62.5523 25.572H60.4453V24.214H60.4093C60.1413 24.714 59.7483 25.089 59.2293 25.394C58.7495 25.683 58.2005 25.8371 57.6403 25.84C56.3723 25.84 55.4433 25.536 54.8713 24.893C54.3003 24.268 54.0143 23.303 54.0143 22.035V15.872H56.1573V21.82C56.1573 22.678 56.3183 23.285 56.6573 23.625C56.9793 23.982 57.4433 24.161 58.0333 24.161C58.4803 24.161 58.8553 24.089 59.1583 23.946C59.4623 23.803 59.7123 23.625 59.8913 23.392C60.0873 23.16 60.2123 22.874 60.3013 22.552C60.3913 22.232 60.4273 21.874 60.4273 21.499V15.872H62.5703V25.572H62.5523ZM66.1963 22.464C66.2683 23.089 66.5003 23.517 66.9113 23.785C67.3213 24.035 67.8213 24.161 68.3943 24.161C68.5903 24.161 68.8223 24.143 69.0723 24.107C69.3223 24.071 69.5723 24.017 69.7873 23.928C70.0045 23.8502 70.1961 23.7142 70.3413 23.535C70.4901 23.3489 70.5604 23.1121 70.5373 22.875C70.5193 22.607 70.4303 22.375 70.2333 22.195C70.0373 22.017 69.8053 21.892 69.5193 21.767C69.1941 21.6499 68.8596 21.5603 68.5193 21.499C68.1433 21.427 67.7693 21.339 67.3753 21.249C66.9823 21.159 66.5893 21.052 66.2153 20.927C65.8547 20.8125 65.5161 20.6373 65.2143 20.409C64.9184 20.1964 64.6791 19.9145 64.5173 19.588C64.3393 19.248 64.2493 18.855 64.2493 18.355C64.2493 17.819 64.3743 17.39 64.6423 17.033C64.8923 16.676 65.2323 16.39 65.6253 16.176C66.0388 15.9523 66.4849 15.7954 66.9473 15.711C67.4009 15.6276 67.8612 15.5858 68.3223 15.586C68.8223 15.586 69.3053 15.64 69.7513 15.747C70.1983 15.854 70.6263 16.015 70.9843 16.265C71.3593 16.497 71.6623 16.819 71.8943 17.194C72.1443 17.569 72.2883 18.034 72.3593 18.57H70.1263C70.0193 18.052 69.7863 17.712 69.4293 17.533C69.0326 17.3484 68.5989 17.2567 68.1613 17.265C68.0183 17.265 67.8213 17.283 67.6253 17.301C67.4245 17.3296 67.227 17.3775 67.0353 17.444C66.8621 17.5136 66.7044 17.617 66.5713 17.748C66.5059 17.817 66.4548 17.8983 66.4212 17.9873C66.3875 18.0762 66.3719 18.171 66.3753 18.266C66.3753 18.534 66.4653 18.73 66.6433 18.891C66.8213 19.051 67.0533 19.177 67.3573 19.301C67.6826 19.4184 68.0171 19.5083 68.3573 19.57C68.7333 19.641 69.1263 19.73 69.5193 19.82C69.9123 19.91 70.2873 20.016 70.6623 20.141C71.0373 20.266 71.3773 20.427 71.6623 20.659C71.9483 20.874 72.1983 21.142 72.3773 21.463C72.5553 21.785 72.6453 22.196 72.6453 22.66C72.6453 23.232 72.5203 23.714 72.2523 24.125C71.987 24.5213 71.6399 24.8561 71.2343 25.107C70.8233 25.357 70.3413 25.536 69.8403 25.661C69.3418 25.7723 68.8331 25.8323 68.3223 25.84C67.7496 25.8446 67.1788 25.7723 66.6253 25.625C66.1398 25.4972 65.6803 25.2857 65.2673 25C64.8917 24.7229 64.586 24.362 64.3743 23.946C64.1603 23.536 64.0343 23.036 64.0173 22.446H66.1783V22.464H66.1963ZM73.2523 15.872H74.8783V12.942H77.0213V15.854H78.9513V17.444H77.0213V22.624C77.0213 22.857 77.0393 23.035 77.0573 23.214C77.0753 23.374 77.1283 23.517 77.1823 23.624C77.2576 23.7347 77.3632 23.8215 77.4863 23.874C77.6293 23.928 77.8073 23.964 78.0573 23.964C78.2003 23.964 78.3613 23.964 78.5043 23.946C78.6473 23.928 78.8073 23.91 78.9503 23.875V25.536C78.7193 25.5689 78.4872 25.5929 78.2543 25.608C78.0223 25.643 77.8073 25.643 77.5573 25.643C76.9853 25.643 76.5393 25.59 76.1993 25.483C75.8982 25.3949 75.6227 25.2354 75.3963 25.018C75.2 24.8011 75.0644 24.5361 75.0033 24.25C74.9301 23.8971 74.8883 23.5383 74.8783 23.178V17.462H73.2523V15.836V15.872ZM80.4513 15.872H82.4693V17.194H82.5053C82.8093 16.622 83.2203 16.229 83.7553 15.979C84.3037 15.7249 84.902 15.5968 85.5063 15.604C86.2743 15.604 86.9363 15.729 87.5063 16.015C88.0597 16.2647 88.5442 16.6449 88.9183 17.123C89.306 17.6086 89.5917 18.1674 89.7583 18.766C89.9363 19.391 90.0433 20.07 90.0433 20.766C90.0433 21.428 89.9543 22.053 89.7933 22.66C89.6153 23.267 89.3653 23.821 89.0253 24.286C88.6825 24.7559 88.2364 25.1407 87.7213 25.411C87.1853 25.697 86.5783 25.84 85.8633 25.84C85.552 25.8365 85.2415 25.8064 84.9353 25.75C84.6278 25.6963 84.3277 25.6064 84.0413 25.482C83.7574 25.3601 83.4927 25.1978 83.2553 25C83.0163 24.8094 82.8111 24.5798 82.6483 24.321H82.6123V29.162H80.4693V15.872H80.4513ZM87.9353 20.731C87.9353 20.302 87.8823 19.873 87.7573 19.463C87.6546 19.0704 87.4789 18.7006 87.2393 18.373C87.0137 18.0633 86.728 17.8021 86.3993 17.605C86.0593 17.408 85.6673 17.319 85.2393 17.319C84.3453 17.319 83.6663 17.623 83.2023 18.248C82.7553 18.873 82.5233 19.713 82.5233 20.748C82.5233 21.248 82.5773 21.695 82.7023 22.106C82.8273 22.517 82.9873 22.874 83.2373 23.178C83.4703 23.482 83.7563 23.714 84.0953 23.893C84.4353 24.071 84.8103 24.161 85.2563 24.161C85.7563 24.161 86.1493 24.053 86.4893 23.857C86.8283 23.66 87.0963 23.392 87.3293 23.089C87.5423 22.767 87.7033 22.41 87.7933 21.999C87.8844 21.5824 87.932 21.1574 87.9353 20.731ZM91.7053 12.175H93.8483V14.193H91.7043L91.7053 12.175ZM91.7053 15.872H93.8483V25.572H91.7043L91.7053 15.872ZM95.7593 12.175H97.9033V25.572H95.7593V12.175ZM104.441 25.84C103.673 25.84 102.976 25.715 102.369 25.447C101.792 25.2017 101.269 24.8433 100.832 24.393C100.422 23.946 100.1 23.393 99.8863 22.767C99.6608 22.1057 99.5459 21.4117 99.5463 20.713C99.5463 19.981 99.6543 19.302 99.8863 18.677C100.09 18.0773 100.412 17.5245 100.833 17.051C101.243 16.605 101.761 16.247 102.369 15.997C103.028 15.7316 103.732 15.5981 104.441 15.604C105.209 15.604 105.906 15.729 106.513 15.997C107.12 16.247 107.62 16.605 108.049 17.051C108.46 17.498 108.781 18.051 108.996 18.677C109.221 19.3322 109.336 20.0202 109.335 20.713C109.335 21.463 109.228 22.143 108.996 22.767C108.764 23.392 108.46 23.928 108.049 24.393C107.639 24.839 107.12 25.197 106.513 25.447C105.856 25.714 105.151 25.8476 104.441 25.84ZM104.441 24.143C104.905 24.143 105.334 24.035 105.673 23.839C106.031 23.642 106.298 23.375 106.531 23.053C106.763 22.731 106.924 22.356 107.031 21.963C107.245 21.1491 107.245 20.2939 107.031 19.48C106.935 19.0884 106.765 18.7186 106.531 18.39C106.303 18.0759 106.011 17.8144 105.673 17.623C105.295 17.4182 104.871 17.3136 104.441 17.319C103.976 17.319 103.548 17.426 103.208 17.623C102.871 17.8154 102.579 18.0772 102.351 18.391C102.118 18.7196 101.948 19.0894 101.851 19.481C101.637 20.2944 101.637 21.1496 101.851 21.963C101.958 22.374 102.119 22.731 102.351 23.053C102.583 23.375 102.869 23.643 103.208 23.839C103.566 24.053 103.976 24.143 104.441 24.143ZM109.978 15.873H111.604V12.943H113.747V15.854H115.677V17.444H113.747V22.624C113.747 22.857 113.765 23.035 113.783 23.214C113.801 23.374 113.855 23.517 113.908 23.624C113.984 23.7346 114.089 23.8213 114.212 23.874C114.355 23.928 114.533 23.964 114.783 23.964C114.926 23.964 115.087 23.964 115.23 23.946C115.373 23.928 115.534 23.91 115.677 23.875V25.536C115.446 25.5688 115.214 25.5929 114.98 25.608C114.748 25.643 114.533 25.643 114.283 25.643C113.712 25.643 113.265 25.59 112.926 25.483C112.625 25.3952 112.349 25.2357 112.122 25.018C111.926 24.8013 111.79 24.5363 111.729 24.25C111.656 23.8971 111.614 23.5383 111.604 23.178V17.462H109.978V15.836V15.872V15.873Z" fill="white"/>
<path d="M24.362 12.175H34.169L28.625 16.195L28.622 16.186L23.047 20.235L26.68 19.292L29.257 27.251L21.326 21.481L13.394 27.251L16.431 17.926L8.5 12.156L18.307 12.174L21.343 2.85001L24.363 12.175H24.362ZM8.5 38.922H28.175V58.597H8.5V38.922Z" fill="#00B67A"/>
<path d="M20.0236 47.157H25.4886L22.3986 49.398L22.3976 49.393L19.2906 51.649L21.3156 51.124L22.7516 55.559L18.3316 52.344L13.9116 55.559L15.6036 50.363L11.1836 47.147L16.6486 47.157L18.3416 41.961L20.0236 47.157Z" fill="white"/>
<path d="M52.2305 38.922H71.9055V58.597H52.2305V38.922Z" fill="#00B67A"/>
<path d="M63.759 47.157H69.224L66.134 49.398L66.132 49.393L63.025 51.649L65.05 51.124L66.486 55.559L62.066 52.344L57.646 55.559L59.338 50.363L54.918 47.147L60.384 47.157L62.076 41.961L63.758 47.157H63.759Z" fill="white"/>
<path d="M30.2969 38.922H49.9719V58.597H30.2969V38.922Z" fill="#00B67A"/>
<path d="M41.8205 47.157H47.2855L44.1955 49.398L44.1945 49.393L41.0875 51.649L43.1115 51.124L44.5485 55.559L40.1285 52.344L35.7085 55.559L37.4005 50.363L32.9805 47.147L38.4455 47.157L40.1375 41.961L41.8205 47.157V47.157Z" fill="white"/>
<path d="M74.0273 38.922H93.7023V58.597H74.0273V38.922Z" fill="#00B67A"/>
<path d="M85.5548 47.157H91.0198L87.9298 49.398L87.9288 49.393L84.8218 51.649L86.8458 51.124L88.2818 55.559L83.8618 52.344L79.4418 55.559L81.1348 50.363L76.7148 47.147L82.1798 47.157L83.8718 41.961L85.5548 47.157Z" fill="white"/>
<path d="M95.6836 38.922H115.359V58.597H95.6836V38.922Z" fill="#00B67A"/>
<path d="M107.203 47.157H112.669L109.579 49.398L109.577 49.393L106.471 51.649L108.495 51.124L109.931 55.559L105.511 52.344L101.091 55.559L102.783 50.363L98.3633 47.147L103.829 47.157L105.521 41.961L107.203 47.157V47.157Z" fill="white"/>
</svg>
