<svg width="485" height="479" viewBox="0 0 485 479" fill="none" xmlns="http://www.w3.org/2000/svg">
<g filter="url(#filter0_d_8580_46398)">
<circle cx="236.5" cy="233.5" r="176.5" fill="white"/>
</g>
<circle cx="237" cy="234" r="146" fill="#FF007A"/>
<g clip-path="url(#clip0_8580_46398)">
<path d="M210.353 177.61C208.33 177.296 208.244 177.259 209.197 177.113C211.021 176.832 215.328 177.215 218.297 177.921C225.227 179.568 231.533 183.788 238.264 191.281L240.052 193.272L242.61 192.861C253.387 191.129 264.35 192.506 273.52 196.742C276.043 197.907 280.021 200.227 280.517 200.823C280.676 201.013 280.967 202.236 281.163 203.541C281.845 208.056 281.504 211.516 280.123 214.101C279.371 215.508 279.329 215.953 279.835 217.157C280.238 218.118 281.362 218.828 282.476 218.827C284.755 218.824 287.207 215.14 288.344 210.015L288.795 207.979L289.689 208.992C294.595 214.549 298.448 222.128 299.109 227.523L299.282 228.929L298.457 227.651C297.038 225.451 295.612 223.952 293.787 222.744C290.495 220.567 287.015 219.826 277.8 219.34C269.476 218.901 264.765 218.191 260.094 216.667C252.146 214.076 248.14 210.626 238.699 198.24C234.506 192.739 231.914 189.695 229.336 187.243C223.478 181.674 217.721 178.753 210.353 177.61Z" fill="white"/>
<path d="M282.397 189.893C282.606 186.207 283.106 183.775 284.111 181.555C284.509 180.675 284.882 179.956 284.939 179.956C284.997 179.956 284.824 180.605 284.555 181.398C283.824 183.553 283.704 186.5 284.208 189.93C284.847 194.281 285.21 194.909 289.809 199.609C291.967 201.814 294.476 204.595 295.385 205.788L297.039 207.959L295.385 206.408C293.363 204.511 288.711 200.811 287.683 200.282C286.995 199.928 286.892 199.933 286.467 200.357C286.075 200.746 285.993 201.332 285.939 204.1C285.854 208.415 285.266 211.185 283.846 213.955C283.079 215.452 282.958 215.133 283.653 213.442C284.171 212.18 284.224 211.625 284.22 207.447C284.212 199.055 283.216 197.037 277.372 193.58C275.891 192.705 273.452 191.442 271.952 190.774C270.451 190.106 269.259 189.524 269.302 189.481C269.467 189.316 275.166 190.979 277.46 191.861C280.872 193.174 281.435 193.344 281.85 193.186C282.127 193.08 282.262 192.271 282.397 189.893Z" fill="white"/>
<path d="M214.285 204.251C210.179 198.598 207.638 189.929 208.188 183.45L208.358 181.444L209.293 181.615C211.048 181.935 214.075 183.062 215.492 183.923C219.381 186.284 221.065 189.394 222.778 197.38C223.28 199.718 223.938 202.365 224.241 203.262C224.729 204.704 226.572 208.073 228.07 210.261C229.149 211.837 228.432 212.583 226.047 212.368C222.404 212.039 217.469 208.634 214.285 204.251Z" fill="white"/>
<path d="M277.416 246.328C258.224 238.601 251.465 231.894 251.465 220.578C251.465 218.913 251.522 217.55 251.592 217.55C251.662 217.55 252.405 218.1 253.242 218.771C257.134 221.892 261.492 223.226 273.556 224.985C280.655 226.021 284.65 226.858 288.336 228.08C300.049 231.965 307.297 239.848 309.025 250.585C309.527 253.706 309.232 259.556 308.418 262.64C307.776 265.076 305.814 269.466 305.294 269.634C305.149 269.681 305.008 269.128 304.971 268.376C304.774 264.344 302.736 260.419 299.314 257.478C295.424 254.135 290.196 251.473 277.416 246.328Z" fill="white"/>
<path d="M263.943 249.537C263.702 248.106 263.286 246.279 263.016 245.477L262.527 244.018L263.436 245.039C264.695 246.451 265.689 248.259 266.532 250.667C267.176 252.504 267.248 253.051 267.243 256.037C267.238 258.969 267.158 259.583 266.564 261.237C265.627 263.846 264.464 265.695 262.513 267.68C259.008 271.248 254.501 273.223 247.997 274.043C246.866 274.185 243.571 274.425 240.674 274.576C233.373 274.955 228.568 275.74 224.25 277.256C223.63 277.474 223.075 277.606 223.019 277.55C222.844 277.376 225.784 275.624 228.212 274.454C231.636 272.805 235.044 271.905 242.68 270.634C246.452 270.005 250.348 269.243 251.337 268.94C260.678 266.076 265.48 258.685 263.943 249.537Z" fill="white"/>
<path d="M272.739 265.161C270.189 259.68 269.604 254.388 271.001 249.452C271.15 248.925 271.39 248.493 271.535 248.493C271.68 248.493 272.281 248.819 272.872 249.216C274.047 250.007 276.404 251.339 282.682 254.762C290.517 259.033 294.983 262.341 298.021 266.119C300.681 269.429 302.328 273.198 303.12 277.794C303.569 280.397 303.306 286.661 302.638 289.283C300.531 297.549 295.636 304.042 288.653 307.83C287.63 308.385 286.712 308.841 286.612 308.843C286.513 308.845 286.885 307.897 287.44 306.737C289.79 301.827 290.057 297.051 288.281 291.735C287.194 288.479 284.977 284.508 280.5 277.795C275.296 269.99 274.019 267.913 272.739 265.161Z" fill="white"/>
<path d="M200.655 294.735C207.777 288.722 216.639 284.45 224.711 283.139C228.189 282.574 233.984 282.798 237.205 283.622C242.369 284.944 246.988 287.903 249.39 291.43C251.738 294.876 252.745 297.879 253.794 304.561C254.207 307.197 254.657 309.843 254.793 310.443C255.581 313.906 257.113 316.674 259.012 318.064C262.028 320.271 267.222 320.409 272.331 318.416C273.199 318.077 273.951 317.843 274.004 317.896C274.189 318.08 271.617 319.803 269.802 320.709C267.36 321.929 265.418 322.401 262.837 322.401C258.158 322.401 254.273 320.02 251.031 315.167C250.393 314.211 248.959 311.35 247.845 308.809C244.422 301.002 242.732 298.624 238.758 296.022C235.299 293.757 230.839 293.352 227.484 294.997C223.076 297.158 221.847 302.79 225.003 306.359C226.258 307.778 228.598 309.001 230.511 309.239C234.09 309.685 237.166 306.962 237.166 303.348C237.166 301.002 236.264 299.663 233.994 298.639C230.893 297.24 227.56 298.875 227.576 301.788C227.583 303.03 228.124 303.81 229.369 304.373C230.168 304.735 230.186 304.763 229.535 304.628C226.69 304.038 226.023 300.608 228.311 298.331C231.057 295.598 236.736 296.804 238.687 300.535C239.506 302.102 239.601 305.224 238.887 307.108C237.288 311.327 232.626 313.545 227.898 312.338C224.678 311.516 223.368 310.626 219.486 306.628C212.741 299.68 210.122 298.334 200.399 296.816L198.535 296.525L200.655 294.735Z" fill="white"/>
<path fill-rule="evenodd" clip-rule="evenodd" d="M149.794 139.103C172.319 166.44 207.046 209.003 208.77 211.386C210.193 213.354 209.658 215.123 207.219 216.509C205.863 217.28 203.075 218.061 201.679 218.061C200.1 218.061 198.321 217.301 197.026 216.072C196.11 215.204 192.415 209.686 183.885 196.451C177.358 186.324 171.896 177.923 171.747 177.783C171.403 177.457 171.409 177.469 183.22 198.601C190.636 211.87 193.14 216.561 193.14 217.189C193.14 218.465 192.792 219.135 191.217 220.891C188.593 223.819 187.42 227.108 186.573 233.916C185.623 241.548 182.954 246.939 175.555 256.165C171.225 261.566 170.516 262.556 169.423 264.733C168.047 267.474 167.668 269.01 167.515 272.471C167.353 276.131 167.669 278.495 168.787 281.994C169.766 285.058 170.788 287.081 173.4 291.127C175.654 294.618 176.953 297.213 176.953 298.228C176.953 299.036 177.107 299.037 180.6 298.248C188.96 296.36 195.748 293.04 199.566 288.971C201.929 286.453 202.484 285.062 202.502 281.611C202.513 279.353 202.434 278.881 201.824 277.582C200.831 275.469 199.022 273.711 195.037 270.987C189.814 267.417 187.584 264.543 186.968 260.591C186.462 257.348 187.049 255.059 189.938 249.005C192.928 242.738 193.669 240.067 194.17 233.75C194.494 229.668 194.942 228.059 196.115 226.767C197.338 225.42 198.439 224.964 201.466 224.55C206.4 223.876 209.542 222.599 212.125 220.219C214.366 218.155 215.303 216.166 215.447 213.171L215.556 210.901L214.304 209.441C209.77 204.155 146.757 134.947 146.478 134.947C146.419 134.947 147.911 136.817 149.794 139.103ZM179.498 276.612C180.523 274.797 179.978 272.463 178.263 271.323C176.643 270.245 174.126 270.753 174.126 272.157C174.126 272.585 174.363 272.897 174.897 273.172C175.796 273.634 175.861 274.154 175.154 275.218C174.438 276.294 174.495 277.241 175.317 277.884C176.641 278.921 178.516 278.351 179.498 276.612Z" fill="white"/>
<path fill-rule="evenodd" clip-rule="evenodd" d="M218.67 225.741C216.354 226.452 214.102 228.907 213.405 231.482C212.979 233.052 213.221 235.807 213.858 236.658C214.887 238.032 215.882 238.394 218.577 238.375C223.852 238.338 228.438 236.076 228.971 233.247C229.408 230.929 227.394 227.716 224.62 226.305C223.188 225.577 220.143 225.289 218.67 225.741ZM224.837 230.563C225.651 229.407 225.295 228.158 223.911 227.313C221.277 225.704 217.292 227.035 217.292 229.525C217.292 230.764 219.369 232.115 221.274 232.115C222.542 232.115 224.277 231.36 224.837 230.563Z" fill="white"/>
</g>
<path d="M176.051 74C176.051 60.7452 165.306 50 152.051 50H46.0008C32.746 50 22.0008 60.7452 22.0008 74V99.1811C22.0008 112.436 32.7459 123.181 46.0008 123.181H118.706C119.596 123.181 120.467 123.435 121.218 123.913L144.986 139.043C146.317 139.891 148.06 138.934 148.06 137.356V125.181C148.06 124.077 148.955 123.181 150.06 123.181H152.051C165.306 123.181 176.051 112.436 176.051 99.1811L176.051 74Z" fill="#1168F1"/>
<g opacity="0.5">
<ellipse cx="65.5879" cy="84.8" rx="5.65431" ry="5.8371" fill="#F4F5FA"/>
<ellipse cx="101.846" cy="84.8" rx="5.65431" ry="5.8371" fill="#F4F5FA"/>
<ellipse cx="138.1" cy="84.8" rx="5.65431" ry="5.8371" fill="#F4F5FA"/>
</g>
<g filter="url(#filter1_d_8580_46398)">
<path d="M262 370C262 352.327 276.327 338 294 338H427.973C445.646 338 459.973 352.327 459.973 370V399.286C459.973 416.959 445.646 431.286 427.973 431.286H347.104C346.2 431.286 345.316 431.548 344.558 432.04L313.809 451.995C312.478 452.859 310.72 451.904 310.72 450.318V435.963C310.72 433.38 308.626 431.286 306.043 431.286H294C276.327 431.286 262 416.959 262 399.286L262 370Z" fill="#FF9900"/>
</g>
<g opacity="0.5">
<ellipse rx="7.43581" ry="7.73321" transform="matrix(-1 0 0 1 420.056 385.481)" fill="#F4F5FA"/>
<ellipse rx="7.43581" ry="7.73321" transform="matrix(-1 0 0 1 360.568 385.482)" fill="#F4F5FA"/>
<ellipse rx="7.43581" ry="7.73321" transform="matrix(-1 0 0 1 301.084 385.482)" fill="#F4F5FA"/>
</g>
<defs>
<filter id="filter0_d_8580_46398" x="0" y="0.558751" width="473" height="473" filterUnits="userSpaceOnUse" color-interpolation-filters="sRGB">
<feFlood flood-opacity="0" result="BackgroundImageFix"/>
<feColorMatrix in="SourceAlpha" type="matrix" values="0 0 0 0 0 0 0 0 0 0 0 0 0 0 0 0 0 0 127 0" result="hardAlpha"/>
<feOffset dy="3.55875"/>
<feGaussianBlur stdDeviation="30"/>
<feColorMatrix type="matrix" values="0 0 0 0 0 0 0 0 0 0.101953 0 0 0 0 0.2625 0 0 0 0.08 0"/>
<feBlend mode="normal" in2="BackgroundImageFix" result="effect1_dropShadow_8580_46398"/>
<feBlend mode="normal" in="SourceGraphic" in2="effect1_dropShadow_8580_46398" result="shape"/>
</filter>
<filter id="filter1_d_8580_46398" x="237.807" y="316.226" width="246.359" height="162.707" filterUnits="userSpaceOnUse" color-interpolation-filters="sRGB">
<feFlood flood-opacity="0" result="BackgroundImageFix"/>
<feColorMatrix in="SourceAlpha" type="matrix" values="0 0 0 0 0 0 0 0 0 0 0 0 0 0 0 0 0 0 127 0" result="hardAlpha"/>
<feOffset dy="2.4193"/>
<feGaussianBlur stdDeviation="12.0965"/>
<feColorMatrix type="matrix" values="0 0 0 0 0 0 0 0 0 0 0 0 0 0 0 0 0 0 0.15 0"/>
<feBlend mode="normal" in2="BackgroundImageFix" result="effect1_dropShadow_8580_46398"/>
<feBlend mode="normal" in="SourceGraphic" in2="effect1_dropShadow_8580_46398" result="shape"/>
</filter>
<clipPath id="clip0_8580_46398">
<rect width="221.934" height="221.579" fill="white" transform="translate(132.613 134.947)"/>
</clipPath>
</defs>
</svg>
