<svg width="483" height="479" viewBox="0 0 483 479" fill="none" xmlns="http://www.w3.org/2000/svg">
<g filter="url(#filter0_d_11500_73256)">
<circle cx="236.5" cy="233.5" r="176.5" fill="white"/>
</g>
<g clip-path="url(#clip0_11500_73256)">
<path d="M236.5 379C316.857 379 382 313.857 382 233.5C382 153.143 316.857 88 236.5 88C156.143 88 91 153.143 91 233.5C91 313.857 156.143 379 236.5 379Z" fill="url(#paint0_radial_11500_73256)"/>
<path d="M234.971 301.447C233.658 301.54 231.704 299.513 230.352 299.688C228.558 299.919 226.925 299.269 225.438 298.52C222.041 296.809 218.854 294.754 216.446 291.691C214.012 288.598 210.983 282.666 211.318 283.933C209.554 283.561 208.518 282.577 207.756 281.508C206.082 279.161 204.519 276.721 203.104 274.208C201.668 271.662 199.949 269.375 198.014 267.189C195.288 264.112 192.116 258.657 189.791 254.557C189.847 254.181 185.652 248.084 185.375 245.67C184.985 242.261 190.898 231.395 190.501 231.683C190.538 231.043 190.499 230.387 190.626 229.766C191.244 226.76 191.237 223.718 191.272 220.672C191.278 220.118 191.236 217.078 191.106 217.016C191.357 216.312 191.608 215.608 191.873 214.865C191.792 214.826 191.655 214.761 191.703 214.784C191.093 211.221 191.938 207.686 190.981 204.232C190.396 202.118 189.451 200.194 188.429 198.252C186.472 194.534 184.598 190.746 183.07 186.839C181.855 183.732 181.716 180.361 182.19 177.018C182.69 173.489 183.128 169.949 183.725 166.436C184.076 164.368 184.667 162.339 185.192 160.304C185.304 159.869 185.595 159.481 185.929 158.823C186.844 159.848 187.579 160.77 188.416 161.589C190.307 163.439 192.122 165.398 194.197 167.02C197.428 169.546 200.8 171.9 204.21 174.183C205.826 175.265 207.725 175.918 209.389 176.941C210.974 177.917 212.535 178.995 213.899 180.253C216.258 182.427 218.211 184.953 219.601 187.953C218.798 188.498 218.023 189.023 217.249 189.548C217.286 189.612 217.322 189.677 217.359 189.741C218.83 189.094 220.289 188.416 221.776 187.807C228.169 185.185 234.801 184.043 241.658 185.133C245.671 185.771 249.473 187.225 253.115 189.298C253.311 189.133 253.539 188.941 253.878 188.656C253.276 188.55 252.835 188.473 252.381 188.393C252.137 188.07 251.89 187.745 251.6 187.363C253.269 184.553 255.2 182.04 257.542 179.742C259.483 177.838 261.833 176.873 264.116 175.68C269.192 173.027 273.665 169.514 278.059 165.895C279.907 164.372 281.617 162.681 283.403 161.083C283.926 160.617 284.502 160.21 285.25 159.62C286.117 162.624 287.063 165.319 287.65 168.089C288.449 171.844 288.896 175.654 289.012 179.515C289.133 183.578 288.09 187.297 286.312 190.86C284.762 193.964 283.134 197.029 281.529 200.106C280.467 202.145 279.406 204.187 278.304 206.205C277.33 207.987 277.158 209.93 277.019 211.894C276.994 212.233 276.785 212.559 276.661 212.891C276.466 212.542 276.269 212.193 276.075 211.845C275.978 211.888 275.881 211.93 275.785 211.973C275.903 212.285 276.019 212.597 276.137 212.908C277.192 215.121 277.336 217.5 277.425 219.892C277.495 221.791 277.871 223.601 278.737 225.326C279.415 226.677 279.98 228.096 280.466 229.528C280.691 230.192 280.613 230.96 280.672 231.681C280.277 231.394 284.732 238.881 284.882 241.267C285.122 245.078 286.005 245.825 284.42 249.317C284.215 249.771 275.683 264.205 272.491 267.554C269.774 270.406 267.874 273.799 265.841 277.114C264.405 279.458 260.458 284.333 258.143 285.906C257.702 286.207 256.15 289.522 252.137 293.311C249.305 295.984 246.158 298.29 242.329 299.38C241.403 299.641 240.376 299.711 239.414 299.64" fill="#FEFEFE"/>
<path d="M249.907 186.604C248.286 186.088 246.717 185.577 245.141 185.086C240.347 183.595 235.49 183.369 230.588 184.445C228.673 184.865 226.764 185.331 224.884 185.884C223.837 186.191 222.863 186.738 221.842 187.141C221.445 187.298 221.009 187.356 220.462 187.491C219.842 183.52 216.389 181.619 214.574 178.454C234.037 158.565 253.489 138.687 272.939 118.81C273.045 118.869 273.15 118.928 273.256 118.988C273.06 119.661 272.877 120.338 272.664 121.006C269.438 131.127 266.217 141.249 262.98 151.366C260.903 157.853 258.798 164.331 256.713 170.815C255.743 173.833 254.765 176.849 253.841 179.881C253.361 181.457 252.732 182.915 251.605 184.158C251.009 184.816 250.577 185.623 249.907 186.604Z" fill="#BFFB00"/>
<path d="M209.714 285.188C210.532 285.32 211.108 285.414 211.728 285.515C215.151 295.665 222.347 300.931 233.168 301.756C219.395 314.993 205.679 328.175 191.964 341.358C191.842 341.289 191.72 341.221 191.598 341.153C197.636 322.497 203.675 303.842 209.714 285.188Z" fill="#BFFB00"/>
<path d="M185.102 241.401C176.864 240.009 168.519 238.599 159.926 237.147C160.381 236.507 160.668 236.003 161.046 235.584C166.183 229.896 171.32 224.208 176.481 218.543C180.75 213.857 185.051 209.201 189.34 204.534C189.451 204.413 189.594 204.322 189.94 204.039C190.111 205.5 190.369 206.777 190.39 208.058C190.447 211.744 190.607 215.444 190.351 219.113C190.096 222.759 190.336 226.465 189.318 230.052C189.114 230.77 189.246 231.579 189.178 232.343C189.04 233.911 188.406 235.305 187.651 236.662C186.806 238.183 186.001 239.725 185.102 241.401Z" fill="#BFFB00"/>
<path d="M278.855 221.007C286.875 222.584 294.897 224.161 303.235 225.801C297.427 231.765 291.847 237.492 286.056 243.439C285.892 240.206 283.912 237.981 282.7 235.41C282.164 234.274 281.722 233.153 281.805 231.857C281.915 230.156 281.438 228.66 280.61 227.11C279.648 225.313 279.219 223.231 278.559 221.273L278.855 221.007Z" fill="#BFFB00"/>
<path d="M190.5 231.682C190.897 231.394 191.294 231.106 191.691 230.818C192.78 230.505 193.868 230.191 194.957 229.878C196.294 230.729 197.082 231.987 197.779 233.546C197.045 233.837 196.407 234.025 195.831 234.329C194.63 234.964 193.997 236.106 193.512 237.289C192.204 240.481 192.02 243.794 192.41 247.205C192.687 249.618 193.413 251.859 194.357 254.063C194.484 254.36 194.462 254.721 194.504 255.053C194.509 255.091 194.49 255.147 194.462 255.169C194.442 255.184 194.388 255.152 194.349 255.142C193.943 255.919 193.537 256.695 193.094 257.542C192.845 257.355 192.562 257.221 192.395 257.001C190.093 253.973 187.677 251.004 186.568 247.27C185.79 244.654 186.147 242.129 187.364 239.703C188.278 237.877 189.223 236.062 190.029 234.19C190.357 233.428 190.353 232.523 190.5 231.682Z" fill="#BFC3C9"/>
<path d="M279.485 230.819C279.882 231.106 280.278 231.394 280.675 231.681C280.819 234.468 282.092 236.829 283.477 239.15C285.433 242.424 285.482 245.81 283.883 249.2C282.585 251.953 280.806 254.42 278.941 256.818C278.718 257.105 278.401 257.319 278.025 257.659C277.733 256.911 277.523 256.31 277.256 255.737C277.199 255.618 276.93 255.599 276.758 255.532C276.794 255.001 276.684 254.403 276.89 253.947C278.475 250.455 279.163 246.799 278.925 242.988C278.775 240.602 278.295 238.296 277.099 236.146C276.388 234.869 275.245 234.368 274.071 233.804C273.921 233.733 273.765 233.673 273.473 233.55C274.014 232.001 274.874 230.769 276.22 229.877C277.308 230.191 278.396 230.505 279.485 230.819Z" fill="#BFC3C9"/>
<path d="M225.672 280.756C225.931 280.375 226.189 279.992 226.448 279.609C226.54 279.518 226.632 279.426 226.724 279.334L226.697 279.347L227.203 279.257C231.162 277.692 235.201 276.926 239.543 277.951V280.041C239.159 280.29 238.791 280.501 238.455 280.754C237.026 281.825 235.298 281.671 233.673 281.936C232.204 281.86 230.735 281.784 229.267 281.707C228.068 281.39 226.87 281.073 225.672 280.756Z" fill="#5A5A5C"/>
<path d="M244.716 280.377C244.913 280.815 245.109 281.255 245.288 281.656C242.361 284.099 230.329 284.422 225.43 282.235C225.457 282.027 225.488 281.793 225.519 281.559C226.76 281.743 228.001 281.93 229.242 282.114C230.719 282.125 232.197 282.136 233.674 282.146C235.903 282.081 238.166 282.507 240.309 281.774C240.797 280.089 241.539 279.44 242.863 279.482C243.234 279.494 243.603 279.555 243.974 279.594L243.961 279.58C243.961 279.672 243.961 279.765 243.961 279.859H244.233L244.213 279.837C244.382 280.016 244.548 280.197 244.716 280.377Z" fill="#5A5A5C"/>
<path d="M209.357 230.673L209.32 230.661C209.502 230.756 209.684 230.851 209.866 230.947L209.855 230.927C209.739 231.778 210.408 232.084 210.938 232.486C210.987 232.715 211.127 232.971 211.069 233.169C210.598 234.757 210.712 235.152 212.016 236.166C212.385 236.454 212.75 236.748 213.109 237.049C214.564 238.268 215.417 238.305 216.981 237.206C217.714 237.778 218.446 238.351 219.164 238.911V240.318C218.627 240.63 218.084 240.944 217.541 241.26C217.458 241.274 217.374 241.29 217.291 241.305C216.984 241.37 216.677 241.436 216.37 241.501C216.016 241.503 215.662 241.504 215.308 241.506L213.847 241.407C213.721 241.363 213.594 241.318 213.468 241.273C212.811 241.011 212.153 240.749 211.496 240.486C211.235 240.225 210.983 239.973 210.721 239.713L210.351 239.447L210.249 239.422L210.224 239.32C209.96 238.936 209.696 238.55 209.432 238.166C209.259 237.904 209.091 237.654 208.919 237.394L208.95 237.401C208.857 237.305 208.765 237.209 208.672 237.113L208.695 237.139C208.56 236.956 208.426 236.772 208.291 236.589L208.225 236.612C208.206 236.481 208.187 236.35 208.168 236.22C208.084 236.089 207.999 235.959 207.915 235.828C207.864 235.541 207.817 235.262 207.767 234.976C207.745 233.929 207.723 232.884 207.701 231.838L207.687 231.199L207.656 231.213C207.922 231.121 208.188 231.03 208.453 230.938L208.438 230.954C208.745 230.86 209.05 230.766 209.357 230.673Z" fill="url(#paint1_radial_11500_73256)"/>
<path d="M205.283 190.365C205.788 189.983 206.135 189.722 206.677 189.313C205.045 188.195 203.562 187.178 201.911 186.046C203.029 185.76 203.949 185.525 205.001 185.256C203.609 182.958 202.561 180.632 200.744 178.655C199.498 180.017 198.359 181.262 197.437 182.27C196.447 181.429 195.573 180.687 194.699 179.944C192.931 177.884 191.163 175.823 189.396 173.763C189.33 173.803 189.265 173.843 189.199 173.883C189.515 176.205 189.831 178.527 190.147 180.85C190.303 182.462 190.405 184.082 190.627 185.685C191.143 189.393 191.717 193.093 192.297 197.003C194.08 195.323 195.697 193.799 197.551 192.051C197.935 195.391 198.283 198.414 198.633 201.459C199.421 201.624 200.076 201.761 200.526 201.855C203.383 199.372 206.077 197.031 208.793 194.671C208.279 192.756 206.989 191.435 205.283 190.365Z" fill="url(#paint2_linear_11500_73256)"/>
<path d="M282.032 173.544C280.197 175.663 278.363 177.782 276.528 179.901C275.752 180.619 274.978 181.338 274.123 182.131C273.062 180.98 271.917 179.736 270.68 178.394C268.864 180.405 267.794 182.718 266.471 185.011C267.572 185.287 268.539 185.53 269.714 185.826C267.939 186.949 266.147 187.686 264.945 189.246C265.381 189.552 265.711 189.782 266.058 190.024C263.058 192.948 262.884 193.19 262.758 194.502C265.45 196.85 268.09 199.154 270.907 201.611C271.39 201.504 272.079 201.352 272.821 201.189C273.179 198.087 273.528 195.073 273.906 191.796C275.792 193.572 277.41 195.095 279.134 196.72C279.614 193.658 280.097 190.834 280.486 187.997C280.739 186.143 280.855 184.271 281.033 182.406C281.446 179.485 281.858 176.563 282.271 173.641L282.032 173.544Z" fill="url(#paint3_linear_11500_73256)"/>
<path d="M261.712 236.631C262.101 235.105 261.956 233.625 261.386 232.164C261.238 231.785 261.235 231.349 261.165 230.94L261.204 230.953C261.021 230.864 260.839 230.774 260.657 230.684L260.67 230.723H259.589C259.313 230.951 259.058 231.161 258.803 231.37C258.63 231.542 258.459 231.714 258.287 231.886C258.175 232.064 258.063 232.242 257.983 232.37C258.409 232.906 258.819 233.42 259.399 234.145C258.943 234.42 258.643 234.6 258.348 234.779C258.355 234.872 258.363 234.967 258.37 235.062C258.28 235.057 258.189 235.053 258.099 235.05C258.104 235.14 258.108 235.23 258.114 235.322C258.022 235.316 257.932 235.31 257.84 235.306C257.846 235.396 257.85 235.488 257.856 235.578C257.766 235.574 257.674 235.569 257.584 235.565C257.589 235.655 257.593 235.745 257.597 235.836C257.506 235.828 257.414 235.823 257.324 235.815C256.844 237.41 255.227 238.277 253.557 237.795C253.081 237.659 252.634 237.422 252.157 237.224C251.713 237.563 251.278 237.894 250.842 238.228C250.781 238.185 250.714 238.156 250.639 238.142C250.382 238.313 250.124 238.485 249.867 238.658C249.48 239.034 249.094 239.409 248.52 239.968C249.736 240.39 250.8 240.758 251.863 241.127L256.871 241.244L256.844 241.267C257.784 240.835 258.722 240.401 259.662 239.968C259.749 239.885 259.839 239.796 259.925 239.712L260.183 239.45C260.274 239.283 260.368 239.112 260.459 238.945C260.539 238.856 260.619 238.769 260.699 238.682L260.679 238.685C260.774 238.503 260.87 238.322 260.964 238.14L260.942 238.172C261.121 237.817 261.3 237.462 261.481 237.109L261.459 237.144L261.737 236.597L261.712 236.631Z" fill="url(#paint4_radial_11500_73256)"/>
<path d="M237.853 238.679C236.935 238.468 236.705 237.807 236.958 237.033C237.272 236.073 237.73 235.159 238.125 234.226C238.276 233.995 238.427 233.765 238.579 233.535C238.931 231.313 239.284 229.091 239.638 226.868C239.453 227.306 239.191 227.727 239.1 228.183C238.788 229.73 237.943 230.902 236.485 231.402C234.862 231.957 233.175 232.117 231.988 230.426C231.228 229.345 230.59 228.241 230.506 226.829C230.441 225.734 230.294 224.522 229.017 223.991C228.94 223.723 229.281 223.088 228.517 223.42C228.522 223.522 228.526 223.623 228.531 223.725L228.512 223.706C228.597 223.799 228.681 223.892 228.766 223.985L228.891 224L229.017 223.991C229.345 224.778 229.673 225.566 230.001 226.353C230.007 227.439 230.012 228.525 230.017 229.612C230.03 230.293 230.096 230.978 230.044 231.655C229.931 233.135 230.451 234.315 231.576 235.254C231.804 235.444 232.022 235.647 232.229 235.831C232.356 236.816 232.594 237.756 231.593 238.398C230.624 239.275 229.677 240.175 228.251 240.247C227.859 240.266 227.477 240.436 227.755 240.979C229.915 242.217 232.079 243.451 234.231 244.703C234.499 244.858 234.706 245.117 234.941 245.328C235.448 246.211 235.97 245.779 236.492 245.347C237.505 244.116 238.713 243.215 240.358 243.048C240.786 242.874 241.212 242.699 241.64 242.526C242.01 241.793 242.379 241.059 242.811 240.204C241.092 239.852 239.174 240.153 237.853 238.679Z" fill="#D4D4D4"/>
<path d="M271.407 230.072C271.013 230.424 270.52 230.712 270.242 231.139C269.596 232.127 269.07 233.192 268.468 234.21C266.881 236.893 264.881 239.246 262.644 241.404C262.462 241.571 262.278 241.74 262.097 241.908C261.219 242.591 260.343 243.272 259.467 243.954C259.171 244.11 258.881 244.386 258.578 244.399C256.592 244.494 254.544 244.853 252.633 244.497C250.599 244.117 248.693 243.04 246.732 242.268C246.447 242.084 246.161 241.903 245.732 241.628C246.224 241.174 246.557 240.865 246.889 240.558C246.937 240.442 246.985 240.325 247.031 240.209H243.521C242.902 240.967 242.271 241.744 241.639 242.521C241.21 242.781 240.771 243.051 240.341 243.311C239.383 243.89 238.424 244.468 237.465 245.045C237.961 245.073 238.457 245.102 238.953 245.13C239.73 243.929 240.897 243.928 242.156 244.084C242.605 244.488 243.067 244.904 243.526 245.319C243.473 245.435 243.417 245.553 243.362 245.67C242.215 245.037 241.136 243.832 239.772 245.026C240.104 245.047 240.436 245.072 240.768 245.086C241.869 245.136 242.668 245.601 243.003 246.708C243.846 246.367 244.689 246.023 245.533 245.68C245.844 245.678 246.156 245.677 246.468 245.677C248.783 246.036 251.091 246.48 253.419 246.727C254.803 246.873 256.22 246.711 257.622 246.688C257.867 246.663 258.111 246.64 258.356 246.617L261.728 245.297C261.557 244.466 261.807 243.765 262.427 243.214C265.191 240.752 267.257 237.703 269.392 234.735C270.374 233.37 271.544 231.971 271.407 230.072Z" fill="#D4D4D4"/>
<path d="M229.053 244.478C228.501 244.775 228.087 244.998 227.673 245.22C227.612 245.121 227.551 245.021 227.491 244.921C227.972 244.554 228.453 244.187 229.12 243.678C229.865 244.155 230.608 244.631 231.352 245.107C231.862 244.999 232.372 244.892 232.882 244.782C232.498 244.55 232.102 244.333 231.73 244.081C230.282 243.1 228.842 242.108 227.399 241.12C227.158 240.829 226.916 240.538 226.665 240.236C225.143 240.106 223.643 239.98 221.989 239.84C222.203 240.419 222.349 240.815 222.495 241.209C222.71 241.343 222.925 241.478 223.365 241.752C222.62 242.171 222.086 242.47 221.551 242.77C221.44 242.738 221.328 242.708 221.217 242.676C221.19 242.783 221.189 242.967 221.132 242.987C217.796 244.158 214.456 245.412 210.833 244.529C209.74 244.263 208.713 243.723 207.656 243.31C207.744 243.898 207.833 244.487 207.921 245.076C207.914 245.175 207.906 245.274 207.899 245.373C209.457 245.786 211.015 246.201 212.573 246.616L214.848 246.617C217.669 246.278 220.485 245.866 223.315 245.639C224.27 245.562 225.384 245.682 225.938 246.789C226.147 246.741 226.374 246.729 226.562 246.639C227.732 246.073 228.893 245.488 230.058 244.911C229.691 244.752 229.323 244.595 229.053 244.478Z" fill="#D4D4D4"/>
<path d="M227.19 279.257C227.2 279.117 227.211 278.979 227.222 278.841C227.042 279.01 226.863 279.178 226.684 279.347C226.852 279.317 227.021 279.286 227.19 279.257Z" fill="#D4D4D4"/>
<path d="M204.297 239.431L204.314 239.444C204.138 239.188 203.966 238.929 203.79 238.671C203.719 238.514 203.648 238.355 203.577 238.197L203.967 238.505C204.089 238.549 204.211 238.593 204.333 238.636C204.097 237.542 203.887 236.432 202.763 235.835C203.006 236.572 203.248 237.308 203.491 238.044C202.771 236.903 202.097 235.729 201.307 234.641C200.204 233.12 199.005 231.67 197.847 230.189C197.773 230.194 197.702 230.182 197.634 230.154C197.639 229.906 197.645 229.659 197.65 229.412C197.4 229.463 197.15 229.515 196.672 229.613C197.098 229.925 197.322 230.088 197.547 230.252C197.743 230.808 197.839 231.429 198.153 231.908C199.658 234.207 201.185 236.494 202.79 238.725C203.181 239.268 203.896 239.578 204.463 239.995C204.407 239.806 204.352 239.618 204.297 239.431Z" fill="#D4D4D4"/>
<path d="M226.746 221.655C226.986 221.755 227.225 221.854 227.465 221.954C227.429 221.083 227.074 220.503 226.113 220.48L226.746 221.655Z" fill="#D4D4D4"/>
<path d="M226.071 220.45C226.31 219.439 225.804 219.298 224.707 219.507C225.026 219.813 225.193 219.974 225.36 220.135C225.597 220.24 225.834 220.345 226.071 220.45Z" fill="#D4D4D4"/>
<path d="M243.591 220.104C243.676 219.974 243.671 219.785 243.709 219.624C243.869 219.618 244.031 219.612 244.191 219.607C244.415 219.234 244.637 218.861 244.86 218.488C244.76 218.428 244.658 218.367 244.557 218.307C244.275 218.745 243.991 219.185 243.709 219.624C241.33 220.6 239.637 223.304 239.773 225.911C241.048 223.977 242.325 222.044 243.591 220.104Z" fill="#D4D4D4"/>
<path d="M206.464 242.205C206.089 241.802 205.715 241.398 205.34 240.993C205.363 241.724 205.602 242.253 206.464 242.205Z" fill="#D4D4D4"/>
<path d="M202.014 227.623C201.817 227.539 201.619 227.455 201.422 227.371C201.369 227.483 201.315 227.594 201.262 227.705C201.519 227.83 201.777 227.954 202.034 228.078C202.027 227.926 202.021 227.775 202.014 227.623Z" fill="#D4D4D4"/>
<path d="M205.109 240.707C204.916 240.494 204.723 240.282 204.53 240.069C204.208 240.749 204.634 240.75 205.109 240.707Z" fill="#D4D4D4"/>
<path d="M238.343 234.818C238.4 234.629 238.455 234.441 238.512 234.252C238.429 234.218 238.356 234.23 238.289 234.29L238.343 234.818Z" fill="#D4D4D4"/>
<path d="M229.25 281.707C229.246 281.842 229.242 281.979 229.238 282.114C230.716 282.125 232.193 282.136 233.67 282.146C233.667 282.077 233.662 282.007 233.657 281.935C232.188 281.86 230.719 281.783 229.25 281.707Z" fill="#D4D4D4"/>
<path d="M267.3 232.733C267.046 233.707 266.876 234.385 266.691 235.059C266.593 235.414 266.471 235.763 266.359 236.114C267.044 235.265 267.791 234.458 268.396 233.556C268.863 232.857 269.153 232.038 269.492 231.333H261.691C261.83 231.774 261.901 232 261.972 232.227C263.666 232.387 265.358 232.548 267.3 232.733Z" fill="#D4D4D4"/>
<path d="M204.337 238.647C204.33 238.914 204.323 239.18 204.316 239.445C204.746 239.695 205.175 239.944 205.604 240.194C205.665 239.282 205.136 238.854 204.337 238.647Z" fill="#D4D4D4"/>
<path d="M199.559 231.164C200.735 232.881 201.747 234.359 202.759 235.835C202.529 235.047 202.299 234.257 202.054 233.418C203.529 232.507 205.178 232.871 206.857 232.638C206.857 233.173 206.769 233.659 206.88 234.095C207.014 234.625 207.315 235.114 207.544 235.62C207.554 235.453 207.564 235.284 207.574 235.115C207.497 234.005 207.419 232.894 207.342 231.784C204.829 231.584 202.316 231.384 199.559 231.164Z" fill="#D4D4D4"/>
<path d="M306.257 224.811C301.731 223.933 297.206 223.043 292.679 222.166C288.112 221.282 283.543 220.41 278.724 219.484C278.621 216.838 278.446 214.199 278.445 211.559C278.445 210.291 278.507 208.906 279.005 207.778C280.252 204.949 281.751 202.23 283.175 199.481C284.277 197.354 285.439 195.258 286.539 193.13C289.075 188.226 290.724 183.1 290.293 177.484C290.229 176.634 290.097 175.785 289.929 174.949C289.465 172.643 289.023 170.331 288.467 168.047C287.741 165.058 286.926 162.091 286.121 159.122C285.972 158.572 285.692 158.058 285.442 157.451C284.914 157.873 284.483 158.157 284.124 158.512C280.355 162.247 276.283 165.628 271.995 168.737C269.78 170.342 267.463 171.814 265.127 173.242C262.873 174.619 260.529 175.849 258.242 177.172C257.587 177.55 256.988 178.025 256.364 178.456C256.317 178.52 256.271 178.585 256.127 178.782C256.127 178.525 256.127 178.401 256.127 178.277C256.236 177.909 256.336 177.539 256.453 177.173C263.212 155.942 269.974 134.712 276.731 113.48C276.808 113.24 276.828 112.982 276.875 112.733C276.814 112.71 276.753 112.688 276.692 112.665C255.612 134.265 234.532 155.865 213.431 177.487C202.362 172.77 193.147 165.778 185.644 156.39C185.512 156.707 185.37 156.964 185.295 157.239C184.082 161.655 182.759 166.045 181.712 170.501C180.941 173.785 180.294 177.129 180.381 180.537C180.411 181.724 180.719 182.901 180.818 184.09C181.101 187.488 182.57 190.472 184.092 193.42C185.11 195.389 186.352 197.242 187.399 199.198C187.956 200.239 188.313 201.387 188.777 202.528C178.022 214.386 167.319 226.189 156.445 238.179C166.103 239.822 175.517 241.424 185.034 243.045C184.579 244.789 184.812 246.362 185.364 247.931C186.564 251.337 188.716 254.181 190.699 257.125C191.7 258.612 192.773 260.007 193.259 261.82C193.661 263.322 194.393 264.767 195.18 266.12C195.682 266.981 196.584 267.599 197.25 268.376C199.75 271.294 201.705 274.583 203.73 277.832C205.09 280.013 205.849 282.63 208.131 284.071C208.092 284.282 208.085 284.368 208.059 284.448C202.47 302.106 196.876 319.76 191.294 337.419C190.28 340.629 189.32 343.857 188.335 347.076L188.338 347.115L188.359 347.053C188.681 346.783 189.015 346.527 189.323 346.244C192.07 343.726 194.812 341.202 197.558 338.683C197.932 338.34 198.354 338.045 198.701 337.677C199.99 336.31 201.192 334.857 202.54 333.553C213.484 322.978 224.453 312.431 235.445 301.844C237.458 301.876 239.527 301.876 241.513 301.143C242.549 300.759 243.567 300.312 244.625 300.004C248.168 298.971 251.143 296.934 253.637 294.354C255.855 292.059 257.683 289.375 258.357 286.263C259.413 285.719 260.42 285.331 261.279 284.733C263.957 282.868 265.929 280.382 267.487 277.518C268.501 275.653 269.411 273.705 271.104 272.276C271.87 271.628 272.514 270.812 273.117 270C274.208 268.528 275.254 267.02 276.265 265.493C276.823 264.652 277.391 263.783 277.739 262.847C278.807 259.987 280.185 257.324 281.917 254.792C283.382 252.651 284.832 250.398 285.71 247.985C286.383 246.129 287.195 244.596 288.691 243.381C288.855 243.246 288.986 243.071 289.135 242.915C294.607 237.178 300.078 231.438 305.559 225.709C305.824 225.432 306.18 225.242 306.494 225.012V224.754C306.416 224.775 306.33 224.826 306.257 224.811ZM272.935 118.81C273.041 118.869 273.147 118.928 273.252 118.988C273.056 119.661 272.872 120.338 272.66 121.006C269.436 131.127 266.213 141.249 262.975 151.366C260.899 157.853 258.794 164.331 256.709 170.815C255.738 173.833 254.76 176.849 253.836 179.881C253.356 181.457 252.728 182.915 251.602 184.158C251.005 184.816 250.573 185.623 249.902 186.604C248.283 186.088 246.713 185.577 245.137 185.086C240.344 183.595 235.486 183.369 230.584 184.445C228.669 184.865 226.76 185.331 224.88 185.884C223.833 186.192 222.859 186.738 221.838 187.141C221.441 187.298 221.005 187.356 220.458 187.491C219.838 183.52 216.385 181.619 214.57 178.454C234.033 158.565 253.484 138.687 272.935 118.81ZM185.1 241.401C176.863 240.008 168.518 238.598 159.925 237.146C160.38 236.506 160.666 236.003 161.045 235.584C166.181 229.895 171.319 224.208 176.48 218.542C180.749 213.857 185.05 209.2 189.339 204.534C189.45 204.413 189.593 204.322 189.939 204.039C190.11 205.499 190.368 206.777 190.388 208.058C190.446 211.743 190.606 215.444 190.35 219.112C190.095 222.759 190.335 226.465 189.317 230.051C189.113 230.77 189.244 231.579 189.177 232.342C189.039 233.91 188.405 235.304 187.65 236.662C186.805 238.182 186 239.725 185.1 241.401ZM191.969 341.358C191.847 341.289 191.725 341.221 191.603 341.153C197.641 322.497 203.68 303.842 209.719 285.187C210.537 285.32 211.113 285.414 211.733 285.515C215.156 295.665 222.352 300.931 233.173 301.756C219.4 314.993 205.684 328.175 191.969 341.358ZM233.605 300.705C234.178 300.164 234.594 299.769 234.945 299.436C235.376 299.868 235.773 300.267 236.21 300.705H233.605ZM224.76 281.281C225.33 280.95 225.498 280.853 225.666 280.755C225.925 280.374 226.184 279.992 226.442 279.609C226.535 279.517 226.627 279.426 226.719 279.334L226.691 279.347C226.871 279.178 227.05 279.01 227.229 278.841C230.053 276.855 233.249 276.395 236.586 276.632C238.774 276.788 240.859 277.368 242.729 278.561C243.183 278.849 243.566 279.247 243.982 279.594L243.969 279.58C244.059 279.673 244.149 279.766 244.239 279.858L244.22 279.837C244.388 280.016 244.556 280.197 244.724 280.377C244.92 280.815 245.117 281.255 245.296 281.656C242.368 284.099 230.336 284.422 225.437 282.235C225.464 282.027 225.495 281.793 225.526 281.559C225.335 281.489 225.144 281.42 224.76 281.281ZM283.885 249.199C282.587 251.952 280.808 254.42 278.942 256.818C278.72 257.104 278.403 257.318 278.026 257.659C277.735 256.911 277.524 256.31 277.256 255.737C277.201 255.617 276.93 255.599 276.76 255.532C277.762 260.4 275.686 264.205 272.494 267.554C269.776 270.406 267.877 273.799 265.845 277.114C264.408 279.458 262.808 281.669 260.493 283.242C260.052 283.543 259.536 283.732 258.925 284.038C259.013 282.312 259.291 280.971 260.384 279.693C261.734 278.112 262.718 276.214 263.85 274.447C264.443 273.521 265.017 272.581 265.599 271.647C265.514 271.561 265.43 271.474 265.346 271.388C265.229 271.394 265.113 271.4 264.996 271.406C264.922 271.166 264.848 270.924 264.774 270.683C264.685 270.717 264.598 270.752 264.51 270.787C264.618 271.003 264.726 271.219 264.833 271.436C264.564 271.748 264.296 272.06 264.027 272.372H263.239V269.008C264.193 269.028 264.922 269.233 265.225 270.167C265.264 270.575 265.305 270.981 265.346 271.388L265.599 271.647C266.102 270.608 266.604 269.568 267.108 268.528C266.955 268.541 266.803 268.554 266.652 268.568C266.462 268.808 266.271 269.05 266.08 269.29C266.117 269.696 266.21 270.141 265.545 270.06C265.719 269.808 265.894 269.555 266.069 269.303C266.237 268.387 266.406 267.47 266.62 266.307C267.556 267.317 266.732 267.917 266.652 268.568C266.803 268.554 266.955 268.541 267.108 268.528C267.727 266.982 268.427 265.463 268.941 263.885C269.325 262.703 269.491 261.452 268.68 260.3C268.576 260.15 268.695 259.843 268.72 259.451C269.591 259.597 270.367 259.726 271.158 259.859C270.322 258.591 269.12 258.266 266.424 258.577C266.456 258.8 266.488 259.022 266.526 259.281C263.605 261.833 261.689 265.175 259.492 268.48C259.006 266.59 259.597 265.119 260.375 263.684C260.464 263.435 260.551 263.186 260.64 262.938C260.47 263.135 260.298 263.335 260.128 263.533C259.959 263.087 259.79 262.641 259.55 262.008C259.333 262.703 259.066 263.29 258.974 263.904C258.645 266.091 258.258 268.279 258.117 270.482C257.931 273.387 257.99 276.308 257.878 279.219C257.672 284.604 256.153 289.522 252.14 293.311C249.309 295.984 246.161 298.29 242.33 299.379C241.406 299.641 240.379 299.711 239.416 299.64C237.392 299.487 235.854 297.574 236.028 295.554C236.052 295.272 236.292 295.01 236.475 294.655C236.405 294.166 236.322 293.58 236.256 293.123C238.902 290.847 241.517 288.725 243.977 286.434C245.364 285.144 246.762 283.763 247.085 281.703C247.136 281.371 247.501 281.077 247.749 280.789C249.132 279.181 249.335 276.402 248.111 274.346C248.129 276.38 248.16 278.297 246.713 279.833C242.08 273.406 228.651 273.194 223.663 279.648C222.478 278.698 222.439 278.567 222.171 274.55C220.642 276.332 221.17 279.578 223.352 281.451C223.385 283.7 224.906 285.113 226.414 286.606C228.821 288.988 231.382 291.146 234.529 292.98C234.225 294.507 234.098 296.237 233.504 297.786C233.032 299.016 231.707 299.513 230.355 299.688C228.56 299.919 226.928 299.269 225.441 298.52C222.044 296.809 218.857 294.754 216.448 291.691C214.015 288.598 212.597 285.102 212.344 281.186C212.149 278.16 212.076 275.12 212.068 272.087C212.059 268.775 211.511 265.559 210.658 262.379C210.629 262.27 210.5 262.185 210.376 262.04C210.253 262.569 210.14 263.055 209.986 263.717C210.678 264.794 210.848 266.131 210.48 267.81C208.241 264.435 206.493 260.975 203.589 258.426C200.912 258.426 198.86 258.536 198.341 260.048C199.369 259.691 200.318 259.363 201.474 258.961C200.163 262.264 201.595 264.865 202.765 267.512C203.224 268.535 203.682 269.558 204.14 270.581C204.754 271.643 205.364 272.708 205.983 273.769C207.339 276.094 208.6 278.461 210.355 280.555C211.004 281.33 210.986 282.666 211.321 283.933C209.556 283.561 208.521 282.577 207.759 281.509C206.085 279.162 204.522 276.721 203.106 274.209C201.67 271.662 199.952 269.374 198.017 267.189C195.29 264.112 193.713 260.553 194.339 256.293C194.394 255.917 194.35 255.526 194.352 255.142C193.946 255.919 193.54 256.696 193.097 257.542C192.848 257.355 192.565 257.222 192.398 257.001C190.096 253.973 187.68 251.005 186.571 247.272C185.793 244.654 186.15 242.13 187.367 239.703C188.281 237.877 189.226 236.064 190.032 234.19C190.36 233.428 190.356 232.523 190.503 231.683C190.541 231.043 190.501 230.388 190.629 229.766C191.246 226.76 191.239 223.718 191.275 220.673C191.281 220.119 191.536 219.531 191.8 219.024C192.665 217.367 193.608 215.752 194.471 214.095C194.681 213.693 194.698 213.191 194.803 212.735C194.713 212.703 194.623 212.671 194.533 212.639C193.522 214.16 192.51 215.68 191.499 217.201C191.369 217.14 191.238 217.078 191.108 217.016C191.359 216.313 191.61 215.608 191.875 214.865C191.794 214.827 191.657 214.762 191.706 214.785C191.096 211.222 191.941 207.687 190.984 204.233C190.398 202.118 189.454 200.194 188.431 198.252C186.474 194.535 184.6 190.747 183.072 186.839C181.857 183.732 181.719 180.361 182.193 177.018C182.693 173.489 183.13 169.949 183.727 166.436C184.079 164.368 184.67 162.34 185.195 160.304C185.307 159.87 185.597 159.481 185.932 158.824C186.846 159.848 187.582 160.771 188.418 161.589C190.309 163.439 192.125 165.398 194.199 167.02C197.43 169.546 200.803 171.901 204.212 174.183C205.829 175.266 207.728 175.918 209.391 176.942C210.976 177.917 212.537 178.995 213.902 180.253C216.26 182.427 218.214 184.954 219.603 187.954C218.801 188.498 218.026 189.023 217.251 189.549C217.288 189.613 217.325 189.677 217.361 189.741C218.833 189.095 220.291 188.417 221.778 187.807C228.171 185.186 234.804 184.044 241.661 185.134C245.674 185.772 249.476 187.225 253.116 189.298C253.313 189.133 253.541 188.942 253.882 188.656C253.279 188.551 252.838 188.473 252.384 188.394C252.138 188.07 251.893 187.745 251.603 187.363C253.272 184.554 255.203 182.04 257.545 179.742C259.485 177.839 261.836 176.873 264.119 175.68C269.194 173.027 273.668 169.514 278.061 165.895C279.91 164.373 281.618 162.681 283.406 161.084C283.929 160.617 284.503 160.21 285.253 159.62C286.119 162.624 287.064 165.319 287.654 168.09C288.451 171.844 288.899 175.654 289.014 179.515C289.136 183.578 288.093 187.298 286.315 190.86C284.765 193.964 283.137 197.029 281.532 200.106C280.469 202.145 279.41 204.187 278.307 206.205C277.332 207.987 277.162 209.93 277.022 211.894C276.997 212.233 276.788 212.559 276.664 212.891C276.468 212.542 276.273 212.193 276.076 211.845C275.98 211.888 275.884 211.931 275.788 211.973C275.904 212.285 276.022 212.597 276.14 212.908C277.195 215.121 277.339 217.501 277.428 219.892C277.498 221.791 277.875 223.601 278.74 225.326C279.418 226.677 279.981 228.096 280.469 229.528C280.694 230.193 280.616 230.96 280.675 231.682C280.819 234.468 282.093 236.829 283.479 239.15C285.433 242.425 285.483 245.811 283.885 249.199ZM262.753 271.74H259.208C260.141 270.325 260.896 269.175 261.75 267.879C263.231 269.041 262.521 270.431 262.753 271.74ZM262.069 267.342C263.349 265.322 264.464 263.563 265.578 261.804C265.677 261.823 265.775 261.843 265.874 261.864C266.264 264.074 265.901 266.259 265.556 268.752C264.324 268.254 263.309 267.844 262.069 267.342ZM262.716 275.28C262.207 275.932 261.705 276.574 261.203 277.217C261.074 277.181 260.944 277.144 260.815 277.108C260.586 275.792 260.359 274.476 260.102 272.989H263.448C263.342 273.652 263.272 274.097 263.186 274.639C262.823 274.544 262.568 274.477 262.265 274.399C262.418 274.698 262.546 274.947 262.716 275.28ZM259.582 279.52C259.261 278.455 259.329 277.498 259.674 276.545C260.394 277.341 260.391 278.47 259.582 279.52ZM263.985 272.913C264.001 272.743 264.019 272.571 264.035 272.401H264.507C264.363 272.624 264.251 272.794 264.141 272.964C264.09 272.947 264.037 272.931 263.985 272.913ZM266.633 261.251C268.28 261.635 268.481 263.62 267.247 266.322C266.998 265.977 266.668 265.73 266.658 265.471C266.604 264.107 266.633 262.741 266.633 261.251ZM210.106 278.749C209.265 277.563 209.366 276.414 210.24 275.964V272.913C210.343 272.917 210.445 272.923 210.547 272.928C210.388 274.867 210.725 276.839 210.106 278.749ZM207.565 273.392C207.341 273.572 207.117 273.754 206.894 273.934C206.689 273.432 206.484 272.931 206.214 272.268H209.69C209.421 273.753 209.185 275.059 208.921 276.513C207.774 275.97 207.356 275.165 207.149 274.199C207.354 274.01 207.558 273.821 207.762 273.632C207.696 273.552 207.631 273.472 207.565 273.392ZM205.852 271.608C205.567 271.291 205.282 270.972 204.997 270.655C205.023 270.565 205.049 270.474 205.074 270.384C205.024 270.476 204.974 270.568 204.924 270.659C204.79 270.652 204.656 270.645 204.522 270.637C204.578 270.166 204.634 269.695 204.69 269.223C204.994 268.304 205.79 268.288 206.654 268.142V271.662C206.4 271.644 206.126 271.627 205.852 271.608ZM205.918 272.202C205.868 272.226 205.817 272.251 205.767 272.276C205.631 272.09 205.495 271.903 205.264 271.588C205.558 271.611 205.709 271.624 205.852 271.634C205.874 271.823 205.896 272.012 205.918 272.202ZM203.155 265.609C203.58 266.748 203.958 267.764 204.337 268.778C204.304 268.98 204.271 269.182 204.186 269.696C203.785 268.797 203.503 268.164 203.221 267.532C203.13 266.939 202.491 266.36 203.155 265.609ZM202.734 265.385C201.576 262.751 201.815 260.784 203.303 260.418C203.303 261.942 203.314 263.457 203.282 264.969C203.28 265.09 202.982 265.204 202.734 265.385ZM204.304 267.631V261.157C204.361 261.126 204.417 261.097 204.474 261.068C204.597 261.407 204.72 261.747 204.844 262.088C205.016 262.172 205.249 262.222 205.332 262.361C206.117 263.674 206.873 265.002 207.671 266.383C206.745 267.253 205.703 267.589 204.304 267.631ZM209.47 270.041C209.797 270.243 210.122 270.447 210.449 270.649C210.396 270.779 210.344 270.908 210.292 271.038H207.207C207.314 269.732 206.9 268.423 208.087 267.25C208.671 268.174 209.579 268.712 209.479 269.836L208.802 270.281C209.025 270.201 209.248 270.121 209.47 270.041ZM286.049 243.439C285.886 240.206 283.906 237.981 282.692 235.41C282.157 234.274 281.714 233.153 281.799 231.857C281.908 230.156 281.431 228.66 280.603 227.11C279.642 225.313 279.212 223.231 278.551 221.273C278.65 221.184 278.749 221.096 278.848 221.007C286.868 222.584 294.889 224.161 303.228 225.801C297.42 231.765 291.84 237.493 286.049 243.439Z" fill="black"/>
<path d="M196.554 202.532C197.09 204.208 197.922 205.683 199.688 206.372C199.899 206.431 200.109 206.489 200.32 206.548C200.342 206.47 200.365 206.393 200.387 206.315C200.148 206.202 199.908 206.089 199.668 205.975C198.463 205.02 197.77 203.79 197.513 202.124C199.677 203.078 201.685 203.054 203.697 202.44C203.699 202.348 203.701 202.257 203.704 202.166H202.023C204.209 199.745 206.577 197.879 208.979 196.053C209.068 195.986 209.31 196.12 209.48 196.16C209.586 196.497 209.693 196.834 209.799 197.171C209.902 197.138 210.006 197.105 210.109 197.072C210.076 196.857 210.042 196.642 210.009 196.427C209.958 194.165 208.963 192.279 207.497 190.58C207.556 190.501 207.614 190.422 207.672 190.343C208.936 190.449 210.199 190.554 211.716 190.681C210.486 189.58 209.207 189.507 208.035 189.412C206.764 188.421 205.567 187.488 204.37 186.554C204.383 186.476 204.396 186.398 204.408 186.319C206.016 186.229 207.624 186.138 209.232 186.048C209.242 185.948 209.251 185.849 209.261 185.75C208.282 185.574 207.303 185.399 206.239 185.208C204.475 182.621 203.215 179.573 200.815 177.192C199.559 178.579 198.423 179.834 197.235 181.145C194.142 177.653 191.137 174.262 188.133 170.87C188.965 180.359 189.985 189.665 191.67 199.107C193.446 197.373 195.017 195.84 196.773 194.126C197.009 196.472 197.216 198.523 197.447 200.809C196.887 200.391 196.53 200.126 195.928 199.676C196.17 200.805 196.286 201.693 196.554 202.532ZM192.283 197.003C191.702 193.092 191.128 189.393 190.613 185.684C190.39 184.081 190.289 182.461 190.133 180.849C189.817 178.527 189.501 176.205 189.185 173.882C189.25 173.842 189.316 173.802 189.381 173.762C191.149 175.823 192.917 177.883 194.684 179.944C195.559 180.686 196.433 181.429 197.423 182.27C198.345 181.262 199.484 180.016 200.729 178.654C202.547 180.632 203.595 182.957 204.987 185.256C203.934 185.525 203.015 185.76 201.897 186.046C203.548 187.178 205.031 188.194 206.663 189.313C206.12 189.722 205.774 189.983 205.268 190.364C206.975 191.435 208.264 192.756 208.778 194.671C206.062 197.03 203.368 199.372 200.512 201.854C200.061 201.76 199.406 201.623 198.618 201.459C198.268 198.414 197.92 195.39 197.536 192.051C195.682 193.799 194.065 195.323 192.283 197.003Z" fill="black"/>
<path d="M274.675 193.88C276.457 195.616 278.026 197.145 279.785 198.86C281.419 189.345 282.506 180.06 283.515 170.766C283.432 170.723 283.351 170.68 283.268 170.637C280.259 174.038 277.25 177.44 274.205 180.884C272.949 179.51 271.807 178.261 270.599 176.938C268.21 179.373 266.937 182.375 265.155 185.015C264.136 185.226 263.019 184.961 262.122 185.778C263.832 185.886 265.443 185.988 267.053 186.089C267.04 186.174 267.029 186.259 267.016 186.344C265.802 187.285 264.587 188.226 263.385 189.157C262.118 189.256 260.874 189.363 259.719 190.418C261.254 190.303 262.53 190.208 263.804 190.112C263.838 190.213 263.87 190.313 263.903 190.413C262.394 192.049 261.508 193.942 261.424 196.168C261.409 196.399 261.393 196.629 261.377 196.86C261.476 196.873 261.575 196.886 261.674 196.899C261.746 196.642 261.818 196.386 261.891 196.13C261.994 195.972 262.098 195.813 262.22 195.626C264.779 197.552 267.222 199.446 269.389 201.934H267.729C269.755 202.844 271.792 202.772 273.956 201.892C273.614 203.55 272.961 204.789 271.765 205.718C271.757 205.851 271.75 205.983 271.744 206.115C274.513 204.833 275.025 202.309 275.453 199.456C274.903 199.868 274.547 200.134 273.978 200.559C274.219 198.245 274.436 196.176 274.675 193.88ZM273.904 191.796C273.525 195.072 273.176 198.087 272.817 201.188C272.075 201.352 271.388 201.504 270.903 201.611C268.086 199.153 265.447 196.85 262.754 194.502C262.882 193.19 263.055 192.948 266.054 190.024C265.709 189.782 265.379 189.551 264.942 189.245C266.143 187.686 267.935 186.949 269.712 185.826C268.536 185.53 267.568 185.287 266.467 185.01C267.791 182.718 268.861 180.405 270.678 178.394C271.913 179.735 273.06 180.979 274.12 182.13C274.974 181.338 275.75 180.619 276.525 179.901C278.36 177.782 280.194 175.663 282.028 173.544L282.267 173.641C281.855 176.562 281.442 179.484 281.029 182.406C280.851 184.27 280.735 186.143 280.482 187.996C280.093 190.834 279.61 193.658 279.131 196.719C277.406 195.095 275.788 193.571 273.904 191.796Z" fill="black"/>
<path d="M270.259 231.139C270.538 230.712 271.03 230.424 271.424 230.073C271.375 229.278 270.951 229.739 270.659 229.858C269.799 230.206 268.974 230.77 268.088 230.888C266.53 231.096 264.935 231.036 263.356 231.088C263.156 231.055 262.955 231.022 262.755 230.989C262.579 230.972 262.405 230.955 262.23 230.938C262.248 230.61 262.267 230.282 262.284 229.953L262.398 229.954L262.507 229.924C263.108 229.756 263.72 229.62 264.307 229.412C265.641 228.939 266.963 228.431 268.332 227.921C268.188 227.745 268.12 227.625 268.094 227.633C266.221 228.246 264.352 228.869 262.482 229.491C261.954 229.616 261.415 229.711 260.9 229.875C260.051 230.146 259.051 230.171 258.61 231.172C258.679 231.238 258.745 231.304 258.814 231.37C259.069 231.16 259.323 230.95 259.6 230.722H260.681C260.684 230.712 260.688 230.704 260.691 230.695C260.857 230.776 261.021 230.858 261.187 230.94C261.183 230.94 261.19 230.94 261.187 230.94C261.257 231.349 261.248 231.784 261.396 232.164C261.951 233.583 262.098 235.021 261.75 236.5L261.344 237.398L260.796 238.482L260.272 239.188C260.272 239.188 259.642 239.998 259.671 239.968C258.901 240.323 257.775 240.835 256.876 241.248C256.874 241.25 256.877 241.247 256.876 241.248C255.207 241.209 253.542 241.167 251.874 241.127C250.81 240.758 249.746 240.388 248.53 239.966C249.105 239.409 249.49 239.034 249.877 238.657C249.831 238.615 249.784 238.571 249.742 238.524C249.013 238.83 248.284 239.135 247.555 239.441C246.609 239.54 245.664 239.639 244.718 239.736C244.169 239.72 243.619 239.677 243.069 239.69C241.4 239.731 239.793 239.514 238.33 238.632C238.066 238.308 237.801 237.982 237.459 237.563C237.753 236.665 238.057 235.742 238.359 234.818L238.307 234.29C238.373 234.231 238.447 234.219 238.528 234.252C238.618 234.164 238.704 234.081 238.793 233.992C238.851 233.832 238.908 233.672 238.966 233.512C239.246 232.685 239.617 231.875 239.782 231.025C240.011 229.854 240.053 228.649 240.229 227.467C240.578 225.134 241.997 223.348 243.296 221.494C243.692 220.93 243.907 220.239 244.206 219.606C244.044 219.612 243.883 219.618 243.723 219.624C243.686 219.785 243.691 219.974 243.605 220.104C242.34 222.044 241.063 223.977 239.788 225.911C239.74 226.23 239.694 226.549 239.646 226.868C239.292 229.091 238.94 231.313 238.586 233.535C238.435 233.765 238.284 233.996 238.133 234.226C237.738 235.159 237.281 236.073 236.967 237.033C236.712 237.807 236.942 238.468 237.86 238.679C239.182 240.152 241.099 239.851 242.819 240.203C242.388 241.059 242.017 241.792 241.648 242.526C241.221 242.699 240.794 242.873 240.366 243.048C238.722 243.215 237.513 244.116 236.5 245.347C236.827 245.246 237.155 245.146 237.482 245.047C238.441 244.468 239.4 243.89 240.359 243.313C240.788 243.051 241.219 242.788 241.648 242.526C242.279 241.749 242.919 240.969 243.538 240.209H247.049C247.002 240.326 246.954 240.442 246.906 240.56C246.574 240.867 246.241 241.174 245.749 241.628C246.179 241.903 246.464 242.086 246.749 242.268C246.865 242.251 246.982 242.233 247.098 242.214C246.925 242.063 246.752 241.91 246.589 241.766C246.798 241.41 246.976 241.11 247.154 240.81L247.571 240.366C247.897 240.391 248.286 240.308 248.54 240.457C251.019 241.896 253.675 241.973 256.401 241.532C256.444 241.525 256.486 241.51 256.527 241.49C257.295 241.41 258.185 241.053 258.898 240.589L259.875 240.036L260.608 239.138L261.356 237.634L262.037 236.176C262.067 236.116 262.095 236.058 262.12 235.998L262.13 235.975C262.462 235.133 262.201 234.212 262.155 233.321C262.134 232.954 262.045 232.591 261.987 232.227C261.917 232 261.846 231.774 261.708 231.333H269.507C269.168 232.039 268.878 232.857 268.411 233.556C267.807 234.459 267.059 235.265 266.374 236.115C266.208 236.39 266.053 236.656 265.888 236.931C265.027 237.983 264.162 239.032 263.307 240.088C263.013 240.451 262.742 240.833 262.462 241.206C262.288 241.375 262.115 241.543 261.942 241.714C261.087 242.402 260.231 243.092 259.376 243.78C255.585 244.743 251.942 244.33 248.425 242.641C248.011 242.441 247.542 242.354 247.098 242.214C246.982 242.233 246.865 242.251 246.749 242.268C248.71 243.041 250.616 244.117 252.65 244.497C254.561 244.855 256.61 244.494 258.596 244.401C258.898 244.387 259.188 244.11 259.485 243.954C260.361 243.273 261.236 242.591 262.114 241.909C262.296 241.74 262.479 241.573 262.661 241.404C264.899 239.246 266.898 236.893 268.485 234.21C269.088 233.193 269.614 232.127 270.259 231.139ZM238.234 234.218L238.194 234.22C238.215 234.219 238.234 234.218 238.234 234.218Z" fill="black"/>
<path d="M221.218 242.675L221.211 242.708L221.237 242.701L221.258 242.686L221.218 242.675Z" fill="black"/>
<path d="M208.669 243.031C207.518 242.292 206.623 241.151 205.611 240.194C205.182 239.944 204.752 239.695 204.323 239.445C204.33 239.178 204.337 238.914 204.343 238.647L204.334 238.636C204.212 238.592 204.09 238.548 203.968 238.505L203.578 238.196C203.649 238.355 203.72 238.513 203.791 238.671C203.967 238.928 204.147 239.189 204.323 239.445C204.316 239.442 204.305 239.435 204.298 239.43C204.353 239.618 204.409 239.806 204.464 239.993L204.534 240.069C204.727 240.281 204.919 240.494 205.112 240.706C205.188 240.801 205.263 240.897 205.339 240.993C205.713 241.397 206.088 241.8 206.463 242.205L207.657 243.308C208.714 243.722 209.741 244.261 210.834 244.528C214.457 245.412 217.797 244.156 221.132 242.986C221.183 242.967 221.19 242.822 221.209 242.714C219.902 243.041 218.589 243.344 217.291 243.705C214.328 244.526 211.374 244.767 208.669 243.031Z" fill="black"/>
<path d="M273.091 250.879C272.161 252.091 271.23 253.303 270.176 254.675C269.375 253.806 268.771 253.153 268.167 252.498C268.142 252.359 268.119 252.219 268.094 252.079C268.039 252.087 267.984 252.095 267.93 252.103C267.95 252.251 267.972 252.399 267.992 252.546C268.398 253.288 268.71 254.106 269.23 254.755C270.358 256.165 271.593 257.489 272.728 258.781C272.931 257.352 271.881 256.321 271.032 255.152C272.26 253.982 273.271 252.749 273.091 250.879Z" fill="black"/>
<path d="M216.883 187.282V188.22C217.001 188.226 217.119 188.233 217.236 188.239C217.629 188.029 218.022 187.819 218.594 187.514C217.26 186.078 216.048 184.773 214.836 183.468C214.762 183.516 214.689 183.564 214.615 183.612C215.253 185.158 215.287 186.71 214.461 188.441C215.417 187.984 216.081 187.666 216.883 187.282Z" fill="black"/>
<path d="M255.431 183.45C254.497 184.568 253.723 185.73 252.972 186.907C252.899 187.023 252.978 187.236 252.985 187.404V188.076C253.04 188.082 253.096 188.088 253.151 188.094C253.192 187.882 253.234 187.671 253.275 187.459C254.095 187.811 254.916 188.163 255.932 188.599C254.737 186.936 255.04 185.223 255.431 183.45Z" fill="black"/>
<path d="M276.23 229.876C277.319 230.19 278.407 230.504 279.495 230.818C279.365 230.115 279.234 229.412 279.072 228.547C278.042 229.029 277.135 229.453 276.23 229.876Z" fill="black"/>
<path d="M191.699 230.818C192.788 230.505 193.876 230.191 194.965 229.878C194.059 229.453 193.154 229.029 192.124 228.546C191.962 229.412 191.831 230.115 191.699 230.818Z" fill="black"/>
<path d="M250.65 238.141C250.724 238.156 250.791 238.185 250.852 238.227C251.287 237.894 251.724 237.562 252.168 237.221C252.645 237.421 253.092 237.658 253.567 237.795C255.236 238.276 256.854 237.409 257.333 235.814C257.425 235.822 257.516 235.828 257.608 235.835C257.604 235.745 257.599 235.654 257.595 235.564C257.685 235.569 257.777 235.573 257.867 235.577C257.861 235.487 257.857 235.395 257.851 235.305C257.943 235.31 258.033 235.315 258.124 235.321C258.119 235.23 258.114 235.139 258.11 235.048C258.2 235.052 258.29 235.056 258.381 235.061C258.373 234.966 258.366 234.872 258.359 234.779C258.654 234.6 258.954 234.419 259.409 234.144C258.83 233.419 258.42 232.905 257.993 232.369C258.074 232.241 258.186 232.063 258.298 231.886C258.469 231.714 258.641 231.541 258.814 231.369C258.746 231.304 258.679 231.238 258.61 231.172C258.44 231.344 258.268 231.517 258.098 231.689C255.581 233.796 253.065 235.903 250.548 238.01C250.281 238.18 250.011 238.352 249.742 238.524C249.784 238.57 249.829 238.614 249.878 238.656C250.135 238.484 250.393 238.313 250.65 238.141ZM258.33 234.157V234.796C258.335 234.792 258.353 234.781 258.359 234.779C258.276 234.863 258.193 234.962 258.11 235.048C258.027 235.131 257.934 235.221 257.851 235.305L257.836 235.304C257.755 235.387 257.676 235.481 257.595 235.564C257.51 235.644 257.423 235.714 257.34 235.796C257.34 235.798 257.342 235.791 257.34 235.796C256.911 235.682 256.483 235.557 256.071 235.448C256.284 233.977 256.758 233.734 258.33 234.157ZM255.197 235.787C255.27 235.87 255.342 235.954 255.417 236.039C255.302 236.309 255.225 236.779 255.063 236.811C254.721 236.878 254.334 236.717 253.966 236.648C253.962 236.474 253.957 236.299 253.954 236.124C254.368 236.012 254.782 235.899 255.197 235.787Z" fill="black"/>
<path d="M228.517 223.42C228.43 223.424 228.344 223.428 228.258 223.432C228.349 223.529 228.44 223.627 228.531 223.725C228.526 223.623 228.521 223.522 228.517 223.42Z" fill="black"/>
<path d="M203.552 238.14L203.492 238.044L203.531 238.16L203.578 238.197L203.552 238.14Z" fill="black"/>
<path d="M225.643 258.046C225.568 258.143 225.493 258.239 225.418 258.337C226.277 259.043 227.135 259.75 228.002 260.463C228.43 261.941 229.309 263.101 230.354 264.139C230.451 264.075 230.547 264.013 230.644 263.949C229.854 262.631 229.063 261.312 228.098 259.7C227.481 259.284 226.562 258.666 225.643 258.046Z" fill="black"/>
<path d="M253.423 246.728C251.095 246.48 248.787 246.037 246.471 245.676C246.159 245.677 245.848 245.679 245.537 245.68C245.535 245.798 245.535 245.914 245.535 246.032C245.768 246.028 246.001 246.025 246.234 246.021C248.659 246.444 251.073 246.994 253.517 247.244C254.948 247.39 256.426 247.058 257.882 246.94C257.796 246.856 257.711 246.771 257.625 246.687C256.224 246.712 254.808 246.875 253.423 246.728Z" fill="black"/>
<path d="M223.315 245.639C220.484 245.866 217.669 246.278 214.848 246.617L212.572 246.615C211.014 246.2 209.456 245.787 207.898 245.374C208.114 245.62 208.29 246.017 208.552 246.086C209.788 246.406 211.047 246.636 212.299 246.896C213.324 246.894 214.35 246.893 215.375 246.89C216.236 246.81 217.097 246.73 217.958 246.65C218.144 246.595 218.329 246.538 218.515 246.481C221.009 246.097 223.508 245.61 225.938 246.788C225.384 245.681 224.27 245.562 223.315 245.639Z" fill="black"/>
<path d="M225.793 251.545C227.329 252.11 227.732 253.434 228.102 254.818C228.219 255.258 228.471 255.673 228.72 256.062C228.851 256.268 229.107 256.395 229.468 256.687C228.835 255.03 228.311 253.659 227.758 252.21C227.045 251.774 226.256 251.291 225.467 250.808C225.417 250.876 225.366 250.946 225.316 251.014C225.474 251.196 225.596 251.474 225.793 251.545Z" fill="black"/>
<path d="M227.755 240.979C227.477 240.436 227.859 240.266 228.25 240.247C229.676 240.174 230.623 239.275 231.592 238.397C232.594 237.756 232.355 236.816 232.229 235.831C232.021 235.646 231.803 235.444 231.575 235.253C230.45 234.315 229.93 233.134 230.043 231.654C230.095 230.978 230.029 230.292 230.017 229.611C230.011 228.525 230.006 227.438 230.001 226.352C229.672 225.565 229.344 224.778 229.016 223.991L228.89 223.999L228.765 223.984C228.681 223.891 228.596 223.798 228.512 223.705L228.531 223.724C228.44 223.627 228.349 223.529 228.257 223.431L228.284 223.464C228.189 223.366 228.094 223.269 227.998 223.172L228.039 223.21C228.009 222.969 227.979 222.727 227.949 222.485C227.809 222.456 227.666 222.425 227.525 222.397C227.503 222.249 227.481 222.102 227.459 221.954C227.22 221.854 226.98 221.754 226.74 221.655L226.107 220.48L226.077 220.45C225.84 220.345 225.603 220.24 225.367 220.135C225.738 220.638 226.11 221.142 226.481 221.645C226.781 222.247 226.993 222.918 227.397 223.439C228.889 225.363 229.668 227.483 229.451 229.937C229.263 232.069 229.433 234.069 231.094 235.719C231.693 236.314 231.956 237.2 231.264 238.023C230.314 238.565 229.406 239.464 228.406 239.582C225.367 239.938 222.354 239.583 219.508 238.319C218.65 237.745 217.793 237.171 216.936 236.596C215.814 235.655 214.692 234.713 213.57 233.77C213.321 233.599 213.073 233.427 212.824 233.255C212.724 233.169 212.625 233.084 212.525 232.998C212.45 232.937 212.374 232.875 212.299 232.814L212.21 232.753C212.081 232.661 211.952 232.569 211.823 232.477L211.78 232.439C211.463 231.522 210.76 231.095 209.856 230.926C209.74 231.778 210.408 232.083 210.939 232.485C210.987 232.714 211.127 232.971 211.069 233.168C210.598 234.757 210.713 235.151 212.016 236.165C212.386 236.453 212.75 236.747 213.109 237.049C214.564 238.268 215.417 238.304 216.982 237.206C217.714 237.778 218.446 238.349 219.165 238.911V240.316C218.627 240.629 218.084 240.944 217.541 241.258C217.603 241.293 217.631 241.345 217.626 241.415C217.515 241.379 217.403 241.341 217.291 241.304C216.985 241.37 216.678 241.435 216.371 241.501C216.017 241.502 215.663 241.504 215.309 241.504C214.821 241.472 214.334 241.44 213.847 241.406C213.706 241.405 213.564 241.402 213.423 241.4C213.42 241.351 213.436 241.309 213.468 241.272C212.879 241.037 212.289 240.802 211.699 240.567L210.965 239.954C210.884 239.874 210.803 239.793 210.722 239.713C210.721 239.726 210.722 239.736 210.721 239.748L210.444 239.513L209.135 237.719L208.196 236.408L207.859 235.498C207.828 235.323 207.798 235.15 207.767 234.975C207.745 233.929 207.723 232.883 207.702 231.837C207.697 231.625 207.692 231.413 207.687 231.201C207.938 231.115 208.188 231.029 208.439 230.943C208.439 230.939 208.439 230.946 208.439 230.943C208.745 230.849 209.051 230.766 209.357 230.673C209.052 230.451 208.747 230.23 208.442 230.009C206.298 229.214 204.154 228.418 202.01 227.623L202.029 228.078C203.79 228.83 205.55 229.582 207.664 230.485C207.168 230.815 206.895 230.998 206.621 231.18C206.118 231.177 205.615 231.174 205.112 231.17C204.92 231.163 204.728 231.156 204.536 231.148C203.604 231.067 202.67 231.004 201.74 230.901C200.49 230.762 199.167 230.869 198.145 229.902C197.981 229.739 197.816 229.575 197.652 229.412C197.647 229.659 197.642 229.906 197.637 230.153C197.705 230.182 197.776 230.193 197.849 230.189C199.007 231.67 200.206 233.12 201.309 234.641C202.1 235.729 202.773 236.903 203.493 238.044C203.251 237.308 203.008 236.571 202.766 235.835C201.754 234.358 200.742 232.881 199.565 231.164C202.323 231.384 204.835 231.584 207.348 231.784C207.426 232.894 207.503 234.005 207.581 235.115C207.571 235.284 207.561 235.452 207.55 235.62C207.561 235.652 207.571 235.684 207.581 235.717L207.796 236.554L209.179 238.713L210.502 240.194L211.728 240.989C212.079 241.398 212.711 241.4 213.171 241.652C214.714 242.234 216.263 242.231 217.817 241.697C218.894 241.211 219.972 240.725 221.049 240.241L222.409 241.205C222.125 241.625 221.841 242.044 221.558 242.464C221.46 242.538 221.363 242.614 221.266 242.688C221.362 242.716 221.457 242.743 221.553 242.77C222.087 242.47 222.622 242.17 223.366 241.751C222.927 241.478 222.711 241.344 222.496 241.21C222.35 240.814 222.204 240.418 221.991 239.839C223.644 239.98 225.145 240.107 226.666 240.235C226.918 240.539 227.159 240.829 227.4 241.12C228.843 242.108 230.284 243.1 231.732 244.081C232.104 244.332 232.499 244.549 232.884 244.782C233.218 244.922 233.551 245.063 233.885 245.201C233.988 245.246 234.092 245.29 234.195 245.335C234.444 245.332 234.693 245.33 234.941 245.328C234.706 245.117 234.499 244.858 234.231 244.702C232.079 243.451 229.915 242.217 227.755 240.979ZM212.901 235.956C212.482 235.569 212.119 235.233 211.727 234.872C211.896 234.53 211.988 234.345 212.114 234.089H213.046C213.276 234.462 213.497 234.821 213.761 235.25C213.492 235.471 213.245 235.674 212.901 235.956ZM214.445 237.18C214.621 236.584 214.737 236.19 214.854 235.796C214.975 235.796 215.097 235.797 215.219 235.799C215.381 236.141 215.543 236.483 215.774 236.97C215.299 237.046 215.001 237.092 214.445 237.18Z" fill="black"/>
<path d="M242.23 259.526C241.927 259.734 241.565 259.957 241.412 260.262C240.868 261.352 240.395 262.478 239.91 263.599C239.81 263.833 239.776 264.098 239.711 264.348C239.817 264.393 239.922 264.438 240.027 264.483C240.766 263.107 241.503 261.729 242.392 260.07C242.695 259.837 243.293 259.378 243.891 258.916C243.802 258.836 243.715 258.756 243.626 258.678C243.159 258.959 242.678 259.219 242.23 259.526Z" fill="black"/>
<path d="M243.367 245.671C243.422 245.554 243.476 245.436 243.532 245.319C243.072 244.905 242.611 244.49 242.161 244.084C240.902 243.928 239.735 243.93 238.957 245.13C239.231 245.095 239.504 245.06 239.778 245.027C241.141 243.832 242.221 245.038 243.367 245.671Z" fill="black"/>
<path d="M258.364 246.617C258.119 246.64 257.875 246.664 257.629 246.687C257.715 246.771 257.801 246.856 257.886 246.94C258.041 246.918 258.193 246.895 258.348 246.873C259.726 246.69 261.06 246.394 262.333 245.398C261.982 245.338 261.86 245.318 261.736 245.296L258.364 246.617Z" fill="black"/>
<path d="M227.492 244.92C227.553 245.021 227.614 245.12 227.675 245.22C228.089 244.997 228.503 244.775 229.055 244.478C229.325 244.594 229.692 244.752 230.059 244.91C230.49 244.976 230.922 245.041 231.353 245.107C230.61 244.631 229.867 244.155 229.121 243.678C228.455 244.187 227.974 244.554 227.492 244.92Z" fill="black"/>
<path d="M242.027 247.417L242.217 247.69C243.324 247.138 244.432 246.585 245.54 246.032C245.541 245.915 245.541 245.798 245.541 245.68C244.699 246.023 243.855 246.366 243.011 246.708C242.684 246.944 242.355 247.181 242.027 247.417Z" fill="black"/>
<path d="M244.117 197.351C244.891 196.393 245.699 195.395 246.505 194.396C245.174 194.743 244.124 196.064 244.117 197.351Z" fill="black"/>
<path d="M242.412 252.434C242.316 252.895 242.218 253.357 242.122 253.818C241.568 254.742 241.22 255.736 241.02 256.788C241.76 256.019 242.365 255.199 242.402 254.102C242.412 253.767 242.422 253.432 242.432 253.098C243.38 252.3 244.325 251.503 245.272 250.704C245.2 250.614 245.127 250.522 245.053 250.431C244.173 251.099 243.292 251.766 242.412 252.434Z" fill="black"/>
<path d="M225.488 261.105C225.842 261.459 226.195 261.813 226.6 262.217C226.635 261.514 226.264 261.143 225.488 261.105Z" fill="black"/>
<path d="M228.018 197.884C227.769 196.492 227.205 195.544 226.259 194.816C226.157 194.746 226.055 194.676 225.742 194.461C225.911 194.808 225.959 194.907 226.007 195.005C226.634 195.903 227.261 196.801 228.018 197.884Z" fill="black"/>
<path d="M243.633 258.677C243.722 258.756 243.81 258.836 243.899 258.914C244.206 258.668 244.512 258.423 244.819 258.175C244.728 258.073 244.638 257.97 244.549 257.868C244.244 258.137 243.938 258.407 243.633 258.677Z" fill="black"/>
<path d="M271.027 206.107C271.065 206.181 271.103 206.255 271.139 206.33C271.34 206.258 271.54 206.187 271.74 206.116C271.748 205.983 271.753 205.851 271.761 205.719C271.516 205.848 271.272 205.977 271.027 206.107Z" fill="black"/>
<path d="M242.609 261.79C242.707 261.874 242.803 261.958 242.9 262.043C243.129 261.845 243.357 261.647 243.587 261.449C243.461 261.324 243.334 261.2 243.206 261.075C243.008 261.314 242.809 261.552 242.609 261.79Z" fill="black"/>
<path d="M260.719 262.83L260.67 262.853L260.641 262.938L260.692 262.878L260.719 262.83Z" fill="black"/>
<path d="M242.227 262.394C242.307 262.453 242.387 262.513 242.467 262.573C242.538 262.408 242.611 262.244 242.682 262.079C242.627 262.049 242.571 262.02 242.518 261.989C242.42 262.123 242.323 262.258 242.227 262.394Z" fill="black"/>
<path d="M201.475 252.298C201.219 252.642 200.963 252.987 200.707 253.332C200.316 253.699 199.925 254.065 199.532 254.435C197.336 252.903 196.788 250.68 196.384 248.366C195.488 251.134 196.561 253.303 198.415 254.998C197.867 256.166 197.389 257.188 196.91 258.208V259.25C197.087 258.927 197.139 258.832 197.191 258.737C197.806 257.895 198.41 257.045 199.041 256.216C199.695 255.355 200.376 254.512 201.046 253.662C201.212 253.23 201.379 252.798 201.546 252.366L201.676 251.973C201.639 251.964 201.601 251.956 201.564 251.946C201.534 252.063 201.504 252.18 201.475 252.298Z" fill="black"/>
<path d="M260.727 262.827C260.758 262.811 260.774 262.804 260.727 262.827V262.827Z" fill="black"/>
<path d="M225.455 194.389L225.43 194.361L225.375 194.333L225.407 194.38L225.455 194.389Z" fill="black"/>
<path d="M246.555 194.332L246.525 194.36L246.504 194.385L246.545 194.373L246.555 194.332Z" fill="black"/>
<path d="M246.559 194.326C246.566 194.298 246.57 194.285 246.559 194.326V194.326Z" fill="black"/>
<path d="M225.372 194.331C225.334 194.311 225.346 194.317 225.372 194.331V194.331Z" fill="black"/>
<path d="M225.374 194.328C225.351 194.294 225.358 194.305 225.374 194.328V194.328Z" fill="black"/>
<path d="M207.929 245.076C207.827 245.123 207.725 245.169 207.5 245.271C207.718 245.326 207.813 245.35 207.908 245.373C207.915 245.274 207.922 245.175 207.929 245.076Z" fill="black"/>
<path d="M204.828 262.156L204.853 262.097L204.828 262.076V262.156Z" fill="black"/>
<path d="M204.818 263.095V262.156C204.697 262.444 204.577 262.732 204.457 263.021C204.577 263.045 204.697 263.07 204.818 263.095Z" fill="black"/>
<path d="M208.666 270.367L208.709 270.345L208.806 270.281L208.686 270.323L208.666 270.367Z" fill="black"/>
<path d="M205.144 269.979C205.128 270.092 205.113 270.202 205.098 270.313C205.155 270.222 205.213 270.132 205.271 270.041C205.228 270.02 205.186 270 205.144 269.979Z" fill="black"/>
</g>
<path d="M174.051 74C174.051 60.7452 163.306 50 150.051 50H44.0008C30.746 50 20.0008 60.7452 20.0008 74V99.1811C20.0008 112.436 30.7459 123.181 44.0008 123.181H116.706C117.596 123.181 118.467 123.435 119.218 123.913L142.986 139.043C144.317 139.891 146.06 138.934 146.06 137.356V125.181C146.06 124.077 146.955 123.181 148.06 123.181H150.051C163.306 123.181 174.051 112.436 174.051 99.1811L174.051 74Z" fill="#1168F1"/>
<g opacity="0.5">
<ellipse cx="63.5879" cy="84.8" rx="5.65431" ry="5.8371" fill="#F4F5FA"/>
<ellipse cx="99.8457" cy="84.8" rx="5.65431" ry="5.8371" fill="#F4F5FA"/>
<ellipse cx="136.1" cy="84.8" rx="5.65431" ry="5.8371" fill="#F4F5FA"/>
</g>
<g filter="url(#filter1_d_11500_73256)">
<path d="M260 370C260 352.327 274.327 338 292 338H425.973C443.646 338 457.973 352.327 457.973 370V399.286C457.973 416.959 443.646 431.286 425.973 431.286H345.104C344.2 431.286 343.316 431.548 342.558 432.04L311.809 451.995C310.478 452.859 308.72 451.904 308.72 450.318V435.963C308.72 433.38 306.626 431.286 304.043 431.286H292C274.327 431.286 260 416.959 260 399.286L260 370Z" fill="#FF9900"/>
</g>
<g opacity="0.5">
<ellipse cx="7.43581" cy="7.73321" rx="7.43581" ry="7.73321" transform="matrix(-1 0 0 1 425.492 377.748)" fill="#F4F5FA"/>
<ellipse cx="7.43581" cy="7.73321" rx="7.43581" ry="7.73321" transform="matrix(-1 0 0 1 366.004 377.749)" fill="#F4F5FA"/>
<ellipse cx="7.43581" cy="7.73321" rx="7.43581" ry="7.73321" transform="matrix(-1 0 0 1 306.52 377.749)" fill="#F4F5FA"/>
</g>
<defs>
<filter id="filter0_d_11500_73256" x="0" y="0.558751" width="473" height="473" filterUnits="userSpaceOnUse" color-interpolation-filters="sRGB">
<feFlood flood-opacity="0" result="BackgroundImageFix"/>
<feColorMatrix in="SourceAlpha" type="matrix" values="0 0 0 0 0 0 0 0 0 0 0 0 0 0 0 0 0 0 127 0" result="hardAlpha"/>
<feOffset dy="3.55875"/>
<feGaussianBlur stdDeviation="30"/>
<feColorMatrix type="matrix" values="0 0 0 0 0 0 0 0 0 0.101953 0 0 0 0 0.2625 0 0 0 0.08 0"/>
<feBlend mode="normal" in2="BackgroundImageFix" result="effect1_dropShadow_11500_73256"/>
<feBlend mode="normal" in="SourceGraphic" in2="effect1_dropShadow_11500_73256" result="shape"/>
</filter>
<filter id="filter1_d_11500_73256" x="235.807" y="316.226" width="246.359" height="162.707" filterUnits="userSpaceOnUse" color-interpolation-filters="sRGB">
<feFlood flood-opacity="0" result="BackgroundImageFix"/>
<feColorMatrix in="SourceAlpha" type="matrix" values="0 0 0 0 0 0 0 0 0 0 0 0 0 0 0 0 0 0 127 0" result="hardAlpha"/>
<feOffset dy="2.4193"/>
<feGaussianBlur stdDeviation="12.0965"/>
<feColorMatrix type="matrix" values="0 0 0 0 0 0 0 0 0 0 0 0 0 0 0 0 0 0 0.15 0"/>
<feBlend mode="normal" in2="BackgroundImageFix" result="effect1_dropShadow_11500_73256"/>
<feBlend mode="normal" in="SourceGraphic" in2="effect1_dropShadow_11500_73256" result="shape"/>
</filter>
<radialGradient id="paint0_radial_11500_73256" cx="0" cy="0" r="1" gradientUnits="userSpaceOnUse" gradientTransform="translate(236.5 233.5) scale(145.5)">
<stop stop-color="#D1D1D1"/>
<stop offset="0.15715" stop-color="#BABABA"/>
<stop offset="0.48656" stop-color="#807F7F"/>
<stop offset="0.95753" stop-color="#232222"/>
<stop offset="1" stop-color="#1B1A1A"/>
</radialGradient>
<radialGradient id="paint1_radial_11500_73256" cx="0" cy="0" r="1" gradientUnits="userSpaceOnUse" gradientTransform="translate(211.708 236.898) scale(8.50593 8.50593)">
<stop offset="0.1118" stop-color="#BFFB00"/>
<stop offset="1" stop-color="#678900"/>
</radialGradient>
<linearGradient id="paint2_linear_11500_73256" x1="198.996" y1="201.855" x2="198.996" y2="173.763" gradientUnits="userSpaceOnUse">
<stop stop-color="#474747"/>
<stop offset="1" stop-color="#9FA0A2"/>
</linearGradient>
<linearGradient id="paint3_linear_11500_73256" x1="272.514" y1="201.611" x2="272.514" y2="173.544" gradientUnits="userSpaceOnUse">
<stop stop-color="#474747"/>
<stop offset="1" stop-color="#9FA0A2"/>
</linearGradient>
<radialGradient id="paint4_radial_11500_73256" cx="0" cy="0" r="1" gradientUnits="userSpaceOnUse" gradientTransform="translate(259.22 237.596) scale(9.72362 9.72362)">
<stop offset="0.1118" stop-color="#BFFB00"/>
<stop offset="1" stop-color="#678900"/>
</radialGradient>
<clipPath id="clip0_11500_73256">
<rect width="291" height="291" fill="white" transform="translate(91 88)"/>
</clipPath>
</defs>
</svg>
